<?xml version="1.0" encoding="utf-8"?>
<!-- Generator: Adobe Illustrator 17.1.0, SVG Export Plug-In . SVG Version: 6.00 Build 0)  -->
<!DOCTYPE svg PUBLIC "-//W3C//DTD SVG 1.1//EN" "http://www.w3.org/Graphics/SVG/1.1/DTD/svg11.dtd">
<svg version="1.1" xmlns="http://www.w3.org/2000/svg" xmlns:xlink="http://www.w3.org/1999/xlink" x="0px" y="0px"
	 viewBox="0 0 744 484" enable-background="new 0 0 744 484" xml:space="preserve">
<g id="BASE_LAYER">
	
		<radialGradient id="_x3C_Background_Blend_x3E__1_" cx="-668.5515" cy="441.1411" r="514.6235" gradientTransform="matrix(0.656 0 0 0.5305 810.5602 7.9715)" gradientUnits="userSpaceOnUse">
		<stop  offset="0.1139" style="stop-color:#FFFFFF"/>
		<stop  offset="1" style="stop-color:#DBD8BD"/>
	</radialGradient>
	
		<rect id="_x3C_Background_Blend_x3E_" opacity="0.7" fill-rule="evenodd" clip-rule="evenodd" fill="url(#_x3C_Background_Blend_x3E__1_)" width="744" height="484"/>
	<path id="_x3C_Ohio_State_Land_Fill_x3E_" fill="#FFFFFF" d="M426.8,0c-3.1,2.2-6.3,4.5-12.4,2.1c-0.8-0.3-2.3-0.8-2.7-1.6
		l-0.6,0.5l-0.2-0.6c-0.2-0.1-0.5-0.2-0.7-0.4h-282l-2.6,360.6l0.9,0.1l0.2-0.5c0.5-0.1,2.5-0.6,2.7-0.8c0.7-0.5,1.3-1.9,1.9-2.5
		c0.4-0.4,2-1.7,2.2-2.1c4.8-1.5,6.4,6.4,9.7,8.2c3.4-0.9,3.6,3.8,7.4,4.1c0.8,0.1,1.5-0.6,2.2-0.8c1-0.3,2.3,0,3.2-0.6
		c1.2-0.7,1.6-2.4,2.9-2.9c1.5-0.3,2.3,2.3,5.1,1.2c2.3-0.9,2.1-2.1,3.7-3.5c2-1.9,4.9,0.5,5.4,2.7c0.6,2.4-0.6,5.1,0.7,7.7
		c0.6,0.6,1.5,0.6,2.1,1.2c0.5-0.1,0.9-0.2,1.3-0.4c2.2,1.4,5.6,0.8,7.7,2.9c1.3,1.3,3.2,3.2,4.2,4.8c1.1,2-0.2,3.7,0.4,5.7
		c1.3,4.6,7.1,8.5,8,13.4c-0.7,0.9-0.6,3.7-0.6,4.9c0,8.9,2,7.8,9.3,9.7c2.1,0.6,3.9,1.9,5.9,2.9h0.1c1.3,1,3.6,1.2,5.1,1.6l0.9-0.5
		c1,0.1,2.4,0.7,3.3,0.4c3.3-1,9.3-4.3,12.6-1.2c0.7,0.7,0.4,1,0.8,1.6c2.6,0,8.9,1.2,9.8,4.2c0.4,1.3,0.2,3,0.6,4.2
		c0.5,0.5,1.1,0.8,1.8,1l0.3,0.7c10,2.3,2.9,6.5,7.1,9.2c1.5,0.9,3.9,0.7,5.7,1.2c0.8,1.5,3,1.9,4.4,2.4c10.3,3.7,1.9-9.8,10.7-8.6
		l1.1-0.9c7.4-0.2,7.9-5.9,15.3,2.7l0.6-0.3c5.3,2.7,10.9,2.2,16.7,6.4c2.6,1.9-1.3,5.6,4.7,7.5l0.7-0.3l0.1-0.2
		c1.4-1,2.1-2.7,3.3-3.8l0.7,0.1c0.3-0.1,0.6-0.6,0.7-0.8c2.8,0.3,3.8,1.7,5.5,2c1.2,0.2,2.8-0.5,4-0.5c8.3,0,4.4-5.4,8.4-8.7
		c4.9-4,3.5,2.7,10-7.8c0.3-0.2,0.6-0.4,0.9-0.7l0.7,0.3c2.1-0.9,4,1.1,6,0.1c2.8-1.5,12.6-9,12.6-0.5c0,2.2-1.1,4.1-1.2,6.1
		c-0.1,1.4,2.4,3.9,2.5,6.3c0.2,2.5-0.5,5.3,0.2,7.8c0.5,2,1.6,2.8,3.1,3.9c0.9,0.7,1.6,1.8,2.5,2.4c2.3,1.6,7.6,1.2,10.4,1.3
		c1,1.5,2.8,1.3,3.9,2.6c2,2.4,3,6.4,5.4,8.5c1.3,1.1,3.4,1.5,4.7,2.5c1.8,1.5,1.3,7,3.2,9.7c1,1.4,5.2,1.8,6.6,1.6
		c1-0.1,15.1-4.8,15.9-5.5l0.6-0.1c1.5,1.8,2.7,0.8,4.5,0.5c1.7-0.3,2.9,0,4.6-1.1c1.3-0.8,3.5-6.8,3.7-8.4c0.1-1.2-0.5-2.5-0.2-3.6
		c0.3-1.4,1.2-3.1,1.5-4.6c0.2-1.4-0.7-8.8,5.1-7.9l0.7,0.5c1.3-0.1,2.1,0.6,3.2,0.8c9.4,1.3,4.9-9.5,4.1-14.3
		c1.5-4.2,0.6-4.7,0.4-8.8l-0.5-0.4c-0.4-0.9-0.2-1.7-0.4-2.6c-0.8-1.1-2.3-1.3-3.1-2.4c-3.6-5.1,7.9-7.8,9.3-11.5
		c1.2-2.9-0.7-8.2,0.4-9.5l0.8,0.1l0.4-1l0.6-0.1c0.7-1.9,2.5-3.6,2.2-5.6c0.6-1.2,1.6-4.2,2.4-5.1c1.2-1.4,3.5-1.2,4.8-2.5
		c0.8-0.8,0.9-2.9,1.5-4.1c0.4-0.9,1.1-1.1,1.9-1.2c3.3-0.3,3.1,4,4.4,6.1l0.4,0.2c0.9-0.2,1.8-0.6,2.6-0.9c2.6,0.1,5,4.8,5.5,7
		c4.4,6.4-1.2,4.4-1,7.8c0.1,0.7,2.1,2.7,2.7,3.1c2.9,1.7,6.9-1.2,7.6-4.4c0.3-1.1-0.1-2.3,0.2-3.4c0.3-0.9,1.5-2.7,2.4-3.1
		c0.6-0.3,1.7,0.1,2.2,0.4c1.1,0.7,1.2,2.2,2.3,2.9c3,1.9,5.1,0.2,2.9-3.2c-0.5-0.8-1.2-1.2-1.8-1.9c-0.9-2.8,3.4-5.6,1.8-9.3
		c-0.9-2.2-8.4-7.5-5.6-10.7c1.1,0.1,2.2,0.7,3.1,0.8c0.9,0.1,1.8-0.4,2.6-0.8c4.2-1.8,2.9-4.4,2.5-8.2c0.4-0.6,0.5-1.6,0.4-2.3
		c-0.9-1-1.3-3.8-1.6-5.2l0.2-0.5c0.5-0.5,1.3-0.6,1.9-0.9c1-1,0.3-3.1,1-4c1.3-0.4,4-0.6,4.8-1.7c1.2-1.7-4.5-8.1,6.3-8.1
		c0.9,0.2,1.9,0.8,2.8,0.8l0.5,0c2.5-0.2,4.2,2.1,5.6,1.4c0.8-0.7,0.5-10.7,1.6-12.5c1.9-2.9,4.1-2.5,6.1-4.3
		c3.9-3.4,4.6-7.9,10.5-3.7c2.7,1.9,1.7,8.4,5.2,9c5.1,0.8,7.7-5.9,12.3-6.5c0.3-0.4,0.7-0.8,1.1-1.1c1.2,0,2.3,0,3.4,0.1
		c3.9,0.3,3.2,2.7,4.1-2.5c4.6-6.6,3.4-6,9.8-7.6c2.5-2.2,3.1-5.6,5-8.2c2.5-3.5,16.1-16.6,20-19.5c1.9-1.4,3.7,0.9,5.8-0.4
		c2.6-2.7,0.9-8.6,1.9-11.1c0.8-2,5.6-1.1,4.2-5.4c-1.1-1-1.1-2.2-2-3.2l-0.2-0.1c-0.2,0.2-0.5,0.3-0.8,0.3c-0.8-1-1.5-2.3-1.9-3.5
		c0-1.5,4.5-4.5,5.7-5.9c0-4.3-1.7-8.1,3.1-9.4l1.2-1.8c0.2-1.4-5.1-7.8-1.2-8.3l1.9,0.5c0.5,0.7,1.3,1.2,2.1,1.6
		c0.4,0,0.9-0.3,1.2-0.6l0.2-0.5c-0.3-1.6-1.7-3.7-1.5-5.3c0.4-2.7,3.2-2.7,3.4-4.7c0.2-1.6-0.8-3.5-0.7-5c0.2-1.8,1.7-4.6,1.6-5.9
		c-0.1-1.8-1.7-3.3-1.2-5c0.6-2.2,3.5-2.9,3.7-4.8c0.2-1.6-0.3-1.8-0.7-3.2c-0.6-2.3,2.1-6.5,3.5-8.3c3.4-5.3,1.5-7.4,3.5-10.6
		c1.8-2.8,6-2.3,4.3-6.8c0.3-1.7,1.8-2.8,2.1-4.5c0.5-2.3-1.5-3.2-1.6-5.1c-0.1-1.5,0.8-3,0.8-4.5c-1-1.2-2.4-1.3-3.5-2.2
		c-0.1-0.3-0.1-0.8,0.1-1.1c0.6-0.7,1.6-0.5,2.4-1.7c0.3-1.6-0.3-3.3,0.1-4.9c0.4-1.8,2.1-3.6,2.2-5.5c-0.5-1.6-1-2.7-2.3-3.8
		l-0.1-1l-0.6-0.3c-0.5-0.6-1-4.3-1.3-5.5l-0.9-0.3c-0.8-1.5-1.3-3.1-2.5-4.4L640,134c-2.3-5.1,1.2-2.9,2.4-6.8
		c0.7-0.3,1.1-0.9,1.6-1.4c3.3,0.4,1.4-2.7,5.5,0.8c0.6-0.1,1.2-0.3,1.8-0.5c0.7-0.9,0.6-1.4,1.8-2l0.7,0.1l1.2-0.8l0.9-1.2
		l0.2-27.2l0-95H426.8z"/>
	<polygon id="_x3C_SERVICE_AREA_FILL_NORTHWEST_x3E_" opacity="8.000000e-02" fill="#00A79D" points="304.9,113.3 304.8,142 
		298.5,141.9 291.8,141.7 286.3,140.9 247.9,135.3 234.1,135.8 234.1,144.4 192.4,143.2 191.6,159.7 179.8,159.2 179.6,163.1 
		177.6,163.1 178.9,103.2 127.5,101.7 128.4,5.5 172.9,6.7 172.6,19 181.4,19.1 181.5,26.8 195.5,27 195.1,33.8 208.8,34.2 
		208.3,52.4 235.3,53.3 236,28.1 250.9,28.5 251.2,13.1 306.9,14.6 306.7,22.2 328.5,22.6 328.7,10.2 348.7,10.4 348.5,23 
		376.4,23.4 377,49.8 405.8,50.4 394.8,111.3 388.8,111.5 373.1,110.1 373,111.6 342.3,111.1 318.8,110.8 318.6,113.7 318.6,113.6 	
		"/>
	<path id="_x3C_SERVICE_AREA_FILL_x3E_" opacity="8.000000e-02" fill="#00A79D" d="M265.3,406.7l-1.8,24.3l-10.4,1h0
		c0.5,2-1,3.9,1.5,5.5c1.5,0.9,3.9,0.6,5.7,1.1c0.8,1.5,3,1.9,4.4,2.4c10.3,3.7,1.9-9.9,10.7-8.6l1.1-0.9c7.4-0.2,7.9-5.9,15.3,2.7
		l0.6-0.3c5.3,2.7,10.9,2.2,16.7,6.4c2.6,1.9-1.3,5.6,4.7,7.5l0.7-0.3l0.1-0.2c1.4-1,2.1-2.7,3.3-3.8l0.7,0.1
		c0.3-0.1,0.6-0.6,0.7-0.8c2.8,0.3,3.8,1.7,5.5,2c1.2,0.2,2.8-0.5,4-0.5c8.3,0,4.4-5.4,8.4-8.7c4.9-4,3.5,2.7,10-7.8
		c0.3-0.2,0.6-0.4,0.9-0.7l0.7,0.3c2.1-0.9,4,1.1,6,0.1c2.8-1.5,12.6-9,12.6-0.5c0,2.2-1.1,4.1-1.2,6.1c-0.1,1.4,2.4,3.9,2.5,6.3
		c0.2,2.5-0.5,5.3,0.2,7.8c0.5,2,1.6,2.8,3.1,3.9c0.9,0.7,1.6,1.8,2.5,2.4c2.3,1.6,7.6,1.2,10.4,1.3c1,1.5,2.8,1.3,3.9,2.6
		c2,2.4,3,6.4,5.4,8.5c1.3,1.1,3.4,1.5,4.7,2.5c1.8,1.5,1.3,7,3.2,9.7c1,1.4,5.2,1.8,6.6,1.6c1-0.1,15.1-4.8,15.9-5.5l0.6-0.1
		c1.5,1.8,2.7,0.8,4.5,0.5c1.7-0.3,2.9,0,4.6-1.1c1.3-0.8,3.5-6.8,3.7-8.4c0.1-1.2-0.5-2.5-0.2-3.6c0.3-1.4,1.2-3.1,1.5-4.6
		c0.2-1.4-0.7-8.8,5.1-7.9l0.7,0.5c1.3-0.1,2.1,0.6,3.2,0.8c9.4,1.3,4.9-9.5,4.1-14.3c1.5-4.2,0.6-4.7,0.4-8.8l-0.5-0.4
		c-0.4-0.9-0.2-1.7-0.4-2.6c-0.8-1.1-2.3-1.3-3.1-2.4c-3.6-5.1,7.9-7.8,9.3-11.5c1.2-2.9-0.7-8.2,0.4-9.5l0.8,0.1l0.4-1l0.6-0.1
		c0.7-1.9,2.5-3.6,2.2-5.6c0.6-1.2,1.6-4.2,2.4-5.1c1.2-1.4,3.5-1.2,4.8-2.5c0.8-0.8,0.9-2.9,1.5-4.1c0.4-0.9,1.1-1.1,1.9-1.2
		c3.3-0.3,3.1,4,4.4,6.1l0.4,0.2c0.9-0.2,1.8-0.6,2.6-0.9c2.6,0.1,5,4.8,5.5,7c4.4,6.4-1.2,4.4-1,7.8c0.1,0.7,2.1,2.7,2.7,3.1
		c2.9,1.7,6.9-1.2,7.6-4.4c0.3-1.1-0.1-2.3,0.2-3.4c0.3-0.9,1.5-2.7,2.4-3.1c0.6-0.3,1.7,0.1,2.2,0.4c1.1,0.7,1.2,2.2,2.3,2.9
		c3,1.9,5.1,0.2,2.9-3.2c-0.5-0.8-1.2-1.2-1.8-1.9c-0.9-2.8,3.4-5.6,1.8-9.3c-0.9-2.2-8.4-7.5-5.6-10.7c1.1,0.1,2.2,0.7,3.1,0.8
		c0.9,0.1,1.8-0.4,2.6-0.8c4.2-1.8,2.9-4.4,2.5-8.2c0.4-0.6,0.5-1.6,0.4-2.3c-0.9-1-1.3-3.8-1.6-5.2l0.2-0.5
		c0.5-0.5,1.3-0.6,1.9-0.9c1-1,0.3-3.1,1-4c1.3-0.4,4-0.6,4.8-1.7c1.2-1.7-4.5-8.1,6.3-8.1c0.9,0.2,1.9,0.8,2.8,0.8l0.5,0
		c2.5-0.2,4.2,2.1,5.6,1.4c0.8-0.7,0.5-10.7,1.6-12.5c1.9-2.9,4.1-2.5,6.1-4.3c3.9-3.4,4.6-7.9,10.5-3.7c2.7,1.9,1.7,8.4,5.2,9
		c5.1,0.8,7.7-5.9,12.3-6.5c0.3-0.4,0.7-0.8,1.1-1.1c1.2,0,2.3,0,3.4,0.1c3.9,0.3,3.2,2.7,4.1-2.5c4.6-6.6,3.4-6,9.8-7.6
		c2.5-2.2,3.1-5.6,5-8.2c2.5-3.5,16.1-16.6,20-19.5c1.9-1.4,3.7,0.9,5.8-0.4c2.6-2.7,0.9-8.6,1.9-11.1c0.8-2,5.6-1.1,4.2-5.4
		c-1.1-1-1.1-2.2-2-3.2l-0.2-0.1c-0.2,0.2-0.5,0.3-0.8,0.3c-0.8-1-1.5-2.3-1.9-3.5c0-1.5,4.5-4.5,5.7-5.9c0-4.3-1.7-8.1,3.1-9.4
		l1.2-1.8c0.2-1.4-5.1-7.8-1.2-8.3l1.9,0.5c0.5,0.7,1.3,1.2,2.1,1.6c0.4,0,0.9-0.3,1.2-0.6l0.2-0.5c-0.3-1.6-1.7-3.7-1.5-5.3
		c0.4-2.7,3.2-2.7,3.4-4.7c0.2-1.6-0.8-3.5-0.7-5c0.2-1.8,1.7-4.6,1.6-5.9c-0.1-1.8-1.7-3.3-1.2-5c0.6-2.2,3.5-2.9,3.7-4.8
		c0.2-1.6-0.3-1.8-0.7-3.2c-0.6-2.3,2.1-6.5,3.5-8.3c3.4-5.3,1.5-7.4,3.5-10.6c1.8-2.8,6-2.3,4.3-6.8c0.3-1.7,1.8-2.8,2.1-4.5
		c0.5-2.3-1.5-3.2-1.6-5.1c-0.1-1.5,0.8-3,0.8-4.5c-1-1.2-2.4-1.3-3.5-2.2c-0.1-0.3-0.1-0.8,0.1-1.1c0.6-0.7,1.6-0.5,2.4-1.7
		c0.3-1.6-0.3-3.3,0.1-4.9c0.4-1.8,2.1-3.6,2.2-5.5c-0.5-1.6-1-2.7-2.3-3.8l-0.1-1l-0.6-0.3c-0.5-0.6-1-4.3-1.3-5.5l-0.9-0.3
		c-0.8-1.5-1.3-3.1-2.5-4.4L640,134c-2.3-5.1,1.2-2.9,2.4-6.8c0.7-0.3,1.1-0.9,1.6-1.4c3.3,0.4,1.4-2.7,5.5,0.8
		c0.6-0.1,1.2-0.3,1.8-0.5c0.7-0.9,0.6-1.4,1.8-2l0.7,0.1l1.3-0.8l0.9-1.2v-0.1l0.1-27.1L588,95.4V81l-42.3,0.8l3.5,20.7l-29.1-0.7
		V89.3l-14,0.1V67h-29.1l0,10h-15.2l0.1,39.2l-12.6-17.4l-13.1,13.9l0.2,24.2l19.2-3.4l-0.9,18.9l-1.8,34.4l-19.4-0.6l-7.7-48.8
		l-12.7-4.7l-0.9-14.7l-2.3-0.5l-0.5-4.6l-8.4,0.1l0.3,23.3l-2,0.3l-0.5,4.8l1.4-0.6l-0.2,5.7l-0.3,5.5l-2.5,36.2l-12.6-0.9
		l0.6-11.4l-8-8.2l-13.9-0.9l1-9.7H353v-2.5V146h8v-13.9l-14-0.1v22.1l-22.3-1.9l-0.8,32.1l9.4,0.1l-0.2,14l0,0l-5.8,7.5l0,0
		l-12.1-0.4l-1.8,36.8l-0.1,0.3l10,18.6l-1.5,17l5.6,0.1l5.5-19.9L350,260l0.4-4.8l17.7,1.3l6.5,0.5l14.7,1.1l-2,24.2l-1.2,11
		l9.9,0.8l-3.4,27.5l-8.7-1l0.4-5.4l-13.3-1.2l-0.9,9.4l-9.8-1.1l0.4-4.9v0l0.3-3.6l-0.4-0.1L360,292h0v-10h-5v2h-3l-6,28.3l-0.4,0
		l-0.5,4.1v0l-0.2,2.3l-25.4-2l-39.5-3.2l-0.7,8.1l-8.7,6.4l-15.7,11.6l-1.9,3.7l-1.6,2.9l-3.3,0l0.6-3.8l-3.3-0.4l-2.4,35.4l5,0.3
		L265.3,406.7z"/>
	<polygon id="_x3C_SERVICE_AREA_FILL_DARKE_COUNTY_x3E__1_" opacity="8.000000e-02" fill="#00A79D" points="143.9,206.8 
		126.8,206.8 126.9,181.6 143.9,181.6 	"/>
</g>
<g id="MAJOR_HIGHWAYS_LAYER">
	
		<path id="_x3C_Major_Highway1_x3E_" fill="none" stroke="#EFCC9E" stroke-width="2" stroke-linecap="round" stroke-linejoin="round" d="
		M631.5,213.8c-3.1,0-11.8,0-11.8,0c0,0-9.1-0.2-9.2-0.4c-4.9-2.3-6,0-6,0s-8,2.7-8.2,2.8c-6.6,0.5-11.8,0-11.8,0s-8.7,0.1-8.9,0
		c-4.2,0.5-6.5,0-6.5,0s-13.9,2.1-13.9,2.2c-6.9,0.5-15.3,5.4-15.3,5.4l-8.4,0.6c0,0-4.8-0.7-4.8-0.6c-6.1-0.1-7.1,2.7-7.3,2.6
		c-2.5,2.2-7.3,1.6-7.2,1.7c-3.5-0.1-7.7,1.1-7.9,1.1c-3.6,0.9-5.8-0.5-5.5-0.4c-5.9-4.2-10.2,0-10.3,0c-6.6,1.9-33.9,5.3-34.5,5.1
		c0,0,0,0,0,0l-4,0.8l-3.1,2.7c-3,0.1-9.3-1.7-9.3-1.7c-4.4-0.6-8.7-0.3-8.7-0.3s-38.1-3.8-38-3.8c-2.6-0.3-5.5,1-5.8,0.9
		c-1.7,1.2-5.7,1.8-5.7,1.8s-13.3,0.2-13.5,0.2c-2.3,0.2-3.9-1-3.9-0.7c-0.1-0.5-1.8-2-1.8-2s-2.5-0.4-2.6-0.2
		c-2.3-0.7-3.6-2.6-3.6-2.6s-29-1.8-29-1.8c-3.7-0.4-6,1.6-6.2,1.6c-2,1.6-5.5,2-5.4,2.1c-2.1-0.2-7.1,0.9-7.3,0.8
		c-3.8,1.1-15.2,1.6-15.2,1.6l-16,1.4c0,0-4.5,0.9-6.8,3.8c-0.2,0.1-3.9,2.7-8.7,2.5c0,0.2-11.2,0-11.2,0s-8.8-1-13.9,3.1
		c-0.2,0.1-1,1.7-7.1,1.5c-0.2,0-25.5,0-25.5,0s-4.4,0-4.9,2.1c-0.1,0.1-13.9,0-13.9,0s-3.3-0.1-5.5,1.6c-0.1-0.1-1.6,1.3-6.1,1.2
		c-0.1,0.2-24.8-0.7-24.8-0.7s-2.5-0.4-5.9,0.5c-1,1.1-6.1,2.7-9.5-0.9c-0.2,0,0-0.4-2-0.7"/>
	
		<path id="_x3C_Major_Highway2_x3E_" fill="none" stroke="#EFCC9E" stroke-width="2" stroke-linecap="round" stroke-linejoin="round" d="
		M278.6,0c-0.7,1.5-0.9,2.6-0.9,4.5c-0.1,3.4,0,6.9-0.6,10.2c-0.6,3-2,5.8-3.4,8.6c-0.5,1-0.9,2.4-1.4,3.5v33.1
		c-0.5,1.3-1,2.6-1.8,3.8c-0.9,1.3-2.1,2.4-3.4,3.4c-3,2.4-5.2,5.6-8.2,8c-5.2,4.1-11.6,6.5-17.2,10c-1.4,0.9-2.8,1.9-3.9,3.2
		c-0.8,1-1.4,2.1-2.2,3c-0.6,0.7-1.4,1.1-2.2,1.6c-1.9,1.2-4,2.9-5.9,4.1l-5.7,5.2v9.9c0,0-1.4-0.1-1.4,0c-2.5,0-3.6,1.4-3.7,1.5
		c-1.2,1-1.6,7.5-1.6,7.5l-3.8,8.9c0,0-1.3,6.4-1.1,11.8c-0.3-0.6,0,15.3,0,15.3c2.1,3.5,2.4,7.9,1.9,11.9c-0.2,1.7-0.7,3.5-1.2,5.2
		c-1.2,4.1-2.4,8.2-3.5,12.3c-0.4,1.3-0.8,2.6-1.4,3.8c-0.8,1.5-2.1,2.7-2.4,4.3c-0.4,1.9,0.5,3.9,0.9,5.8c0.7,3.1,0.1,6.4-1.5,9.1
		c-2.1,3.4-1.5,8.9,0.6,12.3c0.7,1.1,1.6,2,2.4,3.1c3.4,5,1.5,11.7,1.9,17.8c0.4,6.3,3.6,12.6,2.1,18.8c-1.3,0.1-1.4,2-1.6,3.3
		c-0.4,4.4-5,7.5-5.8,11.8c-0.6,3.2,0.7,7.1-1.4,9.6c0.5,3.3-1.8,6.2-4.1,8.7C189.6,303,183.5,311,183,322c-0.1,1.6-2.9,2.6-4.1,3.7
		c-0.8,0.7-2.1,2.4-3.1,3.1c-2.4,1.7-2.1,3.1-2.1,5.9c0,0.6-0.5,1.2-0.7,1.9c-0.2,0.7-0.1,1.4-0.4,2.1c-0.3,0.8-0.8,1.6-0.9,2.4
		c-0.2,0.9,0,1.8-0.3,2.7c-1,3-3.9,5.2-4.9,7.6c-0.6,1.5-2,1.6-3.5,2.2c-0.6,0.2-1,0.4-1.7,0.5c-0.5,0.1-0.8,0-1.2,0.2
		c-0.5,1.5,1.1,2.5,0.6,4.1c-0.2,0.7-0.5,1.2-0.4,2c0.1,0.9,0.5,1.3,0.8,2.1c0-0.1,0-0.2,0-0.2"/>
	
		<path id="_x3C_Major_Highway3_x3E_" fill="none" stroke="#EFCC9E" stroke-width="2" stroke-linecap="round" stroke-linejoin="round" d="
		M353.7,227.1c1.9,3-1.3,8.4-3.1,11.5c-1.3,2.4-2.7,4.8-4,7.2c-1.2,2.2-2.5,4.5-4.8,5.6c-3.3,1.7-7.5,0.3-11,1.6
		c-2.1,0.8-3.7,2.5-5.4,3.9c-2.6,2-5.6,3.3-8.8,3.7c0,0-1.9,1.5-3.8,2.7c0.2,0.2-54.2,33.9-54.2,33.9s-2,2.4-13.7,6.2
		c-0.5,0-9.1,3-10.8,5.8c0,0.2-14.5,6.9-14.5,6.9s-4,0.7-5.7,1c0,0.5-2.9-0.5-6.2,2.4c0,0-7.1,1.3-11.8,9c-0.7,1.2-3.5,3.3-3.5,3.3
		l-5.1,4.2c0,0-6.8,0.4-5.6,8.8c-0.3,0.2-0.7,3-3.2,4.7c0.5-0.2-1.9,3.4-1.9,3.4l-3.3,0.2l-1.4,2.8l-2.9,0.6
		c-3.4-0.3-4.4,4.1-4.4,6.7"/>
	
		<path id="_x3C_Major_Highway4_x3E_" fill="none" stroke="#EFCC9E" stroke-width="2" stroke-linecap="round" stroke-linejoin="round" d="
		M503.7,38.7c3.1-1,4.8-4.4,7.7-5.9c1.8-0.9,3.8-0.9,5.7-1.5c3-0.8,5.5-2.6,8-4.4c2.1-1.5,4.2-3,6.4-4.5c2.4-1.7,5-3.6,6.2-6.4
		c1.5-3.5,0.4-7.6,0.2-11.4c-0.1-1.5,0-3.1,0.2-4.6"/>
	
		<path id="_x3C_Major_Highway5_x3E_" fill="none" stroke="#EFCC9E" stroke-width="2" stroke-linecap="round" stroke-linejoin="round" d="
		M543.8,321.2c0-0.9,1.1-1.2,1.8-1.4c1.7-0.4,3-3,2.3-4.6c-1.2-2.6-0.1-5.9-1.4-8.6c-0.3-0.6-0.7-1.2-0.9-1.8
		c-1.2-3,0.9-6.6-0.5-9.5c-0.3-0.5-0.6-1-0.8-1.6c-0.2-0.7-0.2-1.4-0.2-2.1c0.1-4.3-0.1-8.4,0.4-12.6c0.3-2.3-1.9-4.1-4-5.1
		c-2.1-1-4.5-1.9-5.5-3.9c-0.8-1.6-0.6-3.5-1.3-5.1c-0.6-1.4-1.8-2.5-2.7-3.7c-0.9-1.3-1.4-3-0.6-4.3c0.7-0.9,1.9-1.3,2.7-2.1
		c1-1,1.3-2.5,1.5-3.9c0.7-4.8,0.9-9.5,2.3-14.1c0.8-2.5,0.7-5.2-0.2-7.6c-0.9-2.4-2.5-4.4-3.3-6.9c-0.7-2-1.8-4.9-0.4-6.4
		c1.2-1.3,0.9-3.3,0.4-4.9c-0.5-1.6-1.3-3.3-1-5c0.2-1,0.7-1.9,1.1-2.9c1.8-4.3,0.1-9.4,0.9-14c0.3-1.7,1-3.3,1.2-5
		c0.2-2.6-0.7-5.2-1.4-7.8c-0.7-2.6-0.5-5.5,0-8.1c0.7-4,2.2-7.8,4.6-11.1c0.6-0.8,1.2-1.6,1.7-2.5c2-3.5,1.6-7.7,0.6-11.6
		c-1-3.8-2-7.8-2.7-11.8c-0.2-1.5,0.6-3,1.7-4.1c1.1-1.1,2.4-2,3.5-3.1c2.6-2.8,3.2-6.9,4.2-10.7c0.9-3.5,2.3-6.9,4-10.1
		c0.5-1,1.1-2,1.3-3.1c0.3-1.6-0.4-3.2-1-4.6c-1.2-2.9-2.5-5.7-3.7-8.6c-1-2.4-2.1-5.1-1.1-7.5c0.4-1,1.2-2,1.2-3.1
		c0.1-1.6-1.3-2.8-2.5-3.9c-2.9-2.7-4.9-6.7-6.3-10.4c0.2-0.2,0.1,0.4-0.1,0.3s-0.2-0.5-0.3-0.7c-0.3-1.2-2.1-0.8-3.3-1.2
		c-0.8-0.3-1.3-1-1.8-1.7c-2.3-3.7-3-8.4-5.8-11.7c-0.5-0.6-1-1.1-1.5-1.7c-0.4-0.6-0.7-1.3-1-2c-1.9-5-2.8-10.4-2.6-15.8
		c0.1-2.8,0.5-5.7-0.2-8.4c-0.3-1.1-0.8-2.2-1.1-3.3c-1.5-4.5-1.1-9.4-0.7-14.1c0.1-0.6,0.2-1.2,0.3-1.8"/>
	
		<path id="_x3C_Major_Highway6_x3E_" fill="none" stroke="#EFCC9E" stroke-width="2" stroke-linecap="round" stroke-linejoin="round" d="
		M341.3-0.1c14.5,4.7,32.9,9.1,55.3,11.8c0,0.5,17.7,0.8,26.3,0c0.6,0.1,11.1-0.5,11.1-0.5l2.9-2.3l6.2-2.3c0,0,2.3-4.1,21.4-4.8
		c3.1-0.1,5.7,1.2,8.7,1.7c4.2,0.8,8.5,0.9,12.7,1.8c3.7,0.8,7.2,2.3,10.7,3.8c11.1,4.7,22.1,9.4,33.2,14.1c1.6,0.7,3.7,0,5.5,0.3
		c1.7,0.3,3.4,0.3,5.2,0.3c6.9,0.1,13.8,0.3,20.7-0.4c11.6-1.1,23.1,2.3,34.8,2.8c2.3,0.1,4.6,0.2,6.7,1.2c1.4,0.7,2.6,1.8,3.7,2.8
		c6.5,6.1,12.8,12.4,18.1,19.5c1.6,2.1,3.1,4.2,5.1,5.8c2,1.6,4.6,2.7,6.4,4.6c1.6,1.7,2.5,4,3.9,5.9c4.8,6.2,7.9,3.1,14.9,9"/>
	
		<path id="_x3C_Major_Highway7_x3E_" fill="none" stroke="#EFCC9E" stroke-width="2" stroke-linecap="round" stroke-linejoin="round" d="
		M491.4,57.7c3.7,0.9,9.2,2.1,12.7,0.7c1.5-0.6,2.8-1.6,4.3-2.2c6.6-2.4,14.3,4.7,20.6,1.4c1.8-0.9,3.1-2.6,4.9-3.5
		c1.8-0.8,3.8-0.8,5.8-0.8c2.4,0.1,4.7,0.1,7.1,0.2c1,0,2.1,0,3.1-0.3c1.4-0.6,2.3-1.8,3.4-2.8c3.3-3,8.1-3.6,12.5-3.8
		c10-0.5,20,0,29.9,1.3c8,1.1,16.6,0.1,24.7,0.1c2.2,0,4.4,0,6.5-0.7c4.2-1.4,7.1-5.2,11.1-7.1c2.4-1.2,5.2-1.5,7.8-1.9
		c4.7-0.6,3.9-0.3,8.6-0.9"/>
	
		<path id="_x3C_Major_Highway8_x3E_" fill="none" stroke="#EFCC9E" stroke-width="2" stroke-linecap="round" stroke-linejoin="round" d="
		M538.8,59.8c0-0.1,0-0.2,0-0.3v-5.8"/>
	
		<path id="_x3C_Major_Highway9_x3E_" fill="none" stroke="#EFCC9E" stroke-width="2" stroke-linecap="round" stroke-linejoin="round" d="
		M632.4,44.1c1.7-0.2,2.8-0.3,4.2,0.6c1.5,0.9,2.3,2.9,4,3.4c0.9,0.3,1.9,0.1,2.6,0.6c0.6,0.4,0.9,1,1.2,1.6
		c0.7,1.5,1.5,2.9,2.2,4.4c0.3,0.5,0.6,1.1,0.6,1.7c0.2,1.6-1.1,3.1-1.5,4.7c-0.2,1-0.1,2.1,0,3.1c0.1,1.8,0.1,3.7-0.2,5.5"/>
	
		<path id="_x3C_Major_Highway10_x3E_" fill="none" stroke="#EFCC9E" stroke-width="2" stroke-linecap="round" stroke-linejoin="round" d="
		M478.4,4.1c2.8,0.3,3.7,0.6,6-1c1.4-1,2.6-2.3,4.2-3.1"/>
	
		<path id="_x3C_Major_Highway11_x3E_" fill="none" stroke="#EFCC9E" stroke-width="2" stroke-linecap="round" stroke-linejoin="round" d="
		M538.2,8c1.1,0.5,2.2,1.2,3.1,2c1.4,1.1,2.8,2.5,3.9,3.9c0.6,0.7,1.1,1.4,1.7,2.1c3,3.5,7.4,5.3,11.7,7"/>
	
		<path id="_x3C_Major_Highway12_x3E_" fill="none" stroke="#EFCC9E" stroke-width="2" stroke-linecap="round" stroke-linejoin="round" d="
		M457.9,2.1c1.3-0.5,2.9-1.3,4.2-2.1"/>
	
		<path id="_x3C_Major_Highway13_x3E_" fill="none" stroke="#EFCC9E" stroke-width="2" stroke-linecap="round" stroke-linejoin="round" d="
		M353.7,227.1c-2.1-8.1-2.1-16.7,0-24.7c0.3-1.2,0.7-2.5,1.4-3.5c1-1.5,2.6-2.5,3.8-3.9c2.7-3.4,2.2-8.2,1.8-12.5
		c-0.4-4.3-0.4-9.3,3-12.1c2-1.6,4.7-2.1,6.6-3.8c3.6-3.1,3-8.9,5.6-12.9c2.9-4.6,9.2-6,12.3-10.5c1.4-2,2-4.4,3.5-6.3
		c1.6-2,4-3.1,6-4.7c6.9-5.5,8.7-15.8,15.8-21.1c1.6-1.2,3.5-2.1,5-3.5c2.5-2.3,3.7-5.7,5.5-8.6c1.8-2.9,5-5.5,8.4-4.7
		c2.7-1.6,4.7-3.4,7.4-5c3.8-2.3,7.7-4.5,11.5-6.7c5.4-3.1,11.1-6.2,14.6-11.3c2-3,3.6-6.8,7.1-7.8c1.4-0.4,2.9-0.2,4.4-0.3
		c6.3-0.1,12.1-3.6,16.3-8.3c4.2-4.7,6.9-10.4,9.4-16.2c-2.3-10.5-4-21.3-4.6-32.1c-0.2-3.9-0.1-2.8-0.3-6.6"/>
	
		<path id="_x3C__x3C_Major_Highway14_x3E_" fill-rule="evenodd" clip-rule="evenodd" fill="none" stroke="#EFCC9E" stroke-width="1.9212" stroke-linecap="round" stroke-linejoin="round" d="
		M336.2,207.6c-0.4,0.2-0.6,0.6-0.6,1c-0.1,1.1,0.1,2.1,0.3,3.1c0.1,0.8,0.3,1.5,0.4,2.3l1.5,7.5c0,0,0.2,3.1,0.2,4.5v5.2
		c0,0-0.2,1.5-0.3,2c0,0-0.7,1.9,0.3,3.3c0,0.1,1.5,1.8,1.5,1.8s1.2,0.8,2,1l3.7,0.9c0,0,2,0.8,3.3,1.9c0,0.1,2.4,1.7,2.4,1.7
		s0.3,0.6,2.3,0.8c0,0,6.9,0.4,6.9,0.4s1.4,0.1,2.4-1.2l3.1-4.4c0,0,2.2-2.4,3.5-3.1c0,0,2.2-1.4,2.5-2.4c0,0.1,0.5-2.8,0.5-3.5
		c0,0.1-0.1-1.5-0.7-2.2c0,0-1.1-1.2-0.9-2.5c0,0,0.8-1.9-2.2-2.7c0,0-1.1-0.1-1.9-0.2c0,0-1.9-0.1-1.7-1.9c0,0,0.3-4.8,0.3-4.8
		s-0.2-2-0.6-2.8c0,0-0.2-0.5-0.1-1.6c0,0,0.1-1.4,0.1-1.4s0.4-1.6-1.4-2.3c0,0.1-6-1.6-6-1.6s-1.7-0.5-3.3-0.4L349,206
		c0,0-1.2-0.1-2.1,0c-0.1,0-3.1,0.3-4,0.5c0,0-2.1,0.2-3.6,0.1C339.3,206.6,337.4,206.9,336.2,207.6z"/>
	
		<path id="_x3C_Major_Highway15_x3E_" fill="none" stroke="#EFCC9E" stroke-width="2" stroke-linecap="round" stroke-linejoin="round" d="
		M149.6,341.6c0.4-0.3,0.7-0.8,1.1-1.1c0.6-0.5,1.3-1,1.9-1.5c1.2-1.1,2.3-2.4,3.5-3.5c1.7-1.6,3.6-2.6,5.8-3.4
		c1.6-0.6,3.6-0.3,5.2,0.1c1.3,0.3,2.6,0.3,3.9,0.8c0.7,0.3,1.3,0.5,2,0.7c1,0.3,1.8,0.6,2.9,0.6c2.3,0,4.8-1.3,6.4,0.8
		c0.8,1.1,1.7,2,2.8,2.8c1.3,0.9,2.8,1.5,4,2.4c0.9,0.7,1.6,2,2.3,2.8c1.1,1.2,2.5,2.1,2.8,3.9c0.2,1.3,0,2.5-0.3,3.8
		c-0.2,1.2-0.3,2.3-0.4,3.4c-0.2,2,0.2,3.8-0.8,5.6c-0.1,0.2-0.2,0.3-0.2,0.5c-0.4,0.6-0.4,1.3-0.7,2c-0.3,0.9-0.7,1.7-1,2.5
		c-0.5,1.7-0.9,3.3-2.3,4.5c-1.3,1.1-2.6,1.2-4.1,1.1c-0.7-0.1-1.4-0.3-2.1-0.4c-0.7-0.1-0.9-0.2-1.6-0.2c-0.6-0.1-1.4-0.2-2-0.5
		c-0.6-0.2-1.6-0.3-2.3-0.4"/>
	
		<path id="_x3C_Major_Highway16_x3E_" fill="none" stroke="#EFCC9E" stroke-width="2" stroke-linecap="round" stroke-linejoin="round" d="
		M128.8,334.5c1.2,0.7,0.4,1.4,1.2,2.4c1,1.2,2.6,1.8,3.7,2.9c1.4,1.5,1.9,2.1,3.2,2.8c1,0.6,1.7,1.5,2.8,2c1.2,0.5,2.9-0.1,4-0.5
		c2-0.8,3.8-2.1,6-2.1c0.9,0,1.4,0.1,2.2,0.4c1.1,0.4,2.4,0.4,3.5,0.5c0.9,0.1,1.7,0.5,2.6,0.4c1-0.1,1.5-0.8,2.5-0.1
		c0.4,0.3,0.7,0.6,1.1,0.9c0.5,0.3,1.3,0.1,1.7,0.5c0.9,0.9,2.8-0.1,3.9,0.7c0.7,0.5,1.6,1.3,2.2,1.9"/>
	
		<path id="_x3C_Major_Highway17_x3E_" fill="none" stroke="#EFCC9E" stroke-width="2" stroke-linecap="round" stroke-linejoin="round" d="
		M160.5,355.7c-0.2-0.3-0.3-0.7-0.5-1.1c-0.2-0.4-0.6-0.8-0.9-1.1c0,0-0.1-0.1-0.1-0.1c-0.6-0.5-1.3-0.1-2-0.1
		c-0.8,0-1.1-0.6-1.4-1.2c-0.6-1.1-1.3-2.8-2.6-3.2c-1.1-0.4-2.6-0.2-3.7-0.3c-0.6-0.1-1-0.3-1.4-0.7c-0.3-0.4-0.3-0.7-0.9-0.7
		c-0.9,0-1.7,0.1-2.3-0.1c-0.1-0.7-0.1-1.4-0.3-2.1c0-0.2-0.1-0.6-0.2-0.9"/>
</g>
<g id="NON_SERVICE_COUNTIES">
	
		<line fill="none" stroke="#DBD8BD" stroke-linecap="round" stroke-linejoin="round" stroke-miterlimit="3.8637" x1="597.9" y1="43.9" x2="654.8" y2="43"/>
	
		<line fill="none" stroke="#DBD8BD" stroke-linecap="round" stroke-linejoin="round" stroke-miterlimit="3.8637" x1="481.3" y1="0" x2="481.3" y2="9.2"/>
	
		<line fill="none" stroke="#DBD8BD" stroke-linecap="round" stroke-linejoin="round" stroke-miterlimit="3.8637" x1="492.5" y1="9.2" x2="481.3" y2="9.2"/>
	
		<line fill="none" stroke="#DBD8BD" stroke-linecap="round" stroke-linejoin="round" stroke-miterlimit="3.8637" x1="492.5" y1="9.2" x2="492.5" y2="21.4"/>
	<polyline fill="none" stroke="#DBD8BD" stroke-linecap="round" stroke-linejoin="round" stroke-miterlimit="3.8637" points="
		126.6,230.9 171.2,232.2 170.2,288.6 126.2,287.3 	"/>
	<polyline fill="none" stroke="#DBD8BD" stroke-linecap="round" stroke-linejoin="round" stroke-miterlimit="3.8637" points="
		170.5,285 189.5,285.6 215.3,288.3 216.1,280.4 215.3,279.9 218.8,246.5 223.7,247.1 224.2,240.3 210.8,238.9 210.2,234.7 
		211.4,233.7 210.5,233 178.5,232.4 171.2,232.2 	"/>
	<polyline fill="none" stroke="#DBD8BD" stroke-linecap="round" stroke-linejoin="round" stroke-miterlimit="3.8637" points="
		232.8,144.3 232,170.7 231.1,170.7 224.2,240.3 	"/>
	<polyline fill="none" stroke="#DBD8BD" stroke-linecap="round" stroke-linejoin="round" stroke-miterlimit="3.8637" points="
		128.1,101.7 179,103 177.3,163 	"/>
	
		<line fill="none" stroke="#DBD8BD" stroke-linecap="round" stroke-linejoin="round" stroke-miterlimit="3.8637" x1="273.6" y1="258.5" x2="270" y2="294"/>
	<polyline fill="none" stroke="#DBD8BD" stroke-linecap="round" stroke-linejoin="round" stroke-miterlimit="3.8637" points="
		223.9,244.6 238,246.3 237.7,248.9 251.6,250.5 251.3,254.3 261.8,255.5 262.4,257.1 280.5,259.3 290.4,220.8 294.5,186.9 
		258.3,182.8 259,180.1 230.4,177.4 	"/>
	<polyline fill="none" stroke="#DBD8BD" stroke-linecap="round" stroke-linejoin="round" stroke-miterlimit="3.8637" points="
		179.2,188.2 204.8,188.2 204.9,189.1 228.9,191.6 	"/>
	
		<line fill="none" stroke="#DBD8BD" stroke-linecap="round" stroke-linejoin="round" stroke-miterlimit="3.8637" x1="226.9" y1="214.7" x2="290.4" y2="220.8"/>
	
		<line fill="none" stroke="#DBD8BD" stroke-linecap="round" stroke-linejoin="round" stroke-miterlimit="3.8637" x1="196.6" y1="336.7" x2="245.3" y2="342"/>
	
		<line fill="none" stroke="#DBD8BD" stroke-linecap="round" stroke-linejoin="round" stroke-miterlimit="3.8637" x1="227.1" y1="340" x2="232.2" y2="290.3"/>
	<polyline fill="none" stroke="#DBD8BD" stroke-linecap="round" stroke-linejoin="round" stroke-miterlimit="3.8637" points="
		183.8,285.5 184,293.1 188.4,292 186.8,305.8 188,305.8 184,332.8 	"/>
	<polyline fill="none" stroke="#DBD8BD" stroke-linecap="round" stroke-linejoin="round" stroke-miterlimit="3.8637" points="
		597.4,-0.3 598,67.1 548.1,67.1 548.1,80.6 	"/>
	
		<line fill="none" stroke="#DBD8BD" stroke-linecap="round" stroke-linejoin="round" stroke-miterlimit="3.8637" x1="436.1" y1="-0.1" x2="436.4" y2="19.4"/>
	
		<line fill="none" stroke="#DBD8BD" stroke-linecap="round" stroke-linejoin="round" stroke-miterlimit="3.8637" x1="270" y1="294" x2="215.3" y2="288.3"/>
	
		<line fill="none" stroke="#DBD8BD" stroke-linecap="round" stroke-linejoin="round" stroke-miterlimit="3.8637" x1="550.8" y1="0" x2="550.8" y2="67.1"/>
	
		<line fill="none" stroke="#DBD8BD" stroke-linecap="round" stroke-linejoin="round" stroke-miterlimit="3.8637" x1="515.8" y1="21.6" x2="515.8" y2="66.5"/>
	<polyline fill="none" stroke="#DBD8BD" stroke-linecap="round" stroke-linejoin="round" stroke-miterlimit="3.8637" points="
		515.8,21.6 481.3,21.6 481.3,33.5 468.8,33.5 468.8,43.6 456.9,43.6 456.9,66.5 515.8,66.5 	"/>
	
		<line fill="none" stroke="#DBD8BD" stroke-linecap="round" stroke-linejoin="round" stroke-miterlimit="3.8637" x1="597.5" y1="9.2" x2="550.7" y2="9.2"/>
	
		<line fill="none" stroke="#DBD8BD" stroke-linecap="round" stroke-linejoin="round" stroke-miterlimit="3.8637" x1="461.7" y1="66.8" x2="461.8" y2="118.4"/>
	
		<line fill="none" stroke="#DBD8BD" stroke-linecap="round" stroke-linejoin="round" stroke-miterlimit="3.8637" x1="179.6" y1="163.1" x2="178.5" y2="232.4"/>
	<polyline fill="none" stroke="#DBD8BD" stroke-linecap="round" stroke-linejoin="round" stroke-miterlimit="3.8637" points="
		125.8,328.9 148.4,329.9 149.9,328.5 152.2,329.1 153.2,329.9 162,330.4 163.1,331.2 165.2,329.9 168.2,331 170.6,330.8 
		184.5,332.9 193.7,333.8 196.2,334.7 196.6,336.7 195.8,337.9 191.2,340.5 190.9,341.8 188,344.2 189,346 190.2,346.7 192.3,345.9 
		193.3,346.7 193.4,348.2 190.4,352.2 187,376.5 	"/>
	
		<line fill="none" stroke="#DBD8BD" stroke-linecap="round" stroke-linejoin="round" stroke-miterlimit="3.8637" x1="304.8" y1="113.3" x2="304.8" y2="141.8"/>
</g>
<g id="SERVICE_COUNTIES">
	
		<polygon id="_x3C_KNOX_x3E_" fill="none" stroke="#DBD8BD" stroke-linecap="round" stroke-linejoin="round" stroke-miterlimit="3.8637" points="
		455.4,133.3 432.8,137.6 399.2,136.5 398.6,141.4 400.1,140.7 398.4,169.5 385.9,168.2 385.1,179.9 418.8,182.5 418.2,185.6 
		452.7,186.7 	"/>
	
		<polygon id="_x3C_MORROW_x3E_" fill="none" stroke="#DBD8BD" stroke-linecap="round" stroke-linejoin="round" stroke-miterlimit="3.8637" points="
		360.7,120.9 360.7,145.8 352.5,145.8 352.5,157.2 364.2,157.2 363,166.9 385.9,168.2 398.4,169.5 400.1,140.7 398.6,141.4 
		399.2,136.5 401.2,136.3 401,122.4 398.6,122.4 398.6,118.3 400.9,118.3 400.9,111.1 388.9,111.5 373.1,110 373.1,120.9 	"/>
	
		<polygon id="_x3C_HIGHLAND_x3E_" fill="none" stroke="#DBD8BD" stroke-linecap="round" stroke-linejoin="round" stroke-miterlimit="3.8637" points="
		302.1,339.5 302.5,338.6 304,338.3 304.2,336.9 304.9,336.3 303.8,335.3 303.8,333.7 303.2,331.1 304.2,330.1 304.2,328.2 
		305.2,326.8 304.6,325.7 306.2,323.1 279.1,321.6 254.7,339.6 251.3,346.2 248,346.1 248.6,342.4 245.3,342 242.9,377.4 
		275.9,379.2 302.4,373.7 308.4,346.4 308.1,342.6 307.2,342.7 306.9,343.9 306.2,344.3 305,343.2 303.9,342.6 304.4,341.8 
		304.2,340.8 303.3,340.5 	"/>
	
		<path id="_x3C_SCIOTO_x3E_" fill="none" stroke="#DBD8BD" stroke-linecap="round" stroke-linejoin="round" stroke-miterlimit="3.8637" d="
		M347.5,390l34.7,2.8l-1.1,14.7l13.5,1.1l-1.9,15.8l-4.2-0.3l-1.9,11.6l-6.8-0.7l1.1,9.4l1.8,3.9l-8.4,5.1c0,0-1.6-1.6-1.9-1.9
		c0,0-1.2-1.1-1.8-1.5c0,0-1.7-1.4-2-3.2c0,0-0.4-2.3-0.2-4.3c0,0,0.1-1.9,0.1-2.6c0,0,0-1.6-1-3.4c0,0-0.8-1.3-0.8-1.3l-0.5-1
		c0,0-0.5-0.9-0.2-2.1c0,0,0.7-2.8,0.7-2.8s0.9-3,0-4.9c0,0-0.6-1.7-2.7-1.6c0,0-1.9,0-5.4,2.1l-3,1.8c0,0-1.2,0.9-2.6,0.9
		c0,0-1.1-0.2-1.1-0.2l-1.5-0.3c0,0-1.3-0.1-1.7,0.2l-0.7-0.3l-0.4,0.3l-0.5,0.3c0,0-2.8,4.4-3.7,5.2c0,0-1,1.1-2.1,1.1
		c0,0-2.1-0.4-3.8,1.2c0,0-1.8,1.2-2.3,3.6c0,0-0.5,2.4-0.9,3c0,0-0.7,1.4-2.4,1.9c0,0-1.2,0.4-2.7,0.4l-0.8,0c0,0-0.9,0.2-2.1,0.4
		c0,0-1.1,0.3-2.1-0.1c0,0-3.6-2-4.9-1.8l-0.3,0.5l-0.3,0.2l-0.1,0.1l-0.7-0.1l-0.9,1.1l1-63.9l3.9,0.9l1.4,2.5l1.9,0.2l-0.5,2.2
		l0.4,2l-0.3,1.3L347.5,390z"/>
	
		<path id="_x3C_ADAMS_x3E_" fill="none" stroke="#DBD8BD" stroke-linecap="round" stroke-linejoin="round" stroke-miterlimit="3.8637" d="
		M264.7,440.9c10.3,3.7,1.9-9.8,10.7-8.6l1.1-0.9c7.4-0.2,7.9-5.9,15.3,2.7l0.6-0.3c5.3,2.7,10.9,2.2,16.7,6.4
		c2.6,1.9-1.3,5.6,4.7,7.5l0.7-0.3l0.1-0.2c1-0.7,1.6-1.8,2.3-2.8l1-63.9l-1.4-0.5l-1-1.6l-1.7-1.3l-1.7-3l-9.9-0.4l-26.5,5.6
		l-8.3-0.5l-4.8,61.4l0,0C263.5,440.5,264.1,440.7,264.7,440.9z"/>
	
		<path id="_x3C_LAWRENCE_x3E_" fill="none" stroke="#DBD8BD" stroke-linecap="round" stroke-linejoin="round" stroke-miterlimit="3.8637" d="
		M403.2,419.9l12.4,0.8l-0.6,5.2l2.6,0.1l-0.8,9.7l14.7,0.8l-1.2,15h9.7c0,0-0.6,1.6-0.6,2.9c0,0-0.1,2.3-0.1,2.3l0,0.5
		c0,0-0.5,1.7-0.8,2.6c0,0-0.8,2-0.7,2.9c0,0,0.5,2.7,0,3.8c0,0-1.6,5.1-3,6.9c0,0-0.9,1.1-2.4,1.3l-1.9,0.2c0,0-1.5,0.2-2.6,0.6
		c0,0-1,0.3-1.9-0.2c0,0-0.8-0.7-0.8-0.7l-0.6,0c0,0-1.1,0.6-2.1,0.9c0,0-13.6,4.5-13.6,4.5s-0.5,0.2-2.4,0c0,0-3.4-0.4-4.3-1.3
		c0,0-0.7-0.5-1.4-3.5c0,0-0.7-3.6-0.7-3.6s-0.3-2.1-1.2-2.7c0,0-1.7-1.2-3.4-1.7c0,0-1.7-0.7-2.5-2.1c0,0-1.5-2.2-2.4-4.3
		c0,0-1.6-3.3-2.8-3.7c0,0-0.8-0.4-0.8-0.4s-1.8-0.8-2.1-1.5c0,0-3.9-0.1-5-0.1c0,0-4.3-0.2-5.4-1.2l8.4-5.1l-1.8-3.9l-1.1-9.4
		l6.8,0.7l1.9-11.6l4.2,0.3l1.9-15.8l9.8,0.8L403.2,419.9z"/>
	
		<polygon id="_x3C_JACKSON_x3E_" fill="none" stroke="#DBD8BD" stroke-linecap="round" stroke-linejoin="round" stroke-miterlimit="3.8637" points="
		375.4,392.2 382.2,392.8 381.1,407.5 404.4,409.3 404.6,407.6 419.1,409.5 423.3,363.1 408.8,361.9 409.3,356.2 395.4,355.1 
		395.4,355.1 395.7,352 381.5,351 381,357.5 378,357.2 	"/>
	
		<polygon id="_x3C_PIKE_x3E_" fill="none" stroke="#DBD8BD" stroke-linecap="round" stroke-linejoin="round" stroke-miterlimit="3.8637" points="
		324.8,389.7 347.5,390 375.4,392.2 378,357.2 307.3,351.3 302.4,373.7 312.3,374.1 314,377.2 315.7,378.5 316.6,380 318,380.6 
		321.9,381.5 323.3,384.1 325.2,384.2 324.7,386.4 325.1,388.4 	"/>
	
		<polygon id="_x3C_ROSS_x3E_" fill="none" stroke="#DBD8BD" stroke-linecap="round" stroke-linejoin="round" stroke-miterlimit="3.8637" points="
		306.2,323.1 319.5,300.5 345.1,302.9 354.6,302.4 355.4,304.2 355.3,305.9 353.2,305.9 352.3,307 384.7,310 381,357.5 307.3,351.3 
		308.4,346.4 308.1,342.6 307.2,342.7 306.9,343.9 306.2,344.3 305,343.2 303.9,342.6 304.4,341.8 304.2,340.8 303.3,340.5 
		302.1,339.5 302.5,338.6 304,338.3 304.2,336.9 304.9,336.3 303.8,335.3 303.8,333.7 303.2,331.1 304.2,330.1 304.2,328.2 
		305.2,326.8 304.6,325.7 	"/>
	
		<path id="_x3C_BROWN_x3E_" fill="none" stroke="#DBD8BD" stroke-linecap="round" stroke-linejoin="round" stroke-miterlimit="3.8637" d="
		M221.7,417.5c3.3-1,9.3-4.3,12.6-1.2c0.7,0.7,0.4,1,0.8,1.6c2.6,0,8.9,1.2,9.8,4.2c0.4,1.3,0.2,3,0.6,4.2c0.5,0.5,1.1,0.8,1.8,1
		l0.3,0.7c10,2.3,2.9,6.5,7.1,9.2c1.5,0.9,3.9,0.7,5.7,1.2c0.5,0.9,1.5,1.4,2.5,1.8l0,0l4.8-61.4l-24.7-1.4l2.4-35.4l-16.2-1.8
		l-9.4,76.5l-0.1,0.6C220.3,417.5,221.1,417.7,221.7,417.5z"/>
	
		<polygon id="_x3C_FAYETTE_x3E_" fill="none" stroke="#DBD8BD" stroke-linecap="round" stroke-linejoin="round" stroke-miterlimit="3.8637" points="
		286.4,269.4 321.9,272 319.5,300.5 306.2,323.1 279.1,321.6 281.6,295 270,294 272.6,267 	"/>
	
		<polygon id="_x3C_VINTON_x3E_" fill="none" stroke="#DBD8BD" stroke-linecap="round" stroke-linejoin="round" stroke-miterlimit="3.8637" points="
		397.6,324.1 412.1,325.4 412.4,321.2 440.5,323.2 439.3,337.8 444,338.3 442.8,352.2 437.9,351.9 436,380.3 421.8,379.3 
		423.3,363.1 408.8,361.9 409.3,356.2 395.4,355.1 395.4,355.1 395.7,352 381.5,351 383.5,325.2 397.2,326.8 	"/>
	
		<path id="_x3C_MEIGS_x3E_" fill="none" stroke="#DBD8BD" stroke-linecap="round" stroke-linejoin="round" stroke-miterlimit="3.8637" d="
		M435.8,382.9l2.2-31l68.6,4.5l0.5,2.4l0.3,1.1l0.1,0.4l0.2,0.5l0.2,0.4l0.3,0.4l0,0.5v0.4l0,0.4l-0.2,0.7l-0.2,0.4l0.1,0.6l0.1,0.8
		l0.1,0.8l0.1,1l0,0.6l0,0.7l-0.1,0.7l-0.2,0.6l-0.3,0.6l-0.4,0.5l-0.8,0.7l-0.8,0.4l-1.1,0.5l-0.8,0.3l-0.6,0.2l-0.5,0l-0.7-0.2
		l-1.2-0.4l-0.5-0.1l-0.6-0.1l-0.2,0.3l-0.3,0.6l-0.1,0.5l0,0.6l0.2,0.8l0.5,1l0.4,0.7l0.6,0.9l0.8,0.9l0.9,1l0.6,0.6l0.8,0.9
		l0.5,0.6l0.4,0.6l0.3,0.5l0.2,0.6l0.2,0.8l0,0.9l-0.2,1l-0.5,1.3l-0.6,1.3l-0.6,1.3l-0.2,0.8l-0.1,0.5l0.1,0.9l0.7,0.7l0.5,0.5
		l0.5,0.6l0.4,0.7l0.3,0.7l0.2,0.6l0,0.9l-0.3,0.6c0,0-0.3,0.4-1.1,0.5c0-0.1-1.1,0.1-2.1-0.6c0,0-0.6-0.4-0.6-0.4s-0.5-0.6-0.6-0.8
		c0,0-0.6-1-0.6-1s-0.4-0.7-1-0.9c0,0-1-0.3-1.2-0.4c0,0-1-0.2-2.1,1.3c0,0-0.8,1.2-0.8,1.2s-0.6,1-0.4,2.1c0,0,0,1.3,0,1.3
		s0.1,0.9-0.8,2.4c0,0-0.8,2.1-4,3.1c0,0-2.6,0.7-4.2-1.5c0,0-1.2-1.5-1.2-1.5s-0.6-0.5,0-1.7c0,0,0.8-0.9,1.5-1.3
		c0,0,1.1-0.5,0.6-2.5c0,0-0.5-1.4-0.8-2c0,0-0.5-0.8-0.5-0.8s-1.6-6.4-5.5-7c0,0-1.3,0.5-1.3,0.5l-1.3,0.4l-0.4-0.2l-0.4-0.8
		l-0.8-2.3l-0.4-1c0,0-0.8-2.1-2.5-2c0,0-2.1-0.2-2.6,2c0,0-0.5,1.6-0.5,1.6s-0.1,0.7-0.6,1.5c0,0-0.5,0.7-2.1,1.3
		c0,0-1.8,0.6-2.2,0.9c0,0-1,0.7-1.6,2.2l0.5-6.4L435.8,382.9z"/>
	
		<path id="_x3C_GALLIA_x3E_" fill="none" stroke="#DBD8BD" stroke-linecap="round" stroke-linejoin="round" stroke-miterlimit="3.8637" d="
		M415,425.9l2.6,0.1l-0.8,9.7l14.7,0.8l-1.2,15l9.7,0c0.6-1.5,1.9-2.6,4.3-2.2l0.7,0.5c1.3-0.1,2.1,0.6,3.2,0.8
		c9.4,1.3,4.9-9.5,4.1-14.3c1.5-4.2,0.6-4.7,0.4-8.8l-0.5-0.4c-0.4-0.9-0.2-1.7-0.4-2.6c-0.8-1.1-2.3-1.3-3.1-2.4
		c-3.6-5.1,7.9-7.8,9.3-11.5c1.2-2.9-0.7-8.2,0.4-9.5l0.8,0.1l0.4-1l0.6-0.1c0.7-1.9,2.5-3.6,2.2-5.6c0.4-0.8,0.9-2.3,1.5-3.5l0,0
		l0.5-6.4l-28.6-1.5l0.2-2.6l-14.2-1l-2.7,30.2l-14.5-1.9l-1.4,12.3l12.4,0.8L415,425.9z"/>
	
		<polygon id="_x3C_ATHENS_x3E_" fill="none" stroke="#DBD8BD" stroke-linecap="round" stroke-linejoin="round" stroke-miterlimit="3.8637" points="
		456.9,296.1 455.7,310.6 441.7,309.6 439.3,337.8 444,338.3 442.8,352.2 506.5,356.4 506.7,355.9 508.4,355.1 508.8,354.8 
		509.1,354.3 509.2,353.5 509.3,352.9 509.3,352.3 509.4,351.9 509.5,351.4 509.7,351 510.6,350.8 511.2,342.3 498.6,341.7 
		498.9,336.8 496.6,337 497,334.2 494.3,334.5 495.4,313.5 469.2,311.9 470.4,297 	"/>
	
		<polygon id="_x3C_HOCKING_x3E_" fill="none" stroke="#DBD8BD" stroke-linecap="round" stroke-linejoin="round" stroke-miterlimit="3.8637" points="
		429.5,289.4 444,290.3 443.9,295.3 456.9,296.1 455.7,310.6 441.7,309.6 440.5,323.1 412.4,321.2 412.1,325.4 397.6,324.1 
		397.2,326.8 383.5,325.2 385.7,295.7 386,293.4 399.5,294.5 400,287.2 415,288.2 415.8,278.8 430.3,279.9 	"/>
	
		<path id="_x3C_WASHINGTON_x3E_" fill="none" stroke="#DBD8BD" stroke-linecap="round" stroke-linejoin="round" stroke-miterlimit="3.8637" d="
		M496.6,337l2.3-0.2l-0.3,4.9l12.5,0.6l-0.6,8.5c0,0,0,0,0,0c1.4-0.3,3.3-0.6,3.9-1.5c1.2-1.7-4.5-8.1,6.3-8.1
		c0.9,0.2,1.9,0.8,2.8,0.8l0.5,0c2.5-0.2,4.2,2.1,5.6,1.4c0.8-0.7,0.5-10.7,1.6-12.5c1.9-2.9,4.1-2.5,6.1-4.3
		c3.9-3.4,4.6-7.9,10.5-3.7c2.7,1.9,1.7,8.4,5.2,9c5.1,0.8,7.7-5.9,12.3-6.5c0.3-0.4,0.7-0.8,1.1-1.1c1.2,0,2.3,0,3.4,0.1
		c3.9,0.3,3.2,2.7,4.1-2.5c4.6-6.6,3.4-6,9.8-7.6c2.5-2.2,3.1-5.7,5-8.3c1-1.4,3.6-4.4,6.8-7.4h-0.1v-5h-28v-5h-2v2h-9v-1h-6v-2h-2
		v-3h-5v-2h-2.2l0,9.9l-29.4-0.7l-0.6,0.9l0.4,2.8l-1.5,1.6l0.2,3.4l2.4-0.1l-0.3,8.2l-7-0.2v-0.9l-2-0.1l-0.1-0.8l-4.8-0.2
		l-0.6,7.4l-2.5-0.2l-1,21l2.6-0.3L496.6,337z"/>
	
		<path id="_x3C_JEFFERSON_x3E_" fill="none" stroke="#DBD8BD" stroke-linecap="round" stroke-linejoin="round" stroke-miterlimit="3.8637" d="
		M613.6,199.4l14.6,1.7v-1.8l7.9,0.1c0,0,0.8-1.4,1.3-2.1c0,0,1.6-1.8,2.6-5.4c0,0,0.3-1.6,0.3-2.2c0,0,0-1.9,1-3.6
		c0,0,0.8-1.6,3-2.6c0,0,1.2-0.6,1.8-1.8c0,0,0.4-1.1-0.2-2.8c0,0,0.2-1.1,1.3-2.7c0,0,0.9-1.4,1-2.6c0,0-0.2-1.2-1.3-3
		c0,0-0.6-1.1-0.3-2.2c0,0,0.8-3,0.7-3.5c0,0-1.4-1.3-2.8-1.7c0,0-0.7-0.5-0.7-0.5s-0.3-0.7,0.1-1.1c0,0,0.7-0.7,1.4-0.8
		c0,0,0.6-0.4,0.6-0.4l0.3-0.5c0,0,0-0.1,0.1-0.4c0,0,0.1-1.3-0.1-3c0,0-0.2-1.4,0.4-2.5c0,0,1.8-3.1,1.9-4.6c0,0-0.5-1.4-1-2.3
		c0,0-0.8-1.2-1.3-1.5l-0.1-1l-0.6-0.3c0,0-0.4-0.8-0.6-1.7c0,0-0.8-3.8-0.8-3.8l-0.9-0.3c0,0-1.6-3.7-2.5-4.4c0,0-0.8-0.2-0.8-0.2
		l-0.5-1.3l-0.2-0.8l0-0.2h-9.7v-2.5h-13.9v7h-7.5v14.2h-2.2v6.6l9.6,0.3l-0.1,7.1h-1L613.6,199.4z"/>
	
		<path id="_x3C_COLUMBIANA_x3E_" fill="none" stroke="#DBD8BD" stroke-linecap="round" stroke-linejoin="round" stroke-miterlimit="3.8637" d="
		M588,80.8h23v-4.5h9v4.5h34.8h1.2l0.1,41.3l-0.9,1.2l-1.3,0.8L653,124l-0.9,0.6l-0.9,1.4l-1.8,0.5c0,0-1.8-1.5-2.4-1.6
		c0,0-0.7-0.1-1,0.4c0.1-0.2-1.1,0.6-1.6,0.5c0,0-0.5-0.3-0.9,0.4c0,0.1-0.7,0.9-1.1,0.9c0,0-0.6,1.4-1.2,2l-0.8,0.6l-0.7,0.5
		l-0.4,0.6l-0.1,0.9h-9.7v-2.5h-13.9v-6.7h-7.1l0.1-13.9h-20.8L588,80.8z"/>
	
		<polygon id="_x3C_CARROLL_x3E_" fill="none" stroke="#DBD8BD" stroke-linecap="round" stroke-linejoin="round" stroke-miterlimit="3.8637" points="
		608.2,136.2 615.6,136.2 615.6,129.2 615.6,122.4 608.6,122.4 608.7,108.6 587.9,108.6 574.5,108.5 574.5,109.6 569.3,109.6 
		569.3,121.3 560,121.3 560,135.1 566.1,135.1 566.1,156.3 573.1,156.6 573.6,156 605.9,157 605.9,150.4 608.2,150.4 	"/>
	
		<polygon id="_x3C_HARRISON_x3E_" fill="none" stroke="#DBD8BD" stroke-linecap="round" stroke-linejoin="round" stroke-miterlimit="3.8637" points="
		605.9,157 615.5,157.2 615.4,164.4 614.4,164.4 613.6,199.4 585.5,199.4 585.5,198.2 557.9,198.2 557.7,191 557.9,177.2 
		566.1,177.2 566.1,156.3 573.1,156.6 573.6,156 	"/>
	
		<polygon id="_x3C_TUSKARAWAS_x3E_" fill="none" stroke="#DBD8BD" stroke-linecap="round" stroke-linejoin="round" stroke-miterlimit="3.8637" points="
		560,135.1 566.1,135.1 566.1,177.2 557.9,177.2 557.7,191 523.1,190 523.8,166.6 512,166.3 512.2,154.4 517.2,154.5 518.1,124.6 
		535.6,121.6 541.5,121.2 542.9,118.5 545.8,119.1 544.5,120.3 545.2,121.3 560,121.3 	"/>
	
		<polygon id="_x3C_GUERNSEY_x3E_" fill="none" stroke="#DBD8BD" stroke-linecap="round" stroke-linejoin="round" stroke-miterlimit="3.8637" points="
		514.4,250.9 528.7,251.4 528.7,241.7 543,241.7 543,237.4 552.3,237.4 552.3,232.9 557,232.9 557.4,232.5 571.1,232.5 571.6,198.2 
		557.9,198.2 557.7,191 517.4,189.9 517.2,201.3 511.6,201.1 509.8,236.5 514.7,236.9 	"/>
	
		<polygon id="_x3C_MORGAN_x3E_" fill="none" stroke="#DBD8BD" stroke-linecap="round" stroke-linejoin="round" stroke-miterlimit="3.8637" points="
		520.6,264.9 467.2,261.9 466.7,268.9 473.8,269.4 471.8,297.1 470.4,297 469.2,311.9 497.9,313.6 498.5,306.3 503.4,306.5 
		503.5,307.2 505.4,307.3 505.4,308.2 512.5,308.5 512.9,300.3 510.4,300.4 510.2,297 511.7,295.4 511.3,292.6 511.9,291.6 
		527.5,291.9 527.5,279.2 520.6,279.2 	"/>
	
		<polygon id="_x3C_PERRY_x3E_" fill="none" stroke="#DBD8BD" stroke-linecap="round" stroke-linejoin="round" stroke-miterlimit="3.8637" points="
		456.8,239.4 447.8,238.8 424.5,237.4 424.6,235.9 419.5,235.4 419.5,236.6 418.5,251 428,251.7 426.7,266 431.5,266.1 429.5,289.4 
		444,290.3 443.9,295.3 456.9,296.1 471.8,297.1 473.8,269.4 466.7,268.9 467.6,254.6 455.7,253.7 	"/>
	
		<polygon id="_x3C_PICKAWAY_x3E_" fill="none" stroke="#DBD8BD" stroke-linecap="round" stroke-linejoin="round" stroke-miterlimit="3.8637" points="
		374.7,257 372.4,279.9 373.4,280.6 372,294.5 385.7,295.7 384.7,310 352.3,307 353.2,305.9 355.3,305.9 355.4,304.2 354.6,302.4 
		345.1,302.9 334.3,301.9 319.5,300.5 321.9,272 323.7,252.9 	"/>
	
		<polygon id="_x3C_FAIRFIELD_x3E_" fill="none" stroke="#DBD8BD" stroke-linecap="round" stroke-linejoin="round" stroke-miterlimit="3.8637" points="
		426.7,266 431.5,266.1 430.3,279.9 415.8,278.8 415,288.2 400,287.2 399.5,294.5 386,293.4 385.7,295.7 372,294.5 373.4,280.6 
		372.4,279.9 375.1,252.3 377.7,252.6 378.9,238.8 376.4,238.8 376.8,233.8 419.5,236.6 418.5,251 428,251.7 	"/>
	
		<polygon id="_x3C_MUSKINGUM_x3E_" fill="none" stroke="#DBD8BD" stroke-linecap="round" stroke-linejoin="round" stroke-miterlimit="3.8637" points="
		448.2,233 452.1,233.2 454,198.5 511.6,201.1 509.8,236.5 514.7,236.9 514.1,264.5 467.2,261.9 467.6,254.6 455.7,253.7 
		456.8,239.4 447.8,238.8 	"/>
	
		<polygon id="_x3C_COSHOCTON_x3E_" fill="none" stroke="#DBD8BD" stroke-linecap="round" stroke-linejoin="round" stroke-miterlimit="3.8637" points="
		512.2,154.4 512,166.3 523.8,166.6 523.1,190 517.4,189.9 517.2,201.3 454,198.5 454.6,186.8 452.7,186.7 454.5,152.2 	"/>
	
		<polygon id="_x3C_LICKING_x3E_" fill="none" stroke="#DBD8BD" stroke-linecap="round" stroke-linejoin="round" stroke-miterlimit="3.8637" points="
		418.8,182.5 418.2,185.6 454.6,186.8 452.1,233.2 448.2,233 447.8,238.8 424.5,237.4 424.6,235.9 419.5,235.4 419.5,236.6 
		380.3,234 380.4,228.4 381.8,227.7 385.1,179.9 	"/>
	
		<polygon id="_x3C_FRANKLIN_x3E_" fill="none" stroke="#DBD8BD" stroke-linecap="round" stroke-linejoin="round" stroke-miterlimit="3.8637" points="
		333,206.5 328.4,206.3 328.1,216 322.8,215.9 321.9,219.2 323.2,219.4 323.7,228.9 326.4,234.7 323.2,236.8 323.7,252.9 
		374.7,257.1 375.1,252.3 377.7,252.6 378.9,238.8 376.4,238.8 376.8,233.8 380.3,234 380.4,228.4 381.8,227.7 383.4,204.4 
		333.1,200.5 	"/>
	
		<polygon id="_x3C_MADISON_x3E_" fill="none" stroke="#DBD8BD" stroke-linecap="round" stroke-linejoin="round" stroke-miterlimit="3.8637" points="
		292.3,204.8 328.4,206.3 328.1,216 322.8,215.9 321.9,219.2 323.2,219.4 323.7,228.9 326.4,234.7 323.2,236.8 323.7,252.9 
		321.9,272 286.4,269.4 272.6,267 273.6,258.5 280.5,259.3 290.4,220.8 	"/>
	
		<polygon id="_x3C_DELAWARE_x3E_" fill="none" stroke="#DBD8BD" stroke-linecap="round" stroke-linejoin="round" stroke-miterlimit="3.8637" points="
		324.7,152.2 323.9,184.4 333.4,184.5 333.1,200.5 383.4,204.4 385.1,179.9 385.9,168.2 363,166.9 364.2,157.2 352.5,157.2 
		352.5,154.5 	"/>
	
		<polygon id="_x3C_MARION_x3E_" fill="none" stroke="#DBD8BD" stroke-linecap="round" stroke-linejoin="round" stroke-miterlimit="3.8637" points="
		324.9,142.3 324.7,152.2 348.6,154.2 352.5,154.5 352.5,145.8 360.7,145.8 360.7,120.9 373.1,120.9 373,111.6 342.3,111.1 
		318.8,110.8 318.6,113.7 304.8,113.3 304.8,142 	"/>
	
		<polygon id="_x3C_RICHLAND_x3E_" fill="none" stroke="#DBD8BD" stroke-linecap="round" stroke-linejoin="round" stroke-miterlimit="3.8637" points="
		389.8,65.5 388.9,111.5 394.8,111.3 400.9,111.1 400.9,113 401.3,113 409.3,112.8 409.8,117.5 412.1,118 413,132.7 425.7,137.4 
		432.8,137.6 436.3,136.9 436,108.7 431.5,108.9 431.5,98.9 430.2,98.1 430.5,96.2 426.2,96.2 427,66.1 	"/>
	
		<polygon id="_x3C_CRAWFORD_x3E_" fill="none" stroke="#DBD8BD" stroke-linecap="round" stroke-linejoin="round" stroke-miterlimit="3.8637" points="
		342.3,111.1 373,111.6 373.1,110 388.9,111.5 389.8,65.5 342.5,64.8 	"/>
	
		<polygon id="_x3C_HURON_x3E_" fill="none" stroke="#DBD8BD" stroke-linecap="round" stroke-linejoin="round" stroke-miterlimit="3.8637" points="
		376.4,18 377.1,65.3 424.9,66 424.9,54.7 436.9,54.7 436.4,19.4 	"/>
	
		<polygon id="_x3C_WYANDOT_x3E_" fill="none" stroke="#DBD8BD" stroke-linecap="round" stroke-linejoin="round" stroke-miterlimit="3.8637" points="
		293.7,78.3 298.5,78.3 298.5,71.4 301,71.4 300.9,64.2 342.5,64.8 342.3,111.1 318.8,110.8 318.6,113.7 302.6,113.2 302.5,110.3 
		295.4,110.6 296.1,92.1 293.7,92 	"/>
	
		<polygon id="_x3C_HARDIN_x3E_" fill="none" stroke="#DBD8BD" stroke-linecap="round" stroke-linejoin="round" stroke-miterlimit="3.8637" points="
		296.1,92.1 295.4,110.6 302.5,110.3 302.6,113.2 304.8,113.3 304.8,142 291.8,141.8 247.9,135.3 249.1,90.8 	"/>
	
		<polygon id="_x3C_UNION_x3E_" fill="none" stroke="#DBD8BD" stroke-linecap="round" stroke-linejoin="round" stroke-miterlimit="3.8637" points="
		294.5,186.9 292.3,204.8 315.3,205.7 333,206.5 333,206.5 333.4,184.5 323.9,184.4 324.9,142.3 291.8,141.7 287.1,186 	"/>
	
		<polygon id="_x3C_NOBEL_x3E_" fill="none" stroke="#DBD8BD" stroke-linecap="round" stroke-linejoin="round" stroke-miterlimit="3.8637" points="
		514.4,250.9 514.1,264.5 520.6,264.9 520.6,279.2 527.5,279.2 527.5,291.9 541.3,292.4 541.3,282.5 543.5,282.5 543.5,284.5 
		548.5,284.5 548.5,287.5 550.5,287.5 550.5,289.5 556.5,289.5 556.5,290.5 565.5,290.5 565.6,271.5 560.7,271.5 561.4,246.1 
		570.8,246.6 571.1,232.5 557.4,232.5 557,232.9 552.3,232.9 552.3,237.4 543,237.4 543,241.7 528.7,241.7 528.7,251.4 	"/>
	
		<polygon id="_x3C_SENECA_x3E_" fill="none" stroke="#DBD8BD" stroke-linecap="round" stroke-linejoin="round" stroke-miterlimit="3.8637" points="
		377.1,65.3 376.4,23.4 306.7,22.1 305.6,64.2 	"/>
	
		<polygon id="_x3C_SANDUSKY_x3E_" fill="none" stroke="#DBD8BD" stroke-linecap="round" stroke-linejoin="round" stroke-miterlimit="3.8637" points="
		375.5,-0.5 307.4,-0.5 306.7,22.1 376.4,23.1 376.4,18 376,-0.5 	"/>
	
		<polygon id="_x3C_ASHLAND_x3E_" fill="none" stroke="#DBD8BD" stroke-linecap="round" stroke-linejoin="round" stroke-miterlimit="3.8637" points="
		424.9,54.7 456.6,54.7 456.9,66.5 461.7,66.8 461.7,118.4 450.3,118.4 450.3,134.4 436.3,136.9 436,108.7 431.5,108.9 431.5,98.9 
		430.2,98.1 430.5,96.2 426.2,96.2 427,66 424.9,66 	"/>
	
		<polygon id="_x3C_HOLMES_x3E_" fill="none" stroke="#DBD8BD" stroke-linecap="round" stroke-linejoin="round" stroke-miterlimit="3.8637" points="
		517.2,154.5 512.2,154.4 454.5,152.2 455.4,133.3 450.3,134.4 450.3,118.4 519.7,118.4 519.7,124 518.1,124.6 	"/>
	
		<polygon id="_x3C_WAYNE_x3E_" fill="none" stroke="#DBD8BD" stroke-linecap="round" stroke-linejoin="round" stroke-miterlimit="3.8637" points="
		519.7,66.5 461.7,66.8 461.7,118.4 519.7,118.4 	"/>
	
		<polygon id="_x3C_STARK_x3E_" fill="none" stroke="#DBD8BD" stroke-linecap="round" stroke-linejoin="round" stroke-miterlimit="3.8637" points="
		520.1,79.2 548.1,80.6 548.1,67.1 587.9,67.2 588,81 587.9,108.6 574.5,108.5 574.5,109.6 569.3,109.6 569.3,121.3 545.2,121.3 
		544.5,120.3 545.8,119.1 542.9,118.5 541.5,121.2 535.6,121.6 518.1,124.6 519.7,124 519.7,79.1 	"/>
	
		<polygon id="_x3C_PUTNAM_x3E_" fill="none" stroke="#DBD8BD" stroke-linecap="round" stroke-linejoin="round" stroke-miterlimit="3.8637" points="
		250.6,35.1 249.6,74.5 235.8,74.3 235.7,76.7 221.9,76.1 221.6,83.4 193.7,82.6 193.9,75.5 186.8,75.4 187.3,61.7 194.2,61.8 
		195.2,33.8 	"/>
	
		<polygon id="_x3C_SUMMIT_x3E_" fill="none" stroke="#DBD8BD" stroke-linecap="round" stroke-linejoin="round" stroke-miterlimit="3.8637" points="
		515.8,21.6 530.7,21.6 529.3,17.9 529.2,17 527.7,16.3 527.6,14.6 527.3,13.5 527.3,11.7 525.6,9.5 530.8,9.5 550.7,9.2 
		550.8,67.5 548.1,67.5 549.2,102.6 520.5,101.9 520.5,89.3 505.9,89.1 505.9,66.5 516,66.5 	"/>
	
		<polygon id="_x3C_ALLEN_x3E_" fill="none" stroke="#DBD8BD" stroke-linecap="round" stroke-linejoin="round" stroke-miterlimit="3.8637" points="
		220.9,118.3 248.4,118.3 249.6,74.5 235.8,74.3 235.7,76.7 221.9,76.1 221.6,83.4 193.7,82.6 193.6,89.6 186.5,89.4 186.1,110.3 
		207.3,110.7 207,115.6 221.1,115.5 	"/>
	
		<polygon id="_x3C_VAN_WERT_x3E_" fill="none" stroke="#DBD8BD" stroke-linecap="round" stroke-linejoin="round" stroke-miterlimit="3.8637" points="
		178.8,110.3 186.1,110.3 186.5,89.4 193.6,89.6 193.9,75.5 186.8,75.4 187.3,61.7 127.8,59.7 127.5,101.7 178.9,103.2 	"/>
	
		<polygon id="_x3C_PAULDING_x3E_" fill="none" stroke="#DBD8BD" stroke-linecap="round" stroke-linejoin="round" stroke-miterlimit="3.8637" points="
		194.2,61.8 195.5,27 181.4,26.7 181.4,19.1 128.1,18 127.8,59.7 	"/>
	
		<polygon id="_x3C_DARKE_x3E_" fill="none" stroke="#DBD8BD" stroke-linecap="round" stroke-linejoin="round" stroke-miterlimit="3.8637" points="
		178.5,232.4 126.6,230.9 127.1,162.4 179.6,163.1 	"/>
	
		<polyline id="_x3C_DEFIANCE_x3E_" fill="none" stroke="#DBD8BD" stroke-linecap="round" stroke-linejoin="round" stroke-miterlimit="3.8637" points="
		133,-0.5 128.3,-0.5 128.4,5.5 172.9,6.7 172.6,19 181.4,19.1 181.5,26.8 195.5,27 195.1,33.8 208.8,34.2 209.7,-0.5 133,-0.5 	"/>
	
		<polygon id="_x3C_AUGLAISE_x3E_" fill="none" stroke="#DBD8BD" stroke-linecap="round" stroke-linejoin="round" stroke-miterlimit="3.8637" points="
		248.4,118.3 247.9,135.3 234.1,135.8 234.1,144.4 192.4,143.2 191.6,159.7 179.7,159.1 179.6,163.1 177.6,163.1 178.8,110.3 
		207.3,110.7 207,115.6 221.1,115.5 220.9,118.3 	"/>
	
		<path id="_x3C_BELMONT_x3E_" fill="none" stroke="#DBD8BD" stroke-linecap="round" stroke-linejoin="round" stroke-miterlimit="3.8637" d="
		M624.4,247.8l1.2-1.8c0.2-1.4-5.1-7.8-1.2-8.3l1.9,0.5c0.5,0.7,1.3,1.2,2.1,1.6c0.4,0,0.9-0.3,1.2-0.6l0.2-0.5
		c-0.3-1.6-1.7-3.7-1.5-5.3c0.4-2.7,3.2-2.7,3.4-4.7c0.2-1.6-0.8-3.5-0.7-5c0.2-1.8,1.7-4.6,1.6-5.9c-0.1-1.8-1.7-3.3-1.2-5
		c0.6-2.2,3.5-2.9,3.7-4.8c0.2-1.6-0.3-1.8-0.7-3.2c-0.4-1.4,0.5-3.5,1.5-5.3l-7.9-0.1l0,1.8l-14.6-1.7l-28,0l0-1.2l-13.9,0
		l-0.9,48.4l51,2.8C622.3,248.7,623.1,248.1,624.4,247.8z"/>
	
		<path id="_x3C_MONROE_x3E_" fill="none" stroke="#DBD8BD" stroke-linecap="round" stroke-linejoin="round" stroke-miterlimit="3.8637" d="
		M565.5,288.5h2v5h28v5.1c0,0,0,0,0,0.1c4.9-4.9,10.9-10.5,13.3-12.2c1.9-1.4,3.7,0.9,5.8-0.4c2.6-2.7,0.9-8.6,1.9-11.1
		c0.8-2,5.6-1.1,4.2-5.4c-1.1-1-1.1-2.2-2-3.2l-0.2-0.1c-0.2,0.2-0.5,0.3-0.8,0.3c-0.8-1-1.5-2.3-1.9-3.5c0-1.5,4.5-4.5,5.7-5.9
		c0-3.1-0.9-5.9,0.4-7.8l-51-2.8l-9.4-0.5l-0.7,25.4h4.8V288.5z"/>
	
		<polygon id="_x3C_HANCOCK_x3E_" fill="none" stroke="#DBD8BD" stroke-linecap="round" stroke-linejoin="round" stroke-miterlimit="3.8637" points="
		306.3,36.8 250.6,35.1 249.1,90.8 293.7,92 293.7,78.3 298.5,78.3 298.5,71.4 301,71.4 300.9,64.2 305.6,64.2 	"/>
	
		<polygon id="_x3C_HENRY_x3E_" fill="none" stroke="#DBD8BD" stroke-linecap="round" stroke-linejoin="round" stroke-miterlimit="3.8637" points="
		228,-0.5 252,-0.5 250.6,35.1 208.8,34.2 209.7,-0.5 	"/>
	
		<polygon id="_x3C_WOOD_x3E_" fill="none" stroke="#DBD8BD" stroke-linecap="round" stroke-linejoin="round" stroke-miterlimit="3.8637" points="
		252,-0.5 250.6,35.1 306.3,36.8 307.4,-0.5 	"/>
</g>
<g id="STATE_BORDERS_x2F_SERVICE_BOUNDARY">
	<g id="STATE_BORDER">
		<polyline fill="none" stroke="#C9C79D" stroke-width="4" stroke-linecap="round" stroke-linejoin="round" points="403.8,484 
			403.3,481 403.6,479.9 		"/>
		<polyline fill="none" stroke="#FFFFFF" stroke-linecap="round" stroke-linejoin="round" points="403.8,484 403.3,481 403.6,479.9 
					"/>
	</g>
	<g id="WEST_VIRGINIA_BORDER">
		<polyline fill="none" stroke="#C9C79D" stroke-width="4" stroke-linecap="round" stroke-linejoin="round" points="744,271 
			655.9,271 655.9,124.6 		"/>
		<polyline fill="none" stroke="#FFFFFF" stroke-linecap="round" stroke-linejoin="round" points="744,271 655.9,271 655.9,124.6 		
			"/>
	</g>
	<g id="INDIANA_BORDER">
		<path fill="none" stroke="#C9C79D" stroke-width="4" stroke-linecap="round" stroke-linejoin="round" d="M126.5,360.7l-6.2,4.1
			c0,0-6.7,3.4-4.2,7.2c0,0.1,4.4,5.1,5.8,8.8c0.1,0.2,2.1,1.6-1.4,5.8c-0.1,0-4.1,3.9-3.3,5.9c0,0.1,1,2.3,4,2c0,0.1,6.4-0.9,7,3
			c0.1,0.1,0.5,3-2.9,4.9c0,0.2-4.1,3.1-1.4,6c0.1,0.2,2.4,2.6,1.1,3.8c0-0.1-1.5,1.5-4.9-0.4c0,0-2.5-0.9-5-0.4
			c-2.5,0.5-4.4,2.5-7,2.7c-1.5,0.1-3.1-0.2-4.6-0.1c-1.5,0.1-3.1,0.5-4.2,1.6c0,0-8.7,4.9-10.7,6.4c0,0-3.5,2.9-5.1,4.4
			c0-0.1-1.9,1.3-5.1,1.3c0,0-2.4,0.7-5.4-1.6c-0.1,0-2.5-2.5-3.3-3.9c0,0-0.9-2.3-4.3-2.5c0,0.1-3.6,0.1-5.7,0.4
			c-0.2,0-2.8,0.8-3.8,0.8c0.1,0.1-3.1,0.1-5.2-0.6c0.1,0.1-4.6-0.3-6.2,3.4c0.1,0.1-2.8,4.1-0.1,6.7c0.1,0.1,1.8,2.9,1,6.1
			c0,0-0.6,4.9,1.2,8.1c0.2,0.2,3.7,5.1-0.3,9c0,0.2-2.5,1.3-3.8,1.8c0-0.1-2,0.9-2.7,4c0,0.1-0.6,4.6-6.8,5.3
			c-0.2,0-5.1-1.8-9.7,3.8c0,0-3.4,4.5-3.9,11.5c0,0,0.1,1.7-0.5,3.8"/>
		<path fill="none" stroke="#FFFFFF" stroke-linecap="round" stroke-linejoin="round" d="M126.5,360.7l-6.2,4.1c0,0-6.7,3.4-4.2,7.2
			c0,0.1,4.4,5.1,5.8,8.8c0.1,0.2,2.1,1.6-1.4,5.8c-0.1,0-4.1,3.9-3.3,5.9c0,0.1,1,2.3,4,2c0,0.1,6.4-0.9,7,3c0.1,0.1,0.5,3-2.9,4.9
			c0,0.2-4.1,3.1-1.4,6c0.1,0.2,2.4,2.6,1.1,3.8c0-0.1-1.5,1.5-4.9-0.4c0,0-2.5-0.9-5-0.4c-2.5,0.5-4.4,2.5-7,2.7
			c-1.5,0.1-3.1-0.2-4.6-0.1c-1.5,0.1-3.1,0.5-4.2,1.6c0,0-8.7,4.9-10.7,6.4c0,0-3.5,2.9-5.1,4.4c0-0.1-1.9,1.3-5.1,1.3
			c0,0-2.4,0.7-5.4-1.6c-0.1,0-2.5-2.5-3.3-3.9c0,0-0.9-2.3-4.3-2.5c0,0.1-3.6,0.1-5.7,0.4c-0.2,0-2.8,0.8-3.8,0.8
			c0.1,0.1-3.1,0.1-5.2-0.6c0.1,0.1-4.6-0.3-6.2,3.4c0.1,0.1-2.8,4.1-0.1,6.7c0.1,0.1,1.8,2.9,1,6.1c0,0-0.6,4.9,1.2,8.1
			c0.2,0.2,3.7,5.1-0.3,9c0,0.2-2.5,1.3-3.8,1.8c0-0.1-2,0.9-2.7,4c0,0.1-0.6,4.6-6.8,5.3c-0.2,0-5.1-1.8-9.7,3.8
			c0,0-3.4,4.5-3.9,11.5c0,0,0.1,1.7-0.5,3.8"/>
	</g>
	<g id="_x3C_STATE_BORDER_TOP_x3E_">
		<path fill="none" stroke="#C9C79D" stroke-width="4" stroke-linecap="round" stroke-linejoin="round" d="M426.8,0
			c-3.1,2.2-6.3,4.5-12.4,2.1c-0.8-0.3-2.3-0.8-2.7-1.6l-0.6,0.5l-0.2-0.6c-0.3-0.1-0.5-0.3-0.7-0.4"/>
		<path fill="none" stroke="#FFFFFF" stroke-linecap="round" stroke-linejoin="round" d="M426.8,0c-3.1,2.2-6.3,4.5-12.4,2.1
			c-0.8-0.3-2.3-0.8-2.7-1.6l-0.6,0.5l-0.2-0.6c-0.3-0.1-0.5-0.3-0.7-0.4"/>
	</g>
	<g id="_x3C_OHIO_STATE_BORDER_x3E_">
		<path fill="none" stroke="#C9C79D" stroke-width="4" stroke-linecap="round" stroke-linejoin="round" d="M128.6-0.5l-3,361.1
			l0.9,0.1l0.2-0.5c0.5-0.1,2.5-0.6,2.7-0.8c0.7-0.5,1.3-1.9,1.9-2.5c0.4-0.4,2-1.7,2.2-2.1c4.8-1.5,6.4,6.4,9.7,8.2
			c3.4-0.9,3.6,3.8,7.4,4.1c0.8,0.1,1.5-0.6,2.2-0.8c1-0.3,2.3,0,3.2-0.6c1.2-0.7,1.6-2.4,2.9-2.9c1.5-0.3,2.3,2.3,5.1,1.2
			c2.3-0.9,2.1-2.1,3.7-3.5c2-1.9,4.9,0.5,5.4,2.7c0.6,2.4-0.6,5.1,0.7,7.7c0.6,0.6,1.5,0.6,2.1,1.2c0.5-0.1,0.9-0.2,1.3-0.4
			c2.2,1.4,5.6,0.8,7.7,2.9c1.3,1.3,3.2,3.2,4.2,4.8c1.1,2-0.2,3.7,0.4,5.7c1.3,4.6,7.1,8.5,8,13.4c-0.7,0.9-0.6,3.7-0.6,4.9
			c0,8.9,2,7.6,9.3,9.5c2.1,0.6,3.9,2.1,5.9,2.8h0.1c1.3,0.9,3.6,1.3,5.1,1.8l0.9-0.4c1,0.1,2.4,0.7,3.3,0.4c3.3-1,9.3-4.3,12.6-1.2
			c0.7,0.7,0.4,1,0.8,1.6c2.6,0,8.9,1.2,9.8,4.2c0.4,1.3,0.2,3,0.6,4.2c0.5,0.5,1.1,0.8,1.8,1l0.3,0.7c10,2.3,2.9,6.5,7.1,9.2
			c1.5,0.9,3.9,0.7,5.7,1.2c0.8,1.5,3,1.9,4.4,2.4c10.3,3.7,1.9-9.8,10.7-8.6l1.1-0.9c7.4-0.2,7.9-5.9,15.3,2.7l0.6-0.3
			c5.3,2.7,10.9,2.2,16.7,6.4c2.6,1.9-1.3,5.6,4.7,7.5l0.7-0.3l0.1-0.2c1.4-1,2.1-2.7,3.3-3.8l0.7,0.1c0.3-0.1,0.6-0.6,0.7-0.8
			c2.8,0.3,3.8,1.7,5.5,2c1.2,0.2,2.8-0.5,4-0.5c8.3,0,4.4-5.4,8.4-8.7c4.9-4,3.5,2.7,10-7.8c0.3-0.2,0.6-0.4,0.9-0.7l0.7,0.3
			c2.1-0.9,4,1.1,6,0.1c2.8-1.5,12.6-9,12.6-0.5c0,2.2-1.1,4.1-1.2,6.1c-0.1,1.4,2.4,3.9,2.5,6.3c0.2,2.5-0.5,5.3,0.2,7.8
			c0.5,2,1.6,2.8,3.1,3.9c0.9,0.7,1.6,1.8,2.5,2.4c2.3,1.6,7.6,1.2,10.4,1.3c1,1.5,2.8,1.3,3.9,2.6c2,2.4,3,6.4,5.4,8.5
			c1.3,1.1,3.4,1.5,4.7,2.5c1.8,1.5,1.3,7,3.2,9.7c1,1.4,5.2,1.8,6.6,1.6c1-0.1,15.1-4.8,15.9-5.5l0.6-0.1c1.5,1.8,2.7,0.8,4.5,0.5
			c1.7-0.3,2.9,0,4.6-1.1c1.3-0.8,3.5-6.8,3.7-8.4c0.1-1.2-0.5-2.5-0.2-3.6c0.3-1.4,1.2-3.1,1.5-4.6c0.2-1.4-0.7-8.8,5.1-7.9
			l0.7,0.5c1.3-0.1,2.1,0.6,3.2,0.8c9.4,1.3,4.9-9.5,4.1-14.3c1.5-4.2,0.6-4.7,0.4-8.8l-0.5-0.4c-0.4-0.9-0.2-1.7-0.4-2.6
			c-0.8-1.1-2.3-1.3-3.1-2.4c-3.6-5.1,7.9-7.8,9.3-11.5c1.2-2.9-0.7-8.2,0.4-9.5l0.8,0.1l0.4-1l0.6-0.1c0.7-1.9,2.5-3.6,2.2-5.6
			c0.6-1.2,1.6-4.2,2.4-5.1c1.2-1.4,3.5-1.2,4.8-2.5c0.8-0.8,0.9-2.9,1.5-4.1c0.4-0.9,1.1-1.1,1.9-1.2c3.3-0.3,3.1,4,4.4,6.1
			l0.4,0.2c0.9-0.2,1.8-0.6,2.6-0.9c2.6,0.1,5,4.8,5.5,7c4.4,6.4-1.2,4.4-1,7.8c0.1,0.7,2.1,2.7,2.7,3.1c2.9,1.7,6.9-1.2,7.6-4.4
			c0.3-1.1-0.1-2.3,0.2-3.4c0.3-0.9,1.5-2.7,2.4-3.1c0.6-0.3,1.7,0.1,2.2,0.4c1.1,0.7,1.2,2.2,2.3,2.9c3,1.9,5.1,0.2,2.9-3.2
			c-0.5-0.8-1.2-1.2-1.8-1.9c-0.9-2.8,3.4-5.6,1.8-9.3c-0.9-2.2-8.4-7.5-5.6-10.7c1.1,0.1,2.2,0.7,3.1,0.8c0.9,0.1,1.8-0.4,2.6-0.8
			c4.2-1.8,2.9-4.4,2.5-8.2c0.4-0.6,0.5-1.6,0.4-2.3c-0.9-1-1.3-3.8-1.6-5.2l0.2-0.5c0.5-0.5,1.3-0.6,1.9-0.9c1-1,0.3-3.1,1-4
			c1.3-0.4,4-0.6,4.8-1.7c1.2-1.7-4.5-8.1,6.3-8.1c0.9,0.2,1.9,0.8,2.8,0.8l0.5,0c2.5-0.2,4.2,2.1,5.6,1.4
			c0.8-0.7,0.5-10.7,1.6-12.5c1.9-2.9,4.1-2.5,6.1-4.3c3.9-3.4,4.6-7.9,10.5-3.7c2.7,1.9,1.7,8.4,5.2,9c5.1,0.8,7.7-5.9,12.3-6.5
			c0.3-0.4,0.7-0.8,1.1-1.1c1.2,0,2.3,0,3.4,0.1c3.9,0.3,3.2,2.7,4.1-2.5c4.6-6.6,3.4-6,9.8-7.6c2.5-2.2,3.1-5.6,5-8.2
			c2.5-3.5,16.1-16.6,20-19.5c1.9-1.4,3.7,0.9,5.8-0.4c2.6-2.7,0.9-8.6,1.9-11.1c0.8-2,5.6-1.1,4.2-5.4c-1.1-1-1.1-2.2-2-3.2
			l-0.2-0.1c-0.2,0.2-0.5,0.3-0.8,0.3c-0.8-1-1.5-2.3-1.9-3.5c0-1.5,4.5-4.5,5.7-5.9c0-4.3-1.7-8.1,3.1-9.4l1.2-1.8
			c0.2-1.4-5.1-7.8-1.2-8.3l1.9,0.5c0.5,0.7,1.3,1.2,2.1,1.6c0.4,0,0.9-0.3,1.2-0.6l0.2-0.5c-0.3-1.6-1.7-3.7-1.5-5.3
			c0.4-2.7,3.2-2.7,3.4-4.7c0.2-1.6-0.8-3.5-0.7-5c0.2-1.8,1.7-4.6,1.6-5.9c-0.1-1.8-1.7-3.3-1.2-5c0.6-2.2,3.5-2.9,3.7-4.8
			c0.2-1.6-0.3-1.8-0.7-3.2c-0.6-2.3,2.1-6.5,3.5-8.3c3.4-5.3,1.5-7.4,3.5-10.6c1.8-2.8,6-2.3,4.3-6.8c0.3-1.7,1.8-2.8,2.1-4.5
			c0.5-2.3-1.5-3.2-1.6-5.1c-0.1-1.5,0.8-3,0.8-4.5c-1-1.2-2.4-1.3-3.5-2.2c-0.1-0.3-0.1-0.8,0.1-1.1c0.6-0.7,1.6-0.5,2.4-1.7
			c0.3-1.6-0.3-3.3,0.1-4.9c0.4-1.8,2.1-3.6,2.2-5.5c-0.5-1.6-1-2.7-2.3-3.8l-0.1-1l-0.6-0.3c-0.5-0.6-1-4.3-1.3-5.5l-0.9-0.3
			c-0.8-1.5-1.3-3.1-2.5-4.4L640,134c-2.3-5.1,1.2-2.9,2.4-6.8c0.7-0.3,1.1-0.9,1.6-1.4c3.3,0.4,1.4-2.7,5.5,0.8
			c0.6-0.1,1.2-0.3,1.8-0.5c0.7-0.9,0.6-1.4,1.8-2l0.7,0.1l1.2-0.8l0.9-1.2l0.2-27.2l0.1-95.3"/>
		<path fill="none" stroke="#FFFFFF" stroke-linecap="round" stroke-linejoin="round" d="M128.6-0.5l-3,361.1l0.9,0.1l0.2-0.5
			c0.5-0.1,2.5-0.6,2.7-0.8c0.7-0.5,1.3-1.9,1.9-2.5c0.4-0.4,2-1.7,2.2-2.1c4.8-1.5,6.4,6.4,9.7,8.2c3.4-0.9,3.6,3.8,7.4,4.1
			c0.8,0.1,1.5-0.6,2.2-0.8c1-0.3,2.3,0,3.2-0.6c1.2-0.7,1.6-2.4,2.9-2.9c1.5-0.3,2.3,2.3,5.1,1.2c2.3-0.9,2.1-2.1,3.7-3.5
			c2-1.9,4.9,0.5,5.4,2.7c0.6,2.4-0.6,5.1,0.7,7.7c0.6,0.6,1.5,0.6,2.1,1.2c0.5-0.1,0.9-0.2,1.3-0.4c2.2,1.4,5.6,0.8,7.7,2.9
			c1.3,1.3,3.2,3.2,4.2,4.8c1.1,2-0.2,3.7,0.4,5.7c1.3,4.6,7.1,8.5,8,13.4c-0.7,0.9-0.6,3.7-0.6,4.9c0,8.9,2,7.6,9.3,9.5
			c2.1,0.6,3.9,2.1,5.9,2.8h0.1c1.3,0.9,3.6,1.3,5.1,1.8l0.9-0.4c1,0.1,2.4,0.7,3.3,0.4c3.3-1,9.3-4.3,12.6-1.2
			c0.7,0.7,0.4,1,0.8,1.6c2.6,0,8.9,1.2,9.8,4.2c0.4,1.3,0.2,3,0.6,4.2c0.5,0.5,1.1,0.8,1.8,1l0.3,0.7c10,2.3,2.9,6.5,7.1,9.2
			c1.5,0.9,3.9,0.7,5.7,1.2c0.8,1.5,3,1.9,4.4,2.4c10.3,3.7,1.9-9.8,10.7-8.6l1.1-0.9c7.4-0.2,7.9-5.9,15.3,2.7l0.6-0.3
			c5.3,2.7,10.9,2.2,16.7,6.4c2.6,1.9-1.3,5.6,4.7,7.5l0.7-0.3l0.1-0.2c1.4-1,2.1-2.7,3.3-3.8l0.7,0.1c0.3-0.1,0.6-0.6,0.7-0.8
			c2.8,0.3,3.8,1.7,5.5,2c1.2,0.2,2.8-0.5,4-0.5c8.3,0,4.4-5.4,8.4-8.7c4.9-4,3.5,2.7,10-7.8c0.3-0.2,0.6-0.4,0.9-0.7l0.7,0.3
			c2.1-0.9,4,1.1,6,0.1c2.8-1.5,12.6-9,12.6-0.5c0,2.2-1.1,4.1-1.2,6.1c-0.1,1.4,2.4,3.9,2.5,6.3c0.2,2.5-0.5,5.3,0.2,7.8
			c0.5,2,1.6,2.8,3.1,3.9c0.9,0.7,1.6,1.8,2.5,2.4c2.3,1.6,7.6,1.2,10.4,1.3c1,1.5,2.8,1.3,3.9,2.6c2,2.4,3,6.4,5.4,8.5
			c1.3,1.1,3.4,1.5,4.7,2.5c1.8,1.5,1.3,7,3.2,9.7c1,1.4,5.2,1.8,6.6,1.6c1-0.1,15.1-4.8,15.9-5.5l0.6-0.1c1.5,1.8,2.7,0.8,4.5,0.5
			c1.7-0.3,2.9,0,4.6-1.1c1.3-0.8,3.5-6.8,3.7-8.4c0.1-1.2-0.5-2.5-0.2-3.6c0.3-1.4,1.2-3.1,1.5-4.6c0.2-1.4-0.7-8.8,5.1-7.9
			l0.7,0.5c1.3-0.1,2.1,0.6,3.2,0.8c9.4,1.3,4.9-9.5,4.1-14.3c1.5-4.2,0.6-4.7,0.4-8.8l-0.5-0.4c-0.4-0.9-0.2-1.7-0.4-2.6
			c-0.8-1.1-2.3-1.3-3.1-2.4c-3.6-5.1,7.9-7.8,9.3-11.5c1.2-2.9-0.7-8.2,0.4-9.5l0.8,0.1l0.4-1l0.6-0.1c0.7-1.9,2.5-3.6,2.2-5.6
			c0.6-1.2,1.6-4.2,2.4-5.1c1.2-1.4,3.5-1.2,4.8-2.5c0.8-0.8,0.9-2.9,1.5-4.1c0.4-0.9,1.1-1.1,1.9-1.2c3.3-0.3,3.1,4,4.4,6.1
			l0.4,0.2c0.9-0.2,1.8-0.6,2.6-0.9c2.6,0.1,5,4.8,5.5,7c4.4,6.4-1.2,4.4-1,7.8c0.1,0.7,2.1,2.7,2.7,3.1c2.9,1.7,6.9-1.2,7.6-4.4
			c0.3-1.1-0.1-2.3,0.2-3.4c0.3-0.9,1.5-2.7,2.4-3.1c0.6-0.3,1.7,0.1,2.2,0.4c1.1,0.7,1.2,2.2,2.3,2.9c3,1.9,5.1,0.2,2.9-3.2
			c-0.5-0.8-1.2-1.2-1.8-1.9c-0.9-2.8,3.4-5.6,1.8-9.3c-0.9-2.2-8.4-7.5-5.6-10.7c1.1,0.1,2.2,0.7,3.1,0.8c0.9,0.1,1.8-0.4,2.6-0.8
			c4.2-1.8,2.9-4.4,2.5-8.2c0.4-0.6,0.5-1.6,0.4-2.3c-0.9-1-1.3-3.8-1.6-5.2l0.2-0.5c0.5-0.5,1.3-0.6,1.9-0.9c1-1,0.3-3.1,1-4
			c1.3-0.4,4-0.6,4.8-1.7c1.2-1.7-4.5-8.1,6.3-8.1c0.9,0.2,1.9,0.8,2.8,0.8l0.5,0c2.5-0.2,4.2,2.1,5.6,1.4
			c0.8-0.7,0.5-10.7,1.6-12.5c1.9-2.9,4.1-2.5,6.1-4.3c3.9-3.4,4.6-7.9,10.5-3.7c2.7,1.9,1.7,8.4,5.2,9c5.1,0.8,7.7-5.9,12.3-6.5
			c0.3-0.4,0.7-0.8,1.1-1.1c1.2,0,2.3,0,3.4,0.1c3.9,0.3,3.2,2.7,4.1-2.5c4.6-6.6,3.4-6,9.8-7.6c2.5-2.2,3.1-5.6,5-8.2
			c2.5-3.5,16.1-16.6,20-19.5c1.9-1.4,3.7,0.9,5.8-0.4c2.6-2.7,0.9-8.6,1.9-11.1c0.8-2,5.6-1.1,4.2-5.4c-1.1-1-1.1-2.2-2-3.2
			l-0.2-0.1c-0.2,0.2-0.5,0.3-0.8,0.3c-0.8-1-1.5-2.3-1.9-3.5c0-1.5,4.5-4.5,5.7-5.9c0-4.3-1.7-8.1,3.1-9.4l1.2-1.8
			c0.2-1.4-5.1-7.8-1.2-8.3l1.9,0.5c0.5,0.7,1.3,1.2,2.1,1.6c0.4,0,0.9-0.3,1.2-0.6l0.2-0.5c-0.3-1.6-1.7-3.7-1.5-5.3
			c0.4-2.7,3.2-2.7,3.4-4.7c0.2-1.6-0.8-3.5-0.7-5c0.2-1.8,1.7-4.6,1.6-5.9c-0.1-1.8-1.7-3.3-1.2-5c0.6-2.2,3.5-2.9,3.7-4.8
			c0.2-1.6-0.3-1.8-0.7-3.2c-0.6-2.3,2.1-6.5,3.5-8.3c3.4-5.3,1.5-7.4,3.5-10.6c1.8-2.8,6-2.3,4.3-6.8c0.3-1.7,1.8-2.8,2.1-4.5
			c0.5-2.3-1.5-3.2-1.6-5.1c-0.1-1.5,0.8-3,0.8-4.5c-1-1.2-2.4-1.3-3.5-2.2c-0.1-0.3-0.1-0.8,0.1-1.1c0.6-0.7,1.6-0.5,2.4-1.7
			c0.3-1.6-0.3-3.3,0.1-4.9c0.4-1.8,2.1-3.6,2.2-5.5c-0.5-1.6-1-2.7-2.3-3.8l-0.1-1l-0.6-0.3c-0.5-0.6-1-4.3-1.3-5.5l-0.9-0.3
			c-0.8-1.5-1.3-3.1-2.5-4.4L640,134c-2.3-5.1,1.2-2.9,2.4-6.8c0.7-0.3,1.1-0.9,1.6-1.4c3.3,0.4,1.4-2.7,5.5,0.8
			c0.6-0.1,1.2-0.3,1.8-0.5c0.7-0.9,0.6-1.4,1.8-2l0.7,0.1l1.2-0.8l0.9-1.2l0.2-27.2l0.1-95.3"/>
	</g>
	
		<polygon id="_x3C_SERVICE_AREA_BOUNDARY_DARKE_COUNTY_x3E_" fill="none" stroke="#A3C7D3" stroke-width="4" stroke-linecap="round" stroke-linejoin="round" stroke-miterlimit="10" points="
		143.9,206.8 126.8,206.8 126.9,181.6 143.9,181.6 	"/>
	
		<polygon id="_x3C_NORTHWEST_SERVICE_BOUNDARY_x3E_" fill="none" stroke="#A3C7D3" stroke-width="4" stroke-linecap="round" stroke-linejoin="round" stroke-miterlimit="10" points="
		304.9,113.3 304.8,142 298.5,141.9 291.8,141.7 286.3,140.9 247.9,135.3 234.1,135.8 234.1,144.4 192.4,143.2 191.6,159.7 
		179.8,159.2 179.6,163.1 177.6,163.1 178.9,103.2 127.5,101.7 128.4,5.5 172.9,6.7 172.6,19 181.4,19.1 181.5,26.8 195.5,27 
		195.1,33.8 208.8,34.2 208.3,52.4 235.3,53.3 236,28.1 250.9,28.5 251.2,13.1 306.9,14.6 306.7,22.2 328.5,22.6 328.7,10.2 
		348.7,10.4 348.5,23 376.4,23.4 377,49.8 405.8,50.4 394.8,111.3 388.8,111.5 373.1,110.1 373,111.6 342.3,111.1 318.8,110.8 
		318.6,113.7 318.6,113.6 	"/>
	
		<path id="_x3C_SERVICE_AREA_BOUNDARY_x3E_" fill="none" stroke="#A3C7D3" stroke-width="4" stroke-linecap="round" stroke-linejoin="round" stroke-miterlimit="10" d="
		M265.3,406.7l-1.8,24.3l-10.4,1h0c0.5,2-1,3.9,1.5,5.5c1.5,0.9,3.9,0.6,5.7,1.1c0.8,1.5,3,1.9,4.4,2.4c10.3,3.7,1.9-9.9,10.7-8.6
		l1.1-0.9c7.4-0.2,7.9-5.9,15.3,2.7l0.6-0.3c5.3,2.7,10.9,2.2,16.7,6.4c2.6,1.9-1.3,5.6,4.7,7.5l0.7-0.3l0.1-0.2
		c1.4-1,2.1-2.7,3.3-3.8l0.7,0.1c0.3-0.1,0.6-0.6,0.7-0.8c2.8,0.3,3.8,1.7,5.5,2c1.2,0.2,2.8-0.5,4-0.5c8.3,0,4.4-5.4,8.4-8.7
		c4.9-4,3.5,2.7,10-7.8c0.3-0.2,0.6-0.4,0.9-0.7l0.7,0.3c2.1-0.9,4,1.1,6,0.1c2.8-1.5,12.6-9,12.6-0.5c0,2.2-1.1,4.1-1.2,6.1
		c-0.1,1.4,2.4,3.9,2.5,6.3c0.2,2.5-0.5,5.3,0.2,7.8c0.5,2,1.6,2.8,3.1,3.9c0.9,0.7,1.6,1.8,2.5,2.4c2.3,1.6,7.6,1.2,10.4,1.3
		c1,1.5,2.8,1.3,3.9,2.6c2,2.4,3,6.4,5.4,8.5c1.3,1.1,3.4,1.5,4.7,2.5c1.8,1.5,1.3,7,3.2,9.7c1,1.4,5.2,1.8,6.6,1.6
		c1-0.1,15.1-4.8,15.9-5.5l0.6-0.1c1.5,1.8,2.7,0.8,4.5,0.5c1.7-0.3,2.9,0,4.6-1.1c1.3-0.8,3.5-6.8,3.7-8.4c0.1-1.2-0.5-2.5-0.2-3.6
		c0.3-1.4,1.2-3.1,1.5-4.6c0.2-1.4-0.7-8.8,5.1-7.9l0.7,0.5c1.3-0.1,2.1,0.6,3.2,0.8c9.4,1.3,4.9-9.5,4.1-14.3
		c1.5-4.2,0.6-4.7,0.4-8.8l-0.5-0.4c-0.4-0.9-0.2-1.7-0.4-2.6c-0.8-1.1-2.3-1.3-3.1-2.4c-3.6-5.1,7.9-7.8,9.3-11.5
		c1.2-2.9-0.7-8.2,0.4-9.5l0.8,0.1l0.4-1l0.6-0.1c0.7-1.9,2.5-3.6,2.2-5.6c0.6-1.2,1.6-4.2,2.4-5.1c1.2-1.4,3.5-1.2,4.8-2.5
		c0.8-0.8,0.9-2.9,1.5-4.1c0.4-0.9,1.1-1.1,1.9-1.2c3.3-0.3,3.1,4,4.4,6.1l0.4,0.2c0.9-0.2,1.8-0.6,2.6-0.9c2.6,0.1,5,4.8,5.5,7
		c4.4,6.4-1.2,4.4-1,7.8c0.1,0.7,2.1,2.7,2.7,3.1c2.9,1.7,6.9-1.2,7.6-4.4c0.3-1.1-0.1-2.3,0.2-3.4c0.3-0.9,1.5-2.7,2.4-3.1
		c0.6-0.3,1.7,0.1,2.2,0.4c1.1,0.7,1.2,2.2,2.3,2.9c3,1.9,5.1,0.2,2.9-3.2c-0.5-0.8-1.2-1.2-1.8-1.9c-0.9-2.8,3.4-5.6,1.8-9.3
		c-0.9-2.2-8.4-7.5-5.6-10.7c1.1,0.1,2.2,0.7,3.1,0.8c0.9,0.1,1.8-0.4,2.6-0.8c4.2-1.8,2.9-4.4,2.5-8.2c0.4-0.6,0.5-1.6,0.4-2.3
		c-0.9-1-1.3-3.8-1.6-5.2l0.2-0.5c0.5-0.5,1.3-0.6,1.9-0.9c1-1,0.3-3.1,1-4c1.3-0.4,4-0.6,4.8-1.7c1.2-1.7-4.5-8.1,6.3-8.1
		c0.9,0.2,1.9,0.8,2.8,0.8l0.5,0c2.5-0.2,4.2,2.1,5.6,1.4c0.8-0.7,0.5-10.7,1.6-12.5c1.9-2.9,4.1-2.5,6.1-4.3
		c3.9-3.4,4.6-7.9,10.5-3.7c2.7,1.9,1.7,8.4,5.2,9c5.1,0.8,7.7-5.9,12.3-6.5c0.3-0.4,0.7-0.8,1.1-1.1c1.2,0,2.3,0,3.4,0.1
		c3.9,0.3,3.2,2.7,4.1-2.5c4.6-6.6,3.4-6,9.8-7.6c2.5-2.2,3.1-5.6,5-8.2c2.5-3.5,16.1-16.6,20-19.5c1.9-1.4,3.7,0.9,5.8-0.4
		c2.6-2.7,0.9-8.6,1.9-11.1c0.8-2,5.6-1.1,4.2-5.4c-1.1-1-1.1-2.2-2-3.2l-0.2-0.1c-0.2,0.2-0.5,0.3-0.8,0.3c-0.8-1-1.5-2.3-1.9-3.5
		c0-1.5,4.5-4.5,5.7-5.9c0-4.3-1.7-8.1,3.1-9.4l1.2-1.8c0.2-1.4-5.1-7.8-1.2-8.3l1.9,0.5c0.5,0.7,1.3,1.2,2.1,1.6
		c0.4,0,0.9-0.3,1.2-0.6l0.2-0.5c-0.3-1.6-1.7-3.7-1.5-5.3c0.4-2.7,3.2-2.7,3.4-4.7c0.2-1.6-0.8-3.5-0.7-5c0.2-1.8,1.7-4.6,1.6-5.9
		c-0.1-1.8-1.7-3.3-1.2-5c0.6-2.2,3.5-2.9,3.7-4.8c0.2-1.6-0.3-1.8-0.7-3.2c-0.6-2.3,2.1-6.5,3.5-8.3c3.4-5.3,1.5-7.4,3.5-10.6
		c1.8-2.8,6-2.3,4.3-6.8c0.3-1.7,1.8-2.8,2.1-4.5c0.5-2.3-1.5-3.2-1.6-5.1c-0.1-1.5,0.8-3,0.8-4.5c-1-1.2-2.4-1.3-3.5-2.2
		c-0.1-0.3-0.1-0.8,0.1-1.1c0.6-0.7,1.6-0.5,2.4-1.7c0.3-1.6-0.3-3.3,0.1-4.9c0.4-1.8,2.1-3.6,2.2-5.5c-0.5-1.6-1-2.7-2.3-3.8
		l-0.1-1l-0.6-0.3c-0.5-0.6-1-4.3-1.3-5.5l-0.9-0.3c-0.8-1.5-1.3-3.1-2.5-4.4L640,134c-2.3-5.1,1.2-2.9,2.4-6.8
		c0.7-0.3,1.1-0.9,1.6-1.4c3.3,0.4,1.4-2.7,5.5,0.8c0.6-0.1,1.2-0.3,1.8-0.5c0.7-0.9,0.6-1.4,1.8-2l0.7,0.1l1.3-0.8l0.9-1.2v-0.1
		l0.1-27.1L588,95.4V81l-42.3,0.8l3.5,20.7l-29.1-0.7V89.3l-14,0.1V67h-29.1l0,10h-15.2l0.1,39.2l-12.6-17.4l-13.1,13.9l0.2,24.2
		l19.2-3.4l-0.9,18.9l-1.8,34.4l-19.4-0.6l-7.7-48.8l-12.7-4.7l-0.9-14.7l-2.3-0.5l-0.5-4.6l-8.4,0.1l0.3,23.3l-2,0.3l-0.5,4.8
		l1.4-0.6l-0.2,5.7l-0.3,5.5l-2.5,36.2l-12.6-0.9l0.6-11.4l-8-8.2l-13.9-0.9l1-9.7H353v-2.5V146h8v-13.9l-14-0.1v22.1l-22.3-1.9
		l-0.8,32.1l9.4,0.1l-0.2,14l0,0l-5.8,7.5l0,0l-12.1-0.4l-1.8,36.8l-0.1,0.3l10,18.6l-1.5,17l5.6,0.1l5.5-19.9L350,260l0.4-4.8
		l17.7,1.3l6.5,0.5l14.7,1.1l-2,24.2l-1.2,11l9.9,0.8l-3.4,27.5l-8.7-1l0.4-5.4l-13.3-1.2l-0.9,9.4l-9.8-1.1l0.4-4.9v0l0.3-3.6
		l-0.4-0.1L360,292h0v-10h-5v2h-3l-6,28.3l-0.4,0l-0.5,4.1v0l-0.2,2.3l-25.4-2l-39.5-3.2l-0.7,8.1l-8.7,6.4l-15.7,11.6l-1.9,3.7
		l-1.6,2.9l-3.3,0l0.6-3.8l-3.3-0.4l-2.4,35.4l5,0.3L265.3,406.7z"/>
</g>
<g id="STATE_NAMES_x2F__CITIES">
	<rect x="359.4" y="327" fill="none" width="73.6" height="18"/>
	<text transform="matrix(1 0 0 1 359.4025 338.3963)" fill="#58595B" font-family="'Helvetica Neue', 'Helvetica', Helvetica, Arial, sans-serif'" font-size="18">Chilicothe</text>
	<g>
		<rect x="75.8" y="432.5" fill="none" width="186.3" height="19.9"/>
		
			<text transform="matrix(1 0 0 1 124.612 443.8635)" fill="#BBB5AF" font-family="'Helvetica Neue', 'Helvetica', Helvetica, Arial, sans-serif" font-size="18" letter-spacing="2">KENTUCKY</text>
	</g>
	<g>
		<rect x="0.2" y="193.3" fill="none" width="127.1" height="20.7"/>
		
			<text transform="matrix(1 0 0 1 27.0988 204.6562)" fill="#BBB5AF" font-family="'Helvetica Neue', 'Helvetica', Helvetica, Arial, sans-serif" font-size="18" letter-spacing="2">INDIANA</text>
	</g>
	<g>
		<rect x="516" y="380.1" fill="none" width="186.3" height="19.9"/>
		
			<text transform="matrix(1 0 0 1 544.6127 391.5073)" fill="#BBB5AF" font-family="'Helvetica Neue', 'Helvetica', Helvetica, Arial, sans-serif" font-size="18" letter-spacing="2">WEST VIRGINIA</text>
	</g>
	<g>
		<rect x="657" y="188" fill="none" width="87.3" height="13.6"/>
		
			<text transform="matrix(1 0 0 1 690.2473 199.392)" fill="#BBB5AF" font-family="'Helvetica Neue', 'Helvetica', Helvetica, Arial, sans-serif" font-size="18" letter-spacing="2">PA</text>
	</g>
	<rect x="362.4" y="222.9" fill="none" width="73.6" height="18"/>
	<text transform="matrix(1 0 0 1 362.447 234.2155)" fill="#58595B" font-family="'Helvetica Neue', 'Helvetica', Helvetica, Arial, sans-serif" font-size="18">Columbus</text>
	<rect x="567.2" y="85.3" fill="none" width="73.6" height="18"/>
	<text transform="matrix(1 0 0 1 567.2224 96.6411)" fill="#58595B" font-family="'Helvetica Neue', 'Helvetica', Helvetica, Arial, sans-serif" font-size="18">Canton</text>
	<rect x="288.7" y="50.4" fill="none" width="73.6" height="18"/>
	<text transform="matrix(1 0 0 1 288.725 61.7098)" fill="#58595B" font-family="'Helvetica Neue', 'Helvetica', Helvetica, Arial, sans-serif" font-size="18">Findlay</text>
	<rect x="490.5" y="231.9" fill="none" width="73.6" height="13.3"/>
	<text transform="matrix(1 0 0 1 490.5295 243.2101)" fill="#58595B" font-family="'Helvetica Neue', 'Helvetica', Helvetica, Arial, sans-serif" font-size="18">Zanesville</text>
	<g>
		<path fill="#58595B" d="M280.4,60.9c-2.5,0-4.6-2.1-4.6-4.6c0-2.5,2.1-4.6,4.6-4.6c2.5,0,4.6,2.1,4.6,4.6
			C285,58.8,283,60.9,280.4,60.9z"/>
		<path fill="#998675" d="M280.4,53c1.8,0,3.3,1.5,3.3,3.3c0,1.8-1.5,3.3-3.3,3.3c-1.8,0-3.3-1.5-3.3-3.3
			C277.1,54.4,278.6,53,280.4,53 M280.4,50.4c-3.3,0-5.9,2.6-5.9,5.9c0,3.3,2.6,5.9,5.9,5.9c3.3,0,5.9-2.6,5.9-5.9
			C286.3,53,283.7,50.4,280.4,50.4L280.4,50.4z"/>
		<path fill="#FFFFFF" d="M280.4,53c1.8,0,3.3,1.5,3.3,3.3c0,1.8-1.5,3.3-3.3,3.3c-1.8,0-3.3-1.5-3.3-3.3
			C277.1,54.4,278.6,53,280.4,53 M280.4,51c-2.9,0-5.3,2.4-5.3,5.3c0,2.9,2.4,5.3,5.3,5.3c2.9,0,5.3-2.4,5.3-5.3
			C285.7,53.3,283.3,51,280.4,51L280.4,51z"/>
	</g>
	<g>
		<path fill="#58595B" d="M354.1,233.4c-2.5,0-4.6-2.1-4.6-4.6c0-2.5,2.1-4.6,4.6-4.6c2.5,0,4.6,2.1,4.6,4.6
			C358.7,231.3,356.7,233.4,354.1,233.4z"/>
		<path fill="#998675" d="M354.1,225.5c1.8,0,3.3,1.5,3.3,3.3c0,1.8-1.5,3.3-3.3,3.3s-3.3-1.5-3.3-3.3
			C350.8,226.9,352.3,225.5,354.1,225.5 M354.1,222.9c-3.3,0-5.9,2.6-5.9,5.9c0,3.3,2.6,5.9,5.9,5.9s5.9-2.6,5.9-5.9
			C360,225.5,357.4,222.9,354.1,222.9L354.1,222.9z"/>
		<path fill="#FFFFFF" d="M354.1,225.5c1.8,0,3.3,1.5,3.3,3.3c0,1.8-1.5,3.3-3.3,3.3s-3.3-1.5-3.3-3.3
			C350.8,226.9,352.3,225.5,354.1,225.5 M354.1,223.5c-2.9,0-5.3,2.4-5.3,5.3c0,2.9,2.4,5.3,5.3,5.3s5.3-2.4,5.3-5.3
			C359.4,225.8,357.1,223.5,354.1,223.5L354.1,223.5z"/>
	</g>
	<g>
		<path fill="#58595B" d="M351.1,337.4c-2.5,0-4.6-2.1-4.6-4.6c0-2.5,2.1-4.6,4.6-4.6c2.5,0,4.6,2.1,4.6,4.6
			C355.7,335.4,353.6,337.4,351.1,337.4z"/>
		<path fill="#998675" d="M351.1,329.5c1.8,0,3.3,1.5,3.3,3.3s-1.5,3.3-3.3,3.3c-1.8,0-3.3-1.5-3.3-3.3S349.3,329.5,351.1,329.5
			 M351.1,326.9c-3.3,0-5.9,2.6-5.9,5.9s2.6,5.9,5.9,5.9c3.3,0,5.9-2.6,5.9-5.9S354.4,326.9,351.1,326.9L351.1,326.9z"/>
		<path fill="#FFFFFF" d="M351.1,329.5c1.8,0,3.3,1.5,3.3,3.3s-1.5,3.3-3.3,3.3c-1.8,0-3.3-1.5-3.3-3.3S349.3,329.5,351.1,329.5
			 M351.1,327.5c-2.9,0-5.3,2.4-5.3,5.3s2.4,5.3,5.3,5.3c2.9,0,5.3-2.4,5.3-5.3S354,327.5,351.1,327.5L351.1,327.5z"/>
	</g>
	<g>
		<path fill="#58595B" d="M481.6,242.1c-2.5,0-4.6-2.1-4.6-4.6c0-2.5,2.1-4.6,4.6-4.6c2.5,0,4.6,2.1,4.6,4.6
			C486.2,240.1,484.2,242.1,481.6,242.1z"/>
		<path fill="#998675" d="M481.6,234.2c1.8,0,3.3,1.5,3.3,3.3s-1.5,3.3-3.3,3.3c-1.8,0-3.3-1.5-3.3-3.3S479.8,234.2,481.6,234.2
			 M481.6,231.6c-3.3,0-5.9,2.6-5.9,5.9s2.6,5.9,5.9,5.9c3.3,0,5.9-2.6,5.9-5.9S484.9,231.6,481.6,231.6L481.6,231.6z"/>
		<path fill="#FFFFFF" d="M481.6,234.2c1.8,0,3.3,1.5,3.3,3.3s-1.5,3.3-3.3,3.3c-1.8,0-3.3-1.5-3.3-3.3S479.8,234.2,481.6,234.2
			 M481.6,232.2c-2.9,0-5.3,2.4-5.3,5.3s2.4,5.3,5.3,5.3c2.9,0,5.3-2.4,5.3-5.3S484.6,232.2,481.6,232.2L481.6,232.2z"/>
	</g>
	<g>
		<path fill="#58595B" d="M558.9,95.8c-2.5,0-4.6-2.1-4.6-4.6c0-2.5,2.1-4.6,4.6-4.6c2.5,0,4.6,2.1,4.6,4.6
			C563.5,93.7,561.5,95.8,558.9,95.8z"/>
		<path fill="#998675" d="M558.9,87.9c1.8,0,3.3,1.5,3.3,3.3c0,1.8-1.5,3.3-3.3,3.3c-1.8,0-3.3-1.5-3.3-3.3
			C555.6,89.4,557.1,87.9,558.9,87.9 M558.9,85.3c-3.3,0-5.9,2.6-5.9,5.9c0,3.3,2.6,5.9,5.9,5.9c3.3,0,5.9-2.6,5.9-5.9
			C564.8,87.9,562.2,85.3,558.9,85.3L558.9,85.3z"/>
		<path fill="#FFFFFF" d="M558.9,87.9c1.8,0,3.3,1.5,3.3,3.3c0,1.8-1.5,3.3-3.3,3.3c-1.8,0-3.3-1.5-3.3-3.3
			C555.6,89.4,557.1,87.9,558.9,87.9 M558.9,85.9c-2.9,0-5.3,2.4-5.3,5.3c0,2.9,2.4,5.3,5.3,5.3c2.9,0,5.3-2.4,5.3-5.3
			C564.2,88.3,561.8,85.9,558.9,85.9L558.9,85.9z"/>
	</g>
</g>
</svg>
