<?xml version="1.0" encoding="utf-8"?>
<!-- Generator: Adobe Illustrator 17.1.0, SVG Export Plug-In . SVG Version: 6.00 Build 0)  -->
<!DOCTYPE svg PUBLIC "-//W3C//DTD SVG 1.1//EN" "http://www.w3.org/Graphics/SVG/1.1/DTD/svg11.dtd">
<svg version="1.1" xmlns="http://www.w3.org/2000/svg" xmlns:xlink="http://www.w3.org/1999/xlink" x="0px" y="0px"
	 viewBox="0 0 744 484" enable-background="new 0 0 744 484" xml:space="preserve">
<g id="BASE_LAYER">
	
		<radialGradient id="_x3C_Background_blend_x3E__1_" cx="443.5034" cy="231.7503" r="307.3869" gradientTransform="matrix(1.0409 0 0 0.6844 -89.6525 83.3798)" gradientUnits="userSpaceOnUse">
		<stop  offset="0" style="stop-color:#FFFFFF"/>
		<stop  offset="0.1216" style="stop-color:#F9F8F3"/>
		<stop  offset="0.4762" style="stop-color:#E8E7D6"/>
		<stop  offset="0.7814" style="stop-color:#DFDCC3"/>
		<stop  offset="1" style="stop-color:#DBD8BD"/>
	</radialGradient>
	<rect id="_x3C_Background_blend_x3E_" opacity="0.7" fill="url(#_x3C_Background_blend_x3E__1_)" width="744" height="484"/>
	<path id="_x3C_Oklahoma_Land_Fill_x3E_" fill="#FFFFFF" d="M685.6,230.5l-18.4-123.3V40.3H0v63h121.6v183.4v34.5v23.3
		c0.1,0.3,0.9,0.6,1.3,0.6c1.3,0,1.8-0.8,2.6-1.7c0.8-0.9,2.2-1.8,3.4-1.1l7.6,8.4l9.6,11.5c1.8,0,3.3,0.8,3.9,2.5
		c0.4,1-0.1,1.6,1.1,2.2c0.8,0.5,2.2,0.4,2.8-0.2c0.3,0.7,1.1,1.1,1.8,1c0.9-0.1,1.1-1,1.9-1.4c1.7-0.7,2.9,1.3,4.5,1.2
		c0.7-1,1.3-1.9,1.5-3.1c0.3-1.4-0.3-2.2,1.3-2.5c1.8-0.3,5.7-0.1,7,0.9c-0.3,1.6,1.7,1.4,2.7,1.6c1.5,0.3,1.4,1,2.4,1.9
		c1.3,1.3,5,1.3,5.9-0.7c0.3-0.8,0.5-2.5,0-3.2c-0.3-0.4-1.1,0.1-1.3-0.6c-0.3-0.8,0.4-0.6,0.7-1.2c0.5-0.9,0.3-2.3,0.9-3.1
		c1.2-1.5,2.1,0.1,3,0.8c0.4,1.2,1.8,3.1,3.2,3.7c0.9,0.4,1.6,0.1,2.5,0.3c0.9,0.2,1.1,0.7,1.9,1c0.9,0.4,1.4-0.2,1.9,0.9
		c0.5,1.4-0.5,1-1,1.9c-0.7,1.5,1.8,2.3,3.2,2.2c0,1.9-0.3,2.5,0.8,3.7c0.5,0.2,1.1,0.4,1.8,0.4c0,0,0,0,0,0c0,0.8,0.3,1.4,0.1,2.3
		c-0.1,0.7-0.5,1.2-0.3,2c0.3,1.5,2.1,1.6,2.7,2.7c0.6,1,0.3,2.7,0.3,3.8c0,0.9-0.2,1.5-0.4,2.4c-0.2,1,0.3,1.5,1.1,1.9
		c0.9,0.4,2.1,0.8,3.1,0.5c0.8-0.2,1.1-1,1.6-1.6c0.6-0.7,1-0.3,1.5,0.3c0.7,0.9,1.7,1,2.9,1c0.7,0,1-0.1,1.6-0.5
		c0.4-0.2,0.5-0.4,1-0.2c1.1,0.5,0.6,2.1,2.2,1.9c1.2-0.1,2.3-0.9,3.1-1.6c0.7-0.6,1-1.2,2-1.4c0.9-0.2,1.6,0.1,2.3,0.6
		c1,0.7,1.9,0.1,3,0.5c0.4,0.2,0.8,0.7,1.2,0.7c0.5,1,1.9,1.7,2.6,2.5c1,1.1,2,1.9,3,3c0.7,0.7,2,2.3,3,1.1c0.5-0.6,0.3-1.2,1.2-1.4
		c0.8-0.2,1.8,0.2,2.4,0.7c0.3,0.4,1.6,1.1,2.1,1.3c1,0.6,2,1.4,3.1,1.9c0.7,0.3,1.7,0.7,2.4,0c0.3-0.3,0.4-1.1,0.9-1.3
		c0.5-0.2,1.2,0.5,1.5,0.8c1.1,1.1,3.1-0.1,4-0.8c0.8-0.5,1.3-1.2,1.9-1.9c0.4-0.5,0.9-0.7,1.4-1c0,0,1.6-0.7,3.1-0.4
		c3.7-0.4,6.3,5.4,7.7,8.2c1,1.8,1.9,3.5,3.8,4.2c3.1,1.1,3.5-0.5,5.7-1.7c1-0.5,2,0.1,3-0.6c1.3-0.9,1.1-2,1.4-3.2
		c0.7-2.8,0.8-3.7,3.5-5.1c3.2-1.6,2.4-0.7,4.5,1.3c1.9,1.8,3,1.2,5.3,0.9c3.2-0.5,4,1.2,6.7,2.4c2.1,0.9,5.2,0.6,5.8-2.3
		c1.9-1.2,4.8-2.1,5.7,0.7c1.1,3.1-1.2,3.9-2.1,6.3c-0.5,1.4-0.3,1.8,0.6,2.7c0.3,0.3,0.9,0.4,1.1,0.9c0.3,0.9-0.3,0.7-0.4,1.2
		c-0.3,2,1,4.8,3.2,5c0.6,0,0.9-0.2,1.5,0c0.6,0.2,0.8,0.9,1.4,1.2c0.8,0.3,2.5-0.1,3.1-0.6c1-0.8,0.7-2.1,2.5-1.9
		c1.1,0.1,3,1.6,3.6,2.6c0.6,1.1-0.1,2-0.5,3c-0.4,1.2-0.3,2.1,0,3.4c0.2,1.1,0.5,2-0.5,2.8c-0.7,0.6-2.6,0.3-3,1.2
		c-0.8,1.9,4.8,2.7,5.9,3.4c2.4,1.4,3.8,3,6.6,2.8c1.7-0.1,2.3-0.2,3.5-1.4c1.1-1,2.2-2.2,3.2-3.3c1.2-1.1,2.2-2.6,3.3-3.8
		c1.2-1.4,1.3-1.2,2.9-1.8c0.8-0.3,1.2-0.8,1.6-1.5c0.8-1.5,2.3-3.9,3.7-5c2.2-1.6,4,0.6,6,1.5c2.6,1.2,2.8,2.4,2.8,5.2
		c0,1-0.3,2.4,0.3,3.2c0.6,0.8,2.1,0.7,2.5,0.7c2.7,0.7,3.9-0.9,6.2-2c2.3-1.1,5.1,0.1,5.9,2.4c0.4,1,0.5,2,0.2,3.1
		c-0.3,1-0.8,1.6-0.8,2.7c0.2,2.8,3.3,3.5,5.8,3.6c1.5,0.1,3.4,0.2,4.6-0.7c0.9-0.7,1.1-2.1,1.3-3c1-3.2,4.8-1.5,7.5-2.1
		c3.1-0.7,0.8-4.3,3.5-5.7c2.8-1.5,5.7,1.9,6.3,4.3c0.3,1.3,0.9,3.6-0.3,4.6c-1.2,0.9-2.9,0.7-3.3,2.5c-0.4,1.6,1.4,3.8,2.2,5.1
		c0.6,1.1,1.7,2.8,1.7,4c0,1.3,2.1,2.6,3.2,2.8c1.7,0.4,3.5-0.7,4.4-2.1c1-1.5,1.4-3.6,0.3-5c-1.5-1.9-0.5-2.3,1.1-4
		c0.8-0.8,1.4-1.7,2.1-2.4c0.8-1,0.8-1.3,2.4-1.5c1.2-0.1,2.4,0.3,3.3-0.6c0.7-0.7,1.3-2.2,1.8-3.1c1.6-2.6-0.5-3.4-1.4-5.6
		c-1.1-2.7,0.9-3.9,3.1-2.3c2.1,1.6,3.5,0.3,4.2-1.7c0.9,0.6,1.8,0.7,2.4,1.8c0.7,1.2,0.3,3.1,0.3,4.5c0,1.7,1,2.8,1.8,4.2
		c0.4,0.7,0.9,1.5,1.7,1.9c0.5,0.3,1.8,0.6,2.4,0.4c1.5-0.5,0-3,1.5-3.4c0.8-0.3,4.1,1.1,3.7,1.9c0.2,0.9,0.6,1.7,0.9,2.6
		c0.4,1.3,1.2,1.5,2.5,1.7c1.3,0.2,2.5,0.1,3.6-0.5c0.5-0.3,1-0.5,1.5-0.8c0.6-0.4,0.9-0.8,1.3-1.3c0.4-0.4,0.5-0.7,0.6-1.3
		c0.1-0.7,0.1-1.3,0.2-2c0.1-1,0.3-2.5,1-3.2c0.8-0.7,2.2-0.7,3.1-0.4c1,0.3,0.7,1.1,1,1.7c0,0.8,1.2,1,1.8,1.2
		c0.7,0.1,1.6,0.5,2.3,0.5c-0.6,0.8-2.2,1.7-2.5,2.7c-1.6,0.8,0,1.6,0.9,1.8c1.4,0.4,1.5,0.7,2.5,1.8c2,2.2,4.9-0.3,6.7,2
		c0.7,1,0.3,2.1,0.7,3.1c0.5,1.1,1.9,1.3,3.1,1.2c1.9-0.2,5-1,6.3,0.9c0.6,0.9,0.8,1.7,1.7,2.5c0.8,0.7,1.6,1.2,2.3,2.1
		c0.5,0.7,1.2,1.7,1.4,2.5c0.4,1.6-0.6,2.4,1.3,3.1c7.4,2.5,2.2-7.8,6.3-9.7c1.8-0.8,3.2,0.7,4.7,1.1c1.5,0.4,3.6,0.3,5-0.3
		c1.2-0.5,3.3-1.1,3.2-2.8c-0.1-1.1-2.5-2.8-1.3-3.8c1.8-1.6,2.8-4,5.4-3.8c1.2,0.1,2.4,0.5,3.7,0.4c1.3-0.1,1.8-0.6,3.1-0.3
		c1.3,0.3,2.4,0.7,3.7,0.2c1-0.4,1.5-1.2,2.5-1.7c1.1-0.5,2.2-0.2,3.4-0.3c1.6-0.1,1.4-0.4,2.3-1.5c0.4-0.5,0.3-0.9,1.1-1
		c4.2-0.3,7.8,8.5,11,5.4c0.8-0.7,0.1-1.7,1.3-2.2c1.5-0.6,1.2,0.5,2.1,1c2,1.3,4.2-0.7,3.1-2.8c0-0.2-0.2-0.4-0.3-0.6
		c-0.1-0.3-0.2-0.5-0.3-0.8c-0.1-0.4-0.2-0.9-0.4-1.3c0.5-1.1,1.2-2,2.6-1.7c1,0.2,1.3,1.2,2.4,1.6c1.2,0.4,2.3,0.2,3.4-0.6
		c0.6-0.5,1.2-1.6,1.9-1.9c1.2-0.4,2.1,0.7,3.2,0.3c2-0.7,2.3-3.2,4.7-3.2c3.4-0.1,2.5,2,3.1,4.5c0.7,2.8,3.1,1.3,5.1,1.5
		c0.4,0,1.1,0.3,1.5,0.4c0.8,0.1,1.7,0,2.5,0.2c0.7,0.2,1.8,0.7,2.4,1.3c1.7,0,3.4,0.5,5.3,0.3c1.7-0.2,4.3,0.5,5.8-0.3
		c0.8-0.4,1.1-0.9,1.9-1.2c0.7-0.2,1.7,0.1,2.3-0.4c0.6-0.5,0.5-1.3,1.1-1.8c0.7-0.6,1.8-0.2,2.1-1.3c0.9-0.6,0.5-2.7,1.3-3.7
		c0.7-1,1.8-2,3.1-2.2c2.4-0.4,2.8,2.9,6.4,2.4c3.8-0.2,6.4,3.4,8.3,5.8c0.7,0.9,1.6,2.6,2.5,3.2c1.6,1.2,3.1,0.1,4.8,0.4
		c1.2,0.2,2.8,1.4,3.5,2.2c0.4,0.5,0.5,1.2,0.8,1.7c0.5,0.6,1.4,1.1,2,1.7c2,1.9,3.9,4.4,5.6,6.5c1.1,1.3,2.2,2.3,4.1,1.8
		c1.5-0.4,2.6-2.1,4.3-1.6c0.6,0.2,0.8,0.9,1.4,1.2c0.4,0.2,1.7,0.4,2,0.7c1.3,1.1,0.8,3,3,2.8c0.7,1.8,1.2,3.7,3.2,4.3
		c1.8,0.5,2.4-0.7,3.9-1c0.5,1.1,0.9,3.1,2.4,2.9c1.3-0.2,1-2,2.9-1.2c1.1,0.5,2.9,0.2,4.1,0.6c1.6,0.6,1.7,1.3,2.4,2.7
		c0.8,1.5,4.1,5.3,6.1,4.2l2.5-109h-0.1L685.6,230.5z"/>
	<path id="_x3C_SERVICE_AREA_FILL_WEST_x3E_" opacity="8.000000e-02" fill="#00A79D" d="M370.7,308.6v-44.5
		c-0.2-0.1-0.3-0.2-0.5-0.3c-1-0.6-3-1.6-3.1-3.2c0-0.9,0.6-0.8,0.9-1.4c0.3-0.6,0.3-1,0.3-1.7c0.2,0,0.3-0.1,0.5-0.2
		c0.3-3.1-2.9-4-5.3-5c-1.1-0.4-2.2-0.8-3.2-1.3c-1-0.5-1.6-0.9-3.2-0.9h-7.6c-0.8-0.5-0.7-1.4-1.7-1.7c-1.2-0.4-1.7,0.6-2.8,0.8
		c-1.8,0.3-4,0.7-5.6-0.8c-0.7-0.7-1-1.3-2.2-1.3c-0.7,0-1.3,0.6-2,0.7c-0.6,0.1-0.6-0.1-1.1-0.2c-0.8-0.2-1.6-0.1-2.3-0.5
		c-0.9-0.4-1.7-0.8-2.6,0c-0.6,0.6-0.4,1.7-1.5,1.5c-0.6-0.2-1.2-1-1.6-1.4c-0.8-0.7-1.8-0.6-2.5-1.2c-0.6-0.5-0.6-1.3-1.2-1.8
		l-0.4-0.4h-7.1h-22v-22.2v-5.7l-23.6-39.7l-12.2-1.4l-28.2-24.1l-14.8,7.4l-29.9-7.4v13c-0.8,0-1.5,0-2.1,0.5
		c-1.2-0.1-2.5,1.1-3.5,1.6c-1.1,0.6-1.9,1.5-3.1,2c-1.5,0.7-2.8,2.1-3.3,3.7c-0.3,0.9-0.3,1.8-0.3,2.7c0,0.7-0.2,1.3-0.3,1.9
		c-0.5,1.9-2.5,1.4-3.7,2.5c-1.2,1.2-1.4,3.3-2.6,4.4c-1.1,0.9-2.5,1.8-3.8,2.7c-1.4,1-2.8,1.2-4.2,0.5c-0.7-0.3-1.4-0.9-2.1-1.2
		c-0.8-0.3-1.6-0.2-2.5-0.3c-1.7-0.1-3.1-0.8-4.4-1.8c-1.5-1.1-3.3-1.9-4.6-3.1c-1-1-1.5-2.4-2.5-3.4c-0.6-0.6-0.8-0.6-0.8-1.5
		c0-1,0-2.1,0.5-3c0.4-0.6,1.2-0.7,1.1-1.5c-0.3-1.7-2.8-2.7-3.1-4.5c-0.2-0.1-0.5-0.2-0.7-0.2c-1.7-0.3-4,2-5,3.1
		c-0.7,0.7-1.5,1.7-1.9,2.6c-0.4,1-0.3,2.2-0.4,3.3c-0.1,2.5-1.4,2.6-3.3,3.6c-0.5,0.3-1,0.6-1.4,1c-0.4,0.4-0.7,1-1.2,1.3
		c-0.6,0.4-2,1-3.1,1.1v105v57.8c0.1,0.3,0.9,0.6,1.3,0.6c1.3,0,1.8-0.8,2.6-1.7c0.8-0.9,2.2-1.8,3.4-1.1l7.6,8.4l9.6,11.5
		c1.8,0,3.3,0.8,3.9,2.5c0.4,1-0.1,1.6,1.1,2.2c0.8,0.5,2.2,0.4,2.8-0.2c0.3,0.7,1.1,1.1,1.8,1c0.9-0.1,1.1-1,1.9-1.4
		c1.7-0.7,2.9,1.3,4.5,1.2c0.7-1,1.3-1.9,1.5-3.1c0.3-1.4-0.3-2.2,1.3-2.5c1.8-0.3,5.7-0.1,7,0.9c-0.3,1.6,1.7,1.4,2.7,1.6
		c1.5,0.3,1.4,1,2.4,1.9c1.3,1.3,5,1.3,5.9-0.7c0.3-0.8,0.5-2.5,0-3.2c-0.3-0.4-1.1,0.1-1.3-0.6c-0.3-0.8,0.4-0.6,0.7-1.2
		c0.5-0.9,0.3-2.3,0.9-3.1c1.2-1.5,2.1,0.1,3,0.8c0.4,1.2,1.8,3.1,3.2,3.7c0.9,0.4,1.6,0.1,2.5,0.3c0.9,0.2,1.1,0.7,1.9,1
		c0.9,0.4,1.4-0.2,1.9,0.9c0.5,1.4-0.5,1-1,1.9c-0.7,1.5,1.8,2.3,3.2,2.2c0,1.9-0.3,2.5,0.8,3.7c0.5,0.2,1.1,0.4,1.8,0.4
		c0,0,0,0,0,0c0,0.8,0.3,1.4,0.1,2.3c-0.1,0.7-0.5,1.2-0.3,2c0.3,1.5,2.1,1.6,2.7,2.7c0.6,1,0.3,2.7,0.3,3.8c0,0.9-0.2,1.5-0.4,2.4
		c-0.2,1,0.3,1.5,1.1,1.9c0.9,0.4,2.1,0.8,3.1,0.5c0.8-0.2,1.1-1,1.6-1.6c0.6-0.7,1-0.3,1.5,0.3c0.7,0.9,1.7,1,2.9,1
		c0.7,0,1-0.1,1.6-0.5c0.4-0.2,0.5-0.4,1-0.2c1.1,0.5,0.6,2.1,2.2,1.9c1.2-0.1,2.3-0.9,3.1-1.6c0.7-0.6,1-1.2,2-1.4
		c0.9-0.2,1.6,0.1,2.3,0.6c1,0.7,1.9,0.1,3,0.5c0.4,0.2,0.8,0.7,1.2,0.7c0.5,1,1.9,1.7,2.6,2.5c1,1.1,2,1.9,3,3c0.7,0.7,2,2.3,3,1.1
		c0.5-0.6,0.3-1.2,1.2-1.4c0.8-0.2,1.8,0.2,2.4,0.7c0.3,0.4,1.6,1.1,2.1,1.3c1,0.6,2,1.4,3.1,1.9c0.7,0.3,1.7,0.7,2.4,0
		c0.3-0.3,0.4-1.1,0.9-1.3c0.5-0.2,1.2,0.5,1.5,0.8c1.1,1.1,3.1-0.1,4-0.8c0.8-0.5,1.3-1.2,1.9-1.9c0.4-0.5,0.9-0.7,1.4-1
		c0,0,1.6-0.7,3.1-0.4c3.7-0.4,6.3,5.4,7.7,8.2c1,1.8,1.9,3.5,3.8,4.2c3.1,1.1,3.5-0.5,5.7-1.7c1-0.5,2,0.1,3-0.6
		c1.3-0.9,1.1-2,1.4-3.2c0.7-2.8,0.8-3.7,3.5-5.1c3.2-1.6,2.4-0.7,4.5,1.3c1.9,1.8,3,1.2,5.3,0.9c3.2-0.5,4,1.2,6.7,2.4
		c2.1,0.9,5.2,0.6,5.8-2.3v0c1.9-1.2,4.8-2.1,5.7,0.7c1.1,3.1-1.2,3.9-2.1,6.3c-0.5,1.4-0.3,1.8,0.6,2.7c0.3,0.3,0.9,0.4,1.1,0.9
		c0.3,0.9-0.3,0.7-0.4,1.2c-0.3,2,1,4.8,3.2,5c0.6,0,0.9-0.2,1.5,0c0.6,0.2,0.8,0.9,1.4,1.2c0.8,0.3,2.5-0.1,3.1-0.6
		c1-0.8,0.7-2.1,2.5-1.9c1.1,0.1,3,1.6,3.6,2.6c0.6,1.1-0.1,2-0.5,3c-0.4,1.2-0.3,2.1,0,3.4c0.2,1.1,0.5,2-0.5,2.8
		c-0.7,0.6-2.6,0.3-3,1.2c-0.8,1.9,4.8,2.7,5.9,3.4c2.4,1.4,3.8,3,6.6,2.8c1.7-0.1,2.3-0.2,3.5-1.4c1.1-1,2.2-2.2,3.2-3.3
		c1.2-1.1,2.2-2.6,3.3-3.8c1.2-1.4,1.3-1.2,2.9-1.8c0.8-0.3,1.2-0.8,1.6-1.5c0.8-1.5,2.3-3.9,3.7-5c2.2-1.6,4,0.6,6,1.5
		c2.6,1.2,2.8,2.4,2.8,5.2c0,1-0.3,2.4,0.3,3.2c0.6,0.8,2.1,0.7,2.5,0.7v-9.6l1.3,0.1c0.6-0.1,1.3,0,1.5-0.6
		c0.3-0.8-0.1-1.4-0.5-2.1c-0.2-0.4-0.5-0.8-0.6-1.2c-0.2-0.4,0-0.8-0.1-1.2c-0.2-0.9-1.2-0.7-1.5-1.4h0v-79.5h-9.2v-20.8H370.7z"/>
	<path id="_x3C_SERVICE_AREA_FILL_EAST_x3E_" opacity="8.000000e-02" fill="#00A79D" d="M663.6,254.4c-0.8,0-1.7-0.2-2-1
		c-0.2-0.5,0.2-1,0.1-1.5c-0.2-1.5-1.2-1.9-2.3-2.5c-1.4-0.8-2.8-1.7-4.2-2.5c-3.3-1.9-3.2,4.3-6.2,4.3c-0.8,0-1.5-0.2-1.9-0.5
		c-1.2-1-1.1-3.2-1.1-4.9c-0.7-0.9-1.3-1.1-2.3-0.5c-1.6,1.1-1.9,3.1-4.2,2.9c-1.5-0.1-2.6-1.1-1.7-2.6c0.6-0.9,1.2-1.1,0.8-2.4
		c-0.6-1.8-3.3-2.1-4.8-2.6c-1.6-0.5-3.2-1-4.8-1.6c-1.3-0.5-1.9-1-2.2-2.5c-0.3-1.3-0.5-2.5-2.1-2.9c-0.8-0.2-1.4,0-2.1-0.3
		c-0.1,0.1-0.2,0.1-0.3,0.2c-0.2,0.3-0.2,0.6-0.2,1c0,0.5-0.2,1-0.2,1.6c-0.1,0.4-0.2,0.7-0.3,1c-0.2,0.3-0.6,0.4-0.9,0.6
		c-0.5,0.3-0.5,1-0.5,1.5c0,0.3,0,0.7-0.2,1c-0.1,0.3-0.3,0.6-0.5,0.8c-0.2,0.2-0.3,0.5-0.5,0.7c-0.1,0.1-0.1,0.2-0.2,0.3
		c-0.1,0.1-0.2,0.2-0.2,0.3c-0.1,0.3-0.5,0.4-0.8,0.5c-0.2,0.1-0.4,0.3-0.6,0.3c0,0,0,0-0.1,0c-1,0.4-2,0.3-2.7,1.3
		c-0.7,1-0.3,2.1-1.3,2.8c-0.9,0.7-2.1,0.1-2.8,0.9c-0.9,1.1,0.5,1.9,0.7,2.7c0.5,2-2.1,2.4-3.1,3.5c-1.2,1.4-1.1,3.2-3.5,3.4
		c-2.2,0.2-3.9-2.5-5-4c-1.5-2.2-2.7-1-4.6-0.2c-0.2,0.1-0.5,0.2-0.7,0.2v-24.4h-37.5v-18.2h0v-10.9h-5.9V185h0l8.8-11h42.1
		c0-0.1,0-0.2-0.1-0.3c-0.3-0.8-0.9-1.4-0.7-2.3c0.2-0.9,1.1-1.4,1.8-1.8c0.9-0.6,1.5-1.3,2.2-2.2c0.8-1.1,1.1-1.9,1.2-3.2
		c0-1,0.5-1.9,1.3-2.5c0.8-0.7,1-0.8,1-1.9c0-0.7,0.2-1.4,0.4-2.1h8.5v-11.3h10.3v-12.1h44.1l-4-26.9V67.5h-37.3l-13.5-27.1h-89.4
		h-21.2h-27.8H451h-13.4v32.6c-0.1,0.1-0.2,0.1-0.2,0.2l15.5,21.7h4.5V99l-4.3,2.6c0.4,0.7,0.8,1.3,0.7,2.5c0.8,0.9,3,1.5,2.3,3.4
		c-0.4,1.2-3.3,1.5-2,3.5c0.4,0.7,1.1,0.5,1.8,0.8c1.2,0.5,0.9,0.1,1.8,1c0.5,0.4,0.4,1.2,1.1,1.5c1.4,0.5,0.9-0.3,2.1-0.9
		c3-1.6,4.1,1.8,5.1,4.1c0.7,1.6,1.5,2.3,3.3,1.6c1.3-0.5,1.6-2.3,2.7-2.8c3.4-1.5,2.7,4.4,1.1,5.7c-1.8,1.4-4.2,2-3.4,5
		c0.7,2.4,4.1,2.3,6.1,1.7c0.8-1.5,2.9-4,4.8-3.4c1.9,0.6,2.1,4,3.1,5.6c0.1,0.2,0,0.2,0,0.4c2.1,0.5,4.5,0.6,6,2.3
		c1.2,1.3,1.8,4.2,3.8,4.4h6.1c1.7,0,2.3,2.3,2.2,4.1c-0.1,1.6-2.6,3.1-2.2,4.3h-2.7v11.3h27.4V171l-17.3,6.5v15.7l-43,14.3v14.9v20
		v0c0.3,0,0.6-0.1,0.9-0.1c1.8-0.4,2.3-2.8,4.4-2.4c1.8,0.3,1.4,2.8,3.8,2.3c0.5-1.8-0.8-1.8-1.2-2.9c-0.5-1.2-0.8-2.3-0.8-3.8
		c1.4-0.1,2.4,0,3.6,0.5c1.1,0.4,0.8,1.7,2.5,1.5c0.1-0.2,0-0.5,0.1-0.8c1-0.6,1.1-1.8,2-2.5c0.9-0.8,1.9-0.8,3-1.1v25.1h3.7l7,7
		l-10.6,7.9v38.4h11.6V328h-4.8v6.8h-6.8l-2.4,10l-14,1.1l2.5,30.7l22.2,2.5l4.4,14.5h40.4l13.8,16l1.3,12.9l0.5,4.1
		c0.6-1.2,1.2-2.3,2.7-2c1,0.2,1.3,1.2,2.4,1.6c1.2,0.4,2.3,0.2,3.4-0.6c0.6-0.5,1.2-1.6,1.9-1.9c1.2-0.4,2.1,0.7,3.2,0.3
		c2-0.7,2.3-3.2,4.7-3.2c3.4-0.1,2.5,2,3.1,4.5c0.7,2.8,3.1,1.3,5.1,1.5c0.4,0,1.1,0.3,1.5,0.4c0.8,0.1,1.7,0,2.5,0.2
		c0.7,0.2,1.8,0.7,2.4,1.3c1.7,0,3.4,0.5,5.3,0.3c1.7-0.2,4.3,0.5,5.8-0.3c0.8-0.4,1.1-0.9,1.9-1.2c0.7-0.2,1.7,0.1,2.3-0.4
		c0.6-0.5,0.5-1.3,1.1-1.8c0.7-0.6,1.8-0.2,2.1-1.3c0.9-0.6,0.5-2.7,1.3-3.7c0.7-1,1.8-2,3.1-2.2c2.4-0.4,2.8,2.9,6.4,2.4
		c3.8-0.2,6.4,3.4,8.3,5.8c0.7,0.9,1.6,2.6,2.5,3.2c1.6,1.2,3.1,0.1,4.8,0.4c1.2,0.2,2.8,1.4,3.5,2.2c0.4,0.5,0.5,1.2,0.8,1.7
		c0.5,0.6,1.4,1.1,2,1.7c2,1.9,3.9,4.4,5.6,6.5c1.1,1.3,2.2,2.3,4.1,1.8c1.5-0.4,2.6-2.1,4.3-1.6c0.6,0.2,0.8,0.9,1.4,1.2
		c0.4,0.2,1.7,0.4,2,0.7c1.3,1.1,0.8,3,3,2.8c0.7,1.8,1.2,3.7,3.2,4.3c1.8,0.5,2.4-0.7,3.9-1c0.5,1.1,0.9,3.1,2.4,2.9
		c1.3-0.2,1-2,2.9-1.2c1.1,0.5,2.9,0.2,4.1,0.6c1.6,0.6,1.7,1.3,2.4,2.7c0.8,1.5,4.1,5.3,6.1,4.2l2.4-103.5l0.1,0l0.2-11.5h-23.9
		h-12.6h-6.2v-30.1h6.2v-9.2H684l0.5-27.8h-21V254.4z"/>
</g>
<g id="MAJOR_HIGHWAYS_LAYER">
	
		<path id="_x3C_MAJOR_HIGHWAY8_x3E_" fill="none" stroke="#EFCC9E" stroke-width="2" stroke-linecap="round" stroke-linejoin="round" d="
		M391.1,40.3v57.9c-0.2,1.5,0.2,3.5,0.7,4.8c0.3,0.7,0.9,1.5,1.1,2.3c0.2,0.7,0.1,1.6,0.3,2.2c-0.1,0,0,0.2,0,0.3v40.7
		c-0.5,2.5-1.7,4.1-2.2,6.5c-0.1,0.4-0.1,0.7-0.2,1.2v13.5c0,3.7-2.3,7.7-3.8,11.1c-1.1,2.4-2.2,4.9-3,7.4c-0.5,1.7-0.3,3.8-0.9,5.3
		c-0.1,0.3-0.2,0.7-0.2,1v18.2c0,0.1,0,0.4,0,0.5v4.7c-1.9,5.1-5,7.2-9.9,9.7C367,231,368,237.9,368,244c0,2.2-1.7,4.5-2.2,6.7
		c-0.7,2.6-0.3,6.2-1.8,8.5c-1.2,1.8-3.4,3.1-5.2,4.1c-2.9,1.7-5.7,3.3-8.2,5.5c-2.7,2.3-5.3,4.8-7.8,7.2c-2,0.5-4.6,4.1-5.6,5.8
		c-1.4,2.2-2.9,4.5-4.1,6.7c-2,3.8-5.8,5.7-9,8.3c-2.1,1.8-4,3.8-5.9,5.7c-0.3,1.7-2.5,2.8-3.7,4c-1.7,1.7-3.4,3.5-5.3,5.1
		c-4.2,3.5-9.3,5.7-14.2,8.1c-1.1,0.6-2,0.8-3,1.5c-1.1,0.8-2,1.9-3.1,2.6c-0.8,0.5-5,4.3-5.3,4c0,2.1,0.9,3.6,1.4,5.7
		c0.7,2.9,0.6,5.9,0.6,9c0,3.5-1.7,6.1-2.7,9.3c-0.7,2.3-1.2,5.8-0.4,8.3c0.1,0.4,0.4,1.6,0.4,1.6c0,5.2-0.1,8.9-0.1,14
		c0,4.6-0.4,9.8-3.3,13.6c-2.5,3.3-5.3,5.3-6.8,9.5c-0.6,1.6-0.7,3.3-0.9,5l0-0.1"/>
	
		<path id="_x3C_MAJOR_HIGHWAY7_x3E_" fill="none" stroke="#EFCC9E" stroke-width="2" stroke-linecap="round" stroke-linejoin="round" d="
		M121.6,264.4c5.6,1.6,14.7,2.2,20.3,0.1c2.2-0.8,4-2.5,6.3-3.1c1.9-0.5,5.2,0.5,6.9-0.4c1.7-0.9,2.6-4.1,3.2-5.7c1-2.4,1.9-3.5,4-5
		c3.5-2.5,6.4-4.3,10.9-4.3c3.4,0,6.7-0.5,9.9-0.8c5.6-0.5,11.6,0.4,16.4-3.1c3-2.2,5.3-5.1,8.5-6.8c3.2-1.7,7.4-0.9,10.9-1.5
		c1.3-0.2,2.1-1.7,3.5-2.2c1.7-0.5,3.4-0.1,5-0.7c3.7-1.5,6.2-2.5,10.3-2.9c3.8-0.4,7.9-0.5,11.2,0.2c1.9,0.4,1.6,0.9,3.5-0.1
		c1.6-0.8,1.8-2.1,4.2-1.9c0,0,3.7,0,4.2,0h24.4c3.4,0,6.5-2.2,10.1-1.6c1.3,0.2,2.4,1.3,3.7,1.7c1.4,0.5,3,0.5,4.6,0.7H326
		c1.4,0,1.7,1.8,2.7,2.6c0.9,0.8,2.9,1.4,4.2,1.4h11.7c1.5,0,2.4,1.8,3.7,2.6c1.8,1.1,4,1.7,6.1,2.1c3.6,0.8,9.1-0.5,12.2,0.9"/>
	
		<path id="_x3C_MAJOR_HIGHWAY6_x3E_" fill="none" stroke="#EFCC9E" stroke-width="2" stroke-linecap="round" stroke-linejoin="round" d="
		M378.3,224.7c0,4.8-1.3,5.3-1.8,9.8c-0.5,5.2-0.6,10.7-0.6,15.9c0,5.1,2.1,9.5,1,14.6c-0.4,2-1.2,4.4,0.3,6.3
		c1.5,1.9,2.3,1.5,3.5,3.7c1.4,2.5-1.1,4.2,1,6.5c2,2.2,6.5,2.7,4.8,6.4c-1.3,2.8,0.6,7.7,1.6,10.2c1.4,3.6,3.2,7.3,5,10.7
		c1.5,2.9,3.4,5.5,4,8.8c0.6,3.5,1.9,7.2,3,10.6l10.3,23.1c1,3,0.2,7.5,0.1,11.4l0.6,53.3l0.6,26.6l-0.1,2.6"/>
	
		<path id="_x3C_MAJOR_HIGHWAY5_x3E_" fill="none" stroke="#EFCC9E" stroke-width="2" stroke-linecap="round" stroke-linejoin="round" d="
		M366.6,236.4c2.8,0,9.5-1.5,12.2-0.5c2.9,1.1,5.5,3.1,8.3,4.5c2.7,1.3,5.5,0.7,8.2,1.8c3,1.2,5.9,2.7,9.3,2.4c0.1,0,0.4,0,0.5,0
		h34.4c0.1,0-0.1-0.1,0-0.1h43.8c2.6,0,4.8-0.3,7.2-1.3c1.5-0.6,2.9-1.2,4.3-2c1.7-0.9,3.2-1.1,5.1-1.5h42.4c2.4,0,4.7-0.2,7-0.9
		c3.1-0.9,6.1-2.7,9.5-2.7c1,0,2.8,0,3.9,0c2.3,0,4.6,0,6.9,0c6,0,12.4,0.6,18.4-0.2c4.7-0.6,9.1-1.6,13.8-2
		c1.9-0.1,3.8-0.4,5.7-0.4c1,0,2.2,0.2,3.1-0.1c4.1-1.4,8.8-0.1,13.1-0.4c2.8-0.2,5.4-1.4,8.3-1.2c2.1,0.2,3.3,1.5,4.8,2.8
		c1.5,1.3,3.4,1,5.3,1.2c2.7,0.2,5.3,0.3,8,0.5c3.3,0.3,6,0.8,8.4,3.2c1.6,1.6,4.3,2.5,6.4,3.4c2.9,1.2,6.2,1.2,9.3,1.1
		c2.9-0.2,4.7-2.4,7-3.8c1.1-0.7,2.2-1.5,3.3-2.2c0.8-0.5,0.8-0.4,0.7-0.4"/>
	
		<path id="_x3C_MAJOR_HIGHWAY3_x3E_" fill="none" stroke="#EFCC9E" stroke-width="2" stroke-linecap="round" stroke-linejoin="round" d="
		M664.9,48.1c-4.6,1.7-9.3,4.6-13.6,6.9c-4.1,2.2-6.3,5.6-7.8,9.9c-0.8,2.4-1.3,4.9-2.6,7c-0.9,1.5-2.8,3.1-4.3,4.3
		c-4.6,3.6-10.2,5.5-15.1,8.4c-0.8,0.5-1.8,0.9-2.3,1.6c-1.6,0.4-3,1.9-4.3,3c-1.6,1.3-3.2,2.4-4.4,4c-3,3.9-4.9,7.8-9,10.8
		c-2.6,1.8-4.4,4.3-7.2,6.1c-3,1.9-5.6,4.1-7.6,7c-2.1,3-2.6,6.5-6.5,7.2c-3,0.5-5.8,0.9-7.9,3.2c-1.1,1.2-2.2,2.7-3.5,3.9
		c-2.4,2.2-5,4.5-7.4,6.8l-6.2,6.5c0,0-1.8,2.1-2.2,4.8l-2.4,11.4"/>
	
		<path id="_x3C_MAJOR_HIGHWAY2_x3E_" fill="none" stroke="#EFCC9E" stroke-width="2" stroke-linecap="round" stroke-linejoin="round" d="
		M612.4,233c0,0-13-18.9-12.7-19.2c-1.1-2.1-1.4-4.3-1.4-4.3s-0.3-8.4-0.1-8.7c1-9.9-6-13-6-13l-17.6-9.7c-1-0.8-3.1-1-4.1-2.3
		c-0.9-1.2-1.4-2.8-2.3-4.1c-2.1-2.6-4.9-4.5-7.6-6.3c-5.3-3.5-10.4-4.6-17-5.9c-6.2-1.2-13.8-3.4-20.1-1.5c-2.9,0.8-4.1,3.6-5.4,6
		c-1.6,2.9-2.9,3.8-6.5,4.1c-0.9,0.1-2.2,1.2-2.9,1.8c0,0-19.6,16.3-30.9,21.4c0,0.2-12.9,5-12.9,5s-3,1.2-5.7,2
		c0,0-12.2,1.8-17.3,3.5c0,0-21.8,6.3-28,10.4c0.2,0.3-2.8,1.5-6.6,1.8c-4.5,0.4-8.8,0.4-13.1,1.3c-3.5,0.7-9.1,0.7-11.6,3.2"/>
	
		<path id="_x3C_MAJOR_HIGHWAY1_x3E_" fill="none" stroke="#EFCC9E" stroke-width="2" stroke-linecap="round" stroke-linejoin="round" d="
		M525.4,157.3c5.7-0.4,8.1-3.3,12.8-5.7c4.9-2.5,8.8-2.1,14.7-2.1"/>
</g>
<g id="NON_SERVICE_COUNTIES">
	<polygon fill="none" stroke="#DBD8BD" stroke-linecap="round" stroke-linejoin="round" stroke-miterlimit="3.8637" points="
		649.6,146.3 649.6,179.3 646.8,179.3 646.8,211.7 682.8,211.7 682.8,211.7 673,146.3 	"/>
	<path fill="none" stroke="#DBD8BD" stroke-linecap="round" stroke-linejoin="round" stroke-miterlimit="3.8637" d="M616.8,157.6
		v-11.3h32.8v33h-2.8v32.4h-30.9V190h-13.4c0.1-0.5,0.2-1.2,0.4-1.8c0.2-0.6,0.5-1.2,1-1.6c0.5-0.5,1.4-1,1.6-1.8
		c0.2-1.1-0.5-2.1-1.2-2.9c-1-1.2-5.9-2.5-4.4-4.7c0.5-0.7,1.1-1,1.3-1.9c0.2-0.5,0.1-1.1,0-1.6c-0.3-0.8-0.9-1.4-0.7-2.3
		c0.2-0.9,1.1-1.4,1.8-1.8c0.9-0.6,1.5-1.3,2.2-2.2c0.8-1.1,1.1-1.9,1.2-3.2c0-1,0.5-1.9,1.3-2.5c0.8-0.7,1-0.8,1-1.9
		c0-0.7,0.2-1.4,0.4-2.1H616.8z"/>
	<path fill="none" stroke="#DBD8BD" stroke-linecap="round" stroke-linejoin="round" stroke-miterlimit="3.8637" d="M615.7,222.5
		c-0.7,0.7-0.8,1.5-0.6,2.5c0.3,1.3,1.4,3.2,2.3,4.3c1,1.2,2.2,2.5,3.5,3.4c0.5,0.3,1.2,0.7,1.8,1c0.8,0.3,1.4,0.1,2.1,0.3
		c1.6,0.3,1.8,1.5,2.1,2.9c0.3,1.4,1,1.9,2.2,2.5c1.6,0.7,3.2,1.1,4.8,1.6c1.6,0.5,4.3,0.8,4.8,2.6c0.4,1.3-0.3,1.4-0.8,2.4
		c-0.9,1.5,0.2,2.5,1.7,2.6c2.3,0.1,2.6-1.8,4.2-2.9c0.9-0.6,1.6-0.5,2.3,0.5c0,2.2-0.3,5.5,3,5.4c2.9-0.1,2.8-6.2,6.2-4.3
		c1.4,0.8,2.8,1.7,4.2,2.5c1.1,0.6,2.2,1.1,2.3,2.5c0.1,0.5-0.3,1-0.1,1.5c0.3,0.9,1.5,0.9,2.3,1c1,0.1,2,0,3,0.1
		c1.2,0.1,0.9,0.1,1.2-0.8c0.5-1.5,0.7-3.3,2.6-3.1c1.3,0.2,1.8,0.9,2.7,1.8c1.2,1.2,3.3,1,5.1,0.8c1.7-0.2,1.7-1.3,1.6-2.8
		c-0.2-2.3-0.6-3.8,1.5-5.2c1.4-0.9,2-1.3,3.7-1.3l0.3-13.2l-2.8-18.9h-66.9v8.6L615.7,222.5z"/>
	<path fill="none" stroke="#DBD8BD" stroke-linecap="round" stroke-linejoin="round" stroke-miterlimit="3.8637" d="M411.6,174h52.4
		v59.1h-52.4C411.6,231.7,411.6,174,411.6,174z"/>
	<path fill="none" stroke="#DBD8BD" stroke-linecap="round" stroke-linejoin="round" stroke-miterlimit="3.8637" d="M447.7,240.5
		c3.1,0.3,4.6-2.9,7.2-2.3c0,0.4,0.1,1,0.1,1.4c2.3,1.4,6,3.2,9.1,2.9l0-9.4h-52.4v65.5c6.1,0,12.1,5.3,17.3-0.1
		c1.7-1.8,3.3-5.4,6-2.9c1.1,0.9,0.8,2.6,1.9,3.4c1.3,0.9,3,0.4,4.4,0.2c0.6-1.3,2.2-3.2,3.9-2c1.5,1.1,0.4,4.2,0.4,4.2l3.4,0.8
		v-31.2l-1.3-1.3V240.5"/>
	<path fill="none" stroke="#DBD8BD" stroke-linecap="round" stroke-linejoin="round" stroke-miterlimit="3.8637" d="M551.2,426.5
		c-0.5,1-0.9,2.1-1.7,2.4c-1.6,0.7-1.8,0.1-3-0.7c-1-0.6-1.9-0.2-3-0.8c-0.7-0.4-1.7-1.1-2.1-1.7c-0.5-0.8-0.5-2-1.4-2.6
		c-0.8-0.6-2.2-0.5-3.2-0.9c-1.2-0.5-1.6-1.2-2.5-2v-21.9l-3.5-4.4H481v5.4h-12.7l3.5,6c0.2,1.7-2.3,1.8-2.8,2.9
		c-0.3,0.7,0.2,1.8-0.1,2.5c-0.5,1.2-1.2,0.9-2.2,1.3c-1.9,0.7-2.2,2.5-0.1,3.6c1.5,0.8,3.2,1.1,2.1,3.4c0.1,0.2,0.2,0.2,0.1,0.4
		c-0.9,0.6-2.5,0.5-2.3,2c0,0.4,0.8,0.9,0.9,1.3c0.1,0.4,0.2,1.4,0.2,1.8c0.2,1.2-0.1,2.2-0.7,3.2c-0.6,0.8-2.2,1.7-2.5,2.7
		c-1.6,0.8,0,1.6,0.9,1.8c1.4,0.4,1.5,0.7,2.5,1.8c2,2.2,4.9-0.3,6.7,2c0.7,1,0.3,2.1,0.7,3.1c0.5,1.1,1.9,1.3,3.1,1.2
		c1.9-0.2,5-1,6.3,0.9c0.6,0.9,0.8,1.7,1.7,2.5c0.8,0.7,1.6,1.2,2.3,2.1c0.5,0.7,1.2,1.7,1.4,2.5c0.4,1.6-0.6,2.4,1.3,3.1
		c7.4,2.5,2.2-7.8,6.3-9.7c1.8-0.8,3.2,0.7,4.7,1.1c1.5,0.4,3.6,0.3,5-0.3c1.2-0.5,3.3-1.1,3.2-2.8c-0.1-1.1-2.5-2.8-1.3-3.8
		c1.8-1.6,2.8-4,5.4-3.8c1.2,0.1,2.4,0.5,3.7,0.4c1.3-0.1,1.8-0.6,3.1-0.3c1.3,0.3,2.4,0.7,3.7,0.2c1-0.4,1.5-1.2,2.5-1.7
		c1.1-0.5,2.2-0.2,3.4-0.3c1.6-0.1,1.4-0.4,2.3-1.5c0.4-0.5,0.3-0.9,1.1-1c4.2-0.3,7.8,8.5,11,5.4c0.8-0.7,0.1-1.7,1.3-2.2
		c1.5-0.6,1.2,0.5,2.1,1c2,1.3,4.2-0.7,3.1-2.8c0-0.2-0.2-0.4-0.3-0.6c-0.1-0.3-0.2-0.5-0.3-0.8
		C551.4,427.4,551.3,426.9,551.2,426.5"/>
	<path fill="none" stroke="#DBD8BD" stroke-linecap="round" stroke-linejoin="round" stroke-miterlimit="3.8637" d="M467,427.7
		c0.7-1,0.9-2,0.7-3.2c-0.1-0.4-0.1-1.4-0.2-1.8c-0.1-0.5-0.8-0.9-0.9-1.3c-0.2-1.5,1.4-1.4,2.3-2c0-0.2-0.1-0.2-0.1-0.4
		c1.1-2.3-0.6-2.6-2.1-3.4c-2.1-1.2-1.8-2.9,0.1-3.6c1-0.4,1.7-0.2,2.2-1.3c0.3-0.7-0.2-1.8,0.1-2.5c0.5-1.2,3-1.3,2.8-2.9l-3.5-6
		l-3.3-2.3l-0.9-3.1l-7-1.6h-28.7v19.3h4.7v6.9c0.9,0.6,1.8,0.7,2.4,1.8c0.7,1.2,0.3,3.1,0.3,4.5c0,1.7,1,2.8,1.8,4.2
		c0.4,0.7,0.9,1.5,1.7,1.9c0.5,0.3,1.8,0.6,2.4,0.4c1.5-0.5,0-3,1.5-3.4c0.8-0.3,4.1,1.1,3.7,1.9c0.2,0.9,0.6,1.7,0.9,2.6
		c0.4,1.3,1.2,1.5,2.5,1.7c1.3,0.2,2.5,0.1,3.6-0.5c0.5-0.3,1-0.5,1.5-0.8c0.6-0.4,0.9-0.8,1.3-1.3c0.4-0.4,0.5-0.7,0.6-1.3
		c0.1-0.7,0.1-1.3,0.2-2c0.1-1,0.3-2.5,1-3.2c0.8-0.7,2.2-0.7,3.1-0.4c1,0.3,0.7,1.1,1,1.7c0,0.8,1.2,1,1.8,1.2
		C465.4,427.3,466.2,427.7,467,427.7z"/>
	
		<rect x="23.7" y="40.3" fill="none" stroke="#DBD8BD" stroke-linecap="round" stroke-linejoin="round" stroke-miterlimit="3.8637" width="96.2" height="63"/>
	
		<rect x="313.1" y="40.3" fill="none" stroke="#DBD8BD" stroke-linecap="round" stroke-linejoin="round" stroke-miterlimit="3.8637" width="65" height="51.2"/>
	<path fill="none" stroke="#DBD8BD" stroke-linecap="round" stroke-linejoin="round" stroke-miterlimit="3.8637" d="M369.2,415.5
		c0.6-0.1,1.3,0,1.5-0.6c0.3-0.8-0.1-1.4-0.5-2.1c-0.2-0.4-0.5-0.8-0.6-1.2c-0.2-0.4,0-0.8-0.1-1.2c-0.2-0.9-1.2-0.7-1.5-1.4v-4.8
		h60.5v7.2h4.7v6.9c-0.7,2-2.1,3.2-4.2,1.7c-2.2-1.6-4.2-0.5-3.1,2.3c0.9,2.2,3,3,1.4,5.6c-0.6,0.9-1.1,2.4-1.8,3.1
		c-0.9,0.9-2.1,0.5-3.3,0.6c-1.6,0.1-1.6,0.4-2.4,1.5c-0.6,0.8-1.3,1.6-2.1,2.4c-1.6,1.7-2.6,2.1-1.1,4c1.1,1.4,0.7,3.5-0.3,5
		c-0.9,1.4-2.7,2.5-4.4,2.1c-1.1-0.3-3.2-1.6-3.2-2.8c0-1.2-1.1-2.9-1.7-4c-0.8-1.4-2.5-3.5-2.2-5.1c0.4-1.8,2.1-1.6,3.3-2.5
		c1.2-0.9,0.6-3.2,0.3-4.6c-0.6-2.4-3.4-5.9-6.3-4.3c-2.6,1.4-0.3,4.9-3.5,5.7c-2.6,0.6-6.5-1.1-7.5,2.1c-0.3,0.9-0.5,2.4-1.3,3
		c-1.2,0.9-3.2,0.8-4.6,0.7c-2.4-0.1-5.6-0.8-5.8-3.6c-0.1-1.1,0.5-1.7,0.8-2.7c0.3-1,0.2-2-0.2-3.1c-0.8-2.3-3.6-3.5-5.9-2.4
		c-2.3,1.1-3.5,2.7-6.2,2v-9.6L369.2,415.5z"/>
	
		<rect x="357.1" y="200.7" fill="none" stroke="#DBD8BD" stroke-linecap="round" stroke-linejoin="round" stroke-miterlimit="3.8637" width="54.5" height="43.6"/>
	<polygon fill="none" stroke="#DBD8BD" stroke-linecap="round" stroke-linejoin="round" stroke-miterlimit="3.8637" points="
		378.1,116.8 378.1,91.6 313.2,91.6 313.2,146.3 328,146.3 328,147.8 330.9,147.8 330.9,146.3 343.9,146.3 343.9,147.8 350.1,147.8 
		350.1,146.3 363,146.3 363,146.3 380.1,146.3 380.1,144.7 380.1,140.1 380.1,116.8 	"/>
	<path fill="none" stroke="#DBD8BD" stroke-linecap="round" stroke-linejoin="round" stroke-miterlimit="3.8637" d="M192.6,92h-72.7
		V40.3h56.6c0.3,0.5,0.5,1.4,0.8,1.9c-1.4,0.7,0.5,2.4,0.9,3.3c0.3,0.6,0,1,0.2,1.6c0.1,0.3,0.9,0.8,1.2,1.1
		c0.3,0.4,0.4,1.2,0.7,1.6c0.4,0.5,1,0.5,1.4,1c1,1.2,0.8,1.9,0.2,3.5c1.5,0.3,2.2,1,3.4,1.9c1.2,0.9,3.3,1.3,4.1,2.4
		c0,0.1,0.5,1.7,0.5,1.8c0,0.1,0.1,1.6,0.1,1.6c0.6,1.3,2.8,2.2,2.5,1.9L192.6,92z"/>
	<polygon fill="none" stroke="#DBD8BD" stroke-linecap="round" stroke-linejoin="round" stroke-miterlimit="3.8637" points="
		313.2,146.3 302.5,146.3 302.5,200.7 357.1,200.7 357.1,146.3 350.1,146.3 350.1,147.8 343.9,147.8 343.9,146.3 330.9,146.3 
		330.9,147.8 328,147.8 328,146.3 	"/>
	<path fill="none" stroke="#DBD8BD" stroke-linecap="round" stroke-linejoin="round" stroke-miterlimit="3.8637" d="M413.3,335.4
		c-1.1-0.2-1.4,1-2.4,1.4c-1,0.4-2.5-0.3-3.5,0c-1.1,0.3-1.6,0.7-1.4,1.8c0.2,1.4,1.4,1,2,1.8c0.9,1.1,0.1,1.4,0.3,2.6
		c0.2,1.2,1,1.1,1.4,2.3c0.4,1.1-0.5,1.8-0.2,3c0.2,0.9,1.1,1.4,1.6,2.2h-20.6v16.9h31.4v5.5h16.1v-22h4.7v-10.1h-10v-4.2h-7.3v-1.5
		h-3.1v1.5h-6.9L413.3,335.4z"/>
	<path fill="none" stroke="#DBD8BD" stroke-linecap="round" stroke-linejoin="round" stroke-miterlimit="3.8637" d="M443.1,146.3
		v-11h-31.9v11l-22.3,0l0,0v21.2c-0.7,4.5,3.1-0.3,3.9-0.8c3-2.1,3.3,0.7,3.4,3.2c0.9,0.1,2.4-0.6,3.1-0.4c0.5,0.2,0.6,0.9,0.8,1
		c0.4,0.2,1,0.2,1.5,0.4c1.7,0.7,1.2-0.2,2,1.6c0.4,1,0.3,1.5,0.9,1.6h1.2h5.8h52.4v-27.7H443.1z"/>
	<path fill="none" stroke="#DBD8BD" stroke-linecap="round" stroke-linejoin="round" stroke-miterlimit="3.8637" d="M501.9,142
		c0.1-1.8-0.5-4.1-2.2-4.1h-6.1c-1.9-0.2-2.6-3-3.8-4.4c-1.6-1.7-3.9-1.9-6-2.3c-0.1-0.2,0.1-0.2,0-0.4c-1-1.5-1.2-4.9-3.1-5.6
		c-1.9-0.6-4,1.8-4.8,3.4c-2,0.6-5.4,0.8-6.1-1.7c-0.8-2.9,1.6-3.6,3.4-5c1.5-1.2,2.2-7.1-1.1-5.7c-1.1,0.5-1.4,2.2-2.7,2.8
		c-1.8,0.7-2.7,0-3.3-1.6c-1-2.3-2.1-5.7-5.1-4.1c-1.1,0.6-0.7,1.4-2.1,0.9c-0.7-0.3-0.7-1-1.1-1.5c-0.9-0.8-0.6-0.5-1.8-1
		c-0.6-0.3-1.3-0.1-1.8-0.8c-1.3-2.1,1.5-2.3,2-3.5c0.6-1.9-1.5-2.4-2.3-3.4c0.1-1.6-0.7-2.2-1.2-3.3c-0.5-1.1-0.3-2.3-0.9-3.5
		c-0.2-0.1-0.3,0-0.5-0.1c-1-2-3.9-0.6-5.2,0.2c-2.7,1.7-3.9,4.3-5.2,7c-1.4,2.7-3.9,4-6.9,4.5c-3.1,0.5-6.1,0.2-8.4-2
		c-0.8-0.8-2-2.2-1.8-3.5c0-0.4,0.2-0.7,0.3-0.9l0,0l-2.1,2.8l0.2,19.4h11.6v10.6h9.4v11h56.6C499.2,145,501.7,143.6,501.9,142z"/>
	<path fill="none" stroke="#DBD8BD" stroke-linecap="round" stroke-linejoin="round" stroke-miterlimit="3.8637" d="M421.9,105.2
		l1.8-1.9c0.2-1.7,1.8-2.2,3.1-2.7c0.2-0.1,0.5-0.1,0.7-0.2c2.4-1,5.6-1.5,7.6-3.3c2.7-2.5,0.9-6.3-2.7-5.5c-3,0.7-5.7,2.5-9,1.4
		c-0.8-0.3-1.2-0.7-1.6-1.3h-43.8v25.3h2v29.5h31.1v-11h22.5v-10.6h-11.8V105.2z"/>
	<path fill="none" stroke="#DBD8BD" stroke-linecap="round" stroke-linejoin="round" stroke-miterlimit="3.8637" d="M292.7,200.7v21
		l0,0v22.2h22h7.1l0.4,0.4c0.6,0.5,0.6,1.3,1.2,1.8c0.7,0.6,1.7,0.5,2.5,1.2c0.4,0.4,1,1.3,1.6,1.4c1.1,0.3,0.9-0.8,1.5-1.5
		c0.8-0.8,1.7-0.4,2.6,0c0.8,0.3,1.6,0.3,2.3,0.5c0.5,0.1,0.5,0.3,1.1,0.2c0.7-0.1,1.3-0.7,2-0.7c1.2-0.1,1.5,0.6,2.2,1.3
		c1.6,1.5,3.8,1.1,5.6,0.8c1.1-0.2,1.6-1.2,2.8-0.8c1,0.3,0.9,1.2,1.7,1.7h7.6v-49.4H292.7z"/>
	<path fill="none" stroke="#DBD8BD" stroke-linecap="round" stroke-linejoin="round" stroke-miterlimit="3.8637" d="M357.1,200.7
		h31.2h23.3V174h-5.8c-2.1,0.2-1.6-0.2-2.2-1.6c-0.8-1.7-0.2-0.9-2-1.6c-0.5-0.2-1.1-0.2-1.5-0.4c-0.2-0.1-0.3-0.8-0.8-1
		c-0.7-0.2-2.2,0.5-3.1,0.4c-0.1-2.4-0.5-5.3-3.4-3.2c-0.8,0.6-4.6,5.4-3.9,0.8v-21.2l-31.8,0V200.7"/>
	<path fill="none" stroke="#DBD8BD" stroke-linecap="round" stroke-linejoin="round" stroke-miterlimit="3.8637" d="M357.1,244.3
		h54.5v54.3c-2.5,0-4,0.8-6.5,0.7c-1.6,0-1.5-1.4-2.9-1.8c-1.4-0.4-2.3,0-3.7-0.8c0.4-2-3.7-1.6-4,0c-1.5,0.9-4.4,0.4-5.2-1.3
		c-0.6-1.2,0.2-1.3,0.7-2c0.6-0.8,1-1.4,0.7-2.5c-0.4-2-3-2.1-2-4.5c0.3-0.8,1.2-1.1,1.1-2.1c-0.1-1.1-1.4-1.6-2.1-2.2
		c0.3-0.3,0.2-0.7,0.3-1c-0.9-0.3-2.1-0.2-3.1-0.2c-1.9,0-2-0.1-2-1.9c0-0.5-0.2-1.6,0.1-2c0.2-0.5,0.9-0.5,1.1-0.8
		c0.6-1-0.3-2-1.3-2.9c-1.4-1.4-3.4-2.2-4.7-3.9c-2-2.5-5.1-3.9-7.9-5.6c-1-0.6-3-1.6-3.1-3.2c0-0.9,0.6-0.8,0.9-1.4
		c0.3-0.6,0.3-1,0.3-1.7c0.2,0,0.3-0.1,0.5-0.2c0.3-3.1-2.9-4-5.3-5c-1.1-0.4-2.2-0.8-3.2-1.3c-1-0.5-1.6-0.9-3.2-0.9V244.3z"/>
	<path fill="none" stroke="#DBD8BD" stroke-linecap="round" stroke-linejoin="round" stroke-miterlimit="3.8637" d="M269.3,99.4
		V48.8h-2.5v-8.5h-90.3c0.3,0.5,0.5,1.4,0.8,1.9c-1.4,0.7,0.5,2.4,0.9,3.3c0.3,0.6,0,1,0.2,1.6c0.1,0.3,0.9,0.8,1.2,1.1
		c0.3,0.4,0.4,1.2,0.7,1.6c0.4,0.5,1,0.5,1.4,1c1,1.2,0.8,1.9,0.2,3.5c1.5,0.3,2.2,1,3.4,1.9c1.2,0.9,3.3,1.3,4.1,2.4
		c0,0.1,0.5,1.7,0.5,1.8c0,0.1,0.1,1.6,0.1,1.6c0.6,1.3,2.8,2.2,2.5,1.9l0,3.7h14.8c1.9,1.4,4.1,3.4,5,5.6c0.9,2.1,2.2,3.3,3.8,4.8
		c1,1,1.1,1.7,1.3,3c0.2,1.2,1,2.4,1.5,3.4c1.5,2.6,3.5,4.5,5.9,6.3c0.4,0.3,0.6,0.7,1.2,0.8c0,0.9,0.5,2.7-0.9,2.5
		c-0.1,0.2-0.2,0.5-0.2,0.6v8.5h12.7c0.8,0,0.7,0.8,1,1.5c0.2,0.4,0,0.6,0.3,1c0.3,0.3,1.1,0.3,1.4,0.6c1.1,1,1.1,3.9,3.3,3.6h5.6
		c0,0.1,0.4,0.5,0.5,0.5c0.6,0.7,1.2,1.7,2,2.2c0.4,0.3,1,0.4,1.3,0.8c0.4,0.4,0.4,0.9,0.8,1.3c0.4,0.4,1,0.4,1.5,0.8
		c0.2,0.2,0.5,1,0.8,1.2c0.8,0.4,2.2,0.3,3,0.3c1.1,0,1.7-0.2,2.8,0.1c1.4,0.4,1.4,0.4,2.6-0.3c0.9-0.6,1.7-0.2,2.7-0.5l0.8-2v-6.4
		h2.4v-8.7H269.3z"/>
	<path fill="none" stroke="#DBD8BD" stroke-linecap="round" stroke-linejoin="round" stroke-miterlimit="3.8637" d="M225.1,103.4
		v-8.5c0-0.1,0-0.4,0.2-0.6c1.3,0.2,0.9-1.6,0.9-2.5c-0.6-0.1-0.7-0.5-1.2-0.8c-2.4-1.8-4.5-3.7-5.9-6.3c-0.6-1-1.3-2.2-1.5-3.4
		c-0.2-1.3-0.3-2-1.3-3c-1.6-1.5-2.9-2.7-3.8-4.8c-0.9-2.2-3.1-4.2-5-5.6h-14.8V92h-32.4v9h1.8v5h-1.8v26.4h1.6v13.9h65.8v-10.5
		h-2.6V103.4z"/>
	<polygon fill="none" stroke="#DBD8BD" stroke-linecap="round" stroke-linejoin="round" stroke-miterlimit="3.8637" points="
		266.8,40.3 313.1,40.3 313.1,108 270.6,108 270.6,99.4 269.3,99.4 269.3,48.8 266.8,48.8 	"/>
	<path fill="none" stroke="#DBD8BD" stroke-linecap="round" stroke-linejoin="round" stroke-miterlimit="3.8637" d="M270.6,108v0.1
		h-2.4v6.4l-0.8,2c-1,0.3-1.8-0.1-2.7,0.5c-1.1,0.7-1.1,0.7-2.6,0.3c-1.1-0.3-1.6-0.1-2.8-0.1c-0.7,0-2.2,0.1-3-0.3
		c-0.3-0.1-0.6-1-0.8-1.2c-0.4-0.4-1.1-0.4-1.5-0.8c-0.4-0.4-0.5-1-0.8-1.3c-0.4-0.4-0.9-0.5-1.3-0.8c-0.7-0.5-1.4-1.6-2-2.2
		c-0.1,0-0.5-0.4-0.5-0.5h-5.6c-2.1,0.3-2.2-2.5-3.3-3.6c-0.3-0.3-1.1-0.3-1.4-0.6c-0.4-0.4-0.1-0.6-0.3-1c-0.3-0.6-0.2-1.5-1-1.5
		h-12.7v32.4h2.6v10.5h85.4V108H270.6z"/>
	<path fill="none" stroke="#DBD8BD" stroke-linecap="round" stroke-linejoin="round" stroke-miterlimit="3.8637" d="M390.3,350.3
		h20.6c-0.5-0.7-1.4-1.2-1.6-2.2c-0.2-1.2,0.6-1.9,0.2-3c-0.4-1.1-1.2-1.1-1.4-2.3c-0.2-1.1,0.6-1.4-0.3-2.6c-0.6-0.7-1.7-0.4-2-1.8
		c-0.2-1.1,0.3-1.5,1.4-1.8c1.1-0.3,2.5,0.4,3.5,0c0.9-0.3,1.3-1.6,2.4-1.4l2,1h6.9v-1.5h3.1v1.5h7.3v-6.9v-0.4v-20.5h-73.9v20.8
		h9.2v20.8H390.3z"/>
	<polygon fill="none" stroke="#DBD8BD" stroke-linecap="round" stroke-linejoin="round" stroke-miterlimit="3.8637" points="
		367.9,350.3 367.9,404.2 428.4,404.2 428.4,392.1 432.5,392.1 432.5,372.7 421.7,372.7 421.7,367.2 390.3,367.2 390.3,350.3 	"/>
	<path fill="none" stroke="#DBD8BD" stroke-linecap="round" stroke-linejoin="round" stroke-miterlimit="3.8637" d="M447.7,240.5
		c3.1,0.3,4.6-2.9,7.2-2.3c0,0.4,0.1,1,0.1,1.4c2.5,1.5,6.7,3.5,10,2.7c1.8-0.4,2.3-2.8,4.4-2.4c1.8,0.3,1.4,2.8,3.8,2.3
		c0.5-1.8-0.8-1.8-1.2-2.9c-0.5-1.2-0.8-2.3-0.8-3.8c1.4-0.1,2.4,0,3.6,0.5c1.1,0.4,0.8,1.7,2.5,1.5c0.1-0.2,0-0.5,0.1-0.8
		c1-0.6,1.1-1.8,2-2.5c0.9-0.8,1.9-0.8,3-1.1v43.3h-5.6v25.3c-0.6,1.2,0.1,2.8-0.9,3.8c-1.3,1.3-3.1,0.5-4.1-0.6
		c-1.6-1.5-1.9-7.8-5.2-3.5c-1,4.7-5.4-0.7-6.8-1.8c-0.9-0.8-2.2-2.3-3.6-1.2c-1.6,1.3,0.3,2.8,0.9,3.8c1.2,2.2,1,6.9-2.9,6.2
		c-1.7-0.3-1.4-1.9-2.1-3.2c-0.8-1.7-1.7-2.4-2.9-3.2v-31.2l-1.3-1.3V240.5z"/>
	<path fill="none" stroke="#DBD8BD" stroke-linecap="round" stroke-linejoin="round" stroke-miterlimit="3.8637" d="M594,222v32.2
		c0.2,0,0.5-0.1,0.7-0.2c1.9-0.8,3.1-2,4.6,0.2c1,1.6,2.8,4.3,5,4c2.4-0.3,2.3-2.1,3.5-3.4c1-1.1,3.7-1.5,3.1-3.5
		c-0.2-0.9-1.6-1.7-0.7-2.7c0.7-0.8,2-0.2,2.8-0.9c1-0.8,0.6-1.9,1.3-2.8c0.7-1,1.7-0.8,2.7-1.3c0,0,0,0,0.1,0
		c0.2-0.1,0.4-0.2,0.6-0.3c0.3-0.1,0.7-0.2,0.8-0.5c0-0.1,0.2-0.2,0.2-0.3c0.1-0.1,0.1-0.2,0.2-0.3c0.2-0.2,0.3-0.5,0.5-0.7
		c0.2-0.3,0.4-0.5,0.5-0.8c0.1-0.3,0.1-0.7,0.2-1c0-0.5,0-1.2,0.5-1.5c0.3-0.2,0.8-0.3,0.9-0.6c0.2-0.3,0.3-0.6,0.3-1
		c0.1-0.5,0.2-1,0.2-1.6c0-0.3,0-0.7,0.2-1c0.1-0.1,0.2-0.1,0.3-0.2c-0.6-0.2-1.2-0.6-1.8-1c-1.3-0.8-2.6-2.1-3.5-3.4
		c-0.9-1.1-2-2.9-2.3-4.3c-0.2-0.9-0.1-1.8,0.6-2.5l0.3-2.2v-1v-7.7V190h-13.4h-2.9H596c-0.3-0.2-1.4-0.7-1.3-1.4
		c-1.7-0.5-2.5,0-3.7,1.2c-1.3-0.7-1.7,1.7-2.9,2.2c-1.3,0.5-3.7,0.2-5.1,0.1c-1.4-2.7-1.6-2.7-4.2-0.8c-0.7,0.6-1.3,1.5-2.4,1.8
		c-0.8,0.2-1.7-0.3-2.7,0c-1.5,0.5-3.2,2.8-4.4,2.7c-0.8,0-4-2-4.3-2.8c-0.6,0-1.3-0.1-1.9,0V185h-12.6v15.8h5.9V222H594z"/>
	<path fill="none" stroke="#DBD8BD" stroke-linecap="round" stroke-linejoin="round" stroke-miterlimit="3.8637" d="M121.6,181.7
		c1-0.1,2.4-0.7,3.1-1.1c0.5-0.3,0.8-0.9,1.2-1.3c0.4-0.4,0.9-0.7,1.4-1c1.9-1,3.2-1.1,3.3-3.6c0-1.1-0.1-2.3,0.4-3.3
		c0.4-1,1.2-1.9,1.9-2.6c1-1.1,3.3-3.3,5-3.1c0.2,0,0.4,0.2,0.7,0.2c0.3,1.8,2.8,2.7,3.1,4.5c0.1,0.7-0.7,0.9-1.1,1.5
		c-0.6,0.8-0.5,2-0.5,3c0,0.9,0.2,0.9,0.8,1.5c1,1,1.5,2.4,2.5,3.4c1.3,1.2,3.2,2.1,4.6,3.1c1.4,1,2.7,1.6,4.4,1.8
		c0.8,0.1,1.7,0,2.5,0.3c0.8,0.3,1.4,0.9,2.1,1.2c1.5,0.7,2.8,0.5,4.2-0.5c1.2-0.9,2.6-1.8,3.8-2.7c1.3-1.1,1.4-3.2,2.6-4.4
		c1.2-1.1,3.1-0.7,3.7-2.5c0.2-0.6,0.3-1.3,0.3-1.9c0-0.9-0.1-1.8,0.3-2.7c0.5-1.6,1.9-3,3.3-3.7c1.1-0.5,2-1.4,3.1-2
		c1-0.5,2.3-1.7,3.5-1.6c0.7-0.4,1.3-0.5,2.1-0.5v-17.4h-22v-13.9h-1.6V106h1.8v-5h-1.8v-9h-40.3v11.4h1.7V181.7"/>
</g>
<g id="SERVICE_COUNTIES">
	
		<path id="_x3C_OKFUSKEE_x3E_" fill="none" stroke="#DBD8BD" stroke-linecap="round" stroke-linejoin="round" stroke-miterlimit="3.8637" d="
		M518.1,243.8v-21.9h-11v-10.2h-43v30.8c0.3,0,0.6,0,0.9-0.1c1.8-0.4,2.3-2.8,4.4-2.4c1.8,0.3,1.4,2.8,3.8,2.3
		c0.5-1.8-0.8-1.8-1.2-2.9c-0.5-1.2-0.8-2.3-0.8-3.8c1.4-0.1,2.4,0,3.6,0.5c1.1,0.4,0.8,1.7,2.5,1.5c0.1-0.2,0-0.5,0.1-0.8
		c1-0.6,1.1-1.8,2-2.5c0.9-0.8,1.9-0.8,3-1.1v22.1h47.2v-11.5H518.1z"/>
	
		<path id="_x3C_MCINTOSH_x3E_" fill="none" stroke="#DBD8BD" stroke-linecap="round" stroke-linejoin="round" stroke-miterlimit="3.8637" d="
		M531.7,272.2c2,1,4.1,1.8,5.8-0.4c1-1.3,2.1-4,3.9-4.3c1.1-0.1,1.8,1,3,0.5c0.9-0.4,1.3-1.6,2.6-1.5c1.8,0.1,2.9,3,4.7,1.9
		c1.1-0.7,2.5-1.1,3.7-1.7c1.2-0.5,1.4-1,2.4-1.9c0.7-0.6,0.8-0.4,1.6-0.7c0.9-0.3,1-0.6,1.8-1.4c1.1-1,1.9-1.5,3.3-1.1
		c1.4,0.4,2.7,1,4.3,0.7c1.3-0.3,2.8-1.3,3.8-2.1c1.7-1.2,3.2-3,4.3-4.5c0.1-0.1,0.1-0.2,0.1-0.3l0.3-1.1h5v-0.3
		c2.3,0,2.8-2,4.1-3.5c1.5-1.8,2.7,0,3.8,1.2c1,1.1,2.2,2.6,3.7,2.3V222h-37.5h-10.2v10.7h-6.6v11.1h-10.1v21.3l-1.2,1.2v5.6
		C529.5,271.6,530.9,271.8,531.7,272.2z"/>
	
		<polygon id="_x3C_COAL_x3E_" fill="none" stroke="#DBD8BD" stroke-linecap="round" stroke-linejoin="round" stroke-miterlimit="3.8637" points="
		517.2,329.5 517.2,320.4 486,320.4 486,329.5 474.7,329.5 474.7,361.6 512.4,361.6 512.4,350.7 517.2,350.7 	"/>
	
		<path id="_x3C_PITTSBURG_x3E_" fill="none" stroke="#DBD8BD" stroke-linecap="round" stroke-linejoin="round" stroke-miterlimit="3.8637" d="
		M519,285v23.8h-1.8v20.7h22.1v10.6H576v-53.3h16.2V271h-9.9v-16.5h-5l-0.3,1.1c-0.1,0.1-0.1,0.2-0.1,0.3c-1.1,1.5-2.6,3.3-4.3,4.5
		c-1.1,0.8-2.5,1.8-3.8,2.1c-1.6,0.3-2.9-0.4-4.3-0.7c-1.4-0.4-2.2,0.1-3.3,1.1c-0.8,0.7-0.9,1-1.8,1.4c-0.8,0.3-0.9,0-1.6,0.7
		c-1.1,0.9-1.2,1.4-2.4,1.9c-1.2,0.5-2.6,1-3.7,1.7c-1.8,1.1-2.8-1.8-4.7-1.9c-1.3-0.1-1.7,1.1-2.6,1.5c-1.2,0.5-1.9-0.7-3-0.5
		c-1.9,0.3-3,3-3.9,4.3c-1.6,2.2-3.7,1.3-5.8,0.4c-1.6-0.8-5.8-0.7-5.5,2.2c0.2,2-1.9,1.4-3,2.2c-1.1,0.8-1,2.4-2.1,3.2
		c-0.2,0.9-0.5,1.4-0.6,2.4c0,0.8-0.1,2,0,2.6L519,285z"/>
	
		<polygon id="_x3C_JOHNSON_x3E_" fill="none" stroke="#DBD8BD" stroke-linecap="round" stroke-linejoin="round" stroke-miterlimit="3.8637" points="
		432.5,372.6 437.9,372.6 437.9,350.7 450.1,350.7 450.1,352.3 474.7,352.3 474.7,361.6 486,361.6 486,393.7 481,393.7 481,399.1 
		468.3,399.1 465,396.8 464.1,393.7 457.1,392.1 432.5,392.1 	"/>
	
		<polygon id="_x3C_ATOKA_x3E_" fill="none" stroke="#DBD8BD" stroke-linecap="round" stroke-linejoin="round" stroke-miterlimit="3.8637" points="
		549.2,393.7 549.2,350.7 560.7,350.7 560.7,340.1 539.3,340.1 539.3,329.5 517.2,329.5 517.2,350.7 512.4,350.7 512.4,361.6 
		486,361.6 486,393.7 	"/>
	
		<path id="_x3C_MCCURTAIN_x3E_" fill="none" stroke="#DBD8BD" stroke-linecap="round" stroke-linejoin="round" stroke-miterlimit="3.8637" d="
		M613.2,420.6c3.8-0.2,6.4,3.4,8.3,5.8c0.7,0.9,1.6,2.6,2.5,3.2c1.6,1.2,3.1,0.1,4.8,0.4c1.2,0.2,2.8,1.4,3.5,2.2
		c0.4,0.5,0.5,1.2,0.8,1.7c0.5,0.6,1.4,1.1,2,1.7c2,1.9,3.9,4.4,5.6,6.5c1.1,1.3,2.2,2.3,4.1,1.8c1.5-0.4,2.6-2.1,4.3-1.6
		c0.6,0.2,0.8,0.9,1.4,1.2c0.4,0.2,1.7,0.4,2,0.7c1.3,1.1,0.8,3,3,2.8c0.7,1.8,1.2,3.7,3.2,4.3c1.8,0.5,2.4-0.7,3.9-1
		c0.5,1.1,0.9,3.1,2.4,2.9c1.3-0.2,1-2,2.9-1.2c1.1,0.5,2.9,0.2,4.1,0.6c1.6,0.6,1.7,1.3,2.4,2.7c0.8,1.5,4.1,5.3,6.1,4.2l2.5-109
		h-58.9v32h-11V420.6z"/>
	
		<polygon id="_x3C_PUSHMATAHA_x3E_" fill="none" stroke="#DBD8BD" stroke-linecap="round" stroke-linejoin="round" stroke-miterlimit="3.8637" points="
		549.2,393.7 549.2,350.7 560.7,350.7 560.7,340.1 576,340.1 576,329.5 635.2,329.5 635.2,350.7 624.2,350.7 624.2,382.7 
		613.2,382.7 613.2,393.7 	"/>
	
		<path id="_x3C_CHOCTAW_x3E_" fill="none" stroke="#DBD8BD" stroke-linecap="round" stroke-linejoin="round" stroke-miterlimit="3.8637" d="
		M530.8,393.7h82.4v26.9c-3.7,0.4-4-2.8-6.4-2.4c-1.4,0.2-2.4,1.2-3.1,2.2c-0.7,1-0.4,3.1-1.3,3.7c-0.2,1.1-1.4,0.7-2.1,1.3
		c-0.6,0.5-0.5,1.4-1.1,1.8c-0.6,0.5-1.6,0.2-2.3,0.4c-0.8,0.2-1.1,0.8-1.9,1.2c-1.5,0.7-4.1,0.1-5.8,0.3c-1.9,0.2-3.6-0.3-5.3-0.3
		c-0.5-0.6-1.7-1.1-2.4-1.3c-0.8-0.2-1.7,0-2.5-0.2c-0.4-0.1-1.1-0.4-1.5-0.4c-2-0.2-4.4,1.3-5.1-1.5c-0.6-2.4,0.4-4.6-3.1-4.5
		c-2.4,0.1-2.7,2.6-4.7,3.2c-1.1,0.4-2.1-0.7-3.2-0.3c-0.7,0.3-1.3,1.4-1.9,1.9c-1,0.8-2.1,1-3.4,0.6c-1.1-0.3-1.3-1.4-2.4-1.6
		c-2.7-0.5-2.6,3.4-4.3,4.1c-1.6,0.7-1.8,0.1-3-0.7c-1-0.6-1.9-0.2-3-0.8c-0.7-0.4-1.7-1.1-2.1-1.7c-0.5-0.8-0.5-2-1.4-2.6
		c-0.8-0.6-2.2-0.5-3.2-0.9c-1.2-0.5-1.6-1.2-2.5-2v-21.9L530.8,393.7z"/>
	
		<polygon id="_x3C_LATIMER_x3E_" fill="none" stroke="#DBD8BD" stroke-linecap="round" stroke-linejoin="round" stroke-miterlimit="3.8637" points="
		576,329.5 576,286.8 592.2,286.8 592.2,283.5 636,283.5 636,297.4 628.9,297.4 628.9,308.3 623.4,308.3 623.4,308.3 623.4,329.5 
		623.4,329.5 623.4,329.5 623.4,329.5 	"/>
	
		<path id="_x3C_LE_FLORE_x3E_" fill="none" stroke="#DBD8BD" stroke-linecap="round" stroke-linejoin="round" stroke-miterlimit="3.8637" d="
		M636,297.4v-32h11.1v-14.7c0.4,0.4,1,0.6,1.9,0.5c2.9-0.1,2.8-6.2,6.2-4.3c1.4,0.8,2.8,1.7,4.2,2.5c1.1,0.6,2.2,1.1,2.3,2.5
		c0.1,0.5-0.3,1-0.1,1.5c0.3,0.9,1.5,0.9,2.3,1c1,0.1,2,0,3,0.1c1.2,0.1,0.9,0.1,1.2-0.8c0.5-1.5,0.7-3.3,2.6-3.1
		c1.3,0.2,1.8,0.9,2.7,1.8c1.2,1.2,3.3,1,5.1,0.8c1.7-0.2,1.7-1.3,1.6-2.8c-0.2-2.3-0.6-3.8,1.5-5.2c1.4-0.9,2-1.3,3.7-1.3
		l-2.2,106.9h-47.9v-21.2h-11.8v-5.3l0,0v-15.9l0,0l0,0h5.5l0-10.9H636"/>
	
		<path id="_x3C_PONTOTOC_x3E_" fill="none" stroke="#DBD8BD" stroke-linecap="round" stroke-linejoin="round" stroke-miterlimit="3.8637" d="
		M476.7,290.2v11.6c-0.6,1.2,0.1,2.8-0.9,3.8c-1.3,1.3-3.1,0.5-4.1-0.6c-1.6-1.5-1.9-7.8-5.2-3.5c-1,4.7-5.4-0.7-6.8-1.8
		c-0.9-0.8-2.2-2.3-3.6-1.2c-1.6,1.3,0.3,2.8,0.9,3.8c1.2,2.2,1,6.9-2.9,6.2c-1.7-0.3-1.4-1.9-2.1-3.2c-0.8-1.7-1.7-2.4-2.9-3.2
		l-3.4-0.8c0,0,1.1-3.1-0.4-4.2c-1.7-1.2-3.3,0.7-3.9,2c-1.5,0.3-3.1,0.7-4.4-0.2c-1.2-0.8-0.9-2.5-1.9-3.4
		c-0.9-0.8-1.7-0.9-2.4-0.7v28.9v5.7v11.1h10v10.1h7.6v1.6h24.5v-2.2v-1.9v-7.6v-11.1H486v-39.3H476.7z"/>
	
		<path id="_x3C_HUGHES_x3E_" fill="none" stroke="#DBD8BD" stroke-linecap="round" stroke-linejoin="round" stroke-miterlimit="3.8637" d="
		M517.2,320.4v-11.6h1.8V285l1.5-0.1l0-0.5c0-0.6,0-1.5,0-2.2c0-1,0.4-1.5,0.6-2.4c1.1-0.8,1-2.3,2.1-3.2c1.1-0.8,3.2-0.3,3-2.2
		c-0.1-1.5,0.9-2.3,2.2-2.5v-5.6l1.2-1.2v-9.8h-47.2v21.2h-5.6v13.7h9.3v30.2H517.2z"/>
	
		<path id="_x3C_HASKELL_x3E_" fill="none" stroke="#DBD8BD" stroke-linecap="round" stroke-linejoin="round" stroke-miterlimit="3.8637" d="
		M617.1,243.5C617.1,243.5,617.1,243.5,617.1,243.5c-1,0.5-2.1,0.3-2.8,1.3c-0.7,1-0.3,2.1-1.3,2.8c-0.9,0.7-2.1,0.1-2.8,0.9
		c-0.9,1.1,0.5,1.9,0.7,2.7c0.5,2-2.1,2.4-3.1,3.5c-1.2,1.4-1.1,3.2-3.5,3.4c-2.2,0.2-3.9-2.5-5-4c-1.5-2.2-2.7-1-4.6-0.2
		c-1.9,0.8-3.3-0.9-4.4-2.1c-1.1-1.2-2.3-3-3.8-1.2c-1.3,1.5-1.8,3.5-4.1,3.5V271h9.9v12.5H636v-18.2h11.1v-14.7
		c-1.2-1-1.1-3.2-1.1-4.9c-0.7-0.9-1.3-1.1-2.3-0.5c-1.6,1.1-1.9,3.1-4.2,2.9c-1.5-0.1-2.6-1.1-1.7-2.6c0.6-0.9,1.2-1.1,0.8-2.4
		c-0.6-1.8-3.3-2.1-4.8-2.6c-1.6-0.5-3.2-1-4.8-1.6c-1.3-0.5-1.9-1-2.2-2.5c-0.3-1.3-0.5-2.5-2.1-2.9c-0.8-0.2-1.4,0-2.1-0.3
		c-0.1,0.1-0.2,0.1-0.3,0.2c-0.2,0.3-0.2,0.6-0.2,1c0,0.5-0.2,1-0.2,1.6c-0.1,0.4-0.2,0.7-0.3,1c-0.2,0.3-0.6,0.4-0.9,0.6
		c-0.5,0.3-0.5,1-0.5,1.5c0,0.3,0,0.7-0.2,1c-0.1,0.3-0.3,0.6-0.5,0.8c-0.2,0.2-0.3,0.5-0.5,0.7c-0.1,0.1-0.1,0.2-0.2,0.3
		c-0.1,0.1-0.2,0.2-0.2,0.3c-0.1,0.3-0.5,0.4-0.8,0.5C617.5,243.3,617.3,243.4,617.1,243.5z"/>
	
		<polygon id="_x3C_OKMULGEE_x3E_" fill="none" stroke="#DBD8BD" stroke-linecap="round" stroke-linejoin="round" stroke-miterlimit="3.8637" points="
		507.1,211.7 507.1,221.8 518.1,221.8 518.1,243.8 539.6,243.8 539.6,232.7 546.2,232.7 546.2,222 556.4,222 556.4,200.7 
		550.5,200.7 550.5,185 507.1,185 	"/>
	
		<polygon id="_x3C_CREEK_x3E_" fill="none" stroke="#DBD8BD" stroke-linecap="round" stroke-linejoin="round" stroke-miterlimit="3.8637" points="
		464.1,146.3 496.9,146.3 496.9,157.6 524.3,157.6 524.3,179 522.9,179 522.9,185 507.1,185 507.1,211.7 464.1,211.7 	"/>
	
		<polygon id="_x3C_TULSA_x3E_" fill="none" stroke="#DBD8BD" stroke-linecap="round" stroke-linejoin="round" stroke-miterlimit="3.8637" points="
		496.9,146.3 526.9,146.3 526.9,113 548.1,113 548.1,117.5 546.2,117.5 546.2,135.7 544.1,135.7 544.1,146.3 551.7,146.3 551.7,179 
		546.2,179 546.2,185 522.9,185 522.9,179 524.3,179 524.3,157.6 496.9,157.6 	"/>
	
		<path id="_x3C_WAGONER_x3E_" fill="none" stroke="#DBD8BD" stroke-linecap="round" stroke-linejoin="round" stroke-miterlimit="3.8637" d="
		M564.6,146.3c1.1,0.3,1.5,2.4,2.9,3.2c0.6,0.4,1.4,0.3,2,0.7c0.8,0.5,0.7,0.9,1,1.6c0.3,0.7,0.6,1.4,1,1.9c0.4,0.7,1,0.9,1.5,1.4
		c0.8,0.8,0.5,1.9,1.6,2.5l1.1-0.1h32.6c-0.1,0.7-0.3,1.3-0.4,2.1c0,1.1-0.2,1.2-1,1.9c-0.8,0.7-1.2,1.5-1.3,2.5
		c0,1.3-0.3,2.1-1.2,3.2c-0.7,0.8-1.3,1.6-2.2,2.2c-0.7,0.4-1.6,0.9-1.8,1.8c-0.2,0.9,0.4,1.5,0.7,2.3c0.2,0.5,0.2,1.1,0,1.6
		c-0.3,0.9-0.9,1.2-1.3,1.9c-1.5,2.3,3.4,3.6,4.4,4.7c0.7,0.8,1.3,1.8,1.2,2.9c-0.1,0.8-1,1.3-1.6,1.8c-0.5,0.4-0.7,1-1,1.6
		c-0.2,0.6-0.3,1.2-0.4,1.8H596c-0.3-0.2-1.4-0.7-1.3-1.4c-1.7-0.5-2.5,0-3.7,1.2c-1.3-0.7-1.7,1.7-2.9,2.2
		c-1.3,0.5-3.7,0.2-5.1,0.1c-1.4-2.7-1.6-2.7-4.2-0.8c-0.7,0.6-1.3,1.5-2.4,1.8c-0.8,0.2-1.7-0.3-2.7,0c-1.5,0.5-3.2,2.8-4.4,2.7
		c-0.8,0-4-2-4.3-2.8c-0.6,0-1.3-0.1-1.9,0V185h-16.9v-6h5.5v-32.7H564.6z"/>
	
		<path id="_x3C_OSAGE_x3E_" fill="none" stroke="#DBD8BD" stroke-linecap="round" stroke-linejoin="round" stroke-miterlimit="3.8637" d="
		M526.9,40.3v105.9h-27.2c-0.5-1.2,2-2.7,2.2-4.3c0.1-1.8-0.5-4.1-2.2-4.1h-6.1c-1.9-0.2-2.6-3-3.8-4.4c-1.6-1.7-3.9-1.9-6-2.3
		c-0.1-0.2,0.1-0.2,0-0.4c-1-1.5-1.2-4.9-3.1-5.6c-1.9-0.6-4,1.8-4.8,3.4c-2,0.6-5.4,0.8-6.1-1.7c-0.8-2.9,1.6-3.6,3.4-5
		c1.5-1.2,2.2-7.1-1.1-5.7c-1.1,0.5-1.4,2.2-2.7,2.8c-1.8,0.7-2.7,0-3.3-1.6c-1-2.3-2.1-5.7-5.1-4.1c-1.1,0.6-0.7,1.4-2.1,0.9
		c-0.7-0.3-0.7-1-1.1-1.5c-0.9-0.8-0.6-0.5-1.8-1c-0.6-0.3-1.3-0.1-1.8-0.8c-1.3-2.1,1.5-2.3,2-3.5c0.6-1.9-1.5-2.4-2.3-3.4
		c0.1-1.6-0.7-2.2-1.2-3.3c-0.5-1.1-0.3-2.3-0.9-3.5c-0.2-0.1-0.3,0-0.5-0.1c-1-2-3.9-0.6-5.2,0.2c-2.7,1.7-3.9,4.3-5.2,7
		c-1.4,2.7-3.9,4-6.9,4.5c-3.1,0.5-6.1,0.2-8.4-2c-0.8-0.8-2-2.2-1.8-3.5c0.2-1.7,1.8-2.2,3.1-2.7c0.2-0.1,0.5-0.1,0.7-0.2
		c2.4-1,5.6-1.5,7.6-3.3c2.7-2.5,0.9-6.3-2.7-5.5c-3,0.7-5.7,2.5-9,1.4c-2.9-1-1.7-4.8-2.7-7.3c-1-2.3-2.7-6.2,1-6.7
		c2.1-0.3,2.9,1.2,4.7,1.6c0.8,0.2,1.7-0.1,2.4,0.2c0.6,0.2,1.2,0.9,1.8,1c3.5,0.7,3.1-3.9,4.3-6c0.8-1.4,4.4-5.2,5.5-2
		c2.5,0.6,2.4-1.5,3.3-3.1c1.9,0.3,1.8-1.6,3.2-2.2c1.7-0.7,2.9,0.5,4.1-1.4V40.3H526.9z"/>
	
		<polygon id="_x3C_WASHINGTON_x3E_" fill="none" stroke="#DBD8BD" stroke-linecap="round" stroke-linejoin="round" stroke-miterlimit="3.8637" points="
		548.1,40.3 546.2,40.3 542.5,40.3 526.9,40.3 526.9,113 546.2,113 546.2,48.3 548.1,48.3 	"/>
	
		<polygon id="_x3C_MAYES_x3E_" fill="none" stroke="#DBD8BD" stroke-linecap="round" stroke-linejoin="round" stroke-miterlimit="3.8637" points="
		584.9,101.8 584.9,135.5 582.6,135.5 582.6,157.6 616.8,157.6 616.8,146.3 626.9,146.3 626.9,101.8 	"/>
	
		<path id="_x3C_ROGERS_x3E_" fill="none" stroke="#DBD8BD" stroke-linecap="round" stroke-linejoin="round" stroke-miterlimit="3.8637" d="
		M564.6,146.3c1.1,0.3,1.5,2.4,2.9,3.2c0.6,0.4,1.4,0.3,2,0.7c0.8,0.5,0.7,0.9,1,1.6c0.3,0.7,0.6,1.4,1,1.9c0.4,0.7,1,0.9,1.5,1.4
		c0.8,0.8,0.5,1.9,1.6,2.5l1.1-0.1h6.9v-22.1h2.3v-33.7h9.8V91.6h-48.5V113h1.8v4.5h-1.8v18.2h-2.1v10.5H564.6"/>
	
		<polygon id="_x3C_NOWATA_x3E_" fill="none" stroke="#DBD8BD" stroke-linecap="round" stroke-linejoin="round" stroke-miterlimit="3.8637" points="
		548.1,40.3 548.1,48.3 546.2,48.3 546.2,91.6 584.9,91.6 584.9,48.3 587.2,48.3 587.2,40.3 	"/>
	
		<polygon id="_x3C_CRAIG_x3E_" fill="none" stroke="#DBD8BD" stroke-linecap="round" stroke-linejoin="round" stroke-miterlimit="3.8637" points="
		587.2,40.3 624.8,40.3 624.8,46.3 628.8,46.3 628.8,91.6 626.9,91.6 626.9,101.8 594.7,101.8 594.7,91.6 584.9,91.6 584.9,48.3 
		587.2,48.3 	"/>
	
		<polygon id="_x3C_OTTAWA_x3E_" fill="none" stroke="#DBD8BD" stroke-linecap="round" stroke-linejoin="round" stroke-miterlimit="3.8637" points="
		628.8,40.3 624.8,40.3 624.8,46.3 628.8,46.3 628.8,82.2 667.2,82.2 667.2,40.3 	"/>
	
		<polygon id="_x3C_DELAWARE_x3E_" fill="none" stroke="#DBD8BD" stroke-linecap="round" stroke-linejoin="round" stroke-miterlimit="3.8637" points="
		628.8,82.2 667.2,82.2 667.2,107.2 673,146.3 626.9,146.3 626.9,101.8 626.9,91.6 628.8,91.6 	"/>
	
		<path id="_x3C_JEFFERSON_x3E_" fill="none" stroke="#DBD8BD" stroke-linecap="round" stroke-linejoin="round" stroke-miterlimit="3.8637" d="
		M367.9,425.1v-9.6l1.3,0.1c0.6-0.1,1.3,0,1.5-0.6c0.3-0.8-0.1-1.4-0.5-2.1c-0.2-0.4-0.5-0.8-0.6-1.2c-0.2-0.4,0-0.8-0.1-1.2
		c-0.2-0.9-1.2-0.7-1.5-1.4v-30.9h-58.6v18.4c1.9-1.2,4.8-2.1,5.7,0.7c1.1,3.1-1.2,3.9-2.1,6.3c-0.5,1.4-0.3,1.8,0.6,2.7
		c0.3,0.3,0.9,0.4,1.1,0.9c0.3,0.9-0.3,0.7-0.4,1.2c-0.3,2,1,4.8,3.2,5c0.6,0,0.9-0.2,1.5,0c0.6,0.2,0.8,0.9,1.4,1.2
		c0.8,0.3,2.5-0.1,3.1-0.6c1-0.8,0.7-2.1,2.5-1.9c1.1,0.1,3,1.6,3.6,2.6c0.6,1.1-0.1,2-0.5,3c-0.4,1.2-0.3,2.1,0,3.4
		c0.2,1.1,0.5,2-0.5,2.8c-0.7,0.6-2.6,0.3-3,1.2c-0.8,1.9,4.8,2.7,5.9,3.4c2.4,1.4,3.8,3,6.6,2.8c1.7-0.1,2.3-0.2,3.5-1.4
		c1.1-1,2.2-2.2,3.2-3.3c1.2-1.1,2.2-2.6,3.3-3.8c1.2-1.4,1.3-1.2,2.9-1.8c0.8-0.3,1.2-0.8,1.6-1.5c0.8-1.5,2.3-3.9,3.7-5
		c2.2-1.6,4,0.6,6,1.5c2.6,1.2,2.8,2.4,2.8,5.2c0,1-0.3,2.4,0.3,3.2C366,425.2,367.5,425,367.9,425.1"/>
	
		<rect id="_x3C_STEPHENS_x3E_" x="309.3" y="329.5" fill="none" stroke="#DBD8BD" stroke-linecap="round" stroke-linejoin="round" stroke-miterlimit="3.8637" width="58.6" height="48.6"/>
	
		<path id="_x3C_COTTON_x3E_" fill="none" stroke="#DBD8BD" stroke-linecap="round" stroke-linejoin="round" stroke-miterlimit="3.8637" d="
		M309.3,350.7v45.8c-0.6,2.9-3.7,3.2-5.8,2.3c-2.7-1.2-3.5-2.9-6.7-2.4c-2.3,0.3-3.4,1-5.3-0.9c-2-2-1.3-2.9-4.5-1.3
		c-2.7,1.4-2.7,2.3-3.5,5.1c-0.3,1.3-0.1,2.3-1.4,3.2c-1,0.7-2,0.1-3,0.6c-2.2,1.2-2.5,2.8-5.7,1.7c-1.9-0.6-2.8-2.3-3.8-4.2
		c-1.5-2.7-4-8.6-7.7-8.2v-20.3h-5.1v-8.1h5.7v-2.6h3.6l1,1h1.7v-1.3h3.9v-3.3h20.5l1.1-1.1h5.1v-6.1H309.3z"/>
	
		<path id="_x3C_TILLMAN_x3E_" fill="none" stroke="#DBD8BD" stroke-linecap="round" stroke-linejoin="round" stroke-miterlimit="3.8637" d="
		M212.6,334.8h9.1v5.8h18.1v10.1h17.1v21.5h5.1v20.3c-1.5-0.2-3.1,0.4-3.1,0.4c-0.5,0.3-1,0.6-1.4,1c-0.6,0.7-1.2,1.4-1.9,1.9
		c-1,0.7-2.9,1.9-4,0.8c-0.3-0.3-1-0.9-1.5-0.8c-0.4,0.2-0.6,1-0.9,1.3c-0.7,0.7-1.7,0.3-2.4,0c-1.1-0.5-2-1.3-3.1-1.9
		c-0.5-0.3-1.8-1-2.1-1.3c-0.6-0.5-1.6-0.9-2.4-0.7c-0.8,0.2-0.7,0.8-1.2,1.4c-1.1,1.3-2.4-0.4-3-1.1c-1-1-2-1.9-3-3
		c-0.8-0.8-2.2-1.5-2.6-2.5c-0.4,0-0.8-0.5-1.2-0.7c-1-0.4-2,0.2-3-0.5c-0.7-0.5-1.3-0.7-2.3-0.6c-1,0.2-1.3,0.8-2,1.4
		c-0.8,0.7-1.9,1.6-3.1,1.6c-1.6,0.1-1.1-1.4-2.2-1.9c-0.5-0.2-0.6-0.1-1,0.2c-0.6,0.4-0.9,0.5-1.6,0.5c-1.1,0-2.2-0.1-2.9-1
		c-0.5-0.7-0.9-1.1-1.5-0.3c-0.4,0.6-0.7,1.4-1.6,1.6c-1,0.2-2.2-0.1-3.1-0.5c-0.9-0.4-1.3-0.9-1.1-1.9c0.2-0.8,0.4-1.5,0.4-2.4
		c0-1.1,0.3-2.8-0.3-3.8c-0.6-1.1-2.4-1.2-2.7-2.7c-0.1-0.7,0.2-1.3,0.3-2c0.1-0.9-0.1-1.5-0.1-2.3c1.5,0,3-0.6,2.9-2.1
		c0.1-0.9-1.1-2.4-1.5-2.8c-1.2-0.5-1.4-1.5-1.9-2.6c-0.2-0.4-0.6-0.8-0.7-1.2c-0.2-0.9,0.2-0.9,0.3-1.6c0.2-2.4,0.3-5.2,0.3-7.7
		c0-1.1,1.5-2.2,1.8-3.2c0.3-1-0.2-2.6,0.4-3.4c0.8-1.1,1.2-0.7,1.7-2.2c0.3-0.9,0.6-1.6,1-2.5c0.7-1.4,2.6-2.4,4.1-1.6
		c0.7-1.3,1.3-0.6,2.2-0.6c0.4,0,0.5-0.4,1-0.4c0.6,0,0.7,0.7,1.5,0.3l0.1-3.8c-0.1,0-1.4-0.9-1.6-1.1c-0.6-0.7-0.3-0.9,0.1-1.1
		L212.6,334.8z"/>
	
		<path id="_x3C_JACKSON_x3E_" fill="none" stroke="#DBD8BD" stroke-linecap="round" stroke-linejoin="round" stroke-miterlimit="3.8637" d="
		M213.4,340.8c-0.8,0.5-0.8-0.2-1.5-0.3c-0.5,0-0.7,0.4-1,0.4c-1,0-1.6-0.7-2.2,0.6c-1.5-0.8-3.4,0.2-4.1,1.6
		c-0.4,0.9-0.8,1.6-1,2.5c-0.4,1.4-0.9,1.1-1.7,2.2c-0.6,0.8-0.1,2.4-0.4,3.4c-0.3,1-1.8,2.1-1.8,3.2c0,2.5,0,5.3-0.3,7.7
		c-0.1,0.6-0.5,0.6-0.3,1.6c0.1,0.4,0.5,0.9,0.7,1.2c0.5,1.1,0.8,2.1,1.9,2.6c0.4,0.4,1.6,1.9,1.5,2.8c0.1,2.2-3.2,2.5-4.7,1.8l0,0
		c-1-1.1-0.8-1.8-0.8-3.7c-1.4,0.1-3.9-0.7-3.2-2.2c0.4-0.8,1.5-0.5,1-1.9c-0.4-1.1-1-0.6-1.9-0.9c-0.8-0.3-1-0.8-1.9-1
		c-0.9-0.2-1.6,0-2.5-0.3c-1.4-0.6-2.8-2.5-3.2-3.7c-0.9-0.6-1.8-2.2-3-0.8c-0.6,0.7-0.4,2.2-0.9,3.1c-0.3,0.6-1,0.4-0.7,1.2
		c0.3,0.7,1,0.2,1.3,0.6c0.6,0.7,0.4,2.4,0,3.2c-0.9,2-4.5,2-5.9,0.7c-1-0.9-0.9-1.6-2.4-1.9c-1-0.2-3,0-2.7-1.6
		c-1.3-1.1-5.3-1.2-7-0.9c-1.6,0.3-1,1.1-1.3,2.5c-0.2,1.1-0.8,2.1-1.5,3.1c-1.7,0.1-2.9-1.9-4.5-1.2c-0.8,0.3-1,1.2-1.9,1.4
		c-0.7,0.1-1.5-0.3-1.8-1c-0.6,0.6-2,0.6-2.8,0.2c-1.1-0.6-0.7-1.2-1.1-2.2c-0.6-1.7-2.1-2.6-3.9-2.5l-9.6-11.5h18.1V324h24.7
		c-0.2-0.8-1.7-1.3-1.2-2.1v-3.8h3.5v-4.3h16.8l6-5.2l2.8,1.5c0,1.4,0.1,3.1-0.2,4.4c-0.4,1.6-2,2.4-1.4,4.3c0.4,1.1,0.8,1.5,0,2.4
		c-0.5,0.5-1.4,1.1-1.1,1.9c0.2,0.4,0.8,0.5,1,0.8c0.2,0.4,0.2,1,0.3,1.4c0.1,0.8,0.8,1.7,0.8,1.5h11.5v2.7l-3.2,1.1
		c-0.8,0.4-2.1,0.3-2.4,1.2c-0.2,0.8,0.6,1.6-0.2,2.5c-0.5,0.5-1.5,0.6-0.7,1.5c0.2,0.2,1.6,1.1,1.6,1.1L213.4,340.8z"/>
	
		<path id="_x3C_HAMPTON_x3E_" fill="none" stroke="#DBD8BD" stroke-linecap="round" stroke-linejoin="round" stroke-miterlimit="3.8637" d="
		M121.6,344.5v-57.8h10.2v10.6h16.1v11.1l1.1,1.1v7.8l5.6,3.7v29.6h-18.1l-7.6-8.4c-1.2-0.7-2.6,0.2-3.4,1.1
		c-0.7,0.9-1.3,1.7-2.6,1.7C122.6,345.1,121.7,344.9,121.6,344.5z"/>
	
		<path id="_x3C_GREER_x3E_" fill="none" stroke="#DBD8BD" stroke-linecap="round" stroke-linejoin="round" stroke-miterlimit="3.8637" d="
		M178.2,277.1c0.8,0.2,1.7-0.1,2.5,0.3c0.9,0.5,0.5,1.1,1.2,1.8c0.6,0.7,1.5,0.6,2.1,1.3c0.1,0.2,1.4,1.8,1.4,1.8
		c0.4,1.5-1.1,0.4-1.6,1.2c-0.6,1.1,0.9,1.4,1.6,1.5c1.1,0.2,2.2,0.2,3.3,0.5c0.6,0.2,2.3,1.3,0.6,1.5c0,1.1,0,2.2-0.2,3.2
		c-0.2,1.1-0.8,1.7-1.1,2.6c-0.7,2.2,2.1,4.4,3.6,5.6c0.8,0.7,1.6,1.1,1.6,2.2c0,0.4-0.6,0.8-0.6,1.4c0,0.5,0.6,0.8,0.6,1.2
		c-0.1,1.3-1.2,1-2,1.8c-0.5,0.5-0.9,2.6,0,1.9c0.6,1.1,2.9,2,4,2.9c1.3,1.1,2.2,2.7,3.4,3.9h-16.8v4.3h-3.5v3.8
		c-0.5,0.8,1,1.3,1.2,2.1h-24.7v-2.9l-5.6-3.7v-7.8c0,0-0.7-0.7-1.1-1.1v-11.1h-16.1v-10.6h12.3v-11.3h32.3v1.5L178.2,277.1z"/>
	
		<path id="_x3C_KIOWA_x3E_" fill="none" stroke="#DBD8BD" stroke-linecap="round" stroke-linejoin="round" stroke-miterlimit="3.8637" d="
		M176.4,275.5h69.5l0.6,0.4c0.9,0.6,0.9,2.5,2.3,2.6c0.9,0.1,0.5-0.7,1.3-1c0.8-0.3,0.4-0.2,1.5-0.2c0.8,0,1.2,0.5,2.1,0.2
		c0.9-0.4,0.6-1.2,1.7-1.4c1.7-0.4,2.5,1.9,3.7,1c-0.3,2.4,2.3,1.6,2.6,3.3c0.3,0.1,0.7,0.4,0.9,0.4v27.9h-22.9v32h-18.1v-5.8h-9.7
		l0.1-0.1c0.2-0.1,0.3-0.1,0.5-0.4c0.8-0.8-0.1-1.6,0.2-2.5c0.3-0.9,1.6-0.7,2.4-1.2l3.2-1.1v-2.7h-11.5c0,0.1-0.6-0.8-0.8-1.5
		c-0.1-0.4-0.1-1-0.3-1.4c-0.2-0.3-0.8-0.3-1-0.8c-0.4-0.8,0.6-1.4,1.1-1.9c0.8-0.9,0.4-1.3,0-2.4c-0.6-1.9,1-2.7,1.4-4.3
		c0.3-1.3,0.2-3,0.2-4.4l-2.8-1.5l-6,5.2c-1.2-1.1-2.1-2.7-3.4-3.9c-1.1-0.9-3.4-1.8-4-2.9c-0.9,0.6-0.5-1.4,0-1.9
		c0.8-0.8,2-0.6,2-1.8c0-0.4-0.6-0.7-0.6-1.2c0-0.5,0.6-0.9,0.6-1.4c0-1-0.8-1.5-1.6-2.2c-1.5-1.2-4.3-3.4-3.6-5.6
		c0.3-1,0.9-1.5,1.1-2.6c0.2-1.1,0.1-2.1,0.2-3.2c1.7-0.3,0-1.3-0.6-1.5c-1-0.4-2.1-0.4-3.3-0.5c-0.7-0.1-2.2-0.4-1.6-1.5
		c0.5-0.8,2,0.2,1.6-1.2c0,0-1.3-1.6-1.4-1.8c-0.6-0.7-1.5-0.7-2.1-1.3c-0.7-0.7-0.3-1.3-1.2-1.8c-0.7-0.4-1.7-0.1-2.5-0.3l-1.8-0.1
		V275.5z"/>
	
		<polygon id="_x3C_COMANCHE_x3E_" fill="none" stroke="#DBD8BD" stroke-linecap="round" stroke-linejoin="round" stroke-miterlimit="3.8637" points="
		239.8,340.6 239.8,308.6 314.7,308.6 314.7,329.5 309.3,329.5 309.3,350.7 299.5,350.7 299.5,356.8 294.4,356.8 293.3,357.9 
		272.7,357.9 272.7,361.2 268.8,361.2 268.8,362.5 267.2,362.5 266.2,361.5 262.6,361.5 262.6,364.1 256.9,364.1 256.9,350.7 
		239.8,350.7 	"/>
	
		<path id="_x3C_GRADY_x3E_" fill="none" stroke="#DBD8BD" stroke-linecap="round" stroke-linejoin="round" stroke-miterlimit="3.8637" d="
		M322.2,244.3c0.6,0.5,0.6,1.3,1.2,1.8c0.7,0.6,1.7,0.5,2.5,1.2c0.4,0.4,1,1.3,1.6,1.4c1.1,0.3,0.9-0.8,1.5-1.5
		c0.8-0.8,1.7-0.4,2.6,0c0.8,0.3,1.6,0.3,2.3,0.5c0.5,0.1,0.5,0.3,1.1,0.2c0.7-0.1,1.3-0.7,2-0.7c1.2-0.1,1.5,0.6,2.2,1.3
		c1.6,1.5,3.8,1.1,5.6,0.8c1.1-0.2,1.6-1.2,2.8-0.8c1,0.3,0.9,1.2,1.7,1.7h7.6v58.6h1.5l0,20.8h-43.9l0-85.6h7.1L322.2,244.3z"/>
	
		<path id="_x3C_MCCLAN_x3E_" fill="none" stroke="#DBD8BD" stroke-linecap="round" stroke-linejoin="round" stroke-miterlimit="3.8637" d="
		M428.9,298.5c-5.2,5.3-11.2,0.1-17.3,0.1c-2.5,0-4,0.8-6.5,0.7c-1.6,0-1.5-1.4-2.9-1.8c-1.4-0.4-2.3,0-3.7-0.8c0.4-2-3.7-1.6-4,0
		c-1.5,0.9-4.4,0.4-5.2-1.3c-0.6-1.2,0.2-1.3,0.7-2c0.6-0.8,1-1.4,0.7-2.5c-0.4-2-3-2.1-2-4.5c0.3-0.8,1.2-1.1,1.1-2.1
		c-0.1-1.1-1.4-1.6-2.1-2.2c0.3-0.3,0.2-0.7,0.3-1c-0.9-0.3-2.1-0.2-3.1-0.2c-1.9,0-2-0.1-2-1.9c0-0.5-0.2-1.6,0.1-2
		c0.2-0.5,0.9-0.5,1.1-0.8c0.6-1-0.3-2-1.3-2.9c-1.4-1.4-3.4-2.2-4.7-3.9c-2-2.5-5.1-3.9-7.9-5.6c-1-0.6-3-1.6-3.1-3.2
		c0-0.9,0.6-0.8,0.9-1.4c0.3-0.6,0.3-1,0.3-1.7c0.2,0,0.3-0.1,0.5-0.2c0.3-3.1-2.9-4-5.3-5c-1.1-0.4-2.2-0.8-3.2-1.3
		c-1-0.5-1.6-0.9-3.2-0.9v38v3.3v17.3h75.4v-13.8C431.1,295.3,430.1,297.3,428.9,298.5z"/>
	
		<polygon id="_x3C_CADDO_x3E_" fill="none" stroke="#DBD8BD" stroke-linecap="round" stroke-linejoin="round" stroke-miterlimit="3.8637" points="
		260.5,221.7 292.7,221.7 292.7,243.9 314.7,243.9 314.7,308.6 262.7,308.6 262.7,265.2 260.5,265.2 	"/>
	
		<path id="_x3C_WASHITA_x3E_" fill="none" stroke="#DBD8BD" stroke-linecap="round" stroke-linejoin="round" stroke-miterlimit="3.8637" d="
		M246.6,275.9c0.9,0.6,0.9,2.5,2.3,2.6c0.9,0.1,0.5-0.7,1.3-1c0.8-0.3,0.4-0.2,1.5-0.2c0.8,0,1.2,0.5,2.1,0.2
		c0.9-0.4,0.6-1.2,1.7-1.4c1.7-0.4,2.5,1.9,3.7,1c-0.3,2.4,2.3,1.6,2.6,3.3c0.3,0.1,0.7,0.4,0.9,0.4v-15.6h-2.2v-32h-75.1v42.3h60.5
		L246.6,275.9z"/>
	
		<polygon id="_x3C_BECKHAM_x3E_" fill="none" stroke="#DBD8BD" stroke-linecap="round" stroke-linejoin="round" stroke-miterlimit="3.8637" points="
		162.9,227.8 162.9,238.1 121.6,238.1 121.6,249.3 121.6,275.5 121.6,286.8 144.1,286.8 144.1,275.5 185.4,275.5 185.4,265.2 
		185.4,238.1 185.4,227.8 	"/>
	
		<path id="_x3C_ROGER_MILLS_x3E_" fill="none" stroke="#DBD8BD" stroke-linecap="round" stroke-linejoin="round" stroke-miterlimit="3.8637" d="
		M181.6,221.7v-8.8h2.4v-49.2c-0.8,0-1.5,0-2.1,0.5c-1.2-0.1-2.5,1.1-3.5,1.6c-1.1,0.6-1.9,1.5-3.1,2c-1.5,0.7-2.8,2.1-3.3,3.7
		c-0.3,0.9-0.3,1.8-0.3,2.7c0,0.7-0.2,1.3-0.3,1.9c-0.5,1.9-2.5,1.4-3.7,2.5c-1.2,1.2-1.4,3.3-2.6,4.4c-1.1,0.9-2.5,1.8-3.8,2.7
		c-1.4,1-2.8,1.2-4.2,0.5c-0.7-0.3-1.4-0.9-2.1-1.2c-0.8-0.3-1.6-0.2-2.5-0.3c-1.7-0.1-3.1-0.8-4.4-1.8c-1.5-1.1-3.3-1.9-4.6-3.1
		c-1-1-1.5-2.4-2.5-3.4c-0.6-0.6-0.8-0.6-0.8-1.5c0-1,0-2.1,0.5-3c0.4-0.6,1.2-0.7,1.1-1.5c-0.3-1.7-2.8-2.7-3.1-4.5
		c-0.2-0.1-0.5-0.2-0.7-0.2c-1.7-0.3-4,2-5,3.1c-0.7,0.7-1.5,1.7-1.9,2.6c-0.4,1-0.3,2.2-0.4,3.3c-0.1,2.5-1.4,2.6-3.3,3.6
		c-0.5,0.3-1,0.6-1.4,1c-0.4,0.4-0.7,1-1.2,1.3c-0.6,0.4-2,1-3.1,1.1v28.9v2.2v25.2h41.3v-10.3h17.3h1.4h3.8v-6.1H181.6z"/>
	
		<polygon id="_x3C_CUSTER_x3E_" fill="none" stroke="#DBD8BD" stroke-linecap="round" stroke-linejoin="round" stroke-miterlimit="3.8637" points="
		183.9,189.6 183.9,212.8 181.6,212.8 181.6,221.7 185.4,221.7 185.4,233.2 260.5,233.2 260.5,189.6 	"/>
	
		<polygon id="_x3C_DEWEY_x3E_" fill="none" stroke="#DBD8BD" stroke-linecap="round" stroke-linejoin="round" stroke-miterlimit="3.8637" points="
		259.3,179 259.3,146.3 183.9,146.3 183.9,179 183.9,189.6 260.5,189.6 260.5,179 	"/>
	
		<polygon id="_x3C_BLAINE_x3E_" fill="none" stroke="#DBD8BD" stroke-linecap="round" stroke-linejoin="round" stroke-miterlimit="3.8637" points="
		259.3,146.3 259.3,179 260.5,179 260.5,221.7 292.7,221.7 292.7,200.7 302.5,200.7 302.5,179 302.5,173 302.5,146.3 	"/>
	
		<path id="_x3C_KAY_x3E_" fill="none" stroke="#DBD8BD" stroke-linecap="round" stroke-linejoin="round" stroke-miterlimit="3.8637" d="
		M420.9,86.1c-0.1-0.2-0.1-0.4-0.2-0.6c-0.1-0.3-0.3-0.6-0.4-0.9c-0.5-1.3-1.1-2.9-0.8-4c0.2-0.9,0.8-1.5,2.2-1.7c0.3,0,0.5,0,0.7,0
		c0.7,0,1.2,0.3,1.7,0.6c0.7,0.4,1.3,0.8,2.2,1c0.2,0,0.4,0.1,0.6,0.1c0.2,0,0.4,0,0.6,0c0.4,0,0.8,0,1.2,0.1c0.1,0,0.3,0.1,0.4,0.2
		c0.3,0.2,0.6,0.4,0.9,0.6c0.1,0.1,0.3,0.1,0.4,0.2c0.2,0,0.4,0.1,0.6,0.1c0.4,0,0.7,0,1-0.2c0.1-0.1,0.3-0.1,0.4-0.2
		c0.2-0.2,0.4-0.4,0.6-0.7c0.8-1.4,0.9-3.7,1.7-5c0.3-0.5,1-1.4,1.8-2.1c0.3-0.2,0.6-0.5,0.8-0.6c0.1-0.1,0.3-0.2,0.4-0.2
		c0.4-0.2,0.8-0.3,1.2-0.3c0.5,0.1,0.9,0.4,1.2,1.2c0.3,0.1,0.6,0.1,0.8,0.1c1.7,0,1.7-1.8,2.5-3.2c1.9,0.3,1.8-1.6,3.2-2.2
		c0.2-0.1,0.4-0.1,0.6-0.2c0.2,0,0.4-0.1,0.6-0.1c0.4,0,0.7,0,1.1,0c0.2,0,0.3,0,0.5-0.1c0.2,0,0.3-0.1,0.5-0.2
		c0.2-0.1,0.3-0.2,0.4-0.3c0.1-0.1,0.1-0.2,0.2-0.2c0.1-0.1,0.1-0.2,0.2-0.3V40.3h-72.9v45.8v4.7v0.7h43.8
		C421.2,90.1,421.4,87.9,420.9,86.1z"/>
</g>
<g id="STATE_BORDERS_x2F_SERVICE_BOUNDARY">
	<g id="_x3C_ARKANSAS_BORDER2_x3E_">
		
			<line fill="none" stroke="#C9C79D" stroke-width="4" stroke-linecap="round" stroke-linejoin="round" x1="667.2" y1="107.2" x2="744" y2="107.2"/>
		<line fill="none" stroke="#FFFFFF" stroke-linecap="round" stroke-linejoin="round" x1="667.2" y1="107.2" x2="744" y2="107.2"/>
	</g>
	<g id="_x3C_MISSOURI_BORDER_x3E_">
		
			<line fill="none" stroke="#C9C79D" stroke-width="4" stroke-linecap="round" stroke-linejoin="round" x1="667.2" y1="40.3" x2="667.2" y2="0"/>
		<line fill="none" stroke="#FFFFFF" stroke-linecap="round" stroke-linejoin="round" x1="667.2" y1="40.3" x2="667.2" y2="0"/>
	</g>
	<g id="_x3C_ARKANSAS_BORDER_x3E_">
		<path fill="none" stroke="#C9C79D" stroke-width="4" stroke-linecap="round" stroke-linejoin="round" d="M680,460.1
			c1.6,0.8,3.5,1.3,4.8,2.5c1.6,1.5,2.9,2.9,5.3,2.9c3.4,0.1,5.8-3.2,9.3-2.6c1.5,0.2,2.6,0.8,4.2,0.3c1.1-0.3,2.3-0.9,3.4-1
			c2.1,0,3.7-0.4,5.4,0.8c1.5,1.1,2.9,1.6,4.9,1.6c0.9,0,2-0.1,2.9,0.1c0.7,0.2,1.3,0.8,2,1.1V484"/>
		<path fill="none" stroke="#FFFFFF" stroke-linecap="round" stroke-linejoin="round" d="M680,460.1c1.6,0.8,3.5,1.3,4.8,2.5
			c1.6,1.5,2.9,2.9,5.3,2.9c3.4,0.1,5.8-3.2,9.3-2.6c1.5,0.2,2.6,0.8,4.2,0.3c1.1-0.3,2.3-0.9,3.4-1c2.1,0,3.7-0.4,5.4,0.8
			c1.5,1.1,2.9,1.6,4.9,1.6c0.9,0,2-0.1,2.9,0.1c0.7,0.2,1.3,0.8,2,1.1V484"/>
	</g>
	<g id="_x3C_OKLAHOMA_STATE_BORDER_x3E_">
		<path fill="none" stroke="#C9C79D" stroke-width="4" stroke-linecap="round" stroke-linejoin="round" d="M0,103.4h121.6v183.4
			v34.5v23.3c0.1,0.3,0.9,0.6,1.3,0.6c1.3,0,1.8-0.8,2.6-1.7c0.8-0.9,2.2-1.8,3.4-1.1l7.6,8.4l9.6,11.5c1.8,0,3.3,0.8,3.9,2.5
			c0.4,1-0.1,1.6,1.1,2.2c0.8,0.5,2.2,0.4,2.8-0.2c0.3,0.7,1.1,1.1,1.8,1c0.9-0.1,1.1-1,1.9-1.4c1.7-0.7,2.9,1.3,4.5,1.2
			c0.7-1,1.3-1.9,1.5-3.1c0.3-1.4-0.3-2.2,1.3-2.5c1.8-0.3,5.7-0.1,7,0.9c-0.3,1.6,1.7,1.4,2.7,1.6c1.5,0.3,1.4,1,2.4,1.9
			c1.3,1.3,5,1.3,5.9-0.7c0.3-0.8,0.5-2.5,0-3.2c-0.3-0.4-1.1,0.1-1.3-0.6c-0.3-0.8,0.4-0.6,0.7-1.2c0.5-0.9,0.3-2.3,0.9-3.1
			c1.2-1.5,2.1,0.1,3,0.8c0.4,1.2,1.8,3.1,3.2,3.7c0.9,0.4,1.6,0.1,2.5,0.3c0.9,0.2,1.1,0.7,1.9,1c0.9,0.4,1.4-0.2,1.9,0.9
			c0.5,1.4-0.5,1-1,1.9c-0.7,1.5,1.8,2.3,3.2,2.2c0,1.9-0.3,2.5,0.8,3.7c0.5,0.2,1.1,0.4,1.8,0.4c0,0.8,0.3,1.4,0.1,2.3
			c-0.1,0.7-0.5,1.2-0.3,2c0.3,1.5,2.1,1.6,2.7,2.7c0.6,1,0.3,2.7,0.3,3.8c0,0.9-0.2,1.5-0.4,2.4c-0.2,1,0.3,1.5,1.1,1.9
			c0.9,0.4,2.1,0.8,3.1,0.5c0.8-0.2,1.1-1,1.6-1.6c0.6-0.7,1-0.3,1.5,0.3c0.7,0.9,1.7,1,2.9,1c0.7,0,1-0.1,1.6-0.5
			c0.4-0.2,0.5-0.4,1-0.2c1.1,0.5,0.6,2.1,2.2,1.9c1.2-0.1,2.3-0.9,3.1-1.6c0.7-0.6,1-1.2,2-1.4c0.9-0.2,1.6,0.1,2.3,0.6
			c1,0.7,1.9,0.1,3,0.5c0.4,0.2,0.8,0.7,1.2,0.7c0.5,1,1.9,1.7,2.6,2.5c1,1.1,2,1.9,3,3c0.7,0.7,2,2.3,3,1.1
			c0.5-0.6,0.3-1.2,1.2-1.4c0.8-0.2,1.8,0.2,2.4,0.7c0.3,0.4,1.6,1.1,2.1,1.3c1,0.6,2,1.4,3.1,1.9c0.7,0.3,1.7,0.7,2.4,0
			c0.3-0.3,0.4-1.1,0.9-1.3c0.5-0.2,1.2,0.5,1.5,0.8c1.1,1.1,3.1-0.1,4-0.8c0.8-0.5,1.3-1.2,1.9-1.9c0.4-0.5,0.9-0.7,1.4-1
			c0,0,1.6-0.7,3.1-0.4c3.7-0.4,6.3,5.4,7.7,8.2c1,1.8,1.9,3.5,3.8,4.2c3.1,1.1,3.5-0.5,5.7-1.7c1-0.5,2,0.1,3-0.6
			c1.3-0.9,1.1-2,1.4-3.2c0.7-2.8,0.8-3.7,3.5-5.1c3.2-1.6,2.4-0.7,4.5,1.3c1.9,1.8,3,1.2,5.3,0.9c3.2-0.5,4,1.2,6.7,2.4
			c2.1,0.9,5.2,0.6,5.8-2.3c1.9-1.2,4.8-2.1,5.7,0.7c1.1,3.1-1.2,3.9-2.1,6.3c-0.5,1.4-0.3,1.8,0.6,2.7c0.3,0.3,0.9,0.4,1.1,0.9
			c0.3,0.9-0.3,0.7-0.4,1.2c-0.3,2,1,4.8,3.2,5c0.6,0,0.9-0.2,1.5,0c0.6,0.2,0.8,0.9,1.4,1.2c0.8,0.3,2.5-0.1,3.1-0.6
			c1-0.8,0.7-2.1,2.5-1.9c1.1,0.1,3,1.6,3.6,2.6c0.6,1.1-0.1,2-0.5,3c-0.4,1.2-0.3,2.1,0,3.4c0.2,1.1,0.5,2-0.5,2.8
			c-0.7,0.6-2.6,0.3-3,1.2c-0.8,1.9,4.8,2.7,5.9,3.4c2.4,1.4,3.8,3,6.6,2.8c1.7-0.1,2.3-0.2,3.5-1.4c1.1-1,2.2-2.2,3.2-3.3
			c1.2-1.1,2.2-2.6,3.3-3.8c1.2-1.4,1.3-1.2,2.9-1.8c0.8-0.3,1.2-0.8,1.6-1.5c0.8-1.5,2.3-3.9,3.7-5c2.2-1.6,4,0.6,6,1.5
			c2.6,1.2,2.8,2.4,2.8,5.2c0,1-0.3,2.4,0.3,3.2c0.6,0.8,2.1,0.7,2.5,0.7c2.7,0.7,3.9-0.9,6.2-2c2.3-1.1,5.1,0.1,5.9,2.4
			c0.4,1,0.5,2,0.2,3.1c-0.3,1-0.8,1.6-0.8,2.7c0.2,2.8,3.3,3.5,5.8,3.6c1.5,0.1,3.4,0.2,4.6-0.7c0.9-0.7,1.1-2.1,1.3-3
			c1-3.2,4.8-1.5,7.5-2.1c3.1-0.7,0.8-4.3,3.5-5.7c2.8-1.5,5.7,1.9,6.3,4.3c0.3,1.3,0.9,3.6-0.3,4.6c-1.2,0.9-2.9,0.7-3.3,2.5
			c-0.4,1.6,1.4,3.8,2.2,5.1c0.6,1.1,1.7,2.8,1.7,4c0,1.3,2.1,2.6,3.2,2.8c1.7,0.4,3.5-0.7,4.4-2.1c1-1.5,1.4-3.6,0.3-5
			c-1.5-1.9-0.5-2.3,1.1-4c0.8-0.8,1.4-1.7,2.1-2.4c0.8-1,0.8-1.3,2.4-1.5c1.2-0.1,2.4,0.3,3.3-0.6c0.7-0.7,1.3-2.2,1.8-3.1
			c1.6-2.6-0.5-3.4-1.4-5.6c-1.1-2.7,0.9-3.9,3.1-2.3c2.1,1.6,3.5,0.3,4.2-1.7c0.9,0.6,1.8,0.7,2.4,1.8c0.7,1.2,0.3,3.1,0.3,4.5
			c0,1.7,1,2.8,1.8,4.2c0.4,0.7,0.9,1.5,1.7,1.9c0.5,0.3,1.8,0.6,2.4,0.4c1.5-0.5,0-3,1.5-3.4c0.8-0.3,4.1,1.1,3.7,1.9
			c0.2,0.9,0.6,1.7,0.9,2.6c0.4,1.3,1.2,1.5,2.5,1.7c1.3,0.2,2.5,0.1,3.6-0.5c0.5-0.3,1-0.5,1.5-0.8c0.6-0.4,0.9-0.8,1.3-1.3
			c0.4-0.4,0.5-0.7,0.6-1.3c0.1-0.7,0.1-1.3,0.2-2c0.1-1,0.3-2.5,1-3.2c0.8-0.7,2.2-0.7,3.1-0.4c1,0.3,0.7,1.1,1,1.7
			c0,0.8,1.2,1,1.8,1.2c0.7,0.1,1.6,0.5,2.3,0.5c-0.6,0.8-2.2,1.7-2.5,2.7c-1.6,0.8,0,1.6,0.9,1.8c1.4,0.4,1.5,0.7,2.5,1.8
			c2,2.2,4.9-0.3,6.7,2c0.7,1,0.3,2.1,0.7,3.1c0.5,1.1,1.9,1.3,3.1,1.2c1.9-0.2,5-1,6.3,0.9c0.6,0.9,0.8,1.7,1.7,2.5
			c0.8,0.7,1.6,1.2,2.3,2.1c0.5,0.7,1.2,1.7,1.4,2.5c0.4,1.6-0.6,2.4,1.3,3.1c7.4,2.5,2.2-7.8,6.3-9.7c1.8-0.8,3.2,0.7,4.7,1.1
			c1.5,0.4,3.6,0.3,5-0.3c1.2-0.5,3.3-1.1,3.2-2.8c-0.1-1.1-2.5-2.8-1.3-3.8c1.8-1.6,2.8-4,5.4-3.8c1.2,0.1,2.4,0.5,3.7,0.4
			c1.3-0.1,1.8-0.6,3.1-0.3c1.3,0.3,2.4,0.7,3.7,0.2c1-0.4,1.5-1.2,2.5-1.7c1.1-0.5,2.2-0.2,3.4-0.3c1.6-0.1,1.4-0.4,2.3-1.5
			c0.4-0.5,0.3-0.9,1.1-1c4.2-0.3,7.8,8.5,11,5.4c0.8-0.7,0.1-1.7,1.3-2.2c1.5-0.6,1.2,0.5,2.1,1c2,1.3,4.2-0.7,3.1-2.8
			c0-0.2-0.2-0.4-0.3-0.6c-0.1-0.3-0.2-0.5-0.3-0.8c-0.1-0.4-0.2-0.9-0.4-1.3c0.5-1.1,1.2-2,2.6-1.7c1,0.2,1.3,1.2,2.4,1.6
			c1.2,0.4,2.3,0.2,3.4-0.6c0.6-0.5,1.2-1.6,1.9-1.9c1.2-0.4,2.1,0.7,3.2,0.3c2-0.7,2.3-3.2,4.7-3.2c3.4-0.1,2.5,2,3.1,4.5
			c0.7,2.8,3.1,1.3,5.1,1.5c0.4,0,1.1,0.3,1.5,0.4c0.8,0.1,1.7,0,2.5,0.2c0.7,0.2,1.8,0.7,2.4,1.3c1.7,0,3.4,0.5,5.3,0.3
			c1.7-0.2,4.3,0.5,5.8-0.3c0.8-0.4,1.1-0.9,1.9-1.2c0.7-0.2,1.7,0.1,2.3-0.4c0.6-0.5,0.5-1.3,1.1-1.8c0.7-0.6,1.8-0.2,2.1-1.3
			c0.9-0.6,0.5-2.7,1.3-3.7c0.7-1,1.8-2,3.1-2.2c2.4-0.4,2.8,2.9,6.4,2.4c3.8-0.2,6.4,3.4,8.3,5.8c0.7,0.9,1.6,2.6,2.5,3.2
			c1.6,1.2,3.1,0.1,4.8,0.4c1.2,0.2,2.8,1.4,3.5,2.2c0.4,0.5,0.5,1.2,0.8,1.7c0.5,0.6,1.4,1.1,2,1.7c2,1.9,3.9,4.4,5.6,6.5
			c1.1,1.3,2.2,2.3,4.1,1.8c1.5-0.4,2.6-2.1,4.3-1.6c0.6,0.2,0.8,0.9,1.4,1.2c0.4,0.2,1.7,0.4,2,0.7c1.3,1.1,0.8,3,3,2.8
			c0.7,1.8,1.2,3.7,3.2,4.3c1.8,0.5,2.4-0.7,3.9-1c0.5,1.1,0.9,3.1,2.4,2.9c1.3-0.2,1-2,2.9-1.2c1.1,0.5,2.9,0.2,4.1,0.6
			c1.6,0.6,1.7,1.3,2.4,2.7c0.8,1.5,4.1,5.3,6.1,4.2l2.5-109h-0.1l2.6-120.2l-18.4-123.3V40.3H0"/>
		<path fill="none" stroke="#FFFFFF" stroke-linecap="round" stroke-linejoin="round" d="M0,103.4h121.6v183.4v34.5v23.3
			c0.1,0.3,0.9,0.6,1.3,0.6c1.3,0,1.8-0.8,2.6-1.7c0.8-0.9,2.2-1.8,3.4-1.1l7.6,8.4l9.6,11.5c1.8,0,3.3,0.8,3.9,2.5
			c0.4,1-0.1,1.6,1.1,2.2c0.8,0.5,2.2,0.4,2.8-0.2c0.3,0.7,1.1,1.1,1.8,1c0.9-0.1,1.1-1,1.9-1.4c1.7-0.7,2.9,1.3,4.5,1.2
			c0.7-1,1.3-1.9,1.5-3.1c0.3-1.4-0.3-2.2,1.3-2.5c1.8-0.3,5.7-0.1,7,0.9c-0.3,1.6,1.7,1.4,2.7,1.6c1.5,0.3,1.4,1,2.4,1.9
			c1.3,1.3,5,1.3,5.9-0.7c0.3-0.8,0.5-2.5,0-3.2c-0.3-0.4-1.1,0.1-1.3-0.6c-0.3-0.8,0.4-0.6,0.7-1.2c0.5-0.9,0.3-2.3,0.9-3.1
			c1.2-1.5,2.1,0.1,3,0.8c0.4,1.2,1.8,3.1,3.2,3.7c0.9,0.4,1.6,0.1,2.5,0.3c0.9,0.2,1.1,0.7,1.9,1c0.9,0.4,1.4-0.2,1.9,0.9
			c0.5,1.4-0.5,1-1,1.9c-0.7,1.5,1.8,2.3,3.2,2.2c0,1.9-0.3,2.5,0.8,3.7c0.5,0.2,1.1,0.4,1.8,0.4c0,0.8,0.3,1.4,0.1,2.3
			c-0.1,0.7-0.5,1.2-0.3,2c0.3,1.5,2.1,1.6,2.7,2.7c0.6,1,0.3,2.7,0.3,3.8c0,0.9-0.2,1.5-0.4,2.4c-0.2,1,0.3,1.5,1.1,1.9
			c0.9,0.4,2.1,0.8,3.1,0.5c0.8-0.2,1.1-1,1.6-1.6c0.6-0.7,1-0.3,1.5,0.3c0.7,0.9,1.7,1,2.9,1c0.7,0,1-0.1,1.6-0.5
			c0.4-0.2,0.5-0.4,1-0.2c1.1,0.5,0.6,2.1,2.2,1.9c1.2-0.1,2.3-0.9,3.1-1.6c0.7-0.6,1-1.2,2-1.4c0.9-0.2,1.6,0.1,2.3,0.6
			c1,0.7,1.9,0.1,3,0.5c0.4,0.2,0.8,0.7,1.2,0.7c0.5,1,1.9,1.7,2.6,2.5c1,1.1,2,1.9,3,3c0.7,0.7,2,2.3,3,1.1
			c0.5-0.6,0.3-1.2,1.2-1.4c0.8-0.2,1.8,0.2,2.4,0.7c0.3,0.4,1.6,1.1,2.1,1.3c1,0.6,2,1.4,3.1,1.9c0.7,0.3,1.7,0.7,2.4,0
			c0.3-0.3,0.4-1.1,0.9-1.3c0.5-0.2,1.2,0.5,1.5,0.8c1.1,1.1,3.1-0.1,4-0.8c0.8-0.5,1.3-1.2,1.9-1.9c0.4-0.5,0.9-0.7,1.4-1
			c0,0,1.6-0.7,3.1-0.4c3.7-0.4,6.3,5.4,7.7,8.2c1,1.8,1.9,3.5,3.8,4.2c3.1,1.1,3.5-0.5,5.7-1.7c1-0.5,2,0.1,3-0.6
			c1.3-0.9,1.1-2,1.4-3.2c0.7-2.8,0.8-3.7,3.5-5.1c3.2-1.6,2.4-0.7,4.5,1.3c1.9,1.8,3,1.2,5.3,0.9c3.2-0.5,4,1.2,6.7,2.4
			c2.1,0.9,5.2,0.6,5.8-2.3c1.9-1.2,4.8-2.1,5.7,0.7c1.1,3.1-1.2,3.9-2.1,6.3c-0.5,1.4-0.3,1.8,0.6,2.7c0.3,0.3,0.9,0.4,1.1,0.9
			c0.3,0.9-0.3,0.7-0.4,1.2c-0.3,2,1,4.8,3.2,5c0.6,0,0.9-0.2,1.5,0c0.6,0.2,0.8,0.9,1.4,1.2c0.8,0.3,2.5-0.1,3.1-0.6
			c1-0.8,0.7-2.1,2.5-1.9c1.1,0.1,3,1.6,3.6,2.6c0.6,1.1-0.1,2-0.5,3c-0.4,1.2-0.3,2.1,0,3.4c0.2,1.1,0.5,2-0.5,2.8
			c-0.7,0.6-2.6,0.3-3,1.2c-0.8,1.9,4.8,2.7,5.9,3.4c2.4,1.4,3.8,3,6.6,2.8c1.7-0.1,2.3-0.2,3.5-1.4c1.1-1,2.2-2.2,3.2-3.3
			c1.2-1.1,2.2-2.6,3.3-3.8c1.2-1.4,1.3-1.2,2.9-1.8c0.8-0.3,1.2-0.8,1.6-1.5c0.8-1.5,2.3-3.9,3.7-5c2.2-1.6,4,0.6,6,1.5
			c2.6,1.2,2.8,2.4,2.8,5.2c0,1-0.3,2.4,0.3,3.2c0.6,0.8,2.1,0.7,2.5,0.7c2.7,0.7,3.9-0.9,6.2-2c2.3-1.1,5.1,0.1,5.9,2.4
			c0.4,1,0.5,2,0.2,3.1c-0.3,1-0.8,1.6-0.8,2.7c0.2,2.8,3.3,3.5,5.8,3.6c1.5,0.1,3.4,0.2,4.6-0.7c0.9-0.7,1.1-2.1,1.3-3
			c1-3.2,4.8-1.5,7.5-2.1c3.1-0.7,0.8-4.3,3.5-5.7c2.8-1.5,5.7,1.9,6.3,4.3c0.3,1.3,0.9,3.6-0.3,4.6c-1.2,0.9-2.9,0.7-3.3,2.5
			c-0.4,1.6,1.4,3.8,2.2,5.1c0.6,1.1,1.7,2.8,1.7,4c0,1.3,2.1,2.6,3.2,2.8c1.7,0.4,3.5-0.7,4.4-2.1c1-1.5,1.4-3.6,0.3-5
			c-1.5-1.9-0.5-2.3,1.1-4c0.8-0.8,1.4-1.7,2.1-2.4c0.8-1,0.8-1.3,2.4-1.5c1.2-0.1,2.4,0.3,3.3-0.6c0.7-0.7,1.3-2.2,1.8-3.1
			c1.6-2.6-0.5-3.4-1.4-5.6c-1.1-2.7,0.9-3.9,3.1-2.3c2.1,1.6,3.5,0.3,4.2-1.7c0.9,0.6,1.8,0.7,2.4,1.8c0.7,1.2,0.3,3.1,0.3,4.5
			c0,1.7,1,2.8,1.8,4.2c0.4,0.7,0.9,1.5,1.7,1.9c0.5,0.3,1.8,0.6,2.4,0.4c1.5-0.5,0-3,1.5-3.4c0.8-0.3,4.1,1.1,3.7,1.9
			c0.2,0.9,0.6,1.7,0.9,2.6c0.4,1.3,1.2,1.5,2.5,1.7c1.3,0.2,2.5,0.1,3.6-0.5c0.5-0.3,1-0.5,1.5-0.8c0.6-0.4,0.9-0.8,1.3-1.3
			c0.4-0.4,0.5-0.7,0.6-1.3c0.1-0.7,0.1-1.3,0.2-2c0.1-1,0.3-2.5,1-3.2c0.8-0.7,2.2-0.7,3.1-0.4c1,0.3,0.7,1.1,1,1.7
			c0,0.8,1.2,1,1.8,1.2c0.7,0.1,1.6,0.5,2.3,0.5c-0.6,0.8-2.2,1.7-2.5,2.7c-1.6,0.8,0,1.6,0.9,1.8c1.4,0.4,1.5,0.7,2.5,1.8
			c2,2.2,4.9-0.3,6.7,2c0.7,1,0.3,2.1,0.7,3.1c0.5,1.1,1.9,1.3,3.1,1.2c1.9-0.2,5-1,6.3,0.9c0.6,0.9,0.8,1.7,1.7,2.5
			c0.8,0.7,1.6,1.2,2.3,2.1c0.5,0.7,1.2,1.7,1.4,2.5c0.4,1.6-0.6,2.4,1.3,3.1c7.4,2.5,2.2-7.8,6.3-9.7c1.8-0.8,3.2,0.7,4.7,1.1
			c1.5,0.4,3.6,0.3,5-0.3c1.2-0.5,3.3-1.1,3.2-2.8c-0.1-1.1-2.5-2.8-1.3-3.8c1.8-1.6,2.8-4,5.4-3.8c1.2,0.1,2.4,0.5,3.7,0.4
			c1.3-0.1,1.8-0.6,3.1-0.3c1.3,0.3,2.4,0.7,3.7,0.2c1-0.4,1.5-1.2,2.5-1.7c1.1-0.5,2.2-0.2,3.4-0.3c1.6-0.1,1.4-0.4,2.3-1.5
			c0.4-0.5,0.3-0.9,1.1-1c4.2-0.3,7.8,8.5,11,5.4c0.8-0.7,0.1-1.7,1.3-2.2c1.5-0.6,1.2,0.5,2.1,1c2,1.3,4.2-0.7,3.1-2.8
			c0-0.2-0.2-0.4-0.3-0.6c-0.1-0.3-0.2-0.5-0.3-0.8c-0.1-0.4-0.2-0.9-0.4-1.3c0.5-1.1,1.2-2,2.6-1.7c1,0.2,1.3,1.2,2.4,1.6
			c1.2,0.4,2.3,0.2,3.4-0.6c0.6-0.5,1.2-1.6,1.9-1.9c1.2-0.4,2.1,0.7,3.2,0.3c2-0.7,2.3-3.2,4.7-3.2c3.4-0.1,2.5,2,3.1,4.5
			c0.7,2.8,3.1,1.3,5.1,1.5c0.4,0,1.1,0.3,1.5,0.4c0.8,0.1,1.7,0,2.5,0.2c0.7,0.2,1.8,0.7,2.4,1.3c1.7,0,3.4,0.5,5.3,0.3
			c1.7-0.2,4.3,0.5,5.8-0.3c0.8-0.4,1.1-0.9,1.9-1.2c0.7-0.2,1.7,0.1,2.3-0.4c0.6-0.5,0.5-1.3,1.1-1.8c0.7-0.6,1.8-0.2,2.1-1.3
			c0.9-0.6,0.5-2.7,1.3-3.7c0.7-1,1.8-2,3.1-2.2c2.4-0.4,2.8,2.9,6.4,2.4c3.8-0.2,6.4,3.4,8.3,5.8c0.7,0.9,1.6,2.6,2.5,3.2
			c1.6,1.2,3.1,0.1,4.8,0.4c1.2,0.2,2.8,1.4,3.5,2.2c0.4,0.5,0.5,1.2,0.8,1.7c0.5,0.6,1.4,1.1,2,1.7c2,1.9,3.9,4.4,5.6,6.5
			c1.1,1.3,2.2,2.3,4.1,1.8c1.5-0.4,2.6-2.1,4.3-1.6c0.6,0.2,0.8,0.9,1.4,1.2c0.4,0.2,1.7,0.4,2,0.7c1.3,1.1,0.8,3,3,2.8
			c0.7,1.8,1.2,3.7,3.2,4.3c1.8,0.5,2.4-0.7,3.9-1c0.5,1.1,0.9,3.1,2.4,2.9c1.3-0.2,1-2,2.9-1.2c1.1,0.5,2.9,0.2,4.1,0.6
			c1.6,0.6,1.7,1.3,2.4,2.7c0.8,1.5,4.1,5.3,6.1,4.2l2.5-109h-0.1l2.6-120.2l-18.4-123.3V40.3H0"/>
	</g>
	
		<path id="_x3C_Service_area_boundary_west_x3E_" fill="none" stroke="#A3C7D3" stroke-width="4" stroke-linecap="round" stroke-linejoin="round" stroke-miterlimit="10" d="
		M370.7,308.6v-44.5c-0.2-0.1-0.3-0.2-0.5-0.3c-1-0.6-3-1.6-3.1-3.2c0-0.9,0.6-0.8,0.9-1.4c0.3-0.6,0.3-1,0.3-1.7
		c0.2,0,0.3-0.1,0.5-0.2c0.3-3.1-2.9-4-5.3-5c-1.1-0.4-2.2-0.8-3.2-1.3c-1-0.5-1.6-0.9-3.2-0.9h-7.6c-0.8-0.5-0.7-1.4-1.7-1.7
		c-1.2-0.4-1.7,0.6-2.8,0.8c-1.8,0.3-4,0.7-5.6-0.8c-0.7-0.7-1-1.3-2.2-1.3c-0.7,0-1.3,0.6-2,0.7c-0.6,0.1-0.6-0.1-1.1-0.2
		c-0.8-0.2-1.6-0.1-2.3-0.5c-0.9-0.4-1.7-0.8-2.6,0c-0.6,0.6-0.4,1.7-1.5,1.5c-0.6-0.2-1.2-1-1.6-1.4c-0.8-0.7-1.8-0.6-2.5-1.2
		c-0.6-0.5-0.6-1.3-1.2-1.8l-0.4-0.4h-7.1h-22v-22.2v-5.7l-23.6-39.7l-12.2-1.4l-28.2-24.1l-14.8,7.4l-29.9-7.4v13
		c-0.8,0-1.5,0-2.1,0.5c-1.2-0.1-2.5,1.1-3.5,1.6c-1.1,0.6-1.9,1.5-3.1,2c-1.5,0.7-2.8,2.1-3.3,3.7c-0.3,0.9-0.3,1.8-0.3,2.7
		c0,0.7-0.2,1.3-0.3,1.9c-0.5,1.9-2.5,1.4-3.7,2.5c-1.2,1.2-1.4,3.3-2.6,4.4c-1.1,0.9-2.5,1.8-3.8,2.7c-1.4,1-2.8,1.2-4.2,0.5
		c-0.7-0.3-1.4-0.9-2.1-1.2c-0.8-0.3-1.6-0.2-2.5-0.3c-1.7-0.1-3.1-0.8-4.4-1.8c-1.5-1.1-3.3-1.9-4.6-3.1c-1-1-1.5-2.4-2.5-3.4
		c-0.6-0.6-0.8-0.6-0.8-1.5c0-1,0-2.1,0.5-3c0.4-0.6,1.2-0.7,1.1-1.5c-0.3-1.7-2.8-2.7-3.1-4.5c-0.2-0.1-0.5-0.2-0.7-0.2
		c-1.7-0.2-4.2,2.2-5,3.1c-0.7,0.7-1.5,1.7-1.9,2.6c-0.4,1-0.3,2.2-0.4,3.3c-0.1,2.5-1.4,2.6-3.3,3.6c-0.5,0.3-1,0.6-1.4,1
		c-0.4,0.4-0.7,1-1.2,1.3c-0.6,0.4-2,1-3.1,1.1v105v57.8c0.1,0.3,0.9,0.6,1.3,0.6c1.3,0,1.8-0.8,2.6-1.7c0.8-0.9,2.2-1.8,3.4-1.1
		l7.6,8.4l9.6,11.5c1.8,0,3.3,0.8,3.9,2.5c0.4,1-0.1,1.6,1.1,2.2c0.8,0.5,2.2,0.4,2.8-0.2c0.3,0.7,1.1,1.1,1.8,1
		c0.9-0.1,1.1-1,1.9-1.4c1.7-0.7,2.9,1.3,4.5,1.2c0.7-1,1.3-1.9,1.5-3.1c0.3-1.4-0.3-2.2,1.3-2.5c1.8-0.3,5.7-0.1,7,0.9
		c-0.3,1.6,1.7,1.4,2.7,1.6c1.5,0.3,1.4,1,2.4,1.9c1.3,1.3,5,1.3,5.9-0.7c0.3-0.8,0.5-2.5,0-3.2c-0.3-0.4-1.1,0.1-1.3-0.6
		c-0.3-0.8,0.4-0.6,0.7-1.2c0.5-0.9,0.3-2.3,0.9-3.1c1.2-1.5,2.1,0.1,3,0.8c0.4,1.2,1.8,3.1,3.2,3.7c0.9,0.4,1.6,0.1,2.5,0.3
		c0.9,0.2,1.1,0.7,1.9,1c0.9,0.4,1.4-0.2,1.9,0.9c0.5,1.4-0.5,1-1,1.9c-0.7,1.5,1.8,2.3,3.2,2.2c0,1.9-0.3,2.5,0.8,3.7
		c0.5,0.2,1.1,0.4,1.8,0.4c0,0,0,0,0,0c0,0.8,0.3,1.4,0.1,2.3c-0.1,0.7-0.5,1.2-0.3,2c0.3,1.5,2.1,1.6,2.7,2.7
		c0.6,1,0.3,2.7,0.3,3.8c0,0.9-0.2,1.5-0.4,2.4c-0.2,1,0.3,1.5,1.1,1.9c0.9,0.4,2.1,0.8,3.1,0.5c0.8-0.2,1.1-1,1.6-1.6
		c0.6-0.7,1-0.3,1.5,0.3c0.7,0.9,1.7,1,2.9,1c0.7,0,1-0.1,1.6-0.5c0.4-0.2,0.5-0.4,1-0.2c1.1,0.5,0.6,2.1,2.2,1.9
		c1.2-0.1,2.3-0.9,3.1-1.6c0.7-0.6,1-1.2,2-1.4c0.9-0.2,1.6,0.1,2.3,0.6c1,0.7,1.9,0.1,3,0.5c0.4,0.2,0.8,0.7,1.2,0.7
		c0.5,1,1.9,1.7,2.6,2.5c1,1.1,2,1.9,3,3c0.7,0.7,2,2.3,3,1.1c0.5-0.6,0.3-1.2,1.2-1.4c0.8-0.2,1.8,0.2,2.4,0.7
		c0.3,0.4,1.6,1.1,2.1,1.3c1,0.6,2,1.4,3.1,1.9c0.7,0.3,1.7,0.7,2.4,0c0.3-0.3,0.4-1.1,0.9-1.3c0.5-0.2,1.2,0.5,1.5,0.8
		c1.1,1.1,3.1-0.1,4-0.8c0.8-0.5,1.3-1.2,1.9-1.9c0.4-0.5,0.9-0.7,1.4-1c0,0,1.6-0.7,3.1-0.4c3.7-0.4,6.3,5.4,7.7,8.2
		c1,1.8,1.9,3.5,3.8,4.2c3.1,1.1,3.5-0.5,5.7-1.7c1-0.5,2,0.1,3-0.6c1.3-0.9,1.1-2,1.4-3.2c0.7-2.8,0.8-3.7,3.5-5.1
		c3.2-1.6,2.4-0.7,4.5,1.3c1.9,1.8,3,1.2,5.3,0.9c3.2-0.5,4,1.2,6.7,2.4c2.1,0.9,5.2,0.6,5.8-2.3v0c1.9-1.2,4.8-2.1,5.7,0.7
		c1.1,3.1-1.2,3.9-2.1,6.3c-0.5,1.4-0.3,1.8,0.6,2.7c0.3,0.3,0.9,0.4,1.1,0.9c0.3,0.9-0.3,0.7-0.4,1.2c-0.3,2,1,4.8,3.2,5
		c0.6,0,0.9-0.2,1.5,0c0.6,0.2,0.8,0.9,1.4,1.2c0.8,0.3,2.5-0.1,3.1-0.6c1-0.8,0.7-2.1,2.5-1.9c1.1,0.1,3,1.6,3.6,2.6
		c0.6,1.1-0.1,2-0.5,3c-0.4,1.2-0.3,2.1,0,3.4c0.2,1.1,0.5,2-0.5,2.8c-0.7,0.6-2.6,0.3-3,1.2c-0.8,1.9,4.8,2.7,5.9,3.4
		c2.4,1.4,3.8,3,6.6,2.8c1.7-0.1,2.3-0.2,3.5-1.4c1.1-1,2.2-2.2,3.2-3.3c1.2-1.1,2.2-2.6,3.3-3.8c1.2-1.4,1.3-1.2,2.9-1.8
		c0.8-0.3,1.2-0.8,1.6-1.5c0.8-1.5,2.3-3.9,3.7-5c2.2-1.6,4,0.6,6,1.5c2.6,1.2,2.8,2.4,2.8,5.2c0,1-0.3,2.4,0.3,3.2
		c0.6,0.8,2.1,0.7,2.5,0.7v-9.6l1.3,0.1c0.6-0.1,1.3,0,1.5-0.6c0.3-0.8-0.1-1.4-0.5-2.1c-0.2-0.4-0.5-0.8-0.6-1.2
		c-0.2-0.4,0-0.8-0.1-1.2c-0.2-0.9-1.2-0.7-1.5-1.4h0v-79.5h-9.2v-20.8H370.7z"/>
	
		<path id="_x3C_Service_area_boundary_east_x3E_" fill="none" stroke="#A3C7D3" stroke-width="4" stroke-linecap="round" stroke-linejoin="round" stroke-miterlimit="10" d="
		M663.6,254.4c-0.8,0-1.7-0.2-2-1c-0.2-0.5,0.2-1,0.1-1.5c-0.2-1.5-1.2-1.9-2.3-2.5c-1.4-0.8-2.8-1.7-4.2-2.5
		c-3.3-1.9-3.2,4.3-6.2,4.3c-0.8,0-1.5-0.2-1.9-0.5c-1.2-1-1.1-3.2-1.1-4.9c-0.7-0.9-1.3-1.1-2.3-0.5c-1.6,1.1-1.9,3.1-4.2,2.9
		c-1.5-0.1-2.6-1.1-1.7-2.6c0.6-0.9,1.2-1.1,0.8-2.4c-0.6-1.8-3.3-2.1-4.8-2.6c-1.6-0.5-3.2-1-4.8-1.6c-1.3-0.5-1.9-1-2.2-2.5
		c-0.3-1.3-0.5-2.5-2.1-2.9c-0.8-0.2-1.4,0-2.1-0.3c-0.1,0.1-0.2,0.1-0.3,0.2c-0.2,0.3-0.2,0.6-0.2,1c0,0.5-0.2,1-0.2,1.6
		c-0.1,0.4-0.2,0.7-0.3,1c-0.2,0.3-0.6,0.4-0.9,0.6c-0.5,0.3-0.5,1-0.5,1.5c0,0.3,0,0.7-0.2,1c-0.1,0.3-0.3,0.6-0.5,0.8
		c-0.2,0.2-0.3,0.5-0.5,0.7c-0.1,0.1-0.1,0.2-0.2,0.3c-0.1,0.1-0.2,0.2-0.2,0.3c-0.1,0.3-0.5,0.4-0.8,0.5c-0.2,0.1-0.4,0.3-0.6,0.3
		c0,0,0,0-0.1,0c-1,0.4-2,0.3-2.7,1.3c-0.7,1-0.3,2.1-1.3,2.8c-0.9,0.7-2.1,0.1-2.8,0.9c-0.9,1.1,0.5,1.9,0.7,2.7
		c0.5,2-2.1,2.4-3.1,3.5c-1.2,1.4-1.1,3.2-3.5,3.4c-2.2,0.2-3.9-2.5-5-4c-1.5-2.2-2.7-1-4.6-0.2c-0.2,0.1-0.5,0.2-0.7,0.2v-24.4
		h-37.5v-18.2h0v-10.9h-5.9V185h0l8.8-11h42.1c0-0.1,0-0.2-0.1-0.3c-0.3-0.8-0.9-1.4-0.7-2.3c0.2-0.9,1.1-1.4,1.8-1.8
		c0.9-0.6,1.5-1.3,2.2-2.2c0.8-1.1,1.1-1.9,1.2-3.2c0-1,0.5-1.9,1.3-2.5c0.8-0.7,1-0.8,1-1.9c0-0.7,0.2-1.4,0.4-2.1h8.5v-11.3h10.3
		v-12.1h44.1l-4-26.9V67.5h-37.3l-13.5-27.1h-89.4h-21.2h-27.8H451h-13.4v32.6c-0.1,0.1-0.2,0.1-0.2,0.2l15.5,21.7h4.5V99l-4.3,2.6
		c0.4,0.7,0.8,1.3,0.7,2.5c0.8,0.9,3,1.5,2.3,3.4c-0.4,1.2-3.3,1.5-2,3.5c0.4,0.7,1.1,0.5,1.8,0.8c1.2,0.5,0.9,0.1,1.8,1
		c0.5,0.4,0.4,1.2,1.1,1.5c1.4,0.5,0.9-0.3,2.1-0.9c3-1.6,4.1,1.8,5.1,4.1c0.7,1.6,1.5,2.3,3.3,1.6c1.3-0.5,1.6-2.3,2.7-2.8
		c3.4-1.5,2.7,4.4,1.1,5.7c-1.8,1.4-4.2,2-3.4,5c0.7,2.4,4.1,2.3,6.1,1.7c0.8-1.5,2.9-4,4.8-3.4c1.9,0.6,2.1,4,3.1,5.6
		c0.1,0.2,0,0.2,0,0.4c2.1,0.5,4.5,0.6,6,2.3c1.2,1.3,1.8,4.2,3.8,4.4h6.1c1.7,0,2.3,2.3,2.2,4.1c-0.1,1.6-2.6,3.1-2.2,4.3h-2.7
		v11.3h27.4V171l-17.3,6.5v15.7l-43,14.3v14.9v20v0c0.3,0,0.6-0.1,0.9-0.1c1.8-0.4,2.3-2.8,4.4-2.4c1.8,0.3,1.4,2.8,3.8,2.3
		c0.5-1.8-0.8-1.8-1.2-2.9c-0.5-1.2-0.8-2.3-0.8-3.8c1.4-0.1,2.4,0,3.6,0.5c1.1,0.4,0.8,1.7,2.5,1.5c0.1-0.2,0-0.5,0.1-0.8
		c1-0.6,1.1-1.8,2-2.5c0.9-0.8,1.9-0.8,3-1.1v25.1h3.7l7,7l-10.6,7.9v38.4h11.6V328h-4.8v6.8h-6.8l-2.4,10l-14,1.1l2.5,30.7
		l22.2,2.5l4.4,14.5h40.4l13.8,16l1.3,12.9l0.5,4.1c0.6-1.2,1.2-2.3,2.7-2c1,0.2,1.3,1.2,2.4,1.6c1.2,0.4,2.3,0.2,3.4-0.6
		c0.6-0.5,1.2-1.6,1.9-1.9c1.2-0.4,2.1,0.7,3.2,0.3c2-0.7,2.3-3.2,4.7-3.2c3.4-0.1,2.5,2,3.1,4.5c0.7,2.8,3.1,1.3,5.1,1.5
		c0.4,0,1.1,0.3,1.5,0.4c0.8,0.1,1.7,0,2.5,0.2c0.7,0.2,1.8,0.7,2.4,1.3c1.7,0,3.4,0.5,5.3,0.3c1.7-0.2,4.3,0.5,5.8-0.3
		c0.8-0.4,1.1-0.9,1.9-1.2c0.7-0.2,1.7,0.1,2.3-0.4c0.6-0.5,0.5-1.3,1.1-1.8c0.7-0.6,1.8-0.2,2.1-1.3c0.9-0.6,0.5-2.7,1.3-3.7
		c0.7-1,1.8-2,3.1-2.2c2.4-0.4,2.8,2.9,6.4,2.4c3.8-0.2,6.4,3.4,8.3,5.8c0.7,0.9,1.6,2.6,2.5,3.2c1.6,1.2,3.1,0.1,4.8,0.4
		c1.2,0.2,2.8,1.4,3.5,2.2c0.4,0.5,0.5,1.2,0.8,1.7c0.5,0.6,1.4,1.1,2,1.7c2,1.9,3.9,4.4,5.6,6.5c1.1,1.3,2.2,2.3,4.1,1.8
		c1.5-0.4,2.6-2.1,4.3-1.6c0.6,0.2,0.8,0.9,1.4,1.2c0.4,0.2,1.7,0.4,2,0.7c1.3,1.1,0.8,3,3,2.8c0.7,1.8,1.2,3.7,3.2,4.3
		c1.8,0.5,2.4-0.7,3.9-1c0.5,1.1,0.9,3.1,2.4,2.9c1.3-0.2,1-2,2.9-1.2c1.1,0.5,2.9,0.2,4.1,0.6c1.6,0.6,1.7,1.3,2.4,2.7
		c0.8,1.5,4.1,5.3,6.1,4.2l2.4-103.5l0.1,0l0.2-11.5h-23.9h-12.6h-6.2v-30.1h6.2v-9.2H684l0.5-27.8h-21V254.4z"/>
</g>
<g id="STATE_NAMES_x2F_CITIES">
	<rect x="168.9" y="331.8" fill="none" width="106.6" height="23.7"/>
	<text transform="matrix(1 0 0 1 224.6979 343.1694)" fill="#58595B" font-family="'HelveticaNeue-Condensed'" font-size="16">Lawton</text>
	<rect x="317.9" y="207" fill="none" width="106.6" height="23.7"/>
	<text transform="matrix(1 0 0 1 321.2288 218.3531)" fill="#58595B" font-family="'HelveticaNeue-Condensed'" font-size="16">Oklahoma City</text>
	<rect x="487.4" y="131.7" fill="none" width="106.6" height="15.1"/>
	<text transform="matrix(1 0 0 1 523.0707 143.0768)" fill="#58595B" font-family="'HelveticaNeue-Condensed'" font-size="16">Tulsa</text>
	<rect x="496.3" y="285.4" fill="none" width="106.6" height="15.1"/>
	<text transform="matrix(1 0 0 1 515.7531 296.7988)" fill="#58595B" font-family="'HelveticaNeue-Condensed'" font-size="16">McAlester</text>
	<g>
		<path fill="#58595B" d="M373.5,233.9c-2.5,0-4.6-2.1-4.6-4.6s2.1-4.6,4.6-4.6s4.6,2.1,4.6,4.6S376,233.9,373.5,233.9z"/>
		<path fill="#998675" d="M373.5,226c1.8,0,3.3,1.5,3.3,3.3s-1.5,3.3-3.3,3.3c-1.8,0-3.3-1.5-3.3-3.3S371.7,226,373.5,226
			 M373.5,223.4c-3.3,0-5.9,2.6-5.9,5.9s2.6,5.9,5.9,5.9c3.3,0,5.9-2.6,5.9-5.9S376.7,223.4,373.5,223.4L373.5,223.4z"/>
		<path fill="#FFFFFF" d="M373.5,226c1.8,0,3.3,1.5,3.3,3.3s-1.5,3.3-3.3,3.3c-1.8,0-3.3-1.5-3.3-3.3S371.7,226,373.5,226
			 M373.5,224c-2.9,0-5.3,2.4-5.3,5.3s2.4,5.3,5.3,5.3c2.9,0,5.3-2.4,5.3-5.3S376.4,224,373.5,224L373.5,224z"/>
	</g>
	<g>
		<path fill="#58595B" d="M284.9,343.5c-2.5,0-4.6-2.1-4.6-4.6s2.1-4.6,4.6-4.6s4.6,2.1,4.6,4.6S287.5,343.5,284.9,343.5z"/>
		<path fill="#998675" d="M284.9,335.6c1.8,0,3.3,1.5,3.3,3.3c0,1.8-1.5,3.3-3.3,3.3c-1.8,0-3.3-1.5-3.3-3.3
			C281.6,337,283.1,335.6,284.9,335.6 M284.9,333c-3.3,0-5.9,2.6-5.9,5.9s2.6,5.9,5.9,5.9c3.3,0,5.9-2.6,5.9-5.9
			S288.2,333,284.9,333L284.9,333z"/>
		<path fill="#FFFFFF" d="M284.9,335.6c1.8,0,3.3,1.5,3.3,3.3c0,1.8-1.5,3.3-3.3,3.3c-1.8,0-3.3-1.5-3.3-3.3
			C281.6,337,283.1,335.6,284.9,335.6 M284.9,333.6c-2.9,0-5.3,2.4-5.3,5.3s2.4,5.3,5.3,5.3c2.9,0,5.3-2.4,5.3-5.3
			S287.8,333.6,284.9,333.6L284.9,333.6z"/>
	</g>
	<g>
		<path fill="#58595B" d="M550.6,312.1c-2.5,0-4.6-2.1-4.6-4.6s2.1-4.6,4.6-4.6c2.5,0,4.6,2.1,4.6,4.6S553.2,312.1,550.6,312.1z"/>
		<path fill="#998675" d="M550.6,304.2c1.8,0,3.3,1.5,3.3,3.3c0,1.8-1.5,3.3-3.3,3.3s-3.3-1.5-3.3-3.3
			C547.3,305.7,548.8,304.2,550.6,304.2 M550.6,301.6c-3.3,0-5.9,2.6-5.9,5.9s2.6,5.9,5.9,5.9s5.9-2.6,5.9-5.9
			S553.9,301.6,550.6,301.6L550.6,301.6z"/>
		<path fill="#FFFFFF" d="M550.6,304.2c1.8,0,3.3,1.5,3.3,3.3c0,1.8-1.5,3.3-3.3,3.3s-3.3-1.5-3.3-3.3
			C547.3,305.7,548.8,304.2,550.6,304.2 M550.6,302.2c-2.9,0-5.3,2.4-5.3,5.3s2.4,5.3,5.3,5.3s5.3-2.4,5.3-5.3
			S553.5,302.2,550.6,302.2L550.6,302.2z"/>
	</g>
	<g>
		<path fill="#58595B" d="M541.7,158.4c-2.5,0-4.6-2.1-4.6-4.6s2.1-4.6,4.6-4.6c2.5,0,4.6,2.1,4.6,4.6S544.2,158.4,541.7,158.4z"/>
		<path fill="#998675" d="M541.7,150.5c1.8,0,3.3,1.5,3.3,3.3c0,1.8-1.5,3.3-3.3,3.3s-3.3-1.5-3.3-3.3
			C538.4,152,539.8,150.5,541.7,150.5 M541.7,147.9c-3.3,0-5.9,2.6-5.9,5.9s2.6,5.9,5.9,5.9s5.9-2.6,5.9-5.9
			S544.9,147.9,541.7,147.9L541.7,147.9z"/>
		<path fill="#FFFFFF" d="M541.7,150.5c1.8,0,3.3,1.5,3.3,3.3c0,1.8-1.5,3.3-3.3,3.3s-3.3-1.5-3.3-3.3
			C538.4,152,539.8,150.5,541.7,150.5 M541.7,148.5c-2.9,0-5.3,2.4-5.3,5.3s2.4,5.3,5.3,5.3s5.3-2.4,5.3-5.3
			S544.6,148.5,541.7,148.5L541.7,148.5z"/>
	</g>
	<g>
		<rect x="80.1" y="414.8" fill="none" width="170" height="28.6"/>
		
			<text transform="matrix(1 0 0 1 139.043 426.1889)" fill="#BBB5AF" font-family="'HelveticaNeue-BoldCond'" font-size="16" letter-spacing="2">TEXAS</text>
	</g>
	<g>
		<rect x="288.5" y="20.2" fill="none" width="170" height="21.6"/>
		
			<text transform="matrix(1 0 0 1 340.2006 31.5326)" fill="#BBB5AF" font-family="'HelveticaNeue-BoldCond'" font-size="16" letter-spacing="2">KANSAS</text>
	</g>
	<g>
		<rect x="690.6" y="273.6" fill="none" width="48" height="38.8"/>
		
			<text transform="matrix(1 0 0 1 704.2001 284.9115)" fill="#BBB5AF" font-family="'HelveticaNeue-BoldCond'" font-size="16" letter-spacing="2">AR</text>
	</g>
	<g>
		<rect x="681.6" y="40.3" fill="none" width="48" height="38.8"/>
		
			<text transform="matrix(1 0 0 1 692.456 51.7055)" fill="#BBB5AF" font-family="'HelveticaNeue-BoldCond'" font-size="16" letter-spacing="2">MO</text>
	</g>
</g>
</svg>
