<?xml version="1.0" encoding="utf-8"?>
<!-- Generator: Adobe Illustrator 17.1.0, SVG Export Plug-In . SVG Version: 6.00 Build 0)  -->
<!DOCTYPE svg PUBLIC "-//W3C//DTD SVG 1.1//EN" "http://www.w3.org/Graphics/SVG/1.1/DTD/svg11.dtd">
<svg version="1.1" id="aepohio_logo" xmlns="http://www.w3.org/2000/svg" xmlns:xlink="http://www.w3.org/1999/xlink" x="0px" y="0px"
	 viewBox="0 0 270 90" enable-background="new 0 0 270 90" xml:space="preserve">
<polygon fill="#FFFFFF" points="19.9,2.4 105.5,2.4 100.5,38.1 99.8,43.8 94,87.6 7.9,87.6 19.9,2.4 "/>
<polygon fill="#EA2427" points="24.3,57.1 32.7,57.1 33,61.1 65.8,61.1 66.9,52.5 56.9,52.5 57.3,49.3 67.3,49.3 68.4,40.7 
	58.4,40.7 58.9,37.2 68.9,37.2 70,28.6 48.2,28.6 44.3,57.8 40,28.6 25.1,28.6 12.2,57.3 19.9,2.4 105.5,2.4 100.5,38.2 100.3,36.8 
	100,35.7 99.6,35 99.2,34.1 98.6,33.3 98.1,32.6 97.4,32 96.6,31.3 95.6,30.6 94.6,30 93.6,29.5 92.3,29.1 91.1,28.8 89.6,28.6 
	89,28.6 73.4,28.6 69.2,61.1 81.1,61.1 82.4,51.5 89.4,51.5 90.3,51.4 92.2,51.1 93.3,50.7 94.4,50.2 95.4,49.6 96.3,49 97.3,48.1 
	97.9,47.4 98.6,46.4 99.1,45.6 99.4,44.8 99.8,43.8 94,87.6 7.9,87.6 11.6,61.1 22.8,61.1 24.3,57.1 "/>
<path fill-rule="evenodd" clip-rule="evenodd" fill="#808083" d="M256.7,39.5c3,0,5.4-2.4,5.4-5.4c0-3-2.4-5.4-5.4-5.4
	c-3,0-5.4,2.4-5.4,5.4C251.4,37.1,253.7,39.5,256.7,39.5L256.7,39.5z M256.7,29.6c2.5,0,4.5,1.9,4.5,4.5c0,2.5-2,4.5-4.5,4.5
	c-2.5,0-4.5-2-4.5-4.5C252.3,31.6,254.3,29.6,256.7,29.6L256.7,29.6z M257.7,34.4c0.8,0,1.6-0.5,1.6-1.6c0-1.3-1-1.6-2.1-1.6h-2.5v6
	h0.9v-2.8h1.1l1.5,2.8h1L257.7,34.4L257.7,34.4z M257,32c0.7,0,1.4,0.1,1.4,0.8c0,0.8-1.1,0.7-1.9,0.7h-0.9V32H257L257,32z"/>
<polygon fill="#EA2427" points="84.3,37.2 83.5,43.1 86.4,43.1 86.9,43 87.3,42.9 87.7,42.6 88.1,42.2 88.5,41.8 88.8,41.1 89,40.4 
	89,39.8 88.9,39.1 88.7,38.5 88.2,37.8 87.7,37.4 87.1,37.3 86.6,37.2 84.3,37.2 "/>
<polygon fill="#EA2427" points="27.2,49.5 32,49.5 31.2,38.8 27.2,49.5 "/>
<path fill-rule="evenodd" clip-rule="evenodd" fill="#808083" d="M231.3,28c-9.9,0-19,6.6-20.6,16.8c-1.7,10.4,5.4,16.7,15.3,16.7
	c9.9,0,19-6.2,20.6-16.7C248.2,34.7,241.2,28,231.3,28L231.3,28z M229.6,38.7c3.7,0,5.6,2.9,5.1,6.3c-0.6,3.7-3.5,6.2-7.1,6.2
	s-5.7-2.5-5.1-6.2C223.1,41.6,225.9,38.7,229.6,38.7L229.6,38.7z"/>
<path fill-rule="evenodd" clip-rule="evenodd" fill="#808083" d="M142.3,28c-9.9,0-19,6.6-20.6,16.8c-1.7,10.4,5.4,16.7,15.3,16.7
	c9.9,0,19-6.2,20.6-16.7C159.2,34.7,152.2,28,142.3,28L142.3,28z M140.6,38.7c3.7,0,5.6,2.9,5.1,6.3c-0.6,3.7-3.5,6.2-7.1,6.2
	c-3.6,0-5.7-2.5-5.1-6.2C134.1,41.6,136.9,38.7,140.6,38.7L140.6,38.7z"/>
<polygon fill="#808083" points="157.9,61.1 169.3,61.1 171.1,49.8 178.3,49.8 176.6,61.1 187.9,61.1 193.1,28.6 181.7,28.6 
	180,39.5 172.7,39.5 174.5,28.6 163.1,28.6 157.9,61.1 "/>
<polygon fill="#808083" points="193.3,61.1 205.1,61.1 210.3,28.6 198.5,28.6 193.3,61.1 "/>
</svg>
