<?xml version="1.0" encoding="utf-8"?>
<!-- Generator: Adobe Illustrator 17.1.0, SVG Export Plug-In . SVG Version: 6.00 Build 0)  -->
<!DOCTYPE svg PUBLIC "-//W3C//DTD SVG 1.1//EN" "http://www.w3.org/Graphics/SVG/1.1/DTD/svg11.dtd">
<svg version="1.1" id="Layer_1" xmlns="http://www.w3.org/2000/svg" xmlns:xlink="http://www.w3.org/1999/xlink" x="0px" y="0px"
	 viewBox="0 0 670 195" enable-background="new 0 0 670 195" xml:space="preserve">
<polygon fill="#FFFFFF" points="18,2 132.1,2 125.5,49.6 124.5,57.2 116.8,115.5 2,115.5 18,2 "/>
<polygon fill="#EA2427" points="23.9,74.9 35,74.9 35.4,80.2 79.2,80.2 80.6,68.8 67.3,68.8 67.9,64.6 81.2,64.6 82.7,53 69.4,53 
	70,48.3 83.3,48.3 84.8,36.9 55.7,36.9 50.6,75.8 44.8,36.9 25,36.9 7.7,75.1 18,2 132.1,2 125.4,49.6 125.2,47.9 124.8,46.4 
	124.3,45.4 123.7,44.3 123,43.2 122.3,42.3 121.4,41.4 120.3,40.4 118.9,39.5 117.6,38.8 116.3,38.1 114.6,37.5 113,37.2 111,36.9 
	110.2,36.9 89.4,36.9 83.7,80.2 99.7,80.2 101.3,67.4 110.7,67.4 111.8,67.3 114.4,66.9 115.9,66.4 117.4,65.7 118.6,65 119.9,64.1 
	121.3,62.8 122,62 123,60.6 123.6,59.6 124,58.5 124.5,57.2 116.8,115.5 2,115.5 7,80.2 21.9,80.2 23.9,74.9 "/>
<path fill-rule="evenodd" clip-rule="evenodd" fill="#808083" d="M333.8,51.4c4,0,7.2-3.2,7.2-7.1c0-4-3.2-7.1-7.2-7.1
	c-4,0-7.2,3.2-7.2,7.1C326.7,48.2,329.8,51.4,333.8,51.4L333.8,51.4z M333.8,38.3c3.3,0,6,2.6,6,6c0,3.4-2.7,6-6,6c-3.3,0-6-2.6-6-6
	C327.8,40.9,330.5,38.3,333.8,38.3L333.8,38.3z M335,44.6c1.1,0,2.1-0.6,2.1-2.2c0-1.7-1.3-2.1-2.8-2.1H331v8h1.2v-3.7h1.5l2.1,3.7
	h1.3L335,44.6L335,44.6z M334.2,41.4c1,0,1.8,0.1,1.8,1.1c0,1.1-1.5,0.9-2.6,0.9h-1.2v-2H334.2L334.2,41.4z"/>
<polygon fill="#EA2427" points="103.8,48.4 102.8,56.3 106.7,56.3 107.4,56.1 107.9,55.9 108.5,55.6 109,55 109.5,54.4 109.9,53.6 
	110.1,52.7 110.2,51.8 110,51 109.7,50 109,49.1 108.4,48.7 107.6,48.4 107,48.4 103.8,48.4 "/>
<polygon fill="#EA2427" points="27.7,64.8 34.2,64.8 33.1,50.6 27.7,64.8 "/>
<path fill-rule="evenodd" clip-rule="evenodd" fill="#808083" d="M299.9,36.2c-13.2,0-25.4,8.8-27.5,22.5
	c-2.2,13.9,7.2,22.2,20.4,22.2c13.2,0,25.3-8.3,27.5-22.2C322.5,45,313.1,36.2,299.9,36.2L299.9,36.2z M297.6,50.4
	c5,0,7.5,3.8,6.8,8.4c-0.8,4.9-4.7,8.3-9.4,8.3s-7.6-3.4-6.8-8.3C288.9,54.3,292.6,50.4,297.6,50.4L297.6,50.4z"/>
<path fill-rule="evenodd" clip-rule="evenodd" fill="#808083" d="M181.2,36.2c-13.2,0-25.4,8.8-27.5,22.5
	c-2.2,13.9,7.2,22.2,20.4,22.2c13.2,0,25.3-8.3,27.5-22.2C203.8,45,194.4,36.2,181.2,36.2L181.2,36.2z M179,50.4
	c5,0,7.5,3.8,6.8,8.4c-0.8,4.9-4.7,8.3-9.4,8.3c-4.8,0-7.6-3.4-6.8-8.3C170.3,54.3,174,50.4,179,50.4L179,50.4z"/>
<polygon fill="#808083" points="202.1,80.2 217.2,80.2 219.6,65.1 229.3,65.1 226.9,80.2 242.1,80.2 248.9,36.8 233.7,36.8 
	231.4,51.4 221.8,51.4 224.1,36.8 208.9,36.8 202.1,80.2 "/>
<polygon fill="#808083" points="249.2,80.2 265,80.2 271.8,36.8 256.1,36.8 249.2,80.2 "/>
</svg>
