<?xml version="1.0" encoding="utf-8"?>
<!-- Generator: Adobe Illustrator 17.1.0, SVG Export Plug-In . SVG Version: 6.00 Build 0)  -->
<!DOCTYPE svg PUBLIC "-//W3C//DTD SVG 1.1//EN" "http://www.w3.org/Graphics/SVG/1.1/DTD/svg11.dtd">
<svg version="1.1" id="aeptexas_logo" xmlns="http://www.w3.org/2000/svg" xmlns:xlink="http://www.w3.org/1999/xlink" x="0px" y="0px"
	 viewBox="0 0 270 90" enable-background="new 0 0 270 90" xml:space="preserve">
<path fill-rule="evenodd" clip-rule="evenodd" fill="#808083" d="M248.2,40.3c2.5,0,4.6-2,4.6-4.5c0-2.5-2-4.5-4.6-4.5
	c-2.5,0-4.6,2-4.6,4.5C243.6,38.3,245.7,40.3,248.2,40.3L248.2,40.3z M248.2,31.9c2.1,0,3.8,1.7,3.8,3.8c0,2.1-1.7,3.8-3.8,3.8
	c-2.1,0-3.8-1.7-3.8-3.8C244.4,33.6,246.1,31.9,248.2,31.9L248.2,31.9z M249,36c0.7,0,1.4-0.4,1.4-1.4c0-1.1-0.8-1.4-1.8-1.4h-2.2
	v5.1h0.7V36h0.9l1.3,2.4h0.8L249,36L249,36z M248.5,34c0.6,0,1.2,0,1.2,0.7c0,0.7-0.9,0.6-1.6,0.6h-0.8V34H248.5L248.5,34z"/>
<g>
	<polygon fill="#FFFFFF" points="27.4,8.8 100.2,8.8 95.9,39.2 95.3,44 90.4,81.2 17.2,81.2 27.4,8.8 	"/>
	<polygon fill="#EA2427" points="31.2,55.3 38.3,55.3 38.6,58.6 66.4,58.6 67.4,51.4 58.9,51.4 59.3,48.7 67.7,48.7 68.7,41.3 
		60.2,41.3 60.6,38.4 69.1,38.4 70,31 51.5,31 48.2,55.9 44.5,31 31.9,31 20.9,55.4 27.4,8.8 100.2,8.8 95.9,39.2 95.8,38.1 
		95.5,37.1 95.2,36.5 94.8,35.8 94.4,35.1 93.9,34.5 93.3,34 92.6,33.3 91.8,32.7 91,32.3 90.1,31.8 89,31.5 88,31.2 86.7,31.1 
		86.2,31 72.9,31 69.3,58.6 79.5,58.6 80.5,50.5 86.5,50.5 87.3,50.5 88.9,50.2 89.8,49.8 90.8,49.4 91.6,48.9 92.4,48.4 93.3,47.6 
		93.7,47.1 94.4,46.2 94.7,45.5 95,44.8 95.3,44 90.4,81.2 17.2,81.2 20.4,58.6 29.9,58.6 31.2,55.3 	"/>
	<polygon fill="#EA2427" points="82.2,38.4 81.5,43.4 84,43.4 84.4,43.3 84.8,43.2 85.1,43 85.4,42.6 85.7,42.2 86,41.7 86.1,41.1 
		86.2,40.6 86.1,40 85.9,39.4 85.5,38.9 85,38.6 84.5,38.4 84.2,38.4 82.2,38.4 	"/>
	<polygon fill="#EA2427" points="33.6,48.9 37.7,48.9 37.1,39.8 33.6,48.9 	"/>
</g>
<polygon fill-rule="evenodd" clip-rule="evenodd" fill="#808083" points="114.2,40 119.7,39.8 116.8,58.6 126.7,58.6 129.7,39.8 
	135.2,40 136.6,31.1 115.6,31.1 "/>
<polygon fill-rule="evenodd" clip-rule="evenodd" fill="#808083" points="134.9,58.6 153.6,58.6 154.8,51.1 146.1,51.1 146.5,48.4 
	154.2,48.4 155.4,41.2 147.7,41.2 148.1,38.6 156.5,38.6 157.7,31.1 139.2,31.1 "/>
<path fill-rule="evenodd" clip-rule="evenodd" fill="#808083" d="M178,31.1l-2.5,3.9c-0.5,0.7-0.9,1.5-1.2,2.3H174
	c-0.1-0.8-0.2-1.5-0.5-2.3l-1.4-3.9h-11.3l6.6,12.9l-11.9,14.6h11.4l4-5.6c0.4-0.6,0.8-1.2,1.1-1.9h0.3c0,0.6,0.1,1.1,0.3,1.7
	l2.2,5.8h11.4L178.6,44l10.6-12.9H178z"/>
<path fill-rule="evenodd" clip-rule="evenodd" fill="#808083" d="M195.7,55.2h7.5l0.4,3.4h10.6l-5.5-27.5h-11l-13.9,27.5h10.6
	L195.7,55.2z M198.5,48.6l3.1-8.4h0.4c0,1.2,0,2.4,0.1,3.5l0.4,4.8H198.5z"/>
<path fill-rule="evenodd" clip-rule="evenodd" fill="#808083" d="M214.2,56.5c2.9,1.6,6.7,2.5,10.2,2.5c5.9,0,12.4-3.2,13.5-9.8
	c0.7-4.7-2-6.9-6-7.9l-2.2-0.5c-0.7-0.2-2-0.3-1.8-1.4c0.2-1.1,1.5-1.5,2.4-1.5c2.2,0,3.9,0.9,5.5,2.1l3.8-7
	c-2.4-1.6-5.2-2.4-8.3-2.4c-6,0-12.5,3.6-13.5,10.2c-0.7,4.3,2.2,6.6,6,7.3l1.9,0.4c0.9,0.2,2.2,0.3,2,1.5c-0.2,1.2-1.8,1.6-2.8,1.6
	c-2.3,0-4.3-1.1-5.8-2.5l-0.4-0.4L214.2,56.5z"/>
</svg>
