<?xml version="1.0" encoding="utf-8"?>
<!-- Generator: Adobe Illustrator 17.1.0, SVG Export Plug-In . SVG Version: 6.00 Build 0)  -->
<!DOCTYPE svg PUBLIC "-//W3C//DTD SVG 1.1//EN" "http://www.w3.org/Graphics/SVG/1.1/DTD/svg11.dtd">
<svg version="1.1" id="Layer_1" xmlns="http://www.w3.org/2000/svg" xmlns:xlink="http://www.w3.org/1999/xlink" x="0px" y="0px" width="670" height="195"
	 viewBox="0 0 670 195" enable-background="new 0 0 670 195" xml:space="preserve">
<path fill-rule="evenodd" clip-rule="evenodd" fill="#808083" d="M364.3,51.4c4,0,7.2-3.2,7.2-7.1c0-4-3.2-7.1-7.2-7.1
	c-4,0-7.2,3.2-7.2,7.1C357.2,48.2,360.3,51.4,364.3,51.4L364.3,51.4z M364.3,38.3c3.3,0,6,2.6,6,6c0,3.4-2.7,6-6,6c-3.3,0-6-2.6-6-6
	C358.3,40.9,361,38.3,364.3,38.3L364.3,38.3z M365.5,44.6c1.1,0,2.1-0.6,2.1-2.2c0-1.7-1.3-2.1-2.8-2.1h-3.4v8h1.2v-3.7h1.5l2.1,3.7
	h1.3L365.5,44.6L365.5,44.6z M364.7,41.4c1,0,1.8,0.1,1.8,1.1c0,1.1-1.5,0.9-2.6,0.9h-1.2v-2H364.7L364.7,41.4z"/>
<g>
	<polygon fill="#FFFFFF" points="18,2 132.1,2 125.5,49.6 124.5,57.2 116.8,115.5 2,115.5 18,2 	"/>
	<polygon fill="#EA2427" points="23.9,74.9 35,74.9 35.4,80.2 79.2,80.2 80.6,68.8 67.3,68.8 67.9,64.6 81.2,64.6 82.7,53 69.4,53 
		70,48.3 83.3,48.3 84.8,36.9 55.7,36.9 50.6,75.8 44.8,36.9 25,36.9 7.7,75.1 18,2 132.1,2 125.4,49.6 125.2,47.9 124.8,46.4 
		124.3,45.4 123.7,44.3 123,43.2 122.3,42.3 121.4,41.4 120.3,40.4 118.9,39.5 117.6,38.8 116.3,38.1 114.6,37.5 113,37.2 111,36.9 
		110.2,36.9 89.4,36.9 83.7,80.2 99.7,80.2 101.3,67.4 110.7,67.4 111.8,67.3 114.4,66.9 115.9,66.4 117.4,65.7 118.6,65 
		119.9,64.1 121.3,62.8 122,62 123,60.6 123.6,59.6 124,58.5 124.5,57.2 116.8,115.5 2,115.5 7,80.2 21.9,80.2 23.9,74.9 	"/>
	<polygon fill="#EA2427" points="103.8,48.4 102.8,56.3 106.7,56.3 107.4,56.1 107.9,55.9 108.5,55.6 109,55 109.5,54.4 109.9,53.6 
		110.1,52.7 110.2,51.8 110,51 109.7,50 109,49.1 108.4,48.7 107.6,48.4 107,48.4 103.8,48.4 	"/>
	<polygon fill="#EA2427" points="27.7,64.8 34.2,64.8 33.1,50.6 27.7,64.8 	"/>
</g>
<polygon fill-rule="evenodd" clip-rule="evenodd" fill="#808083" points="154.1,51 162.8,50.6 158.1,80.1 173.8,80.1 178.5,50.6 
	187,51 189.3,37 156.3,37 "/>
<polygon fill-rule="evenodd" clip-rule="evenodd" fill="#808083" points="186.5,80.1 215.9,80.1 217.8,68.3 204.1,68.3 204.8,64.1 
	216.9,64.1 218.7,52.8 206.6,52.8 207.2,48.7 220.5,48.7 222.3,37 193.3,37 "/>
<path fill-rule="evenodd" clip-rule="evenodd" fill="#808083" d="M254.2,37l-3.9,6.1c-0.8,1.1-1.5,2.3-1.9,3.5h-0.3
	c-0.2-1.2-0.3-2.4-0.8-3.5L245,37h-17.7l10.4,20.2l-18.7,22.9h17.8l6.2-8.8c0.7-1,1.2-1.9,1.7-3h0.5c0,0.9,0.2,1.8,0.5,2.6l3.5,9.2
	h17.8l-11.8-22.9L271.8,37H254.2z"/>
<path fill-rule="evenodd" clip-rule="evenodd" fill="#808083" d="M282,74.7h11.8l0.6,5.4H311L302.4,37h-17.3l-21.8,43.1h16.6
	L282,74.7z M286.4,64.5l4.9-13.2h0.6c0,1.8,0,3.7,0.1,5.5l0.6,7.6H286.4z"/>
<path fill-rule="evenodd" clip-rule="evenodd" fill="#808083" d="M310.9,76.8c4.5,2.5,10.5,3.9,16,3.9c9.3,0,19.5-5.1,21.1-15.4
	c1.2-7.3-3.1-10.9-9.5-12.4l-3.4-0.8c-1.2-0.3-3.1-0.5-2.8-2.1c0.3-1.8,2.4-2.3,3.7-2.3c3.4,0,6.2,1.4,8.6,3.3l6-11
	c-3.8-2.6-8.1-3.8-13.1-3.8c-9.4,0-19.6,5.7-21.2,16c-1.1,6.7,3.5,10.3,9.5,11.4l3.1,0.6c1.4,0.3,3.4,0.5,3.1,2.4
	c-0.3,1.9-2.9,2.6-4.4,2.6c-3.6,0-6.7-1.8-9.2-3.9l-0.7-0.6L310.9,76.8z"/>
</svg>
