<?xml version="1.0" encoding="utf-8"?>
<!-- Generator: Adobe Illustrator 17.1.0, SVG Export Plug-In . SVG Version: 6.00 Build 0)  -->
<!DOCTYPE svg PUBLIC "-//W3C//DTD SVG 1.1//EN" "http://www.w3.org/Graphics/SVG/1.1/DTD/svg11.dtd">
<svg version="1.1" id="Layer_1" xmlns="http://www.w3.org/2000/svg" xmlns:xlink="http://www.w3.org/1999/xlink" x="0px" y="0px" width="670" height="195"
	 viewBox="0 0 670 195" enable-background="new 0 0 670 195" xml:space="preserve">
<g>
	<polygon fill="#FFFFFF" points="18,2 132.1,2 125.5,49.6 124.5,57.2 116.8,115.5 2,115.5 18,2 	"/>
	<polygon fill="#EA2427" points="23.9,74.9 35,74.9 35.4,80.2 79.2,80.2 80.6,68.8 67.3,68.8 67.9,64.6 81.2,64.6 82.7,53 69.4,53 
		70,48.3 83.3,48.3 84.8,36.9 55.7,36.9 50.6,75.8 44.8,36.9 25,36.9 7.7,75.1 18,2 132.1,2 125.4,49.6 125.2,47.9 124.8,46.4 
		124.3,45.4 123.7,44.3 123,43.2 122.3,42.3 121.4,41.4 120.3,40.4 118.9,39.5 117.6,38.8 116.3,38.1 114.6,37.5 113,37.2 111,36.9 
		110.2,36.9 89.4,36.9 83.7,80.2 99.7,80.2 101.3,67.4 110.7,67.4 111.8,67.3 114.4,66.9 115.9,66.4 117.4,65.7 118.6,65 
		119.9,64.1 121.3,62.8 122,62 123,60.6 123.6,59.6 124,58.5 124.5,57.2 116.8,115.5 2,115.5 7,80.2 21.9,80.2 23.9,74.9 	"/>
	<polygon fill="#EA2427" points="103.8,48.4 102.8,56.3 106.7,56.3 107.4,56.1 107.9,55.9 108.5,55.6 109,55 109.5,54.4 109.9,53.6 
		110.1,52.7 110.2,51.8 110,51 109.7,50 109,49.1 108.4,48.7 107.6,48.4 107,48.4 103.8,48.4 	"/>
	<polygon fill="#EA2427" points="27.7,64.8 34.2,64.8 33.1,50.6 27.7,64.8 	"/>
</g>
<path fill-rule="evenodd" clip-rule="evenodd" fill="#808083" d="M381.4,105.1c4,0,7.1-3.2,7.1-7.1c0-4-3.2-7.1-7.1-7.1
	c-4,0-7.1,3.2-7.1,7.1C374.3,101.9,377.4,105.1,381.4,105.1L381.4,105.1z M381.4,92c3.3,0,6,2.6,6,6c0,3.4-2.7,6-6,6
	c-3.3,0-6-2.6-6-6C375.4,94.6,378.2,92,381.4,92L381.4,92z M382.6,98.3c1.1,0,2.1-0.6,2.1-2.2c0-1.7-1.3-2.1-2.8-2.1h-3.4v8h1.2
	v-3.7h1.5l2,3.7h1.3L382.6,98.3L382.6,98.3z M381.8,95.2c1,0,1.8,0.1,1.8,1.1c0,1.1-1.5,0.9-2.6,0.9h-1.2v-2H381.8L381.8,95.2z"/>
<path fill-rule="evenodd" clip-rule="evenodd" fill="#808083" d="M166.2,74.7h11.9l0.6,5.4h16.7l-8.6-43.5h-17.5l-22,43.5H164
	L166.2,74.7L166.2,74.7z M170.6,64.4l5-13.3h0.6c0,1.8,0,3.8,0.2,5.6l0.6,7.7H170.6L170.6,64.4z"/>
<path fill-rule="evenodd" clip-rule="evenodd" fill="#808083" d="M197,80.1h15.2l2.1-13.1h8.1c8.8,0,15.2-5.5,16.6-14.4
	c1.7-10.8-5-16-15.1-16h-20L197,80.1L197,80.1z M217.2,48.5h1.5c2.6,0,5.8,0.2,5.3,3.6c-0.6,3.5-3.6,4-6.4,4H216L217.2,48.5
	L217.2,48.5z"/>
<path fill-rule="evenodd" clip-rule="evenodd" fill="#808083" d="M237.3,80.1h15.2l2.1-13.1h8.1c8.8,0,15.2-5.5,16.6-14.4
	c1.7-10.8-5-16-15.1-16h-20L237.3,80.1L237.3,80.1z M257.5,48.5h1.5c2.6,0,5.8,0.2,5.3,3.6c-0.6,3.5-3.6,4-6.4,4h-1.6L257.5,48.5
	L257.5,48.5z"/>
<path fill-rule="evenodd" clip-rule="evenodd" fill="#808083" d="M289.6,74.7h11.9l0.6,5.4h16.7l-8.6-43.5h-17.5l-22,43.5h16.7
	L289.6,74.7L289.6,74.7z M294.1,64.4l5-13.3h0.6c0,1.8,0,3.8,0.2,5.6l0.6,7.7H294.1L294.1,64.4z"/>
<polygon fill="#808083" points="322.1,80.1 351.2,80.1 353.4,66.1 340.2,66.1 344.8,36.6 329,36.6 322.1,80.1 "/>
<path fill-rule="evenodd" clip-rule="evenodd" fill="#808083" d="M370.5,74.7h11.9l0.6,5.4h16.7l-8.6-43.5h-17.5l-22,43.5h16.7
	L370.5,74.7L370.5,74.7z M374.9,64.4l5-13.3h0.6c0,1.8,0,3.8,0.2,5.6l0.6,7.7H374.9L374.9,64.4z"/>
<path fill="#808083" d="M436.4,37.7c-3.2-1.2-6.8-1.8-10.3-1.8c-12.7,0-24.3,10.2-26.3,22.8c-2,12.4,6.2,22,18.6,22
	c2.8,0,8.8-0.5,11.5-1.7l3-16.3c-2.9,2.5-6.1,4-9.7,4c-4.7,0-8.2-3.7-7.5-8.5c0.7-4.7,5.2-8.5,9.9-8.5c3.6,0,6.4,2,8.6,4.4
	L436.4,37.7L436.4,37.7z"/>
<polygon fill="#808083" points="435.7,80.1 451,80.1 453.4,65 463.1,65 460.7,80.1 475.9,80.1 482.8,36.6 467.6,36.6 465.2,51.3 
	455.5,51.3 457.9,36.6 442.6,36.6 435.7,80.1 "/>
<polygon fill="#808083" points="483.1,80.1 498.9,80.1 505.8,36.6 490,36.6 483.1,80.1 "/>
<path fill-rule="evenodd" clip-rule="evenodd" fill="#808083" d="M519.3,74.7h11.9l0.6,5.4h16.7l-8.6-43.5h-17.5l-22,43.5h16.7
	L519.3,74.7L519.3,74.7z M523.8,64.4l5-13.3h0.6c0,1.8,0,3.8,0.2,5.6l0.6,7.7H523.8L523.8,64.4z"/>
<path fill="#808083" d="M551.6,80.1h15.1L569,66c0.5-2.9,0.4-5.7,0.4-8.7h0.5l10.3,22.8h15.1l6.9-43.5H587l-2.1,13
	c-0.6,3.7-0.5,7.4-0.4,11.1h-0.5l-10.4-24.1h-15.2L551.6,80.1L551.6,80.1z"/>
<path fill-rule="evenodd" clip-rule="evenodd" fill="#808083" d="M142.9,134.3h15.2l2.1-13.1h8.1c8.8,0,15.2-5.5,16.6-14.4
	c1.7-10.8-5-16-15.1-16h-20L142.9,134.3L142.9,134.3z M163.1,102.7h1.5c2.6,0,5.8,0.2,5.3,3.6c-0.6,3.5-3.6,4-6.4,4h-1.6
	L163.1,102.7L163.1,102.7z"/>
<path fill-rule="evenodd" clip-rule="evenodd" fill="#808083" d="M208.8,90.1c-13.2,0-25.4,8.9-27.6,22.5
	c-2.2,14,7.2,22.3,20.5,22.3c13.3,0,25.4-8.4,27.6-22.3C231.4,99,222,90.1,208.8,90.1L208.8,90.1z M206.5,104.4c5,0,7.5,3.9,6.8,8.5
	c-0.8,5-4.7,8.4-9.5,8.4c-4.8,0-7.6-3.4-6.8-8.4C197.8,108.3,201.5,104.4,206.5,104.4L206.5,104.4z"/>
<path fill="#808083" d="M227.3,90.8l8.3,43.5h13.4l7.1-17.1c0.9-2.1,1.3-4.3,1.8-6.6h0.5l1.2,23.6h13.8l22.2-43.5h-16.4l-7.3,18.3
	c-1,2.5-1.7,5.1-2.3,7.7h-0.3l-1.8-25.9h-12.1l-7.5,17.9c-1.1,2.6-1.9,5.4-2.6,8H245l-1.4-25.9H227.3L227.3,90.8z"/>
<polygon fill="#808083" points="291.4,134.3 321.1,134.3 322.9,122.4 309.2,122.4 309.8,118.2 322,118.2 323.8,106.9 311.6,106.9 
	312.3,102.7 325.6,102.7 327.5,90.8 298.3,90.8 291.4,134.3 "/>
<path fill-rule="evenodd" clip-rule="evenodd" fill="#808083" d="M325.1,134.3h15.5l2.2-14h0.3l4.7,14H366l-7.2-14.1
	c-0.7-1.3-1.5-2-2.2-2.6l0.1-0.3c6.2-2,9.2-4.7,10.2-11.3c1.7-11-5.9-15.1-15.7-15.1H332L325.1,134.3L325.1,134.3z M345.5,102.7h1.2
	c2.7,0,5,0.4,4.5,3.7c-0.5,3.2-3.2,3.6-5.8,3.6h-1.1L345.5,102.7L345.5,102.7z"/>
</svg>
