<?xml version="1.0" encoding="utf-8"?>
<!-- Generator: Adobe Illustrator 17.1.0, SVG Export Plug-In . SVG Version: 6.00 Build 0)  -->
<!DOCTYPE svg PUBLIC "-//W3C//DTD SVG 1.1//EN" "http://www.w3.org/Graphics/SVG/1.1/DTD/svg11.dtd">
<svg version="1.1" id="apco_logo" xmlns="http://www.w3.org/2000/svg" xmlns:xlink="http://www.w3.org/1999/xlink" x="0px" y="0px"
	 viewBox="0 0 270 90" enable-background="new 0 0 270 90" xml:space="preserve">
<g>
	<polygon fill="#FFFFFF" points="21.4,18.4 67,18.4 64.4,37.4 64,40.5 60.9,63.8 15,63.8 21.4,18.4 	"/>
	<polygon fill="#EA2427" points="23.7,47.6 28.2,47.6 28.4,49.7 45.8,49.7 46.4,45.1 41.1,45.1 41.3,43.4 46.6,43.4 47.2,38.8 
		41.9,38.8 42.2,36.9 47.5,36.9 48.1,32.3 36.4,32.3 34.4,47.9 32.1,32.3 24.2,32.3 17.2,47.6 21.4,18.4 67,18.4 64.4,37.5 
		64.3,36.8 64.1,36.2 63.9,35.7 63.7,35.3 63.4,34.9 63.1,34.5 62.7,34.2 62.3,33.8 61.8,33.4 61.2,33.1 60.7,32.8 60,32.6 
		59.4,32.5 58.6,32.4 58.2,32.3 49.9,32.3 47.7,49.7 54,49.7 54.7,44.5 58.4,44.5 58.9,44.5 59.9,44.3 60.5,44.1 61.1,43.9 
		61.6,43.6 62.1,43.2 62.7,42.7 63,42.4 63.4,41.8 63.6,41.4 63.8,41 64,40.5 60.9,63.8 15,63.8 17,49.7 22.9,49.7 23.7,47.6 	"/>
	<polygon fill="#EA2427" points="55.7,37 55.3,40.1 56.8,40.1 57.1,40.1 57.3,40 57.6,39.8 57.8,39.6 58,39.4 58.1,39 58.2,38.7 
		58.2,38.3 58.2,38 58.1,37.6 57.8,37.3 57.5,37.1 57.2,37 57,37 55.7,37 	"/>
	<polygon fill="#EA2427" points="25.2,43.5 27.8,43.5 27.4,37.8 25.2,43.5 	"/>
</g>
<path fill-rule="evenodd" clip-rule="evenodd" fill="#808083" d="M166.7,59.6c1.6,0,2.9-1.3,2.9-2.8c0-1.6-1.3-2.8-2.9-2.8
	c-1.6,0-2.9,1.3-2.9,2.8C163.9,58.4,165.1,59.6,166.7,59.6L166.7,59.6z M166.7,54.4c1.3,0,2.4,1,2.4,2.4c0,1.3-1.1,2.4-2.4,2.4
	c-1.3,0-2.4-1-2.4-2.4C164.3,55.4,165.4,54.4,166.7,54.4L166.7,54.4z M167.2,56.9c0.4,0,0.9-0.2,0.9-0.9c0-0.7-0.5-0.8-1.1-0.8h-1.3
	v3.2h0.5v-1.5h0.6l0.8,1.5h0.5L167.2,56.9L167.2,56.9z M166.9,55.7c0.4,0,0.7,0,0.7,0.4c0,0.4-0.6,0.4-1,0.4h-0.5v-0.8H166.9
	L166.9,55.7z"/>
<path fill-rule="evenodd" clip-rule="evenodd" fill="#808083" d="M80.6,47.5h4.8l0.2,2.2h6.7l-3.5-17.4h-7l-8.8,17.4h6.7L80.6,47.5
	L80.6,47.5z M82.4,43.3l2-5.3h0.2c0,0.7,0,1.5,0.1,2.2l0.3,3.1H82.4L82.4,43.3z"/>
<path fill-rule="evenodd" clip-rule="evenodd" fill="#808083" d="M93,49.6h6.1l0.8-5.2h3.2c3.5,0,6.1-2.2,6.7-5.8
	c0.7-4.3-2-6.4-6-6.4h-8L93,49.6L93,49.6z M101.1,37h0.6c1,0,2.3,0.1,2.1,1.4c-0.2,1.4-1.5,1.6-2.6,1.6h-0.6L101.1,37L101.1,37z"/>
<path fill-rule="evenodd" clip-rule="evenodd" fill="#808083" d="M109.1,49.6h6.1l0.8-5.2h3.2c3.5,0,6.1-2.2,6.7-5.8
	c0.7-4.3-2-6.4-6-6.4h-8L109.1,49.6L109.1,49.6z M117.2,37h0.6c1,0,2.3,0.1,2.1,1.4c-0.2,1.4-1.5,1.6-2.6,1.6h-0.6L117.2,37
	L117.2,37z"/>
<path fill-rule="evenodd" clip-rule="evenodd" fill="#808083" d="M130,47.5h4.8l0.2,2.2h6.7l-3.5-17.4h-7l-8.8,17.4h6.7L130,47.5
	L130,47.5z M131.8,43.3l2-5.3h0.2c0,0.7,0,1.5,0.1,2.2l0.3,3.1H131.8L131.8,43.3z"/>
<polygon fill="#808083" points="143,49.6 154.7,49.6 155.5,44.1 150.2,44.1 152.1,32.2 145.8,32.2 143,49.6 "/>
<path fill-rule="evenodd" clip-rule="evenodd" fill="#808083" d="M162.4,47.5h4.8l0.2,2.2h6.7l-3.5-17.4h-7l-8.8,17.4h6.7
	L162.4,47.5L162.4,47.5z M164.1,43.3l2-5.3h0.2c0,0.7,0,1.5,0.1,2.2l0.3,3.1H164.1L164.1,43.3z"/>
<path fill="#808083" d="M188.7,32.7c-1.3-0.5-2.7-0.7-4.1-0.7c-5.1,0-9.7,4.1-10.5,9.1c-0.8,5,2.5,8.8,7.4,8.8
	c1.1,0,3.5-0.2,4.6-0.7l1.2-6.5c-1.2,1-2.4,1.6-3.9,1.6c-1.9,0-3.3-1.5-3-3.4c0.3-1.9,2.1-3.4,4-3.4c1.4,0,2.6,0.8,3.4,1.8
	L188.7,32.7L188.7,32.7z"/>
<polygon fill="#808083" points="188.5,49.6 194.6,49.6 195.5,43.6 199.4,43.6 198.4,49.6 204.5,49.6 207.3,32.2 201.2,32.2 
	200.3,38.1 196.4,38.1 197.3,32.2 191.2,32.2 188.5,49.6 "/>
<polygon fill="#808083" points="207.4,49.6 213.7,49.6 216.5,32.2 210.2,32.2 207.4,49.6 "/>
<path fill-rule="evenodd" clip-rule="evenodd" fill="#808083" d="M221.9,47.5h4.8l0.2,2.2h6.7l-3.5-17.4h-7l-8.8,17.4h6.7
	L221.9,47.5L221.9,47.5z M223.7,43.3l2-5.3h0.2c0,0.7,0,1.5,0.1,2.2l0.3,3.1H223.7L223.7,43.3z"/>
<path fill="#808083" d="M234.8,49.6h6l0.9-5.7c0.2-1.2,0.2-2.3,0.2-3.5h0.2l4.1,9.1h6l2.8-17.4h-6l-0.8,5.2c-0.2,1.5-0.2,3-0.2,4.4
	h-0.2l-4.1-9.6h-6.1L234.8,49.6L234.8,49.6z"/>
<path fill-rule="evenodd" clip-rule="evenodd" fill="#808083" d="M71.3,71.3h6.1l0.8-5.2h3.2c3.5,0,6.1-2.2,6.7-5.8
	c0.7-4.3-2-6.4-6-6.4h-8L71.3,71.3L71.3,71.3z M79.4,58.7H80c1,0,2.3,0.1,2.1,1.4c-0.2,1.4-1.5,1.6-2.6,1.6h-0.6L79.4,58.7
	L79.4,58.7z"/>
<path fill-rule="evenodd" clip-rule="evenodd" fill="#808083" d="M97.7,53.7c-5.3,0-10.2,3.6-11,9c-0.9,5.6,2.9,8.9,8.2,8.9
	c5.3,0,10.1-3.3,11-8.9C106.7,57.2,103,53.7,97.7,53.7L97.7,53.7z M96.8,59.4c2,0,3,1.5,2.7,3.4c-0.3,2-1.9,3.3-3.8,3.3
	c-1.9,0-3-1.4-2.7-3.3C93.3,60.9,94.8,59.4,96.8,59.4L96.8,59.4z"/>
<path fill="#808083" d="M105.1,53.9l3.3,17.4h5.4l2.8-6.8c0.3-0.9,0.5-1.7,0.7-2.6h0.2l0.5,9.5h5.5l8.9-17.4h-6.6l-2.9,7.3
	c-0.4,1-0.7,2.1-0.9,3.1h-0.1l-0.7-10.4h-4.8l-3,7.2c-0.4,1-0.8,2.1-1,3.2h-0.1l-0.5-10.4H105.1L105.1,53.9z"/>
<polygon fill="#808083" points="130.7,71.3 142.6,71.3 143.4,66.6 137.8,66.6 138.1,64.9 143,64.9 143.7,60.3 138.8,60.3 
	139.1,58.7 144.4,58.7 145.2,53.9 133.5,53.9 130.7,71.3 "/>
<path fill-rule="evenodd" clip-rule="evenodd" fill="#808083" d="M144.2,71.3h6.2l0.9-5.6h0.1l1.9,5.6h7.3l-2.9-5.6
	c-0.3-0.5-0.6-0.8-0.9-1l0-0.1c2.5-0.8,3.7-1.9,4.1-4.5c0.7-4.4-2.4-6-6.3-6H147L144.2,71.3L144.2,71.3z M152.4,58.7h0.5
	c1.1,0,2,0.2,1.8,1.5c-0.2,1.3-1.3,1.5-2.3,1.5h-0.4L152.4,58.7L152.4,58.7z"/>
</svg>
