<?xml version="1.0" encoding="utf-8"?>
<!-- Generator: Adobe Illustrator 17.1.0, SVG Export Plug-In . SVG Version: 6.00 Build 0)  -->
<!DOCTYPE svg PUBLIC "-//W3C//DTD SVG 1.1//EN" "http://www.w3.org/Graphics/SVG/1.1/DTD/svg11.dtd">
<svg version="1.1" id="Layer_1" xmlns="http://www.w3.org/2000/svg" xmlns:xlink="http://www.w3.org/1999/xlink" x="0px" y="0px"
	 viewBox="0 0 270 90" enable-background="new 0 0 270 90" xml:space="preserve">
<polygon fill="#FFFFFF" points="12.1,7 57.8,7 55.1,26 54.7,29 51.6,52.4 5.7,52.4 12.1,7 "/>
<polygon fill="#E82629" points="14.5,36.1 18.9,36.1 19.1,38.2 36.6,38.2 37.2,33.7 31.8,33.7 32.1,32 37.4,32 38,27.3 32.7,27.3 
	32.9,25.5 38.2,25.5 38.8,20.9 27.2,20.9 25.1,36.5 22.8,20.9 14.9,20.9 8,36.2 12.1,7 57.8,7 55.1,26 55,25.3 54.8,24.7 54.6,24.3 
	54.4,23.9 54.1,23.4 53.8,23.1 53.5,22.7 53,22.3 52.5,22 52,21.7 51.4,21.4 50.7,21.2 50.1,21 49.3,20.9 49,20.9 40.7,20.9 
	38.4,38.2 44.8,38.2 45.4,33.1 49.2,33.1 49.6,33.1 50.7,32.9 51.3,32.7 51.9,32.4 52.4,32.1 52.9,31.8 53.4,31.3 53.7,31 
	54.1,30.4 54.3,30 54.5,29.6 54.7,29 51.6,52.4 5.7,52.4 7.7,38.2 13.7,38.2 14.5,36.1 "/>
<polygon fill="#E82629" points="46.4,25.5 46,28.7 47.6,28.7 47.9,28.6 48.1,28.5 48.3,28.4 48.5,28.2 48.7,27.9 48.9,27.6 
	48.9,27.2 49,26.9 48.9,26.5 48.8,26.2 48.5,25.8 48.3,25.6 47.9,25.5 47.7,25.5 46.4,25.5 "/>
<polygon fill="#E82629" points="16,32.1 18.6,32.1 18.2,26.4 16,32.1 "/>
<polygon fill-rule="evenodd" clip-rule="evenodd" fill="#E82629" points="46.5,25.5 46,28.7 47.6,28.7 47.9,28.6 48.1,28.5 
	48.3,28.4 48.5,28.2 48.7,27.9 48.9,27.6 49,27.2 49,26.9 48.9,26.5 48.8,26.2 48.5,25.8 48.3,25.6 47.9,25.5 47.7,25.5 "/>
<polygon fill-rule="evenodd" clip-rule="evenodd" fill="#E82629" points="16,32.1 18.6,32.1 18.2,26.4 "/>
<path fill-rule="evenodd" clip-rule="evenodd" fill="#808083" d="M85.6,64.1c-5.3,0-10.2,3.5-11,9c-0.9,5.6,2.9,8.9,8.2,8.9
	c5.3,0,10.1-3.3,11-8.9C94.7,67.7,90.9,64.1,85.6,64.1z M84.7,69.9c2,0,3,1.5,2.7,3.4c-0.3,2-1.9,3.3-3.8,3.3c-1.9,0-3-1.4-2.7-3.3
	C81.2,71.4,82.7,69.9,84.7,69.9z"/>
<path fill-rule="evenodd" clip-rule="evenodd" fill="#808083" d="M154.1,70.1c1.6,0,2.9-1.3,2.9-2.9c0-1.6-1.3-2.9-2.9-2.9
	c-1.6,0-2.9,1.3-2.9,2.9C151.3,68.9,152.5,70.1,154.1,70.1z M154.1,64.9c1.3,0,2.4,1,2.4,2.4c0,1.3-1.1,2.4-2.4,2.4
	c-1.3,0-2.4-1-2.4-2.4C151.7,65.9,152.8,64.9,154.1,64.9z M154.6,67.4c0.4,0,0.9-0.2,0.9-0.9c0-0.7-0.5-0.9-1.1-0.9H153v3.2h0.5
	v-1.5h0.6l0.8,1.5h0.5L154.6,67.4z M154.3,66.2c0.4,0,0.7,0,0.7,0.4c0,0.4-0.6,0.4-1,0.4h-0.5v-0.8H154.3z"/>
<path fill-rule="evenodd" clip-rule="evenodd" fill="#808083" d="M61.3,60h6.1l1.9-7.4c0.2-0.7,0.3-1.4,0.5-2.1H70
	c-0.1,0.7,0,1.4,0,2.2l1.1,7.3h3.7l3.7-7.8c0.3-0.6,0.5-1.1,0.7-1.7h0.1L78.7,60h6.1l-0.1-17.3h-6.4l-3,6.8
	c-0.3,0.7-0.6,1.5-0.8,2.3h-0.2l-0.9-9.1h-6.5L61.3,60z"/>
<polygon fill-rule="evenodd" clip-rule="evenodd" fill="#808083" points="86.4,60 92.7,60 95.5,42.7 89.2,42.7 "/>
<path fill-rule="evenodd" clip-rule="evenodd" fill="#808083" d="M110.4,43.1c-1.3-0.5-2.7-0.7-4.1-0.7c-5.1,0-9.7,4-10.5,9.1
	c-0.8,4.9,2.5,8.8,7.4,8.8c1.1,0,3.5-0.2,4.6-0.7l1.2-6.5c-1.2,1-2.4,1.6-3.9,1.6c-1.9,0-3.3-1.5-3-3.4c0.3-1.9,2.1-3.4,4-3.4
	c1.4,0,2.6,0.8,3.4,1.7L110.4,43.1z"/>
<polygon fill-rule="evenodd" clip-rule="evenodd" fill="#808083" points="110.2,60 116.3,60 117.2,54 121.1,54 120.1,60 126.2,60 
	129,42.7 122.9,42.7 122,48.5 118.1,48.5 119,42.7 113,42.7 "/>
<polygon fill-rule="evenodd" clip-rule="evenodd" fill="#808083" points="128.5,60 134.8,60 137.6,42.7 131.3,42.7 "/>
<path fill-rule="evenodd" clip-rule="evenodd" fill="#808083" d="M147.3,49.8l-0.6,4.1h2.9c-0.5,1.1-1.8,1.5-2.8,1.5
	c-2,0-3-1.8-2.7-3.7c0.3-2.1,1.9-4,4.1-4c1,0,1.8,0.5,2.2,1.3l6.2-2.2c-0.9-3-4.8-4.5-7.8-4.5c-5.5,0-10.2,3.4-11,9.1
	c-0.9,5.6,2.9,8.8,8.2,8.8c2.7,0,5.7-1.1,7.8-3.1c2.4-2.2,2.8-4.6,3.3-7.4H147.3z"/>
<path fill-rule="evenodd" clip-rule="evenodd" fill="#808083" d="M161.9,57.8h4.8l0.2,2.2h6.7l-3.4-17.3h-7L154.3,60h6.7L161.9,57.8
	z M163.6,53.7l2-5.3h0.2c0,0.7,0,1.5,0.1,2.2l0.3,3.1H163.6z"/>
<path fill-rule="evenodd" clip-rule="evenodd" fill="#808083" d="M174.2,60h6l0.9-5.6c0.2-1.1,0.2-2.3,0.2-3.5h0.2l4.1,9.1h6
	l2.7-17.3h-6l-0.8,5.2c-0.2,1.5-0.2,3-0.2,4.4h-0.2l-4.1-9.6h-6L174.2,60z"/>
<path fill-rule="evenodd" clip-rule="evenodd" fill="#808083" d="M59.2,81.8h6.1l0.8-5.2h3.2c3.5,0,6.1-2.2,6.6-5.7
	c0.7-4.3-2-6.4-6-6.4h-8L59.2,81.8z M67.2,69.2h0.6c1,0,2.3,0.1,2.1,1.4c-0.2,1.4-1.4,1.6-2.6,1.6h-0.6L67.2,69.2z"/>
<path fill-rule="evenodd" clip-rule="evenodd" fill="#808083" d="M93.1,64.4l3.3,17.3h5.4l2.8-6.8c0.3-0.9,0.5-1.7,0.7-2.6h0.2
	l0.5,9.4h5.5l8.9-17.3h-6.6l-2.9,7.3c-0.4,1-0.7,2-0.9,3.1h-0.1l-0.7-10.3h-4.8l-3,7.2c-0.4,1-0.8,2.1-1,3.2h-0.1l-0.5-10.3H93.1z"
	/>
<polygon fill-rule="evenodd" clip-rule="evenodd" fill="#808083" points="118.3,81.8 130.1,81.8 130.9,77 125.4,77 125.7,75.3 
	130.5,75.3 131.2,70.8 126.4,70.8 126.6,69.2 132,69.2 132.7,64.4 121,64.4 "/>
<path fill-rule="evenodd" clip-rule="evenodd" fill="#808083" d="M131.9,81.8h6.2l0.9-5.6h0.1l1.9,5.6h7.3l-2.9-5.6
	c-0.3-0.5-0.6-0.8-0.9-1l0-0.1c2.5-0.8,3.7-1.9,4.1-4.5c0.7-4.4-2.4-6-6.3-6h-7.6L131.9,81.8z M140,69.2h0.5c1.1,0,2,0.2,1.8,1.5
	c-0.2,1.3-1.3,1.4-2.3,1.4h-0.4L140,69.2z"/>
<polygon fill-rule="evenodd" clip-rule="evenodd" fill="#808083" points="65.3,38.2 71.6,38.2 74.4,20.9 68.1,20.9 "/>
<path fill-rule="evenodd" clip-rule="evenodd" fill="#808083" d="M74.5,38.2h6l0.9-5.6c0.2-1.1,0.2-2.3,0.2-3.5h0.2l4.1,9.1h6
	l2.7-17.3h-6l-0.8,5.2c-0.2,1.5-0.2,3-0.2,4.4h-0.2l-4.1-9.6h-6L74.5,38.2z"/>
<path fill-rule="evenodd" clip-rule="evenodd" fill="#808083" d="M94.9,38.2h8c5.1,0,9.2-3.3,10-8.4c1-6.4-3-8.9-8.9-8.9h-6.4
	L94.9,38.2z M103.1,26.3h0.4c2.3,0,3.5,1,3.2,3.5c-0.4,2.3-2.1,3.2-4.2,3.2H102L103.1,26.3z"/>
<polygon fill-rule="evenodd" clip-rule="evenodd" fill="#808083" points="113.3,38.2 119.6,38.2 122.4,20.9 116.1,20.9 "/>
<path fill-rule="evenodd" clip-rule="evenodd" fill="#808083" d="M128.1,36.1h4.8l0.2,2.2h6.7l-3.4-17.3h-7l-8.8,17.3h6.7
	L128.1,36.1z M129.9,32l2-5.3h0.2c0,0.7,0,1.5,0.1,2.2l0.3,3.1H129.9z"/>
<path fill-rule="evenodd" clip-rule="evenodd" fill="#808083" d="M140.4,38.2h6l0.9-5.6c0.2-1.1,0.2-2.3,0.2-3.5h0.2l4.1,9.1h6
	l2.7-17.3h-6l-0.8,5.2c-0.2,1.5-0.2,3-0.2,4.4h-0.2l-4.1-9.6h-6L140.4,38.2z"/>
<path fill-rule="evenodd" clip-rule="evenodd" fill="#808083" d="M165.9,36.1h4.8l0.2,2.2h6.7l-3.4-17.3h-7l-8.8,17.3h6.7
	L165.9,36.1z M167.7,32l2-5.3h0.2c0,0.7,0,1.5,0.1,2.2l0.3,3.1H167.7z"/>
</svg>
