<?xml version="1.0" encoding="utf-8"?>
<!-- Generator: Adobe Illustrator 17.1.0, SVG Export Plug-In . SVG Version: 6.00 Build 0)  -->
<!DOCTYPE svg PUBLIC "-//W3C//DTD SVG 1.1//EN" "http://www.w3.org/Graphics/SVG/1.1/DTD/svg11.dtd">
<svg version="1.1" id="Layer_1" xmlns="http://www.w3.org/2000/svg" xmlns:xlink="http://www.w3.org/1999/xlink" x="0px" y="0px"
	 viewBox="0 0 670 195" enable-background="new 0 0 670 195" xml:space="preserve">
<polygon fill="#FFFFFF" points="18,2 132.1,2 125.5,49.6 124.5,57.2 116.8,115.5 2,115.5 18,2 "/>
<polygon fill="#E82629" points="23.9,74.9 35,74.9 35.4,80.2 79.2,80.2 80.6,68.8 67.3,68.8 67.9,64.6 81.2,64.6 82.7,53 69.4,53 
	70,48.3 83.3,48.3 84.8,36.9 55.7,36.9 50.6,75.8 44.8,36.9 25,36.9 7.7,75.1 18,2 132.1,2 125.4,49.6 125.2,47.9 124.8,46.4 
	124.3,45.4 123.7,44.3 123,43.2 122.3,42.3 121.4,41.4 120.3,40.4 118.9,39.5 117.6,38.8 116.3,38.1 114.6,37.5 113,37.2 111,36.9 
	110.2,36.9 89.4,36.9 83.7,80.2 99.7,80.2 101.3,67.4 110.7,67.4 111.8,67.3 114.4,66.9 115.9,66.4 117.4,65.7 118.6,65 119.9,64.1 
	121.3,62.8 122,62 123,60.6 123.6,59.6 124,58.5 124.5,57.2 116.8,115.5 2,115.5 7,80.2 21.9,80.2 23.9,74.9 "/>
<polygon fill="#E82629" points="103.8,48.4 102.8,56.3 106.7,56.3 107.4,56.1 107.9,55.9 108.5,55.6 109,55 109.5,54.4 109.9,53.6 
	110.1,52.7 110.2,51.8 110,51 109.7,50 109,49.1 108.4,48.7 107.6,48.4 107,48.4 103.8,48.4 "/>
<polygon fill="#E82629" points="27.7,64.8 34.2,64.8 33.1,50.6 27.7,64.8 "/>
<polygon fill-rule="evenodd" clip-rule="evenodd" fill="#E82629" points="103.9,48.4 102.8,56.3 106.7,56.3 107.4,56.1 107.9,55.9 
	108.5,55.6 109,55 109.5,54.4 109.9,53.6 110.1,52.7 110.2,51.8 110.1,50.9 109.8,50 109.1,49.1 108.4,48.7 107.6,48.4 107,48.4 "/>
<polygon fill-rule="evenodd" clip-rule="evenodd" fill="#E82629" points="27.7,64.8 34.2,64.8 33.1,50.5 "/>
<path fill-rule="evenodd" clip-rule="evenodd" fill="#808083" d="M201.8,145c-13.2,0-25.4,8.9-27.5,22.5
	c-2.2,13.9,7.2,22.2,20.5,22.2c13.2,0,25.3-8.3,27.5-22.2C224.4,153.8,215,145,201.8,145z M199.5,159.2c5,0,7.5,3.9,6.8,8.5
	c-0.8,4.9-4.7,8.3-9.4,8.3c-4.8,0-7.6-3.4-6.8-8.3C190.8,163.1,194.5,159.2,199.5,159.2z"/>
<path fill-rule="evenodd" clip-rule="evenodd" fill="#808083" d="M373,159.9c4,0,7.2-3.2,7.2-7.1c0-4-3.2-7.1-7.2-7.1
	c-4,0-7.2,3.2-7.2,7.1C365.9,156.8,369,159.9,373,159.9z M373,146.8c3.3,0,6,2.6,6,6c0,3.4-2.7,6-6,6c-3.3,0-6-2.6-6-6
	C367,149.4,369.8,146.8,373,146.8z M374.3,153.2c1.1,0,2.1-0.6,2.1-2.2c0-1.7-1.3-2.1-2.8-2.1h-3.4v8h1.2v-3.7h1.5l2.1,3.7h1.3
	L374.3,153.2z M373.4,150c1,0,1.8,0.1,1.8,1.1c0,1.1-1.5,0.9-2.6,0.9h-1.2v-2H373.4z"/>
<path fill-rule="evenodd" clip-rule="evenodd" fill="#808083" d="M141,134.6h15.2l4.8-18.5c0.4-1.7,0.8-3.5,1.2-5.2h0.5
	c-0.2,1.8,0,3.6,0.1,5.4l2.7,18.3h9.2l9.3-19.4c0.7-1.4,1.2-2.9,1.7-4.3h0.3l-1.6,23.7h15.2l-0.3-43.4h-16l-7.6,17
	c-0.8,1.8-1.4,3.9-2,5.7h-0.4l-2.4-22.8h-16.2L141,134.6z"/>
<polygon fill-rule="evenodd" clip-rule="evenodd" fill="#808083" points="203.8,134.6 219.5,134.6 226.4,91.2 210.7,91.2 "/>
<path fill-rule="evenodd" clip-rule="evenodd" fill="#808083" d="M263.6,92.3c-3.2-1.2-6.7-1.8-10.3-1.8
	c-12.7,0-24.3,10.1-26.3,22.8c-2,12.4,6.2,22,18.5,22c2.8,0,8.8-0.5,11.5-1.7l3-16.2c-2.9,2.5-6,4-9.7,4c-4.7,0-8.2-3.7-7.5-8.5
	c0.7-4.7,5.2-8.5,9.9-8.5c3.6,0,6.4,2,8.6,4.4L263.6,92.3z"/>
<polygon fill-rule="evenodd" clip-rule="evenodd" fill="#808083" points="263.3,134.6 278.4,134.6 280.8,119.5 290.5,119.5 
	288.1,134.6 303.3,134.6 310.1,91.2 295,91.2 292.6,105.8 283,105.8 285.3,91.2 270.1,91.2 "/>
<polygon fill-rule="evenodd" clip-rule="evenodd" fill="#808083" points="309.1,134.6 324.8,134.6 331.7,91.2 315.9,91.2 "/>
<path fill-rule="evenodd" clip-rule="evenodd" fill="#808083" d="M356.1,109.1l-1.6,10.2h7.1c-1.2,2.6-4.5,3.8-7,3.8
	c-5.1,0-7.4-4.5-6.6-9.3c0.8-5.2,4.7-10.1,10.3-10.1c2.5,0,4.6,1.1,5.5,3.3l15.6-5.4c-2.2-7.4-12-11.2-19.5-11.2
	c-13.6,0-25.4,8.5-27.6,22.7c-2.2,13.9,7.2,22.1,20.4,22.1c6.7,0,14.2-2.7,19.6-7.7c6-5.5,6.9-11.4,8.2-18.5H356.1z"/>
<path fill-rule="evenodd" clip-rule="evenodd" fill="#808083" d="M392.4,129.2h11.9l0.6,5.4h16.7l-8.6-43.4h-17.4l-21.9,43.4h16.7
	L392.4,129.2z M396.8,118.9l5-13.2h0.6c0,1.8,0,3.7,0.2,5.6l0.6,7.6H396.8z"/>
<path fill-rule="evenodd" clip-rule="evenodd" fill="#808083" d="M423.1,134.6h15.1l2.2-14.1c0.5-2.9,0.4-5.7,0.4-8.7h0.5l10.3,22.8
	h15.1l6.9-43.4h-15.1l-2.1,13c-0.6,3.7-0.5,7.4-0.4,11h-0.5l-10.3-24H430L423.1,134.6z"/>
<path fill-rule="evenodd" clip-rule="evenodd" fill="#808083" d="M135.6,189h15.2l2.1-13.1h8c8.8,0,15.2-5.5,16.6-14.4
	c1.7-10.8-5-15.9-15.1-15.9h-20L135.6,189z M155.8,157.5h1.5c2.6,0,5.8,0.2,5.2,3.6c-0.6,3.5-3.6,4-6.4,4h-1.6L155.8,157.5z"/>
<path fill-rule="evenodd" clip-rule="evenodd" fill="#808083" d="M220.6,145.7l8.3,43.4h13.4l7.1-17c0.9-2.1,1.3-4.3,1.8-6.6h0.5
	l1.2,23.6h13.7l22.2-43.4h-16.4l-7.3,18.2c-1,2.5-1.7,5.1-2.3,7.6h-0.3l-1.8-25.9h-12.1l-7.4,17.9c-1.1,2.6-1.9,5.3-2.6,8h-0.3
	l-1.4-25.9H220.6z"/>
<polygon fill-rule="evenodd" clip-rule="evenodd" fill="#808083" points="283.5,189 313.1,189 315,177.2 301.2,177.2 301.9,172.9 
	314,172.9 315.8,161.6 303.7,161.6 304.3,157.5 317.6,157.5 319.5,145.7 290.3,145.7 "/>
<path fill-rule="evenodd" clip-rule="evenodd" fill="#808083" d="M317.4,189h15.4l2.2-13.9h0.3L340,189h18.2l-7.2-14.1
	c-0.7-1.3-1.5-2-2.2-2.6l0.1-0.3c6.2-2,9.1-4.7,10.2-11.3c1.7-10.9-5.9-15.1-15.7-15.1h-19L317.4,189z M337.8,157.5h1.2
	c2.7,0,5,0.4,4.5,3.7c-0.5,3.2-3.2,3.6-5.7,3.6h-1.1L337.8,157.5z"/>
<polygon fill-rule="evenodd" clip-rule="evenodd" fill="#808083" points="151.1,80.2 166.8,80.2 173.7,36.8 157.9,36.8 "/>
<path fill-rule="evenodd" clip-rule="evenodd" fill="#808083" d="M174.1,80.2h15.1l2.2-14.1c0.5-2.9,0.4-5.7,0.4-8.7h0.5l10.3,22.8
	h15.1l6.9-43.4h-15.1l-2.1,13c-0.6,3.7-0.5,7.4-0.4,11h-0.5l-10.3-24h-15.1L174.1,80.2z"/>
<path fill-rule="evenodd" clip-rule="evenodd" fill="#808083" d="M224.9,80.2h20c12.7,0,23.1-8.2,25.1-21
	c2.5-15.9-7.6-22.3-22.2-22.3h-16L224.9,80.2z M245.4,50.4h1c5.7,0,8.8,2.6,7.9,8.7c-0.9,5.7-5.3,8.1-10.5,8.1h-1L245.4,50.4z"/>
<polygon fill-rule="evenodd" clip-rule="evenodd" fill="#808083" points="271,80.2 286.8,80.2 293.6,36.8 277.9,36.8 "/>
<path fill-rule="evenodd" clip-rule="evenodd" fill="#808083" d="M307.9,74.8h11.9l0.6,5.4h16.7l-8.6-43.4H311l-21.9,43.4h16.7
	L307.9,74.8z M312.4,64.5l5-13.2h0.6c0,1.8,0,3.7,0.2,5.6l0.6,7.6H312.4z"/>
<path fill-rule="evenodd" clip-rule="evenodd" fill="#808083" d="M338.6,80.2h15.1l2.2-14.1c0.5-2.9,0.4-5.7,0.4-8.7h0.5l10.3,22.8
	h15.1l6.9-43.4h-15.1l-2.1,13c-0.6,3.7-0.5,7.4-0.4,11H371l-10.3-24h-15.1L338.6,80.2z"/>
<path fill-rule="evenodd" clip-rule="evenodd" fill="#808083" d="M402.6,74.8h11.9l0.6,5.4h16.7l-8.6-43.4h-17.4l-21.9,43.4h16.7
	L402.6,74.8z M407,64.5l5-13.2h0.6c0,1.8,0,3.7,0.2,5.6l0.6,7.6H407z"/>
</svg>
