<?xml version="1.0" encoding="utf-8"?>
<!-- Generator: Adobe Illustrator 17.1.0, SVG Export Plug-In . SVG Version: 6.00 Build 0)  -->
<!DOCTYPE svg PUBLIC "-//W3C//DTD SVG 1.1//EN" "http://www.w3.org/Graphics/SVG/1.1/DTD/svg11.dtd">
<svg version="1.1" id="Layer_1" xmlns="http://www.w3.org/2000/svg" xmlns:xlink="http://www.w3.org/1999/xlink" x="0px" y="0px"
	 viewBox="0 0 670 195" enable-background="new 0 0 670 195" xml:space="preserve">
<g>
	<g>
		<polygon fill="#FFFFFF" points="18,2 132.1,2 125.5,49.6 124.5,57.2 116.8,115.5 2,115.5 18,2 		"/>
		<polygon fill="#EB2627" points="23.9,74.9 35,74.9 35.4,80.2 79.2,80.2 80.6,68.8 67.3,68.8 67.9,64.6 81.2,64.6 82.7,53 69.4,53 
			70,48.3 83.3,48.3 84.8,36.9 55.7,36.9 50.6,75.8 44.8,36.9 25,36.9 7.7,75.1 18,2 132.1,2 125.4,49.6 125.2,47.9 124.8,46.4 
			124.3,45.4 123.7,44.3 123,43.2 122.3,42.3 121.4,41.4 120.3,40.4 118.9,39.5 117.6,38.8 116.3,38.1 114.6,37.5 113,37.2 
			111,36.9 110.2,36.9 89.4,36.9 83.7,80.2 99.7,80.2 101.3,67.4 110.7,67.4 111.8,67.3 114.4,66.9 115.9,66.4 117.4,65.7 118.6,65 
			119.9,64.1 121.3,62.8 122,62 123,60.6 123.6,59.6 124,58.5 124.5,57.2 116.8,115.5 2,115.5 7,80.2 21.9,80.2 23.9,74.9 		"/>
		<polygon fill="#EB2627" points="103.8,48.4 102.8,56.3 106.7,56.3 107.4,56.1 107.9,55.9 108.5,55.6 109,55 109.5,54.4 
			109.9,53.6 110.1,52.7 110.2,51.8 110,51 109.7,50 109,49.1 108.4,48.7 107.6,48.4 107,48.4 103.8,48.4 		"/>
		<polygon fill="#EB2627" points="27.7,64.8 34.2,64.8 33.1,50.6 27.7,64.8 		"/>
	</g>
	<path fill-rule="evenodd" clip-rule="evenodd" fill="#7F8081" d="M142.8,134.5H158l2.1-13h8c8.8,0,15.2-5.5,16.6-14.4
		c1.7-10.7-4.9-15.9-15.1-15.9h-19.9L142.8,134.5L142.8,134.5z M162.9,103h1.5c2.6,0,5.8,0.2,5.2,3.6c-0.6,3.5-3.6,4-6.4,4h-1.6
		L162.9,103L162.9,103z"/>
	<path fill-rule="evenodd" clip-rule="evenodd" fill="#7F8081" d="M208.5,90.5c-13.1,0-25.3,8.8-27.5,22.5
		c-2.2,13.9,7.2,22.2,20.4,22.2c13.2,0,25.3-8.3,27.5-22.2C231,99.3,221.6,90.5,208.5,90.5L208.5,90.5z M206.2,104.7
		c5,0,7.5,3.8,6.8,8.4c-0.8,4.9-4.6,8.3-9.4,8.3c-4.8,0-7.6-3.4-6.8-8.3C197.5,108.6,201.2,104.7,206.2,104.7L206.2,104.7z"/>
	<path fill="#7F8081" d="M226.9,91.2l8.3,43.3h13.4l7.1-17c0.9-2.1,1.3-4.3,1.8-6.5h0.5l1.2,23.5h13.7l22.1-43.3h-16.4l-7.2,18.2
		c-1,2.5-1.7,5.1-2.3,7.6h-0.3L267,91.2h-12.1l-7.4,17.9c-1.1,2.6-1.9,5.3-2.6,8h-0.3l-1.4-25.8H226.9L226.9,91.2z"/>
	<polygon fill="#7F8081" points="290.7,134.5 320.3,134.5 322.2,122.7 308.5,122.7 309.1,118.4 321.2,118.4 323,107.2 310.9,107.2 
		311.6,103 324.8,103 326.7,91.2 297.6,91.2 290.7,134.5 	"/>
	<path fill-rule="evenodd" clip-rule="evenodd" fill="#7F8081" d="M324.3,134.5h15.4l2.2-13.9h0.3l4.7,13.9H365l-7.2-14.1
		c-0.7-1.3-1.5-2-2.2-2.6l0.1-0.3c6.2-2,9.1-4.7,10.2-11.3c1.7-10.9-5.9-15-15.6-15h-19L324.3,134.5L324.3,134.5z M344.7,103h1.2
		c2.7,0,5,0.4,4.5,3.7c-0.5,3.2-3.2,3.6-5.7,3.6h-1.1L344.7,103L344.7,103z"/>
	<path fill="#7F8081" d="M150.8,80.1h15.3l2.5-18.1h0.3c0.1,1.8,1.2,3.4,1.8,5.1l5.4,13.1h18.3L183,57.8l16.9-21.1h-17.2l-9.8,13.9
		c-1.1,1.5-2.3,3.1-3,4.9h-0.3l3.3-18.8h-15.3L150.8,80.1L150.8,80.1z"/>
	<polygon fill="#7F8081" points="195.8,80.1 225.4,80.1 227.3,68.2 213.6,68.2 214.2,64 226.3,64 228.1,52.7 216,52.7 216.7,48.6 
		229.9,48.6 231.8,36.8 202.7,36.8 195.8,80.1 	"/>
	<path fill="#7F8081" d="M231.6,80.1h15l2.2-14.1c0.5-2.9,0.4-5.7,0.4-8.7h0.5L260,80.1h15l6.9-43.3h-15l-2.1,13
		c-0.6,3.7-0.5,7.4-0.4,11h-0.5l-10.3-24h-15.1L231.6,80.1L231.6,80.1z"/>
	<polygon fill="#7F8081" points="283.6,50.8 292.3,50.4 287.6,80.1 303.3,80.1 308,50.4 316.6,50.8 318.8,36.8 285.8,36.8 
		283.6,50.8 	"/>
	<path fill="#7F8081" d="M347.1,36.8l-3.8,24.1c-0.5,3.4-1.1,6.4-5.3,6.4s-3.8-3-3.3-6.4l3.8-24.1h-15.7l-4.1,25.6
		c-2,12.6,5,18.4,17.1,18.4c12.1,0,20.9-5.7,22.9-18.4l4.1-25.6H347.1L347.1,36.8z"/>
	<path fill="#7F8081" d="M398.2,37.9c-3.1-1.1-6.7-1.8-10.3-1.8c-12.7,0-24.2,10.1-26.2,22.7c-2,12.3,6.2,21.9,18.5,21.9
		c2.8,0,8.7-0.5,11.5-1.7l3-16.2c-2.9,2.5-6,4-9.6,4c-4.7,0-8.2-3.7-7.4-8.4c0.7-4.7,5.2-8.4,9.9-8.4c3.6,0,6.4,2,8.5,4.4
		L398.2,37.9L398.2,37.9z"/>
	<path fill="#7F8081" d="M396.4,80.1h15.3l2.5-18.1h0.3c0.1,1.8,1.2,3.4,1.8,5.1l5.4,13.1h18.3l-11.5-22.2l16.9-21.1h-17.2
		l-9.8,13.9c-1.1,1.5-2.3,3.1-3,4.9h-0.3l3.3-18.8h-15.3L396.4,80.1L396.4,80.1z"/>
	<path fill="#7F8081" d="M441.5,36.8l11.2,24.6l-3,18.7h15.4l3-18.7l18.7-24.6h-17.7l-4.2,7.2c-0.8,1.3-1.4,2.7-2.1,4.1h-0.5
		l-3-11.3H441.5L441.5,36.8z"/>
	<path fill-rule="evenodd" clip-rule="evenodd" fill="#7F8081" d="M381.7,105.4c4,0,7.1-3.1,7.1-7.1c0-4-3.1-7.1-7.1-7.1
		c-4,0-7.1,3.1-7.1,7.1C374.6,102.3,377.7,105.4,381.7,105.4L381.7,105.4z M381.7,92.3c3.3,0,6,2.6,6,5.9c0,3.3-2.7,5.9-6,5.9
		c-3.3,0-6-2.6-6-5.9C375.7,94.9,378.5,92.3,381.7,92.3L381.7,92.3z M382.9,98.7c1.1,0,2.1-0.6,2.1-2.2c0-1.7-1.3-2.1-2.7-2.1H379v8
		h1.2v-3.7h1.5l2,3.7h1.3L382.9,98.7L382.9,98.7z M382.1,95.5c1,0,1.8,0.1,1.8,1.1c0,1.1-1.5,0.9-2.6,0.9h-1.2v-2H382.1L382.1,95.5z
		"/>
</g>
</svg>
