<?xml version="1.0" encoding="utf-8"?>
<!-- Generator: Adobe Illustrator 17.1.0, SVG Export Plug-In . SVG Version: 6.00 Build 0)  -->
<!DOCTYPE svg PUBLIC "-//W3C//DTD SVG 1.1//EN" "http://www.w3.org/Graphics/SVG/1.1/DTD/svg11.dtd">
<svg version="1.1" id="kentucky_logo" xmlns="http://www.w3.org/2000/svg" xmlns:xlink="http://www.w3.org/1999/xlink" x="0px" y="0px"
	 viewBox="0 0 270 90" enable-background="new 0 0 270 90" xml:space="preserve">
<g>
	<g>
		<polygon fill="#FFFFFF" points="15.2,9.8 75.6,9.8 72.1,35 71.5,39 67.5,69.8 6.7,69.8 15.2,9.8 		"/>
		<polygon fill="#EB2627" points="18.3,48.4 24.2,48.4 24.4,51.1 47.6,51.1 48.3,45.1 41.3,45.1 41.6,42.9 48.6,42.9 49.4,36.7 
			42.4,36.7 42.7,34.3 49.7,34.3 50.5,28.2 35.1,28.2 32.4,48.8 29.4,28.2 18.9,28.2 9.7,48.4 15.2,9.8 75.6,9.8 72,35 71.9,34 
			71.7,33.3 71.5,32.7 71.1,32.1 70.7,31.6 70.4,31.1 69.9,30.6 69.3,30.1 68.6,29.6 67.9,29.2 67.2,28.9 66.3,28.6 65.5,28.4 
			64.4,28.2 64,28.2 53,28.2 50,51.1 58.4,51.1 59.3,44.4 64.2,44.4 64.8,44.3 66.2,44.1 67,43.8 67.8,43.5 68.4,43.1 69.1,42.6 
			69.8,42 70.2,41.5 70.7,40.8 71.1,40.2 71.3,39.7 71.5,39 67.5,69.8 6.7,69.8 9.4,51.1 17.2,51.1 18.3,48.4 		"/>
		<polygon fill="#EB2627" points="60.6,34.3 60.1,38.5 62.1,38.5 62.5,38.4 62.8,38.3 63.1,38.1 63.3,37.8 63.6,37.5 63.8,37.1 
			63.9,36.6 64,36.1 63.9,35.7 63.7,35.2 63.4,34.7 63,34.5 62.6,34.3 62.3,34.3 60.6,34.3 		"/>
		<polygon fill="#EB2627" points="20.3,43 23.8,43 23.2,35.5 20.3,43 		"/>
	</g>
	<path fill-rule="evenodd" clip-rule="evenodd" fill="#7F8081" d="M81.2,79.9h8l1.1-6.9h4.3c4.6,0,8-2.9,8.8-7.6
		c0.9-5.7-2.6-8.4-8-8.4H84.9L81.2,79.9L81.2,79.9z M91.9,63.2h0.8c1.4,0,3.1,0.1,2.8,1.9c-0.3,1.9-1.9,2.1-3.4,2.1h-0.8L91.9,63.2
		L91.9,63.2z"/>
	<path fill-rule="evenodd" clip-rule="evenodd" fill="#7F8081" d="M116,56.6c-7,0-13.4,4.7-14.6,11.9c-1.2,7.4,3.8,11.8,10.8,11.8
		c7,0,13.4-4.4,14.5-11.8C127.9,61.3,123,56.6,116,56.6L116,56.6z M114.8,64.1c2.6,0,4,2,3.6,4.5c-0.4,2.6-2.5,4.4-5,4.4
		c-2.5,0-4-1.8-3.6-4.4C110.2,66.2,112.2,64.1,114.8,64.1L114.8,64.1z"/>
	<path fill="#7F8081" d="M125.7,57l4.4,22.9h7.1l3.7-9c0.5-1.1,0.7-2.3,1-3.5h0.3l0.6,12.5h7.3L161.8,57h-8.7l-3.8,9.6
		c-0.5,1.3-0.9,2.7-1.2,4h-0.2l-1-13.7h-6.4l-3.9,9.5c-0.6,1.4-1,2.8-1.4,4.2h-0.2L134.4,57H125.7L125.7,57z"/>
	<polygon fill="#7F8081" points="159.5,79.9 175.2,79.9 176.2,73.6 168.9,73.6 169.3,71.4 175.7,71.4 176.6,65.4 170.2,65.4 
		170.5,63.2 177.6,63.2 178.6,57 163.1,57 159.5,79.9 	"/>
	<path fill-rule="evenodd" clip-rule="evenodd" fill="#7F8081" d="M177.3,79.9h8.1l1.2-7.4h0.2l2.5,7.4h9.6l-3.8-7.4
		c-0.4-0.7-0.8-1-1.2-1.4l0-0.2c3.3-1,4.8-2.5,5.4-6c0.9-5.8-3.1-8-8.3-8h-10.1L177.3,79.9L177.3,79.9z M188.1,63.2h0.6
		c1.4,0,2.6,0.2,2.4,2c-0.3,1.7-1.7,1.9-3,1.9h-0.6L188.1,63.2L188.1,63.2z"/>
	<path fill="#7F8081" d="M85.5,51.1h8.1l1.3-9.6h0.2c0,0.9,0.6,1.8,1,2.7l2.9,6.9h9.7l-6.1-11.8l8.9-11.1h-9.1l-5.2,7.4
		c-0.6,0.8-1.2,1.6-1.6,2.6h-0.2l1.8-9.9h-8.1L85.5,51.1L85.5,51.1z"/>
	<polygon fill="#7F8081" points="109.3,51.1 124.9,51.1 125.9,44.8 118.7,44.8 119,42.6 125.4,42.6 126.4,36.6 120,36.6 120.3,34.4 
		127.3,34.4 128.3,28.2 112.9,28.2 109.3,51.1 	"/>
	<path fill="#7F8081" d="M128.2,51.1h8l1.2-7.4c0.2-1.5,0.2-3,0.2-4.6h0.2l5.4,12h8l3.6-22.9h-8l-1.1,6.9c-0.3,1.9-0.3,3.9-0.2,5.8
		h-0.2l-5.5-12.7h-8L128.2,51.1L128.2,51.1z"/>
	<polygon fill="#7F8081" points="155.7,35.6 160.3,35.4 157.9,51.1 166.2,51.1 168.7,35.4 173.2,35.6 174.4,28.2 156.9,28.2 
		155.7,35.6 	"/>
	<path fill="#7F8081" d="M189.3,28.2l-2,12.8c-0.3,1.8-0.6,3.4-2.8,3.4c-2.2,0-2-1.6-1.7-3.4l2-12.8h-8.3l-2.1,13.5
		c-1.1,6.7,2.7,9.7,9.1,9.7c6.4,0,11.1-3,12.1-9.7l2.1-13.5H189.3L189.3,28.2z"/>
	<path fill="#7F8081" d="M216.4,28.7c-1.7-0.6-3.6-0.9-5.4-0.9c-6.7,0-12.8,5.3-13.9,12c-1,6.5,3.3,11.6,9.8,11.6
		c1.5,0,4.6-0.3,6.1-0.9l1.6-8.6c-1.5,1.3-3.2,2.1-5.1,2.1c-2.5,0-4.3-1.9-3.9-4.5c0.4-2.5,2.7-4.5,5.2-4.5c1.9,0,3.4,1.1,4.5,2.3
		L216.4,28.7L216.4,28.7z"/>
	<path fill="#7F8081" d="M215.4,51.1h8.1l1.3-9.6h0.2c0,0.9,0.6,1.8,1,2.7l2.9,6.9h9.7l-6.1-11.8l8.9-11.1h-9.1l-5.2,7.4
		c-0.6,0.8-1.2,1.6-1.6,2.6h-0.2l1.8-9.9h-8.1L215.4,51.1L215.4,51.1z"/>
	<path fill="#7F8081" d="M239.3,28.2l5.9,13l-1.6,9.9h8.1l1.6-9.9l9.9-13h-9.4l-2.2,3.8c-0.4,0.7-0.7,1.4-1.1,2.2h-0.2l-1.6-6H239.3
		L239.3,28.2z"/>
	<path fill-rule="evenodd" clip-rule="evenodd" fill="#7F8081" d="M207.7,64.5c2.1,0,3.8-1.7,3.8-3.8c0-2.1-1.7-3.8-3.8-3.8
		c-2.1,0-3.8,1.7-3.8,3.8C203.9,62.8,205.6,64.5,207.7,64.5L207.7,64.5z M207.7,57.6c1.7,0,3.2,1.4,3.2,3.1c0,1.8-1.4,3.1-3.2,3.1
		c-1.7,0-3.2-1.4-3.2-3.1C204.5,58.9,205.9,57.6,207.7,57.6L207.7,57.6z M208.3,60.9c0.6,0,1.1-0.3,1.1-1.2c0-0.9-0.7-1.1-1.5-1.1
		h-1.8v4.2h0.6v-2h0.8l1.1,2h0.7L208.3,60.9L208.3,60.9z M207.9,59.2c0.5,0,1,0,1,0.6c0,0.6-0.8,0.5-1.4,0.5h-0.7v-1.1H207.9
		L207.9,59.2z"/>
</g>
</svg>
