<?xml version="1.0" encoding="utf-8"?>
<!-- Generator: Adobe Illustrator 17.1.0, SVG Export Plug-In . SVG Version: 6.00 Build 0)  -->
<!DOCTYPE svg PUBLIC "-//W3C//DTD SVG 1.1//EN" "http://www.w3.org/Graphics/SVG/1.1/DTD/svg11.dtd">
<svg version="1.1" id="pso_logo" xmlns="http://www.w3.org/2000/svg" xmlns:xlink="http://www.w3.org/1999/xlink" x="0px" y="0px"
	 viewBox="0 0 270 90" enable-background="new 0 0 270 90" xml:space="preserve">
<path fill-rule="evenodd" clip-rule="evenodd" fill="#808083" d="M160.4,64.5c-5.2,0-10.1,3.5-11,9c-0.9,5.5,2.9,8.9,8.1,8.9
	c5.3,0,10.1-3.3,11-8.9C169.4,68,165.6,64.5,160.4,64.5L160.4,64.5z M159.5,70.2c2,0,3,1.5,2.7,3.4c-0.3,2-1.9,3.3-3.8,3.3
	c-1.9,0-3-1.4-2.7-3.3C156,71.7,157.5,70.2,159.5,70.2L159.5,70.2z"/>
<path fill="#808083" d="M167.1,82h6.1l1.9-7.4c0.2-0.7,0.3-1.4,0.5-2.1h0.2c-0.1,0.7,0,1.4,0,2.2l1.1,7.3h3.7l3.7-7.7
	c0.3-0.5,0.5-1.1,0.7-1.7h0.1l-0.7,9.5h6.1l-0.1-17.3H184l-3,6.8c-0.3,0.7-0.6,1.5-0.8,2.3h-0.2l-0.9-9.1h-6.5L167.1,82L167.1,82z"
	/>
<path fill-rule="evenodd" clip-rule="evenodd" fill="#808083" d="M198.7,79.9h4.7l0.2,2.2h6.6l-3.4-17.3H200L191.2,82h6.6
	L198.7,79.9L198.7,79.9z M200.5,75.8l2-5.3h0.2c0,0.7,0,1.5,0.1,2.2l0.3,3H200.5L200.5,75.8z"/>
<path fill="#808083" d="M213.2,65.3c-0.2-0.4-0.5-0.6-1-0.6c-0.6,0-1.1,0.4-1.1,1c0,0.5,0.4,0.8,0.8,0.9l0.3,0.1
	c0.3,0.1,0.6,0.3,0.6,0.7c0,0.4-0.3,0.7-0.7,0.7c-0.4,0-0.7-0.3-0.7-0.7l-0.5,0.1c0.1,0.6,0.5,1,1.1,1c0.7,0,1.2-0.5,1.2-1.2
	c0-0.6-0.4-0.9-0.9-1.1l-0.3-0.1c-0.2-0.1-0.5-0.2-0.5-0.5c0-0.3,0.3-0.5,0.6-0.5c0.3,0,0.5,0.1,0.6,0.4L213.2,65.3L213.2,65.3z"/>
<polygon fill-rule="evenodd" clip-rule="evenodd" fill="#808083" points="215.6,68.7 216.7,66.2 216.7,66.2 217.1,68.6 217.6,68.6 
	216.8,64.8 215.6,67.7 214.3,64.8 213.5,68.6 214,68.6 214.4,66.2 214.4,66.2 215.6,68.7 "/>
<path fill="#808083" d="M78.2,43.5c-1.3-0.5-2.7-0.7-4.1-0.7c-5.1,0-9.7,4-10.5,9.1c-0.8,4.9,2.5,8.7,7.4,8.7c1.1,0,3.5-0.2,4.6-0.7
	l1.2-6.5c-1.2,1-2.4,1.6-3.8,1.6c-1.9,0-3.3-1.5-3-3.4c0.3-1.9,2.1-3.4,3.9-3.4c1.4,0,2.6,0.8,3.4,1.7L78.2,43.5L78.2,43.5z"/>
<path fill-rule="evenodd" clip-rule="evenodd" fill="#808083" d="M88.9,42.8c-5.2,0-10.1,3.5-11,9c-0.9,5.5,2.9,8.9,8.1,8.9
	c5.3,0,10.1-3.3,11-8.9C97.9,46.3,94.1,42.8,88.9,42.8L88.9,42.8z M88,48.5c2,0,3,1.5,2.7,3.4c-0.3,2-1.9,3.3-3.8,3.3
	s-3-1.4-2.7-3.3C84.5,50,86,48.5,88,48.5L88,48.5z"/>
<path fill="#808083" d="M95.4,60.4h6.1l1.9-7.4c0.2-0.7,0.3-1.4,0.5-2.1h0.2c-0.1,0.7,0,1.4,0,2.2l1.1,7.3h3.7l3.7-7.7
	c0.3-0.5,0.5-1.1,0.7-1.7h0.1l-0.7,9.5h6.1l-0.1-17.3h-6.4l-3,6.8c-0.3,0.7-0.6,1.5-0.8,2.3h-0.2l-0.9-9.1h-6.5L95.4,60.4L95.4,60.4
	z"/>
<path fill-rule="evenodd" clip-rule="evenodd" fill="#808083" d="M120.1,60.4h6l0.8-5.2h3.2c3.5,0,6.1-2.2,6.6-5.7
	c0.7-4.3-2-6.3-6-6.3h-7.9L120.1,60.4L120.1,60.4z M128.1,47.8h0.6c1,0,2.3,0.1,2.1,1.4c-0.2,1.4-1.4,1.6-2.5,1.6h-0.6L128.1,47.8
	L128.1,47.8z"/>
<path fill-rule="evenodd" clip-rule="evenodd" fill="#808083" d="M140,58.2h4.7l0.2,2.2h6.6l-3.4-17.3h-6.9l-8.7,17.3h6.6L140,58.2
	L140,58.2z M141.8,54.1l2-5.3h0.2c0,0.7,0,1.5,0.1,2.2l0.3,3H141.8L141.8,54.1z"/>
<path fill="#808083" d="M152.4,60.4h6l0.9-5.6c0.2-1.1,0.2-2.3,0.2-3.5h0.2l4.1,9.1h6l2.7-17.3h-6l-0.8,5.2c-0.2,1.5-0.2,3-0.2,4.4
	h-0.2l-4.1-9.6h-6L152.4,60.4L152.4,60.4z"/>
<path fill="#808083" d="M173,43.1l4.5,9.8l-1.2,7.4h6.1l1.2-7.4l7.5-9.8H184l-1.7,2.9c-0.3,0.5-0.6,1.1-0.8,1.6h-0.2l-1.2-4.5H173
	L173,43.1z"/>
<path fill-rule="evenodd" clip-rule="evenodd" fill="#808083" d="M206.2,42.8c-5.2,0-10.1,3.5-11,9c-0.9,5.5,2.9,8.9,8.1,8.9
	c5.3,0,10.1-3.3,11-8.9C215.2,46.3,211.5,42.8,206.2,42.8L206.2,42.8z M205.3,48.5c2,0,3,1.5,2.7,3.4c-0.3,2-1.9,3.3-3.8,3.3
	s-3-1.4-2.7-3.3C201.9,50,203.3,48.5,205.3,48.5L205.3,48.5z"/>
<polygon fill="#808083" points="214.5,60.4 220.9,60.4 221.8,54.3 226.4,54.3 227.1,49.8 222.5,49.8 222.8,48 228,48 228.8,43.1 
	217.3,43.1 214.5,60.4 "/>
<path fill="#808083" d="M161.3,37.3c1.8,1,4.2,1.6,6.4,1.6c3.7,0,7.8-2,8.5-6.2c0.5-2.9-1.2-4.4-3.8-4.9l-1.4-0.3
	c-0.5-0.1-1.2-0.2-1.1-0.8c0.1-0.7,0.9-0.9,1.5-0.9c1.4,0,2.5,0.6,3.4,1.3l2.4-4.4c-1.5-1-3.3-1.5-5.2-1.5c-3.8,0-7.9,2.3-8.5,6.4
	c-0.4,2.7,1.4,4.1,3.8,4.6l1.2,0.2c0.6,0.1,1.4,0.2,1.2,1c-0.1,0.8-1.1,1-1.8,1c-1.4,0-2.7-0.7-3.7-1.6l-0.3-0.3L161.3,37.3
	L161.3,37.3z"/>
<polygon fill="#808083" points="177,38.6 188.8,38.6 189.6,33.9 184.1,33.9 184.4,32.2 189.2,32.2 189.9,27.7 185.1,27.7 
	185.3,26.1 190.6,26.1 191.4,21.4 179.8,21.4 177,38.6 "/>
<path fill-rule="evenodd" clip-rule="evenodd" fill="#808083" d="M190.8,38.6h6.1l0.9-5.5h0.1l1.9,5.5h7.2l-2.9-5.6
	c-0.3-0.5-0.6-0.8-0.9-1l0-0.1c2.5-0.8,3.6-1.9,4.1-4.5c0.7-4.4-2.3-6-6.2-6h-7.6L190.8,38.6L190.8,38.6z M198.9,26.1h0.5
	c1.1,0,2,0.2,1.8,1.5c-0.2,1.3-1.3,1.4-2.3,1.4h-0.4L198.9,26.1L198.9,26.1z"/>
<path fill="#808083" d="M219.9,21.4l-3.5,7.9c-0.4,0.8-0.7,1.7-0.8,2.6h-0.1c0.1-0.9,0.1-1.7,0-2.6l-1-7.9h-6.5l4,17.3h5.3l9.4-17.3
	H219.9L219.9,21.4z"/>
<polygon fill="#808083" points="224.8,38.6 231.1,38.6 233.9,21.4 227.6,21.4 224.8,38.6 "/>
<path fill="#808083" d="M248.9,21.8c-1.3-0.5-2.7-0.7-4.1-0.7c-5.1,0-9.7,4-10.5,9.1c-0.8,4.9,2.5,8.7,7.4,8.7
	c1.1,0,3.5-0.2,4.6-0.7l1.2-6.5c-1.2,1-2.4,1.6-3.8,1.6c-1.9,0-3.3-1.5-3-3.4c0.3-1.9,2.1-3.4,3.9-3.4c1.4,0,2.6,0.8,3.4,1.7
	L248.9,21.8L248.9,21.8z"/>
<polygon fill="#808083" points="248.6,38.6 260.4,38.6 261.1,33.9 255.6,33.9 255.9,32.2 260.7,32.2 261.4,27.7 256.6,27.7 
	256.9,26.1 262.2,26.1 262.9,21.4 251.3,21.4 248.6,38.6 "/>
<path fill-rule="evenodd" clip-rule="evenodd" fill="#808083" d="M66.6,38.9h6l0.8-5.2h3.2c3.5,0,6.1-2.2,6.6-5.7
	c0.7-4.3-2-6.3-6-6.3h-7.9L66.6,38.9L66.6,38.9z M74.6,26.3h0.6c1,0,2.3,0.1,2.1,1.4c-0.2,1.4-1.4,1.6-2.5,1.6h-0.6L74.6,26.3
	L74.6,26.3z"/>
<path fill="#808083" d="M95,21.6l-1.5,9.6c-0.2,1.4-0.4,2.5-2.1,2.5c-1.7,0-1.5-1.2-1.3-2.5l1.5-9.6h-6.3l-1.6,10.2
	c-0.8,5,2,7.3,6.8,7.3c4.8,0,8.4-2.3,9.2-7.3l1.6-10.2H95L95,21.6z"/>
<path fill-rule="evenodd" clip-rule="evenodd" fill="#808083" d="M100.7,38.9h8.5c3,0,6.5-1.2,7.1-4.8c0.3-2.1-0.6-3.5-2.4-4.1
	l0-0.1c1.6-0.5,2.6-2,2.8-3.5c0.6-4-2.7-4.8-6-4.8h-7.3L100.7,38.9L100.7,38.9z M108.2,28.2l0.4-2.5h0.4c0.9,0,2.1-0.1,1.9,1.2
	c-0.2,1.2-1.2,1.3-2.1,1.3H108.2L108.2,28.2z M107.6,31.9h0.6c1,0,2.6,0,2.4,1.4c-0.2,1.4-1.7,1.5-2.7,1.5h-0.7L107.6,31.9
	L107.6,31.9z"/>
<polygon fill="#808083" points="117,38.9 128.6,38.9 129.5,33.4 124.2,33.4 126,21.6 119.8,21.6 117,38.9 "/>
<polygon fill="#808083" points="131.1,38.9 137.4,38.9 140.1,21.6 133.8,21.6 131.1,38.9 "/>
<path fill="#808083" d="M155.6,22.1c-1.3-0.5-2.7-0.7-4.1-0.7c-5.1,0-9.7,4-10.5,9.1c-0.8,4.9,2.5,8.7,7.4,8.7
	c1.1,0,3.5-0.2,4.6-0.7l1.2-6.5c-1.2,1-2.4,1.6-3.8,1.6c-1.9,0-3.3-1.5-3-3.4c0.3-1.9,2.1-3.4,3.9-3.4c1.4,0,2.6,0.8,3.4,1.7
	L155.6,22.1L155.6,22.1z"/>
<path fill-rule="evenodd" clip-rule="evenodd" fill="#808083" d="M71.8,64.5c-5.2,0-10.1,3.5-11,9C60,79,63.7,82.3,69,82.3
	c5.3,0,10.1-3.3,11-8.9C80.8,68,77.1,64.5,71.8,64.5L71.8,64.5z M70.9,70.2c2,0,3,1.5,2.7,3.4c-0.3,2-1.9,3.3-3.8,3.3
	c-1.9,0-3-1.4-2.7-3.3C67.5,71.7,68.9,70.2,70.9,70.2L70.9,70.2z"/>
<path fill="#808083" d="M80.4,82h6.1l1-7.2h0.1c0,0.7,0.5,1.4,0.7,2l2.2,5.2h7.3l-4.6-8.9l6.7-8.4h-6.8l-3.9,5.5
	c-0.4,0.6-0.9,1.2-1.2,1.9h-0.1l1.3-7.5h-6.1L80.4,82L80.4,82z"/>
<polygon fill="#808083" points="98.9,82 110.4,82 111.3,76.5 106,76.5 107.9,64.8 101.6,64.8 98.9,82 "/>
<path fill-rule="evenodd" clip-rule="evenodd" fill="#808083" d="M118.2,79.9h4.7l0.2,2.2h6.6l-3.4-17.3h-6.9L110.7,82h6.6
	L118.2,79.9L118.2,79.9z M119.9,75.8l2-5.3h0.2c0,0.7,0,1.5,0.1,2.2l0.3,3H119.9L119.9,75.8z"/>
<polygon fill="#808083" points="131,82 137,82 138,76 141.8,76 140.9,82 146.9,82 149.6,64.8 143.6,64.8 142.7,70.6 138.8,70.6 
	139.7,64.8 133.7,64.8 131,82 "/>
<path fill-rule="evenodd" clip-rule="evenodd" fill="#808083" d="M58.4,53.1c1.6,0,2.8-1.3,2.8-2.8c0-1.6-1.3-2.8-2.8-2.8
	c-1.6,0-2.8,1.3-2.8,2.8C55.5,51.8,56.8,53.1,58.4,53.1z M58.4,47.9c1.3,0,2.4,1,2.4,2.4c0,1.3-1.1,2.4-2.4,2.4
	c-1.3,0-2.4-1-2.4-2.4C56,48.9,57.1,47.9,58.4,47.9z M58.9,50.4c0.4,0,0.9-0.2,0.9-0.9c0-0.7-0.5-0.8-1.1-0.8h-1.3v3.2h0.5v-1.5h0.6
	l0.8,1.5h0.5L58.9,50.4z M58.6,49.1c0.4,0,0.7,0,0.7,0.4c0,0.4-0.6,0.4-1,0.4h-0.5v-0.8H58.6z"/>
<g>
	<polygon fill="#FFFFFF" points="13.5,7.7 59.1,7.7 56.5,26.7 56.1,29.8 53,53.1 7.1,53.1 13.5,7.7 	"/>
	<polygon fill="#EC2024" points="15.8,36.9 20.3,36.9 20.5,39 38,39 38.5,34.4 33.2,34.4 33.5,32.7 38.8,32.7 39.4,28.1 34,28.1 
		34.3,26.2 39.6,26.2 40.2,21.6 28.6,21.6 26.5,37.2 24.2,21.6 16.3,21.6 9.4,36.9 13.5,7.7 59.1,7.7 56.5,26.8 56.4,26 56.2,25.5 
		56,25 55.8,24.6 55.5,24.2 55.2,23.8 54.8,23.5 54.4,23.1 53.9,22.7 53.3,22.4 52.8,22.1 52.1,21.9 51.5,21.8 50.7,21.7 50.4,21.6 
		42,21.6 39.8,39 46.2,39 46.8,33.8 50.6,33.8 51,33.8 52,33.6 52.6,33.4 53.2,33.2 53.7,32.9 54.3,32.5 54.8,32 55.1,31.7 
		55.5,31.1 55.7,30.7 55.9,30.3 56.1,29.8 53,53.1 7.1,53.1 9.1,39 15,39 15.8,36.9 	"/>
	<polygon fill="#EC2024" points="47.8,26.3 47.4,29.4 49,29.4 49.2,29.4 49.5,29.3 49.7,29.1 49.9,28.9 50.1,28.7 50.2,28.3 
		50.3,28 50.4,27.6 50.3,27.3 50.2,26.9 49.9,26.6 49.6,26.4 49.3,26.3 49.1,26.3 47.8,26.3 	"/>
	<polygon fill="#EC2024" points="17.4,32.8 20,32.8 19.5,27.1 17.4,32.8 	"/>
</g>
</svg>
