<?xml version="1.0" encoding="utf-8"?>
<!-- Generator: Adobe Illustrator 17.1.0, SVG Export Plug-In . SVG Version: 6.00 Build 0)  -->
<!DOCTYPE svg PUBLIC "-//W3C//DTD SVG 1.1//EN" "http://www.w3.org/Graphics/SVG/1.1/DTD/svg11.dtd">
<svg version="1.1" id="Layer_1" xmlns="http://www.w3.org/2000/svg" xmlns:xlink="http://www.w3.org/1999/xlink" x="0px" y="0px"
	 viewBox="0 0 670 195" enable-background="new 0 0 670 195" xml:space="preserve">
<path fill-rule="evenodd" clip-rule="evenodd" fill="#808083" d="M385.5,144c-13.1,0-25.3,8.8-27.4,22.4
	c-2.2,13.9,7.2,22.2,20.4,22.2c13.2,0,25.2-8.3,27.4-22.2C408,152.8,398.6,144,385.5,144L385.5,144z M383.3,158.2
	c5,0,7.5,3.8,6.7,8.4c-0.8,4.9-4.6,8.3-9.4,8.3c-4.7,0-7.5-3.4-6.8-8.3C374.6,162,378.3,158.2,383.3,158.2L383.3,158.2z"/>
<path fill="#808083" d="M402.3,187.8h15.2l4.8-18.4c0.4-1.7,0.8-3.5,1.2-5.2h0.5c-0.2,1.8,0,3.6,0.1,5.4l2.7,18.3h9.2l9.3-19.4
	c0.7-1.4,1.2-2.9,1.7-4.3h0.3l-1.6,23.6h15.2l-0.3-43.2h-16l-7.5,16.9c-0.8,1.8-1.4,3.8-2,5.7h-0.4l-2.4-22.7h-16.1L402.3,187.8
	L402.3,187.8z"/>
<path fill-rule="evenodd" clip-rule="evenodd" fill="#808083" d="M481.3,182.5h11.8l0.6,5.4h16.6l-8.6-43.2h-17.3l-21.8,43.2h16.6
	L481.3,182.5L481.3,182.5z M485.7,172.2l5-13.2h0.6c0,1.8,0,3.7,0.1,5.6l0.6,7.6H485.7L485.7,172.2z"/>
<path fill="#808083" d="M517.5,146.1c-0.5-0.9-1.4-1.4-2.4-1.4c-1.4,0-2.7,0.9-2.7,2.4c0,1.3,1,1.9,2,2.4l0.6,0.3
	c0.8,0.3,1.6,0.8,1.6,1.8c0,1-0.7,1.8-1.7,1.8c-1,0-1.8-0.7-1.8-1.8l-1.2,0.2c0.2,1.5,1.4,2.6,2.9,2.6c1.7,0,3-1.2,3-2.9
	c0-1.6-1-2.3-2.3-2.8l-0.7-0.3c-0.6-0.2-1.3-0.6-1.3-1.3c0-0.8,0.8-1.3,1.6-1.3c0.7,0,1.1,0.3,1.5,0.9L517.5,146.1L517.5,146.1z"/>
<polygon fill-rule="evenodd" clip-rule="evenodd" fill="#808083" points="523.4,154.5 526.2,148.2 526.2,148.2 527.3,154.3 
	528.5,154.3 526.6,144.7 523.4,152 520.2,144.7 518.3,154.3 519.5,154.3 520.6,148.2 520.6,148.2 523.4,154.5 "/>
<path fill="#808083" d="M179.9,91.6c-3.1-1.1-6.7-1.8-10.3-1.8c-12.7,0-24.2,10.1-26.1,22.7c-1.9,12.3,6.2,21.9,18.5,21.9
	c2.8,0,8.7-0.5,11.4-1.7l3-16.1c-2.9,2.5-6,4-9.6,4c-4.7,0-8.2-3.7-7.4-8.4c0.7-4.7,5.2-8.4,9.9-8.4c3.5,0,6.4,2,8.5,4.4L179.9,91.6
	L179.9,91.6z"/>
<path fill-rule="evenodd" clip-rule="evenodd" fill="#808083" d="M206.7,89.8c-13.1,0-25.3,8.8-27.4,22.4
	c-2.2,13.9,7.2,22.2,20.4,22.2c13.2,0,25.2-8.3,27.4-22.2C229.2,98.6,219.8,89.8,206.7,89.8L206.7,89.8z M204.5,104
	c5,0,7.5,3.8,6.7,8.4c-0.8,4.9-4.6,8.3-9.4,8.3c-4.8,0-7.5-3.4-6.8-8.3C195.8,107.8,199.5,104,204.5,104L204.5,104z"/>
<path fill="#808083" d="M223,133.6h15.2l4.7-18.4c0.4-1.7,0.8-3.5,1.2-5.2h0.5c-0.2,1.8,0,3.5,0.1,5.4l2.7,18.3h9.2l9.3-19.4
	c0.7-1.4,1.2-2.9,1.7-4.3h0.3l-1.6,23.6h15.2l-0.3-43.2h-16l-7.6,16.9c-0.8,1.8-1.4,3.8-2,5.7h-0.4L253,90.5h-16.1L223,133.6
	L223,133.6z"/>
<path fill-rule="evenodd" clip-rule="evenodd" fill="#808083" d="M284.7,133.6h15.1l2.1-13h8c8.8,0,15.1-5.5,16.5-14.3
	c1.7-10.7-4.9-15.9-15-15.9h-19.9L284.7,133.6L284.7,133.6z M304.8,102.3h1.5c2.6,0,5.8,0.2,5.2,3.6c-0.6,3.5-3.6,4-6.3,4h-1.5
	L304.8,102.3L304.8,102.3z"/>
<path fill-rule="evenodd" clip-rule="evenodd" fill="#808083" d="M334.6,128.3h11.8l0.6,5.4h16.6l-8.6-43.2h-17.3l-21.8,43.2h16.6
	L334.6,128.3L334.6,128.3z M339,118l5-13.2h0.6c0,1.8,0,3.7,0.2,5.6l0.6,7.6H339L339,118z"/>
<path fill="#808083" d="M365.6,133.6h15l2.2-14c0.5-2.9,0.4-5.7,0.4-8.6h0.5l10.2,22.7h15l6.8-43.2h-15l-2,12.9
	c-0.6,3.7-0.5,7.4-0.4,11h-0.5l-10.3-23.9h-15.1L365.6,133.6L365.6,133.6z"/>
<path fill="#808083" d="M417,90.5l11.2,24.6l-2.9,18.6h15.3l2.9-18.6l18.7-24.6h-17.6l-4.2,7.2c-0.8,1.3-1.4,2.7-2.1,4.1h-0.5
	l-3-11.3H417L417,90.5z"/>
<path fill-rule="evenodd" clip-rule="evenodd" fill="#808083" d="M500.1,89.8c-13.1,0-25.3,8.8-27.4,22.4
	c-2.2,13.9,7.2,22.2,20.4,22.2c13.2,0,25.2-8.3,27.4-22.2C522.6,98.6,513.2,89.8,500.1,89.8L500.1,89.8z M497.9,104
	c5,0,7.5,3.8,6.7,8.4c-0.8,4.9-4.6,8.3-9.4,8.3c-4.8,0-7.5-3.4-6.8-8.3C489.2,107.8,492.9,104,497.9,104L497.9,104z"/>
<polygon fill="#808083" points="520.8,133.6 536.7,133.6 539,118.5 550.6,118.5 552.3,107.3 540.8,107.3 541.5,102.8 554.6,102.8 
	556.6,90.5 527.7,90.5 520.8,133.6 "/>
<path fill="#808083" d="M387.7,76.1c4.5,2.5,10.5,4,16,4c9.3,0,19.5-5.1,21.2-15.4c1.2-7.3-3.1-10.9-9.5-12.4l-3.4-0.8
	c-1.2-0.3-3.1-0.5-2.8-2.1c0.3-1.8,2.4-2.3,3.7-2.3c3.4,0,6.2,1.4,8.6,3.3l6-11.1c-3.8-2.6-8.2-3.8-13.1-3.8
	c-9.4,0-19.6,5.7-21.3,16c-1.1,6.8,3.5,10.4,9.5,11.5l3.1,0.6c1.4,0.3,3.4,0.5,3.1,2.4c-0.3,1.9-2.9,2.6-4.4,2.6
	c-3.6,0-6.7-1.8-9.2-3.9l-0.7-0.6L387.7,76.1L387.7,76.1z"/>
<polygon fill="#808083" points="427.1,79.3 456.6,79.3 458.5,67.5 444.8,67.5 445.5,63.3 457.5,63.3 459.3,52.1 447.2,52.1 
	447.9,47.9 461.1,47.9 463,36.1 434,36.1 427.1,79.3 "/>
<path fill-rule="evenodd" clip-rule="evenodd" fill="#808083" d="M461.5,79.3h15.3l2.2-13.9h0.3l4.7,13.9H502l-7.2-14
	c-0.7-1.3-1.5-1.9-2.2-2.6l0.1-0.3c6.2-1.9,9.1-4.7,10.1-11.2c1.7-10.9-5.9-15-15.6-15h-19L461.5,79.3L461.5,79.3z M481.8,47.9h1.2
	c2.7,0,5,0.4,4.4,3.7c-0.5,3.2-3.1,3.6-5.7,3.6h-1.1L481.8,47.9L481.8,47.9z"/>
<path fill="#808083" d="M534.2,36.1l-8.8,19.6c-1,2.1-1.8,4.2-2.1,6.4h-0.3c0.3-2.2,0.2-4.3-0.1-6.4l-2.6-19.6h-16.4l9.9,43.2H527
	l23.6-43.2H534.2L534.2,36.1z"/>
<polygon fill="#808083" points="546.6,79.3 562.3,79.3 569.2,36.1 553.5,36.1 546.6,79.3 "/>
<path fill="#808083" d="M606.8,37.2c-3.1-1.1-6.7-1.8-10.3-1.8c-12.6,0-24.1,10.1-26.1,22.7c-1.9,12.3,6.2,21.9,18.5,21.9
	c2.8,0,8.7-0.5,11.4-1.7l3-16.1c-2.9,2.5-6,4-9.6,4c-4.7,0-8.2-3.7-7.4-8.4c0.7-4.7,5.2-8.4,9.9-8.4c3.6,0,6.4,2,8.5,4.4L606.8,37.2
	L606.8,37.2z"/>
<polygon fill="#808083" points="605.9,79.3 635.4,79.3 637.3,67.5 623.6,67.5 624.3,63.3 636.4,63.3 638.1,52.1 626.1,52.1 
	626.7,47.9 639.9,47.9 641.8,36.1 612.8,36.1 605.9,79.3 "/>
<path fill-rule="evenodd" clip-rule="evenodd" fill="#808083" d="M151,80h15.1l2.1-13h8c8.8,0,15.1-5.5,16.5-14.3
	c1.7-10.7-4.9-15.9-15-15.9h-19.9L151,80L151,80z M171.1,48.6h1.5c2.6,0,5.8,0.2,5.2,3.6c-0.6,3.5-3.6,3.9-6.4,3.9h-1.5L171.1,48.6
	L171.1,48.6z"/>
<path fill="#808083" d="M222,36.8l-3.8,24c-0.5,3.4-1.1,6.4-5.3,6.4c-4.2,0-3.8-3-3.3-6.4l3.8-24h-15.7l-4,25.5
	c-2,12.6,5,18.3,17.1,18.3c12.1,0,20.9-5.7,22.9-18.3l4-25.5H222L222,36.8z"/>
<path fill-rule="evenodd" clip-rule="evenodd" fill="#808083" d="M236.3,80h21.4c7.6,0,16.3-3,17.7-11.9c0.8-5.2-1.6-8.6-6-10.3
	l0.1-0.3c4-1.2,6.4-4.9,7-8.7c1.6-9.9-6.6-12-15-12h-18.3L236.3,80L236.3,80z M255.1,53.4l1-6.1h1.1c2.3,0,5.2-0.2,4.7,2.9
	c-0.5,2.9-3.1,3.2-5.4,3.2H255.1L255.1,53.4z M253.6,62.5h1.5c2.5,0,6.5-0.1,6,3.6c-0.6,3.6-4.3,3.6-6.9,3.6h-1.8L253.6,62.5
	L253.6,62.5z"/>
<polygon fill="#808083" points="277.1,80 306,80 308.2,66.1 295,66.1 299.6,36.8 283.9,36.8 277.1,80 "/>
<polygon fill="#808083" points="312.3,80 327.9,80 334.8,36.8 319.1,36.8 312.3,80 "/>
<path fill="#808083" d="M373.5,37.9c-3.1-1.1-6.7-1.8-10.3-1.8c-12.6,0-24.1,10.1-26.1,22.7c-1.9,12.3,6.2,21.9,18.5,21.9
	c2.8,0,8.7-0.5,11.4-1.7l3-16.1c-2.9,2.5-6,4-9.6,4c-4.7,0-8.2-3.7-7.4-8.4c0.7-4.7,5.2-8.4,9.9-8.4c3.6,0,6.4,2,8.5,4.3L373.5,37.9
	L373.5,37.9z"/>
<path fill-rule="evenodd" clip-rule="evenodd" fill="#808083" d="M164.1,144c-13.1,0-25.3,8.8-27.4,22.4
	c-2.2,13.9,7.2,22.2,20.4,22.2c13.2,0,25.2-8.3,27.4-22.2C186.6,152.8,177.2,144,164.1,144L164.1,144z M161.9,158.2
	c5,0,7.5,3.8,6.7,8.4c-0.8,4.9-4.6,8.3-9.4,8.3s-7.5-3.4-6.8-8.3C153.2,162,156.9,158.2,161.9,158.2L161.9,158.2z"/>
<path fill="#808083" d="M185.5,187.8h15.3l2.5-18.1h0.3c0.1,1.8,1.2,3.4,1.8,5l5.4,13.1h18.2l-11.4-22.2l16.8-21h-17.1l-9.8,13.9
	c-1.1,1.5-2.3,3.1-2.9,4.9h-0.3l3.3-18.7h-15.3L185.5,187.8L185.5,187.8z"/>
<polygon fill="#808083" points="231.7,187.8 260.6,187.8 262.8,174 249.6,174 254.2,144.7 238.5,144.7 231.7,187.8 "/>
<path fill-rule="evenodd" clip-rule="evenodd" fill="#808083" d="M279.9,182.5h11.9l0.6,5.4H309l-8.6-43.2H283l-21.8,43.2h16.6
	L279.9,182.5L279.9,182.5z M284.4,172.2l4.9-13.2h0.6c0,1.8,0,3.7,0.2,5.6l0.6,7.6H284.4L284.4,172.2z"/>
<polygon fill="#808083" points="311.9,187.8 327,187.8 329.4,172.8 339,172.8 336.7,187.8 351.8,187.8 358.6,144.7 343.5,144.7 
	341.2,159.2 331.6,159.2 333.9,144.7 318.8,144.7 311.9,187.8 "/>
<path fill-rule="evenodd" clip-rule="evenodd" fill="#808083" d="M130.5,115.5c4,0,7.1-3.1,7.1-7.1c0-4-3.1-7.1-7.1-7.1
	c-4,0-7.1,3.1-7.1,7.1C123.4,112.4,126.5,115.5,130.5,115.5z M130.5,102.5c3.3,0,6,2.6,6,5.9c0,3.4-2.7,6-6,6c-3.3,0-6-2.6-6-6
	C124.5,105.1,127.3,102.5,130.5,102.5z M131.7,108.8c1.1,0,2.1-0.6,2.1-2.2c0-1.7-1.3-2.1-2.7-2.1h-3.4v8h1.2v-3.7h1.5l2,3.7h1.3
	L131.7,108.8z M130.9,105.6c1,0,1.8,0.1,1.8,1.1c0,1.1-1.5,0.9-2.6,0.9h-1.2v-2H130.9z"/>
<g>
	<polygon fill="#FFFFFF" points="18.2,2 132.4,2 125.7,49.6 124.7,57.2 117,115.5 2.2,115.5 18.2,2 	"/>
	<polygon fill="#EC2024" points="24.1,74.9 35.3,74.9 35.7,80.2 79.4,80.2 80.9,68.8 67.6,68.8 68.2,64.6 81.4,64.6 82.9,53 
		69.6,53 70.3,48.3 83.5,48.3 85,36.9 55.9,36.9 50.8,75.8 45.1,36.9 25.2,36.9 7.9,75.1 18.2,2 132.4,2 125.7,49.6 125.4,47.9 
		125,46.4 124.6,45.4 124,44.3 123.2,43.2 122.5,42.3 121.6,41.4 120.5,40.4 119.2,39.5 117.9,38.8 116.5,38.1 114.8,37.5 
		113.2,37.2 111.2,36.9 110.4,36.9 89.6,36.9 83.9,80.2 99.9,80.2 101.6,67.4 110.9,67.4 112.1,67.3 114.6,66.9 116.1,66.4 
		117.6,65.7 118.9,65 120.1,64.1 121.5,62.8 122.2,62 123.2,60.6 123.8,59.6 124.3,58.5 124.7,57.2 117,115.5 2.2,115.5 7.2,80.2 
		22.1,80.2 24.1,74.9 	"/>
	<polygon fill="#EC2024" points="104.1,48.4 103,56.3 106.9,56.3 107.6,56.1 108.2,55.9 108.7,55.6 109.2,55 109.7,54.4 110.1,53.6 
		110.3,52.7 110.4,51.8 110.3,51 110,50 109.3,49.1 108.6,48.7 107.8,48.4 107.3,48.4 104.1,48.4 	"/>
	<polygon fill="#EC2024" points="27.9,64.8 34.4,64.8 33.4,50.6 27.9,64.8 	"/>
</g>
</svg>
