<?xml version="1.0" encoding="utf-8"?>
<!-- Generator: Adobe Illustrator 17.1.0, SVG Export Plug-In . SVG Version: 6.00 Build 0)  -->
<!DOCTYPE svg PUBLIC "-//W3C//DTD SVG 1.1//EN" "http://www.w3.org/Graphics/SVG/1.1/DTD/svg11.dtd">
<svg version="1.1" id="Layer_1" xmlns="http://www.w3.org/2000/svg" xmlns:xlink="http://www.w3.org/1999/xlink" x="0px" y="0px"
	 viewBox="0 0 670 195" enable-background="new 0 0 670 195" xml:space="preserve">
<g>
	<polygon fill="#FFFFFF" points="18,2 132.1,2 125.5,49.6 124.5,57.2 116.8,115.5 2,115.5 18,2 	"/>
	<polygon fill="#EA2427" points="23.9,74.9 35,74.9 35.4,80.2 79.2,80.2 80.6,68.8 67.3,68.8 67.9,64.6 81.2,64.6 82.7,53 69.4,53 
		70,48.3 83.3,48.3 84.8,36.9 55.7,36.9 50.6,75.8 44.8,36.9 25,36.9 7.7,75.1 18,2 132.1,2 125.4,49.6 125.2,47.9 124.8,46.4 
		124.3,45.4 123.7,44.3 123,43.2 122.3,42.3 121.4,41.4 120.3,40.4 118.9,39.5 117.6,38.8 116.3,38.1 114.6,37.5 113,37.2 111,36.9 
		110.2,36.9 89.4,36.9 83.7,80.2 99.7,80.2 101.3,67.4 110.7,67.4 111.8,67.3 114.4,66.9 115.9,66.4 117.4,65.7 118.6,65 
		119.9,64.1 121.3,62.8 122,62 123,60.6 123.6,59.6 124,58.5 124.5,57.2 116.8,115.5 2,115.5 7,80.2 21.9,80.2 23.9,74.9 	"/>
	<polygon fill="#EA2427" points="103.8,48.4 102.8,56.3 106.7,56.3 107.4,56.1 107.9,55.9 108.5,55.6 109,55 109.5,54.4 109.9,53.6 
		110.1,52.7 110.2,51.8 110,51 109.7,50 109,49.1 108.4,48.7 107.6,48.4 107,48.4 103.8,48.4 	"/>
	<polygon fill="#EA2427" points="27.7,64.8 34.2,64.8 33.1,50.6 27.7,64.8 	"/>
</g>
<path fill-rule="evenodd" clip-rule="evenodd" fill="#808083" d="M146.8,76.9c4.5,2.5,10.6,4,16.1,4c9.4,0,19.6-5.1,21.3-15.5
	c1.2-7.4-3.1-10.9-9.5-12.4l-3.4-0.8c-1.2-0.3-3.1-0.5-2.8-2.1c0.3-1.8,2.4-2.3,3.8-2.3c3.4,0,6.2,1.4,8.6,3.3l6-11.1
	c-3.9-2.6-8.2-3.8-13.2-3.8c-9.4,0-19.7,5.8-21.4,16.1c-1.1,6.8,3.5,10.4,9.5,11.5l3.1,0.6c1.4,0.3,3.4,0.5,3.1,2.4
	c-0.3,2-2.9,2.6-4.4,2.6c-3.6,0-6.7-1.8-9.2-4l-0.7-0.6L146.8,76.9z"/>
<path fill-rule="evenodd" clip-rule="evenodd" fill="#808083" d="M214.4,36c-13.2,0-25.4,8.9-27.6,22.5
	c-2.2,13.9,7.2,22.3,20.5,22.3c13.3,0,25.3-8.4,27.6-22.3C237,44.9,227.6,36,214.4,36z M212.1,50.3c5,0,7.5,3.9,6.8,8.5
	c-0.8,5-4.7,8.4-9.4,8.4s-7.6-3.4-6.8-8.4C203.4,54.2,207.1,50.3,212.1,50.3z"/>
<path fill-rule="evenodd" clip-rule="evenodd" fill="#808083" d="M265.1,36.7l-3.8,24.2c-0.5,3.4-1.1,6.4-5.3,6.4
	c-4.2,0-3.8-3-3.3-6.4l3.8-24.2h-15.8l-4.1,25.7c-2,12.7,5,18.4,17.2,18.4c12.2,0,21-5.8,23-18.4l4.1-25.7H265.1z"/>
<polygon fill-rule="evenodd" clip-rule="evenodd" fill="#808083" points="282.6,50.8 291.4,50.4 286.7,80.2 302.5,80.2 307.2,50.4 
	315.8,50.8 318.1,36.7 284.9,36.7 "/>
<polygon fill-rule="evenodd" clip-rule="evenodd" fill="#808083" points="315.3,80.2 330.5,80.2 332.9,65.1 342.6,65.1 340.2,80.2 
	355.4,80.2 362.3,36.7 347.1,36.7 344.8,51.4 335.1,51.4 337.4,36.7 322.2,36.7 "/>
<path fill-rule="evenodd" clip-rule="evenodd" fill="#808083" d="M363.1,36.7l8.3,43.4h13.4l7.1-17.1c0.9-2.1,1.3-4.3,1.8-6.6h0.5
	l1.2,23.6h13.8l22.2-43.4h-16.4L407.8,55c-1,2.5-1.7,5.1-2.3,7.7h-0.3l-1.8-25.9h-12.1l-7.4,17.9c-1.1,2.6-1.9,5.4-2.6,8h-0.3
	l-1.4-25.9H363.1z"/>
<polygon fill-rule="evenodd" clip-rule="evenodd" fill="#808083" points="426.5,80.2 456.2,80.2 458.1,68.3 444.3,68.3 445,64 
	457.2,64 458.9,52.7 446.8,52.7 447.4,48.6 460.7,48.6 462.6,36.7 433.4,36.7 "/>
<path fill-rule="evenodd" clip-rule="evenodd" fill="#808083" d="M459.8,76.9c4.5,2.5,10.6,4,16.1,4c9.4,0,19.6-5.1,21.3-15.5
	c1.2-7.4-3.1-10.9-9.5-12.4l-3.4-0.8c-1.2-0.3-3.1-0.5-2.8-2.1c0.3-1.8,2.4-2.3,3.8-2.3c3.4,0,6.2,1.4,8.6,3.3l6-11.1
	c-3.9-2.6-8.2-3.8-13.2-3.8c-9.4,0-19.7,5.8-21.4,16.1c-1.1,6.8,3.5,10.4,9.5,11.5l3.1,0.6c1.4,0.3,3.4,0.5,3.1,2.4
	c-0.3,2-2.9,2.6-4.4,2.6c-3.6,0-6.7-1.8-9.2-4l-0.7-0.6L459.8,76.9z"/>
<polygon fill-rule="evenodd" clip-rule="evenodd" fill="#808083" points="500.9,50.8 509.7,50.4 505,80.2 520.8,80.2 525.5,50.4 
	534.1,50.8 536.4,36.7 503.2,36.7 "/>
<polygon fill-rule="evenodd" clip-rule="evenodd" fill="#808083" points="533.4,80.2 563,80.2 564.9,68.3 551.2,68.3 551.8,64 
	564,64 565.8,52.7 553.6,52.7 554.3,48.6 567.6,48.6 569.5,36.7 540.3,36.7 "/>
<path fill-rule="evenodd" clip-rule="evenodd" fill="#808083" d="M566.5,80.2h15.4l2.2-13.9h0.3l4.7,13.9h18.2l-7.2-14.1
	c-0.7-1.3-1.5-2-2.2-2.6l0.1-0.3c6.2-2,9.2-4.7,10.2-11.3c1.7-10.9-5.9-15.1-15.7-15.1h-19.1L566.5,80.2z M586.9,48.6h1.2
	c2.7,0,5,0.4,4.5,3.7c-0.5,3.2-3.2,3.6-5.8,3.6h-1.1L586.9,48.6z"/>
<path fill-rule="evenodd" clip-rule="evenodd" fill="#808083" d="M609.8,80.2h15.1l2.2-14.1c0.5-2.9,0.4-5.7,0.4-8.7h0.5l10.3,22.8
	h15.1l6.9-43.4h-15.1l-2.1,13c-0.6,3.7-0.5,7.4-0.4,11.1h-0.5l-10.4-24.1h-15.1L609.8,80.2z"/>
<path fill-rule="evenodd" clip-rule="evenodd" fill="#808083" d="M442.2,134.6h15.2l2.1-13.1h8.1c8.8,0,15.2-5.5,16.6-14.4
	c1.7-10.8-5-16-15.1-16h-20L442.2,134.6z M462.5,103h1.5c2.6,0,5.8,0.2,5.3,3.6c-0.6,3.5-3.6,4-6.4,4h-1.6L462.5,103z"/>
<path fill-rule="evenodd" clip-rule="evenodd" fill="#808083" d="M508.2,90.4c-13.2,0-25.4,8.9-27.6,22.5
	c-2.2,13.9,7.2,22.3,20.5,22.3c13.3,0,25.4-8.4,27.6-22.3C530.8,99.3,521.4,90.4,508.2,90.4z M505.9,104.7c5,0,7.5,3.9,6.8,8.5
	c-0.8,5-4.7,8.4-9.4,8.4c-4.8,0-7.6-3.4-6.8-8.4C497.2,108.6,500.9,104.7,505.9,104.7z"/>
<path fill-rule="evenodd" clip-rule="evenodd" fill="#808083" d="M526.6,91.1l8.3,43.5h13.4l7.1-17.1c0.9-2.1,1.3-4.3,1.8-6.6h0.5
	l1.2,23.6h13.8L595,91.1h-16.4l-7.3,18.3c-1,2.5-1.7,5.1-2.3,7.7h-0.3l-1.8-25.9h-12.1l-7.4,17.9c-1.1,2.6-1.9,5.4-2.6,8h-0.3
	L543,91.1H526.6z"/>
<polygon fill-rule="evenodd" clip-rule="evenodd" fill="#808083" points="590.7,134.6 620.4,134.6 622.3,122.7 608.5,122.7 
	609.2,118.4 621.3,118.4 623.1,107.1 610.9,107.1 611.6,103 624.9,103 626.8,91.1 597.6,91.1 "/>
<path fill-rule="evenodd" clip-rule="evenodd" fill="#808083" d="M624.4,134.6h15.4l2.2-13.9h0.3l4.7,13.9h18.2l-7.2-14.1
	c-0.7-1.3-1.5-2-2.2-2.6l0.1-0.3c6.2-2,9.2-4.7,10.2-11.3c1.7-11-5.9-15.1-15.7-15.1h-19.1L624.4,134.6z M644.8,103h1.2
	c2.7,0,5,0.4,4.5,3.7c-0.5,3.2-3.2,3.6-5.8,3.6h-1.1L644.8,103z"/>
<polygon fill-rule="evenodd" clip-rule="evenodd" fill="#808083" points="141.9,134.6 171.5,134.6 173.4,122.7 159.7,122.7 
	160.3,118.4 172.5,118.4 174.3,107.1 162.1,107.1 162.8,103 176.1,103 178,91.1 148.8,91.1 "/>
<polygon fill-rule="evenodd" clip-rule="evenodd" fill="#808083" points="177.4,134.6 206.4,134.6 208.7,120.6 195.4,120.6 
	200.1,91.1 184.3,91.1 "/>
<polygon fill-rule="evenodd" clip-rule="evenodd" fill="#808083" points="209.9,134.6 239.6,134.6 241.4,122.7 227.7,122.7 
	228.3,118.4 240.5,118.4 242.3,107.1 230.1,107.1 230.8,103 244.1,103 246,91.1 216.8,91.1 "/>
<path fill-rule="evenodd" clip-rule="evenodd" fill="#808083" d="M282.2,92.2c-3.2-1.2-6.7-1.8-10.3-1.8
	c-12.7,0-24.3,10.1-26.3,22.8c-2,12.4,6.2,22,18.6,22c2.8,0,8.8-0.5,11.5-1.7l3-16.2c-2.9,2.5-6.1,4-9.7,4c-4.7,0-8.2-3.7-7.5-8.5
	c0.7-4.7,5.2-8.5,9.9-8.5c3.6,0,6.4,2,8.6,4.4L282.2,92.2z"/>
<polygon fill-rule="evenodd" clip-rule="evenodd" fill="#808083" points="282.5,105.2 291.3,104.8 286.6,134.6 302.3,134.6 
	307.1,104.8 315.7,105.2 317.9,91.1 284.7,91.1 "/>
<path fill-rule="evenodd" clip-rule="evenodd" fill="#808083" d="M314.6,134.6H330l2.2-13.9h0.3l4.7,13.9h18.2l-7.2-14.1
	c-0.7-1.3-1.5-2-2.2-2.6l0.1-0.3c6.2-2,9.2-4.7,10.2-11.3c1.7-10.9-5.9-15.1-15.7-15.1h-19.1L314.6,134.6z M335,103h1.2
	c2.7,0,5,0.4,4.5,3.7c-0.5,3.2-3.2,3.6-5.8,3.6h-1.1L335,103z"/>
<polygon fill-rule="evenodd" clip-rule="evenodd" fill="#808083" points="356.4,134.6 372.1,134.6 379,91.1 363.2,91.1 "/>
<path fill-rule="evenodd" clip-rule="evenodd" fill="#808083" d="M416,92.2c-3.2-1.2-6.7-1.8-10.3-1.8c-12.7,0-24.3,10.1-26.3,22.8
	c-2,12.4,6.2,22,18.6,22c2.8,0,8.8-0.5,11.5-1.7l3-16.2c-2.9,2.5-6.1,4-9.7,4c-4.7,0-8.2-3.7-7.5-8.5c0.7-4.7,5.2-8.5,9.9-8.5
	c3.6,0,6.4,2,8.6,4.4L416,92.2z"/>
<path fill-rule="evenodd" clip-rule="evenodd" fill="#808083" d="M129.5,115.5c4,0,7.2-3.2,7.2-7.1c0-4-3.2-7.1-7.2-7.1
	c-4,0-7.2,3.2-7.2,7.1C122.4,112.4,125.6,115.5,129.5,115.5z M129.5,102.4c3.3,0,6,2.6,6,6c0,3.4-2.7,6-6,6c-3.3,0-6-2.6-6-6
	C123.6,105,126.3,102.4,129.5,102.4z M130.8,108.7c1.1,0,2.1-0.6,2.1-2.2c0-1.7-1.3-2.1-2.8-2.1h-3.4v8h1.2v-3.7h1.5l2.1,3.7h1.3
	L130.8,108.7z M129.9,105.6c1,0,1.8,0.1,1.8,1.1c0,1.1-1.5,0.9-2.6,0.9h-1.2v-2H129.9z"/>
<path fill-rule="evenodd" clip-rule="evenodd" fill="#808083" d="M173.5,146.6c-3.2-1.1-6.7-1.8-10.3-1.8
	c-12.7,0-24.2,10.1-26.2,22.7c-2,12.3,6.2,21.9,18.5,21.9c2.8,0,8.8-0.5,11.5-1.7l3-16.2c-2.9,2.5-6,4-9.7,4c-4.7,0-8.2-3.7-7.4-8.4
	c0.7-4.7,5.2-8.4,9.9-8.4c3.6,0,6.4,2,8.6,4.4L173.5,146.6z"/>
<path fill-rule="evenodd" clip-rule="evenodd" fill="#808083" d="M200.4,144.8c-13.2,0-25.4,8.8-27.5,22.5
	c-2.2,13.9,7.2,22.2,20.4,22.2c13.2,0,25.3-8.3,27.5-22.2C222.9,153.7,213.5,144.8,200.4,144.8z M198.1,159.1c5,0,7.5,3.8,6.8,8.4
	c-0.8,4.9-4.7,8.3-9.4,8.3c-4.8,0-7.6-3.4-6.8-8.3C189.4,162.9,193.1,159.1,198.1,159.1z"/>
<path fill-rule="evenodd" clip-rule="evenodd" fill="#808083" d="M216.7,188.8h15.2l4.8-18.5c0.4-1.7,0.8-3.5,1.2-5.2h0.5
	c-0.2,1.8,0,3.6,0.1,5.4l2.7,18.3h9.2l9.3-19.4c0.7-1.4,1.2-2.9,1.7-4.3h0.3l-1.6,23.7h15.2l-0.3-43.3h-16l-7.6,17
	c-0.8,1.8-1.4,3.8-2,5.7h-0.4l-2.4-22.7h-16.2L216.7,188.8z"/>
<path fill-rule="evenodd" clip-rule="evenodd" fill="#808083" d="M278.6,188.8h15.2l2.1-13h8c8.8,0,15.2-5.5,16.6-14.4
	c1.7-10.7-4.9-15.9-15.1-15.9h-19.9L278.6,188.8z M298.8,157.3h1.5c2.6,0,5.8,0.2,5.2,3.6c-0.6,3.5-3.6,4-6.4,4h-1.6L298.8,157.3z"
	/>
<path fill-rule="evenodd" clip-rule="evenodd" fill="#808083" d="M328.7,183.4h11.9l0.6,5.4h16.7l-8.6-43.3h-17.4l-21.9,43.3h16.7
	L328.7,183.4z M333.1,173.1l5-13.2h0.6c0,1.8,0,3.7,0.2,5.6l0.6,7.6H333.1z"/>
<path fill-rule="evenodd" clip-rule="evenodd" fill="#808083" d="M359.7,188.8h15.1l2.2-14.1c0.5-2.9,0.4-5.7,0.4-8.7h0.5l10.2,22.7
	h15l6.9-43.3h-15l-2.1,13c-0.6,3.7-0.5,7.4-0.4,11H392l-10.3-24h-15.1L359.7,188.8z"/>
<path fill-rule="evenodd" clip-rule="evenodd" fill="#808083" d="M411.3,145.5l11.2,24.6l-3,18.7h15.4l3-18.7l18.7-24.6h-17.7
	l-4.2,7.2c-0.8,1.3-1.4,2.7-2.1,4.1h-0.5l-3-11.3H411.3z"/>
<path fill-rule="evenodd" clip-rule="evenodd" fill="#808083" d="M464.9,146.8c-0.5-0.9-1.4-1.4-2.4-1.4c-1.4,0-2.7,0.9-2.7,2.4
	c0,1.3,1,1.9,2,2.4l0.6,0.3c0.8,0.3,1.6,0.8,1.6,1.8c0,1-0.7,1.8-1.7,1.8s-1.8-0.7-1.8-1.8l-1.2,0.2c0.2,1.5,1.4,2.6,2.9,2.6
	c1.7,0,3-1.2,3-2.9c0-1.6-1-2.3-2.3-2.8l-0.7-0.3c-0.6-0.2-1.3-0.6-1.3-1.3c0-0.8,0.8-1.3,1.6-1.3c0.7,0,1.2,0.3,1.5,0.9
	L464.9,146.8z"/>
<polygon fill-rule="evenodd" clip-rule="evenodd" fill="#808083" points="470.8,155.1 473.6,148.8 473.6,148.8 474.7,154.9 
	475.9,154.9 474,145.2 470.8,152.6 467.6,145.2 465.7,154.9 466.9,154.9 468,148.8 468,148.8 "/>
</svg>
