<?xml version="1.0" encoding="utf-8"?>
<!-- Generator: Adobe Illustrator 17.1.0, SVG Export Plug-In . SVG Version: 6.00 Build 0)  -->
<!DOCTYPE svg PUBLIC "-//W3C//DTD SVG 1.1//EN" "http://www.w3.org/Graphics/SVG/1.1/DTD/svg11.dtd">
<svg version="1.1" id="swepco_logo" xmlns="http://www.w3.org/2000/svg" xmlns:xlink="http://www.w3.org/1999/xlink" x="0px" y="0px"
	 viewBox="0 0 270 90" enable-background="new 0 0 270 90" xml:space="preserve">
<g>
	<polygon fill="#FFFFFF" points="8.5,7.2 54.2,7.2 51.5,26.3 51.1,29.3 48.1,52.6 2.1,52.6 8.5,7.2 	"/>
	<polygon fill="#EA2427" points="10.9,36.4 15.4,36.4 15.5,38.5 33,38.5 33.6,33.9 28.3,33.9 28.5,32.2 33.8,32.2 34.4,27.6 
		29.1,27.6 29.4,25.8 34.7,25.8 35.3,21.2 23.6,21.2 21.6,36.7 19.3,21.2 11.3,21.2 4.4,36.5 8.5,7.2 54.2,7.2 51.5,26.3 51.4,25.6 
		51.3,25 51.1,24.6 50.8,24.1 50.5,23.7 50.2,23.3 49.9,23 49.4,22.6 48.9,22.2 48.4,21.9 47.8,21.7 47.2,21.4 46.5,21.3 45.7,21.2 
		45.4,21.2 37.1,21.2 34.8,38.5 41.2,38.5 41.9,33.4 45.6,33.4 46.1,33.4 47.1,33.2 47.7,33 48.3,32.7 48.8,32.4 49.3,32.1 
		49.8,31.6 50.1,31.2 50.5,30.7 50.8,30.3 51,29.8 51.1,29.3 48.1,52.6 2.1,52.6 4.1,38.5 10.1,38.5 10.9,36.4 	"/>
	<polygon fill="#EA2427" points="42.9,25.8 42.5,28.9 44,28.9 44.3,28.9 44.5,28.8 44.7,28.7 44.9,28.4 45.1,28.2 45.3,27.9 
		45.4,27.5 45.4,27.1 45.4,26.8 45.2,26.4 44.9,26.1 44.7,25.9 44.4,25.8 44.1,25.8 42.9,25.8 	"/>
	<polygon fill="#EA2427" points="12.4,32.3 15,32.3 14.6,26.6 12.4,32.3 	"/>
</g>
<path fill-rule="evenodd" clip-rule="evenodd" fill="#808083" d="M60.1,37.2c1.8,1,4.2,1.6,6.4,1.6c3.8,0,7.9-2.1,8.5-6.2
	c0.5-2.9-1.2-4.4-3.8-5l-1.4-0.3c-0.5-0.1-1.2-0.2-1.1-0.9c0.1-0.7,1-0.9,1.5-0.9c1.4,0,2.5,0.6,3.5,1.3l2.4-4.4
	c-1.5-1-3.3-1.5-5.3-1.5c-3.8,0-7.9,2.3-8.6,6.4c-0.4,2.7,1.4,4.2,3.8,4.6l1.2,0.2c0.6,0.1,1.4,0.2,1.3,1c-0.1,0.8-1.2,1-1.8,1
	c-1.5,0-2.7-0.7-3.7-1.6l-0.3-0.3L60.1,37.2z"/>
<path fill-rule="evenodd" clip-rule="evenodd" fill="#808083" d="M87.1,20.8c-5.3,0-10.2,3.5-11,9c-0.9,5.6,2.9,8.9,8.2,8.9
	c5.3,0,10.1-3.3,11-8.9C96.1,24.4,92.4,20.8,87.1,20.8z M86.2,26.6c2,0,3,1.5,2.7,3.4c-0.3,2-1.9,3.3-3.8,3.3s-3-1.4-2.7-3.3
	C82.7,28.1,84.2,26.6,86.2,26.6z"/>
<path fill-rule="evenodd" clip-rule="evenodd" fill="#808083" d="M107.4,21.1l-1.5,9.7c-0.2,1.4-0.5,2.6-2.1,2.6
	c-1.7,0-1.5-1.2-1.3-2.6l1.5-9.7h-6.3L96,31.4c-0.8,5.1,2,7.4,6.9,7.4c4.9,0,8.4-2.3,9.2-7.4l1.6-10.3H107.4z"/>
<polygon fill-rule="evenodd" clip-rule="evenodd" fill="#808083" points="114.4,26.8 117.9,26.6 116,38.5 122.3,38.5 124.2,26.6 
	127.7,26.8 128.6,21.1 115.3,21.1 "/>
<polygon fill-rule="evenodd" clip-rule="evenodd" fill="#808083" points="127.5,38.5 133.6,38.5 134.5,32.5 138.4,32.5 137.4,38.5 
	143.5,38.5 146.3,21.1 140.2,21.1 139.2,27 135.4,27 136.3,21.1 130.2,21.1 "/>
<path fill-rule="evenodd" clip-rule="evenodd" fill="#808083" d="M146.6,21.1l3.3,17.4h5.4l2.8-6.8c0.3-0.9,0.5-1.7,0.7-2.6h0.2
	l0.5,9.4h5.5l8.9-17.4h-6.6l-2.9,7.3c-0.4,1-0.7,2.1-0.9,3.1h-0.1l-0.7-10.4h-4.8l-3,7.2c-0.4,1-0.8,2.1-1,3.2h-0.1l-0.5-10.4H146.6
	z"/>
<polygon fill-rule="evenodd" clip-rule="evenodd" fill="#808083" points="172,38.5 183.8,38.5 184.6,33.7 179.1,33.7 179.3,32 
	184.2,32 184.9,27.5 180.1,27.5 180.3,25.9 185.6,25.9 186.4,21.1 174.7,21.1 "/>
<path fill-rule="evenodd" clip-rule="evenodd" fill="#808083" d="M185.3,37.2c1.8,1,4.2,1.6,6.4,1.6c3.8,0,7.9-2.1,8.5-6.2
	c0.5-2.9-1.2-4.4-3.8-5l-1.4-0.3c-0.5-0.1-1.2-0.2-1.1-0.9c0.1-0.7,1-0.9,1.5-0.9c1.4,0,2.5,0.6,3.5,1.3l2.4-4.4
	c-1.5-1-3.3-1.5-5.3-1.5c-3.8,0-7.9,2.3-8.6,6.4c-0.4,2.7,1.4,4.2,3.8,4.6l1.2,0.2c0.6,0.1,1.4,0.2,1.3,1c-0.1,0.8-1.2,1-1.8,1
	c-1.5,0-2.7-0.7-3.7-1.6l-0.3-0.3L185.3,37.2z"/>
<polygon fill-rule="evenodd" clip-rule="evenodd" fill="#808083" points="201.7,26.8 205.2,26.6 203.3,38.5 209.6,38.5 211.5,26.6 
	215,26.8 215.9,21.1 202.6,21.1 "/>
<polygon fill-rule="evenodd" clip-rule="evenodd" fill="#808083" points="214.7,38.5 226.6,38.5 227.3,33.7 221.8,33.7 222.1,32 
	226.9,32 227.7,27.5 222.8,27.5 223.1,25.9 228.4,25.9 229.1,21.1 217.4,21.1 "/>
<path fill-rule="evenodd" clip-rule="evenodd" fill="#808083" d="M227.9,38.5h6.2l0.9-5.6h0.1l1.9,5.6h7.3l-2.9-5.6
	c-0.3-0.5-0.6-0.8-0.9-1l0-0.1c2.5-0.8,3.7-1.9,4.1-4.5c0.7-4.4-2.4-6-6.3-6h-7.6L227.9,38.5z M236.1,25.9h0.5c1.1,0,2,0.2,1.8,1.5
	c-0.2,1.3-1.3,1.5-2.3,1.5h-0.4L236.1,25.9z"/>
<path fill-rule="evenodd" clip-rule="evenodd" fill="#808083" d="M245.3,38.5h6l0.9-5.6c0.2-1.2,0.2-2.3,0.2-3.5h0.2l4.1,9.1h6
	l2.8-17.4h-6l-0.8,5.2c-0.2,1.5-0.2,3-0.2,4.4h-0.2l-4.1-9.6H248L245.3,38.5z"/>
<path fill-rule="evenodd" clip-rule="evenodd" fill="#808083" d="M178.2,60.3h6.1l0.8-5.2h3.2c3.5,0,6.1-2.2,6.7-5.8
	c0.7-4.3-2-6.4-6-6.4h-8L178.2,60.3z M186.3,47.6h0.6c1,0,2.3,0.1,2.1,1.4c-0.2,1.4-1.5,1.6-2.6,1.6h-0.6L186.3,47.6z"/>
<path fill-rule="evenodd" clip-rule="evenodd" fill="#808083" d="M204.6,42.6c-5.3,0-10.2,3.6-11,9c-0.9,5.6,2.9,8.9,8.2,8.9
	c5.3,0,10.1-3.3,11-8.9C213.7,46.1,209.9,42.6,204.6,42.6z M203.7,48.3c2,0,3,1.5,2.7,3.4c-0.3,2-1.9,3.3-3.8,3.3
	c-1.9,0-3-1.4-2.7-3.3C200.2,49.9,201.7,48.3,203.7,48.3z"/>
<path fill-rule="evenodd" clip-rule="evenodd" fill="#808083" d="M212,42.9l3.3,17.4h5.4l2.8-6.8c0.3-0.9,0.5-1.7,0.7-2.6h0.2
	l0.5,9.5h5.5l8.9-17.4h-6.6l-2.9,7.3c-0.4,1-0.7,2.1-0.9,3.1h-0.1l-0.7-10.4h-4.8l-3,7.2c-0.4,1-0.8,2.1-1,3.2h-0.1l-0.5-10.4H212z"
	/>
<polygon fill-rule="evenodd" clip-rule="evenodd" fill="#808083" points="237.6,60.3 249.5,60.3 250.2,55.5 244.7,55.5 245,53.8 
	249.9,53.8 250.6,49.3 245.7,49.3 246,47.6 251.3,47.6 252.1,42.9 240.4,42.9 "/>
<path fill-rule="evenodd" clip-rule="evenodd" fill="#808083" d="M251.1,60.3h6.2l0.9-5.6h0.1l1.9,5.6h7.3l-2.9-5.6
	c-0.3-0.5-0.6-0.8-0.9-1l0-0.1c2.5-0.8,3.7-1.9,4.1-4.5c0.7-4.4-2.4-6-6.3-6h-7.6L251.1,60.3z M259.3,47.6h0.5c1.1,0,2,0.2,1.8,1.5
	c-0.2,1.3-1.3,1.5-2.3,1.5h-0.4L259.3,47.6z"/>
<polygon fill-rule="evenodd" clip-rule="evenodd" fill="#808083" points="58.1,60.2 70,60.2 70.7,55.5 65.2,55.5 65.5,53.8 
	70.3,53.8 71,49.3 66.2,49.3 66.5,47.6 71.8,47.6 72.5,42.9 60.8,42.9 "/>
<polygon fill-rule="evenodd" clip-rule="evenodd" fill="#808083" points="72.3,60.2 83.9,60.2 84.8,54.7 79.5,54.7 81.4,42.9 
	75.1,42.9 "/>
<polygon fill-rule="evenodd" clip-rule="evenodd" fill="#808083" points="85.3,60.2 97.2,60.2 97.9,55.5 92.4,55.5 92.7,53.8 
	97.5,53.8 98.3,49.3 93.4,49.3 93.7,47.6 99,47.6 99.7,42.9 88,42.9 "/>
<path fill-rule="evenodd" clip-rule="evenodd" fill="#808083" d="M114.2,43.3c-1.3-0.5-2.7-0.7-4.1-0.7c-5.1,0-9.7,4.1-10.5,9.1
	c-0.8,5,2.5,8.8,7.4,8.8c1.1,0,3.5-0.2,4.6-0.7l1.2-6.5c-1.2,1-2.4,1.6-3.9,1.6c-1.9,0-3.3-1.5-3-3.4c0.3-1.9,2.1-3.4,4-3.4
	c1.4,0,2.6,0.8,3.4,1.8L114.2,43.3z"/>
<polygon fill-rule="evenodd" clip-rule="evenodd" fill="#808083" points="114.3,48.5 117.8,48.4 116,60.2 122.3,60.2 124.2,48.4 
	127.6,48.5 128.5,42.9 115.2,42.9 "/>
<path fill-rule="evenodd" clip-rule="evenodd" fill="#808083" d="M127.2,60.2h6.2l0.9-5.6h0.1l1.9,5.6h7.3l-2.9-5.6
	c-0.3-0.5-0.6-0.8-0.9-1l0-0.1c2.5-0.8,3.7-1.9,4.1-4.5c0.7-4.4-2.4-6-6.3-6h-7.6L127.2,60.2z M135.3,47.6h0.5c1.1,0,2,0.2,1.8,1.5
	c-0.2,1.3-1.3,1.5-2.3,1.5h-0.4L135.3,47.6z"/>
<polygon fill-rule="evenodd" clip-rule="evenodd" fill="#808083" points="143.9,60.2 150.2,60.2 152.9,42.9 146.6,42.9 "/>
<path fill-rule="evenodd" clip-rule="evenodd" fill="#808083" d="M167.7,43.3c-1.3-0.5-2.7-0.7-4.1-0.7c-5.1,0-9.7,4.1-10.5,9.1
	c-0.8,5,2.5,8.8,7.4,8.8c1.1,0,3.5-0.2,4.6-0.7l1.2-6.5c-1.2,1-2.4,1.6-3.9,1.6c-1.9,0-3.3-1.5-3-3.4c0.3-1.9,2.1-3.4,4-3.4
	c1.4,0,2.6,0.8,3.4,1.8L167.7,43.3z"/>
<path fill-rule="evenodd" clip-rule="evenodd" fill="#808083" d="M53.2,52.6c1.6,0,2.9-1.3,2.9-2.9c0-1.6-1.3-2.9-2.9-2.9
	s-2.9,1.3-2.9,2.9C50.3,51.4,51.6,52.6,53.2,52.6z M53.2,47.4c1.3,0,2.4,1,2.4,2.4c0,1.3-1.1,2.4-2.4,2.4c-1.3,0-2.4-1-2.4-2.4
	C50.8,48.4,51.9,47.4,53.2,47.4z M53.7,49.9c0.4,0,0.9-0.2,0.9-0.9c0-0.7-0.5-0.8-1.1-0.8h-1.4v3.2h0.5v-1.5h0.6l0.8,1.5h0.5
	L53.7,49.9z M53.3,48.7c0.4,0,0.7,0,0.7,0.4c0,0.4-0.6,0.4-1,0.4h-0.5v-0.8H53.3z"/>
<path fill-rule="evenodd" clip-rule="evenodd" fill="#808083" d="M70.7,65.1c-1.3-0.5-2.7-0.7-4.1-0.7c-5.1,0-9.7,4-10.5,9.1
	c-0.8,4.9,2.5,8.8,7.4,8.8c1.1,0,3.5-0.2,4.6-0.7l1.2-6.5c-1.2,1-2.4,1.6-3.9,1.6c-1.9,0-3.3-1.5-3-3.4c0.3-1.9,2.1-3.4,4-3.4
	c1.4,0,2.6,0.8,3.4,1.7L70.7,65.1z"/>
<path fill-rule="evenodd" clip-rule="evenodd" fill="#808083" d="M81.5,64.4c-5.3,0-10.1,3.5-11,9c-0.9,5.6,2.9,8.9,8.2,8.9
	c5.3,0,10.1-3.3,11-8.9C90.5,67.9,86.7,64.4,81.5,64.4z M80.6,70.1c2,0,3,1.5,2.7,3.4c-0.3,2-1.9,3.3-3.8,3.3c-1.9,0-3-1.4-2.7-3.3
	C77.1,71.6,78.6,70.1,80.6,70.1z"/>
<path fill-rule="evenodd" clip-rule="evenodd" fill="#808083" d="M88,82h6.1l1.9-7.4c0.2-0.7,0.3-1.4,0.5-2.1h0.2
	c-0.1,0.7,0,1.4,0,2.2l1.1,7.3h3.7l3.7-7.8c0.3-0.6,0.5-1.1,0.7-1.7h0.1l-0.7,9.5h6.1l-0.1-17.3H105l-3,6.8
	c-0.3,0.7-0.6,1.5-0.8,2.3H101l-0.9-9.1h-6.5L88,82z"/>
<path fill-rule="evenodd" clip-rule="evenodd" fill="#808083" d="M112.8,82h6.1l0.8-5.2h3.2c3.5,0,6.1-2.2,6.6-5.7
	c0.7-4.3-2-6.4-6-6.4h-8L112.8,82z M120.8,69.4h0.6c1,0,2.3,0.1,2.1,1.4c-0.2,1.4-1.4,1.6-2.5,1.6h-0.6L120.8,69.4z"/>
<path fill-rule="evenodd" clip-rule="evenodd" fill="#808083" d="M132.8,79.8h4.8l0.2,2.2h6.7L141,64.6h-7L125.3,82h6.7L132.8,79.8z
	 M134.6,75.7l2-5.3h0.2c0,0.7,0,1.5,0.1,2.2l0.3,3.1H134.6z"/>
<path fill-rule="evenodd" clip-rule="evenodd" fill="#808083" d="M145.2,82h6l0.9-5.6c0.2-1.1,0.2-2.3,0.2-3.5h0.2l4.1,9.1h6
	l2.7-17.3h-6l-0.8,5.2c-0.2,1.5-0.2,3-0.2,4.4h-0.2l-4.1-9.6h-6L145.2,82z"/>
<path fill-rule="evenodd" clip-rule="evenodd" fill="#808083" d="M165.9,64.6l4.5,9.9l-1.2,7.5h6.2l1.2-7.5l7.5-9.9h-7.1l-1.7,2.9
	c-0.3,0.5-0.6,1.1-0.8,1.6h-0.2l-1.2-4.5H165.9z"/>
<path fill-rule="evenodd" clip-rule="evenodd" fill="#808083" d="M187.3,65.2c-0.2-0.4-0.5-0.6-1-0.6c-0.6,0-1.1,0.4-1.1,1
	c0,0.5,0.4,0.8,0.8,0.9l0.3,0.1c0.3,0.1,0.6,0.3,0.6,0.7c0,0.4-0.3,0.7-0.7,0.7s-0.7-0.3-0.7-0.7l-0.5,0.1c0.1,0.6,0.5,1,1.2,1
	c0.7,0,1.2-0.5,1.2-1.2c0-0.6-0.4-0.9-0.9-1.1l-0.3-0.1c-0.2-0.1-0.5-0.2-0.5-0.5c0-0.3,0.3-0.5,0.6-0.5c0.3,0,0.5,0.1,0.6,0.4
	L187.3,65.2z"/>
<polygon fill-rule="evenodd" clip-rule="evenodd" fill="#808083" points="189.7,68.5 190.8,65.9 190.8,65.9 191.2,68.4 191.7,68.4 
	190.9,64.5 189.7,67.5 188.4,64.5 187.6,68.4 188.1,68.4 188.5,65.9 188.5,65.9 "/>
</svg>
