<?xml version="1.0" encoding="utf-8"?>
<!-- Generator: Adobe Illustrator 17.1.0, SVG Export Plug-In . SVG Version: 6.00 Build 0)  -->
<!DOCTYPE svg PUBLIC "-//W3C//DTD SVG 1.1//EN" "http://www.w3.org/Graphics/SVG/1.1/DTD/svg11.dtd">
<svg version="1.1" id="Layer_1" xmlns="http://www.w3.org/2000/svg" xmlns:xlink="http://www.w3.org/1999/xlink" x="0px" y="0px"
	 viewBox="188 188 24 24" enable-background="new 188 188 24 24" xml:space="preserve">
<rect x="188" y="188" fill="#5DD7FC" width="24" height="24"/>
<path fill="#FFFFFF" d="M188.1,203.7c0,0,3.1,4.7,9.4,4.6c4.1-0.1,9.8-1.9,11.4-7.8c0,0,1.7,0.3,2.8-1c-1.6,0.2-2.7-0.3-2.7-0.3
	s2.1-0.1,2.6-1.3c-1.2,0.5-2.8,0.1-2.8,0.1s-0.7-4.4-5.1-4.6c0,0,2.4-0.5,2-1c-0.3-0.4-1.9,0.3-1.9,0.3s0.9-0.4,0.9-0.8
	c-0.9,0.1-1.8,0.8-1.8,0.8s0.3-0.4,0.3-0.6c-2.2,1.2-3.7,5.8-3.7,5.8s-0.6-0.6-1.5-1.3c-2.2-1.3-6.4-2.9-6.4-2.9s-0.3,1.7,1.9,3
	c-0.9,0.1-1.4,0.2-1.4,0.2s0,1.8,2.6,2.4c-1.2,0-1.6,0.7-1.6,0.7s0.7,1.6,2.9,1.5c-1.8,0.9-0.6,2.2,0.8,2
	C192.2,207.5,188.1,203.7,188.1,203.7z"/>
</svg>
